  0
SECTION
  2
HEADER
  9
$ANGBASE
  50
0.0
  9
$ANGDIR
  70
1
  9
$MEASUREMENT
  70
0
  0
ENDSEC
  0
SECTION
  2
TABLES
  0
TABLE
  2
LTYPE
  70
4
  0
LTYPE
  5
40F
  2
CONTINUOUS
  70
0
  3
Solid line
  72
65
  73
0
  40
0.0
  0
LTYPE
  5
410
  2
DASHDOT
 70
0
  3
Dash Dot ____ _ ____ _
 72
65
 73
4
 40
2.0
 49
1.25
 49
-0.25
 49
0.25
 49
-0.25
  0
LTYPE
  5
411
  2
DASHED
 70
0
  3
Dashed __ __ __ __ __
 72
65
 73
2
 40
0.75
 49
0.5
 49
-0.25
  0
LTYPE
  5
43B
  2
DOTTED
 70
0
  3
Dotted .  .  .  .
 72
65
 73
2
 40
0.2
 49
0.0
 49
-0.2
  0
ENDTAB
  0
TABLE
  2
STYLE
  70
4
  0
STYLE
  2
KICAD
  70
0
  40
0
  41
1
  42
1
  50
0
  71
0
  3
isocp.shx
  0
STYLE
  2
KICADB
  70
0
  40
0
  41
1
  42
1
  50
0
  71
0
  3
isocp.shx
  0
STYLE
  2
KICADI
  70
0
  40
0
  41
1
  42
1
  50
15
  71
0
  3
isocp.shx
  0
STYLE
  2
KICADBI
  70
0
  40
0
  41
1
  42
1
  50
15
  71
0
  3
isocp.shx
  0
ENDTAB
  0
TABLE
  2
LAYER
  70
1
  0
LAYER
  2
BLACK
  70
0
  62
7
  6
CONTINUOUS
  0
ENDTAB
  0
ENDSEC
  0
SECTION
  2
ENTITIES
0
LINE
8
BLACK
6
CONTINUOUS
10
0.4197842125984252
20
0.5164414566929134
11
0.432697125984252
21
0.5134941732283465
0
LINE
8
BLACK
6
CONTINUOUS
10
0.432697125984252
20
0.5134941732283465
11
0.4451988188976378
21
0.5091196456692914
0
LINE
8
BLACK
6
CONTINUOUS
10
0.4451988188976378
20
0.5091196456692914
11
0.4571321653543307
21
0.5033728346456693
0
LINE
8
BLACK
6
CONTINUOUS
10
0.4571321653543307
20
0.5033728346456693
11
0.4683470078740157
21
0.4963261023622047
0
LINE
8
BLACK
6
CONTINUOUS
10
0.4683470078740157
20
0.4963261023622047
11
0.4787023622047244
21
0.4880679527559055
0
LINE
8
BLACK
6
CONTINUOUS
10
0.4787023622047244
20
0.4880679527559055
11
0.4880679527559055
21
0.4787023622047244
0
LINE
8
BLACK
6
CONTINUOUS
10
0.4880679527559055
20
0.4787023622047244
11
0.4963261023622047
21
0.4683470078740157
0
LINE
8
BLACK
6
CONTINUOUS
10
0.4963261023622047
20
0.4683470078740157
11
0.5033728346456693
21
0.4571321653543307
0
LINE
8
BLACK
6
CONTINUOUS
10
0.5033728346456693
20
0.4571321653543307
11
0.5091196456692914
21
0.4451988188976378
0
LINE
8
BLACK
6
CONTINUOUS
10
0.5091196456692914
20
0.4451988188976378
11
0.5134941732283465
21
0.432697125984252
0
LINE
8
BLACK
6
CONTINUOUS
10
0.5134941732283465
20
0.432697125984252
11
0.5164414566929134
21
0.4197842125984252
0
LINE
8
BLACK
6
CONTINUOUS
10
0.5164414566929134
20
0.4197842125984252
11
0.5179244094488189
21
0.4066224803149606
0
LINE
8
BLACK
6
CONTINUOUS
10
0.5179244094488189
20
0.4066224803149606
11
0.5179244094488189
21
0.3933775196850394
0
LINE
8
BLACK
6
CONTINUOUS
10
0.5179244094488189
20
0.3933775196850394
11
0.5164414566929134
21
0.3802157874015748
0
LINE
8
BLACK
6
CONTINUOUS
10
0.5164414566929134
20
0.3802157874015748
11
0.5134941732283465
21
0.367302874015748
0
LINE
8
BLACK
6
CONTINUOUS
10
0.5134941732283465
20
0.367302874015748
11
0.5091196456692914
21
0.3548011811023622
0
LINE
8
BLACK
6
CONTINUOUS
10
0.5091196456692914
20
0.3548011811023622
11
0.5033728346456693
21
0.3428678346456693
0
LINE
8
BLACK
6
CONTINUOUS
10
0.5033728346456693
20
0.3428678346456693
11
0.4963261023622047
21
0.3316529921259843
0
LINE
8
BLACK
6
CONTINUOUS
10
0.4963261023622047
20
0.3316529921259843
11
0.4880679527559055
21
0.3212976377952756
0
LINE
8
BLACK
6
CONTINUOUS
10
0.4880679527559055
20
0.3212976377952756
11
0.4787023622047244
21
0.3119320472440945
0
LINE
8
BLACK
6
CONTINUOUS
10
0.4787023622047244
20
0.3119320472440945
11
0.4683470078740157
21
0.3036738976377953
0
LINE
8
BLACK
6
CONTINUOUS
10
0.4683470078740157
20
0.3036738976377953
11
0.4571321653543307
21
0.2966271653543307
0
LINE
8
BLACK
6
CONTINUOUS
10
0.4571321653543307
20
0.2966271653543307
11
0.4451988188976378
21
0.2908803543307086
0
LINE
8
BLACK
6
CONTINUOUS
10
0.4451988188976378
20
0.2908803543307086
11
0.432697125984252
21
0.2865058267716535
0
LINE
8
BLACK
6
CONTINUOUS
10
0.432697125984252
20
0.2865058267716535
11
0.4197842125984252
21
0.2835585433070866
0
LINE
8
BLACK
6
CONTINUOUS
10
0.4197842125984252
20
0.2835585433070866
11
0.4066224803149606
21
0.2820755905511811
0
LINE
8
BLACK
6
CONTINUOUS
10
0.4066224803149606
20
0.2820755905511811
11
0.3933775196850394
21
0.2820755905511811
0
LINE
8
BLACK
6
CONTINUOUS
10
0.3933775196850394
20
0.2820755905511811
11
0.3802157874015748
21
0.2835585433070866
0
LINE
8
BLACK
6
CONTINUOUS
10
0.3802157874015748
20
0.2835585433070866
11
0.367302874015748
21
0.2865058267716535
0
LINE
8
BLACK
6
CONTINUOUS
10
0.367302874015748
20
0.2865058267716535
11
0.3548011811023622
21
0.2908803543307086
0
LINE
8
BLACK
6
CONTINUOUS
10
0.3548011811023622
20
0.2908803543307086
11
0.3428678346456693
21
0.2966271653543307
0
LINE
8
BLACK
6
CONTINUOUS
10
0.3428678346456693
20
0.2966271653543307
11
0.3316529921259843
21
0.3036738976377953
0
LINE
8
BLACK
6
CONTINUOUS
10
0.3316529921259843
20
0.3036738976377953
11
0.3212976377952756
21
0.3119320472440945
0
LINE
8
BLACK
6
CONTINUOUS
10
0.3212976377952756
20
0.3119320472440945
11
0.3119320472440945
21
0.3212976377952756
0
LINE
8
BLACK
6
CONTINUOUS
10
0.3119320472440945
20
0.3212976377952756
11
0.3036738976377953
21
0.3316529921259843
0
LINE
8
BLACK
6
CONTINUOUS
10
0.3036738976377953
20
0.3316529921259843
11
0.2966271653543307
21
0.3428678346456693
0
LINE
8
BLACK
6
CONTINUOUS
10
0.2966271653543307
20
0.3428678346456693
11
0.2908803543307086
21
0.3548011811023622
0
LINE
8
BLACK
6
CONTINUOUS
10
0.2908803543307086
20
0.3548011811023622
11
0.2865058267716535
21
0.367302874015748
0
LINE
8
BLACK
6
CONTINUOUS
10
0.2865058267716535
20
0.367302874015748
11
0.2835585433070866
21
0.3802157874015748
0
LINE
8
BLACK
6
CONTINUOUS
10
0.2835585433070866
20
0.3802157874015748
11
0.2820755905511811
21
0.3933775196850394
0
LINE
8
BLACK
6
CONTINUOUS
10
0.2820755905511811
20
0.3933775196850394
11
0.2820755905511811
21
0.4066224803149606
0
LINE
8
BLACK
6
CONTINUOUS
10
0.2820755905511811
20
0.4066224803149606
11
0.2835585433070866
21
0.4197842125984252
0
LINE
8
BLACK
6
CONTINUOUS
10
0.2835585433070866
20
0.4197842125984252
11
0.2865058267716535
21
0.432697125984252
0
LINE
8
BLACK
6
CONTINUOUS
10
0.2865058267716535
20
0.432697125984252
11
0.2908803543307086
21
0.4451988188976378
0
LINE
8
BLACK
6
CONTINUOUS
10
0.2908803543307086
20
0.4451988188976378
11
0.2966271653543307
21
0.4571321653543307
0
LINE
8
BLACK
6
CONTINUOUS
10
0.2966271653543307
20
0.4571321653543307
11
0.3036738976377953
21
0.4683470078740157
0
LINE
8
BLACK
6
CONTINUOUS
10
0.3036738976377953
20
0.4683470078740157
11
0.3119320472440945
21
0.4787023622047244
0
LINE
8
BLACK
6
CONTINUOUS
10
0.3119320472440945
20
0.4787023622047244
11
0.3212976377952756
21
0.4880679527559055
0
LINE
8
BLACK
6
CONTINUOUS
10
0.3212976377952756
20
0.4880679527559055
11
0.3316529921259843
21
0.4963261023622047
0
LINE
8
BLACK
6
CONTINUOUS
10
0.3316529921259843
20
0.4963261023622047
11
0.3428678346456693
21
0.5033728346456693
0
LINE
8
BLACK
6
CONTINUOUS
10
0.3428678346456693
20
0.5033728346456693
11
0.3548011811023622
21
0.5091196456692914
0
LINE
8
BLACK
6
CONTINUOUS
10
0.3548011811023622
20
0.5091196456692914
11
0.367302874015748
21
0.5134941732283465
0
LINE
8
BLACK
6
CONTINUOUS
10
0.367302874015748
20
0.5134941732283465
11
0.3802157874015748
21
0.5164414566929134
0
LINE
8
BLACK
6
CONTINUOUS
10
0.3802157874015748
20
0.5164414566929134
11
0.3933775196850394
21
0.5179244094488189
0
LINE
8
BLACK
6
CONTINUOUS
10
0.3933775196850394
20
0.5179244094488189
11
0.4066224803149606
21
0.5179244094488189
0
LINE
8
BLACK
6
CONTINUOUS
10
0.4066224803149606
20
0.5179244094488189
11
0.4197842125984252
21
0.5164414566929134
0
LINE
8
BLACK
6
CONTINUOUS
10
2.0197842125984251
20
0.5164414566929134
11
2.0326971259842521
21
0.5134941732283465
0
LINE
8
BLACK
6
CONTINUOUS
10
2.0326971259842521
20
0.5134941732283465
11
2.0451988188976378
21
0.5091196456692914
0
LINE
8
BLACK
6
CONTINUOUS
10
2.0451988188976378
20
0.5091196456692914
11
2.0571321653543309
21
0.5033728346456693
0
LINE
8
BLACK
6
CONTINUOUS
10
2.0571321653543309
20
0.5033728346456693
11
2.0683470078740158
21
0.4963261023622047
0
LINE
8
BLACK
6
CONTINUOUS
10
2.0683470078740158
20
0.4963261023622047
11
2.0787023622047243
21
0.4880679527559055
0
LINE
8
BLACK
6
CONTINUOUS
10
2.0787023622047243
20
0.4880679527559055
11
2.0880679527559054
21
0.4787023622047244
0
LINE
8
BLACK
6
CONTINUOUS
10
2.0880679527559054
20
0.4787023622047244
11
2.0963261023622048
21
0.4683470078740157
0
LINE
8
BLACK
6
CONTINUOUS
10
2.0963261023622048
20
0.4683470078740157
11
2.1033728346456693
21
0.4571321653543307
0
LINE
8
BLACK
6
CONTINUOUS
10
2.1033728346456693
20
0.4571321653543307
11
2.1091196456692911
21
0.4451988188976378
0
LINE
8
BLACK
6
CONTINUOUS
10
2.1091196456692911
20
0.4451988188976378
11
2.1134941732283465
21
0.432697125984252
0
LINE
8
BLACK
6
CONTINUOUS
10
2.1134941732283465
20
0.432697125984252
11
2.1164414566929133
21
0.4197842125984252
0
LINE
8
BLACK
6
CONTINUOUS
10
2.1164414566929133
20
0.4197842125984252
11
2.1179244094488188
21
0.4066224803149606
0
LINE
8
BLACK
6
CONTINUOUS
10
2.1179244094488188
20
0.4066224803149606
11
2.1179244094488188
21
0.3933775196850394
0
LINE
8
BLACK
6
CONTINUOUS
10
2.1179244094488188
20
0.3933775196850394
11
2.1164414566929133
21
0.3802157874015748
0
LINE
8
BLACK
6
CONTINUOUS
10
2.1164414566929133
20
0.3802157874015748
11
2.1134941732283465
21
0.367302874015748
0
LINE
8
BLACK
6
CONTINUOUS
10
2.1134941732283465
20
0.367302874015748
11
2.1091196456692911
21
0.3548011811023622
0
LINE
8
BLACK
6
CONTINUOUS
10
2.1091196456692911
20
0.3548011811023622
11
2.1033728346456693
21
0.3428678346456693
0
LINE
8
BLACK
6
CONTINUOUS
10
2.1033728346456693
20
0.3428678346456693
11
2.0963261023622048
21
0.3316529921259843
0
LINE
8
BLACK
6
CONTINUOUS
10
2.0963261023622048
20
0.3316529921259843
11
2.0880679527559054
21
0.3212976377952756
0
LINE
8
BLACK
6
CONTINUOUS
10
2.0880679527559054
20
0.3212976377952756
11
2.0787023622047243
21
0.3119320472440945
0
LINE
8
BLACK
6
CONTINUOUS
10
2.0787023622047243
20
0.3119320472440945
11
2.0683470078740158
21
0.3036738976377953
0
LINE
8
BLACK
6
CONTINUOUS
10
2.0683470078740158
20
0.3036738976377953
11
2.0571321653543309
21
0.2966271653543307
0
LINE
8
BLACK
6
CONTINUOUS
10
2.0571321653543309
20
0.2966271653543307
11
2.0451988188976378
21
0.2908803543307086
0
LINE
8
BLACK
6
CONTINUOUS
10
2.0451988188976378
20
0.2908803543307086
11
2.0326971259842521
21
0.2865058267716535
0
LINE
8
BLACK
6
CONTINUOUS
10
2.0326971259842521
20
0.2865058267716535
11
2.0197842125984251
21
0.2835585433070866
0
LINE
8
BLACK
6
CONTINUOUS
10
2.0197842125984251
20
0.2835585433070866
11
2.0066224803149604
21
0.2820755905511811
0
LINE
8
BLACK
6
CONTINUOUS
10
2.0066224803149604
20
0.2820755905511811
11
1.9933775196850394
21
0.2820755905511811
0
LINE
8
BLACK
6
CONTINUOUS
10
1.9933775196850394
20
0.2820755905511811
11
1.9802157874015747
21
0.2835585433070866
0
LINE
8
BLACK
6
CONTINUOUS
10
1.9802157874015747
20
0.2835585433070866
11
1.9673028740157479
21
0.2865058267716535
0
LINE
8
BLACK
6
CONTINUOUS
10
1.9673028740157479
20
0.2865058267716535
11
1.9548011811023622
21
0.2908803543307086
0
LINE
8
BLACK
6
CONTINUOUS
10
1.9548011811023622
20
0.2908803543307086
11
1.9428678346456691
21
0.2966271653543307
0
LINE
8
BLACK
6
CONTINUOUS
10
1.9428678346456691
20
0.2966271653543307
11
1.9316529921259842
21
0.3036738976377953
0
LINE
8
BLACK
6
CONTINUOUS
10
1.9316529921259842
20
0.3036738976377953
11
1.9212976377952755
21
0.3119320472440945
0
LINE
8
BLACK
6
CONTINUOUS
10
1.9212976377952755
20
0.3119320472440945
11
1.9119320472440944
21
0.3212976377952756
0
LINE
8
BLACK
6
CONTINUOUS
10
1.9119320472440944
20
0.3212976377952756
11
1.9036738976377952
21
0.3316529921259843
0
LINE
8
BLACK
6
CONTINUOUS
10
1.9036738976377952
20
0.3316529921259843
11
1.8966271653543307
21
0.3428678346456693
0
LINE
8
BLACK
6
CONTINUOUS
10
1.8966271653543307
20
0.3428678346456693
11
1.8908803543307087
21
0.3548011811023622
0
LINE
8
BLACK
6
CONTINUOUS
10
1.8908803543307087
20
0.3548011811023622
11
1.8865058267716535
21
0.367302874015748
0
LINE
8
BLACK
6
CONTINUOUS
10
1.8865058267716535
20
0.367302874015748
11
1.8835585433070865
21
0.3802157874015748
0
LINE
8
BLACK
6
CONTINUOUS
10
1.8835585433070865
20
0.3802157874015748
11
1.882075590551181
21
0.3933775196850394
0
LINE
8
BLACK
6
CONTINUOUS
10
1.882075590551181
20
0.3933775196850394
11
1.882075590551181
21
0.4066224803149606
0
LINE
8
BLACK
6
CONTINUOUS
10
1.882075590551181
20
0.4066224803149606
11
1.8835585433070865
21
0.4197842125984252
0
LINE
8
BLACK
6
CONTINUOUS
10
1.8835585433070865
20
0.4197842125984252
11
1.8865058267716535
21
0.432697125984252
0
LINE
8
BLACK
6
CONTINUOUS
10
1.8865058267716535
20
0.432697125984252
11
1.8908803543307087
21
0.4451988188976378
0
LINE
8
BLACK
6
CONTINUOUS
10
1.8908803543307087
20
0.4451988188976378
11
1.8966271653543307
21
0.4571321653543307
0
LINE
8
BLACK
6
CONTINUOUS
10
1.8966271653543307
20
0.4571321653543307
11
1.9036738976377952
21
0.4683470078740157
0
LINE
8
BLACK
6
CONTINUOUS
10
1.9036738976377952
20
0.4683470078740157
11
1.9119320472440944
21
0.4787023622047244
0
LINE
8
BLACK
6
CONTINUOUS
10
1.9119320472440944
20
0.4787023622047244
11
1.9212976377952755
21
0.4880679527559055
0
LINE
8
BLACK
6
CONTINUOUS
10
1.9212976377952755
20
0.4880679527559055
11
1.9316529921259842
21
0.4963261023622047
0
LINE
8
BLACK
6
CONTINUOUS
10
1.9316529921259842
20
0.4963261023622047
11
1.9428678346456691
21
0.5033728346456693
0
LINE
8
BLACK
6
CONTINUOUS
10
1.9428678346456691
20
0.5033728346456693
11
1.9548011811023622
21
0.5091196456692914
0
LINE
8
BLACK
6
CONTINUOUS
10
1.9548011811023622
20
0.5091196456692914
11
1.9673028740157479
21
0.5134941732283465
0
LINE
8
BLACK
6
CONTINUOUS
10
1.9673028740157479
20
0.5134941732283465
11
1.9802157874015747
21
0.5164414566929134
0
LINE
8
BLACK
6
CONTINUOUS
10
1.9802157874015747
20
0.5164414566929134
11
1.9933775196850394
21
0.5179244094488189
0
LINE
8
BLACK
6
CONTINUOUS
10
1.9933775196850394
20
0.5179244094488189
11
2.0066224803149604
21
0.5179244094488189
0
LINE
8
BLACK
6
CONTINUOUS
10
2.0066224803149604
20
0.5179244094488189
11
2.0197842125984251
21
0.5164414566929134
0
LINE
8
BLACK
6
CONTINUOUS
10
0.674267716535433
20
0.5976850393700788
11
0.674267716535433
21
0.5583149606299213
0
LINE
8
BLACK
6
CONTINUOUS
10
0.674267716535433
20
0.5583149606299213
11
0.5837165354330709
21
0.5583149606299213
0
LINE
8
BLACK
6
CONTINUOUS
10
0.5837165354330709
20
0.5583149606299213
11
0.5443464566929134
21
0.5583149606299213
0
LINE
8
BLACK
6
CONTINUOUS
10
0.5443464566929134
20
0.5583149606299213
11
0.5443464566929134
21
0.5976850393700788
0
LINE
8
BLACK
6
CONTINUOUS
10
0.5443464566929134
20
0.5976850393700788
11
0.5443464566929134
21
0.6882362204724409
0
LINE
8
BLACK
6
CONTINUOUS
10
0.5443464566929134
20
0.6882362204724409
11
0.5837165354330709
21
0.6882362204724409
0
LINE
8
BLACK
6
CONTINUOUS
10
0.5837165354330709
20
0.6882362204724409
11
0.5837165354330709
21
0.5976850393700788
0
LINE
8
BLACK
6
CONTINUOUS
10
0.5837165354330709
20
0.5976850393700788
11
0.674267716535433
21
0.5976850393700788
0
LINE
8
BLACK
6
CONTINUOUS
10
0.910488188976378
20
0.5583149606299213
11
0.7608818897637795
21
0.5583149606299213
0
LINE
8
BLACK
6
CONTINUOUS
10
0.7608818897637795
20
0.5583149606299213
11
0.7608818897637795
21
0.5976850393700788
0
LINE
8
BLACK
6
CONTINUOUS
10
0.7608818897637795
20
0.5976850393700788
11
0.910488188976378
21
0.5976850393700788
0
LINE
8
BLACK
6
CONTINUOUS
10
0.910488188976378
20
0.5976850393700788
11
0.910488188976378
21
0.5583149606299213
0
LINE
8
BLACK
6
CONTINUOUS
10
1.1467086614173227
20
0.5583149606299213
11
0.9971023622047244
21
0.5583149606299213
0
LINE
8
BLACK
6
CONTINUOUS
10
0.9971023622047244
20
0.5583149606299213
11
0.9971023622047244
21
0.5976850393700788
0
LINE
8
BLACK
6
CONTINUOUS
10
0.9971023622047244
20
0.5976850393700788
11
1.1467086614173227
21
0.5976850393700788
0
LINE
8
BLACK
6
CONTINUOUS
10
1.1467086614173227
20
0.5976850393700788
11
1.1467086614173227
21
0.5583149606299213
0
LINE
8
BLACK
6
CONTINUOUS
10
1.3829291338582677
20
0.5583149606299213
11
1.2333228346456693
21
0.5583149606299213
0
LINE
8
BLACK
6
CONTINUOUS
10
1.2333228346456693
20
0.5583149606299213
11
1.2333228346456693
21
0.5976850393700788
0
LINE
8
BLACK
6
CONTINUOUS
10
1.2333228346456693
20
0.5976850393700788
11
1.3829291338582677
21
0.5976850393700788
0
LINE
8
BLACK
6
CONTINUOUS
10
1.3829291338582677
20
0.5976850393700788
11
1.3829291338582677
21
0.5583149606299213
0
LINE
8
BLACK
6
CONTINUOUS
10
1.6191496062992126
20
0.5583149606299213
11
1.4695433070866142
21
0.5583149606299213
0
LINE
8
BLACK
6
CONTINUOUS
10
1.4695433070866142
20
0.5583149606299213
11
1.4695433070866142
21
0.5976850393700788
0
LINE
8
BLACK
6
CONTINUOUS
10
1.4695433070866142
20
0.5976850393700788
11
1.6191496062992126
21
0.5976850393700788
0
LINE
8
BLACK
6
CONTINUOUS
10
1.6191496062992126
20
0.5976850393700788
11
1.6191496062992126
21
0.5583149606299213
0
LINE
8
BLACK
6
CONTINUOUS
10
1.7963149606299211
20
0.5976850393700788
11
1.7963149606299211
21
0.6882362204724409
0
LINE
8
BLACK
6
CONTINUOUS
10
1.7963149606299211
20
0.6882362204724409
11
1.8356850393700788
21
0.6882362204724409
0
LINE
8
BLACK
6
CONTINUOUS
10
1.8356850393700788
20
0.6882362204724409
11
1.8356850393700788
21
0.5976850393700788
0
LINE
8
BLACK
6
CONTINUOUS
10
1.8356850393700788
20
0.5976850393700788
11
1.8356850393700788
21
0.5583149606299213
0
LINE
8
BLACK
6
CONTINUOUS
10
1.8356850393700788
20
0.5583149606299213
11
1.7963149606299211
21
0.5583149606299213
0
LINE
8
BLACK
6
CONTINUOUS
10
1.7963149606299211
20
0.5583149606299213
11
1.7057637795275591
21
0.5583149606299213
0
LINE
8
BLACK
6
CONTINUOUS
10
1.7057637795275591
20
0.5583149606299213
11
1.7057637795275591
21
0.5976850393700788
0
LINE
8
BLACK
6
CONTINUOUS
10
1.7057637795275591
20
0.5976850393700788
11
1.7963149606299211
21
0.5976850393700788
0
LINE
8
BLACK
6
CONTINUOUS
10
-0.6952362204724409
20
0.6375905511811023
11
-0.7552362204724409
21
0.6375905511811023
0
LINE
8
BLACK
6
CONTINUOUS
10
-0.7552362204724409
20
0.6375905511811023
11
-0.7552362204724409
21
0.6975905511811024
0
LINE
8
BLACK
6
CONTINUOUS
10
-0.7552362204724409
20
0.6975905511811024
11
-0.6952362204724409
21
0.6975905511811024
0
LINE
8
BLACK
6
CONTINUOUS
10
-0.6952362204724409
20
0.6975905511811024
11
-0.6952362204724409
21
0.6375905511811023
0
LINE
8
BLACK
6
CONTINUOUS
10
-0.595236220472441
20
0.6375905511811023
11
-0.6552362204724409
21
0.6375905511811023
0
LINE
8
BLACK
6
CONTINUOUS
10
-0.6552362204724409
20
0.6375905511811023
11
-0.6552362204724409
21
0.6975905511811024
0
LINE
8
BLACK
6
CONTINUOUS
10
-0.6552362204724409
20
0.6975905511811024
11
-0.595236220472441
21
0.6975905511811024
0
LINE
8
BLACK
6
CONTINUOUS
10
-0.595236220472441
20
0.6975905511811024
11
-0.595236220472441
21
0.6375905511811023
0
LINE
8
BLACK
6
CONTINUOUS
10
-0.4712879921259843
20
0.774359842519685
11
-0.4641575984251968
21
0.7714063385826772
0
LINE
8
BLACK
6
CONTINUOUS
10
-0.4641575984251968
20
0.7714063385826772
11
-0.4577404330708661
21
0.7671185039370079
0
LINE
8
BLACK
6
CONTINUOUS
10
-0.4577404330708661
20
0.7671185039370079
11
-0.4522830708661417
21
0.7616611417322835
0
LINE
8
BLACK
6
CONTINUOUS
10
-0.4522830708661417
20
0.7616611417322835
11
-0.4479952362204724
21
0.7552439763779527
0
LINE
8
BLACK
6
CONTINUOUS
10
-0.4479952362204724
20
0.7552439763779527
11
-0.4450417322834646
21
0.7481135826771653
0
LINE
8
BLACK
6
CONTINUOUS
10
-0.4450417322834646
20
0.7481135826771653
11
-0.4435360236220472
21
0.7405439763779528
0
LINE
8
BLACK
6
CONTINUOUS
10
-0.4435360236220472
20
0.7405439763779528
11
-0.4435360236220472
21
0.7328261023622047
0
LINE
8
BLACK
6
CONTINUOUS
10
-0.4435360236220472
20
0.7328261023622047
11
-0.4450417322834646
21
0.7252564960629921
0
LINE
8
BLACK
6
CONTINUOUS
10
-0.4450417322834646
20
0.7252564960629921
11
-0.4479952362204724
21
0.7181261023622048
0
LINE
8
BLACK
6
CONTINUOUS
10
-0.4479952362204724
20
0.7181261023622048
11
-0.4522830708661417
21
0.711708937007874
0
LINE
8
BLACK
6
CONTINUOUS
10
-0.4522830708661417
20
0.711708937007874
11
-0.4577404330708661
21
0.7062515748031496
0
LINE
8
BLACK
6
CONTINUOUS
10
-0.4577404330708661
20
0.7062515748031496
11
-0.4641575984251968
21
0.7019637401574803
0
LINE
8
BLACK
6
CONTINUOUS
10
-0.4641575984251968
20
0.7019637401574803
11
-0.4712879921259843
21
0.6990102362204724
0
LINE
8
BLACK
6
CONTINUOUS
10
-0.4712879921259843
20
0.6990102362204724
11
-0.4788575984251968
21
0.6975045275590551
0
LINE
8
BLACK
6
CONTINUOUS
10
-0.4788575984251968
20
0.6975045275590551
11
-0.4865754724409448
21
0.6975045275590551
0
LINE
8
BLACK
6
CONTINUOUS
10
-0.4865754724409448
20
0.6975045275590551
11
-0.4941450787401575
21
0.6990102362204724
0
LINE
8
BLACK
6
CONTINUOUS
10
-0.4941450787401575
20
0.6990102362204724
11
-0.5012754724409448
21
0.7019637401574803
0
LINE
8
BLACK
6
CONTINUOUS
10
-0.5012754724409448
20
0.7019637401574803
11
-0.5076926377952756
21
0.7062515748031496
0
LINE
8
BLACK
6
CONTINUOUS
10
-0.5076926377952756
20
0.7062515748031496
11
-0.51315
21
0.711708937007874
0
LINE
8
BLACK
6
CONTINUOUS
10
-0.51315
20
0.711708937007874
11
-0.5174378346456693
21
0.7181261023622048
0
LINE
8
BLACK
6
CONTINUOUS
10
-0.5174378346456693
20
0.7181261023622048
11
-0.5203913385826772
21
0.7252564960629921
0
LINE
8
BLACK
6
CONTINUOUS
10
-0.5203913385826772
20
0.7252564960629921
11
-0.5218970472440945
21
0.7328261023622047
0
LINE
8
BLACK
6
CONTINUOUS
10
-0.5218970472440945
20
0.7328261023622047
11
-0.5218970472440945
21
0.7405439763779528
0
LINE
8
BLACK
6
CONTINUOUS
10
-0.5218970472440945
20
0.7405439763779528
11
-0.5203913385826772
21
0.7481135826771653
0
LINE
8
BLACK
6
CONTINUOUS
10
-0.5203913385826772
20
0.7481135826771653
11
-0.5174378346456693
21
0.7552439763779527
0
LINE
8
BLACK
6
CONTINUOUS
10
-0.5174378346456693
20
0.7552439763779527
11
-0.51315
21
0.7616611417322835
0
LINE
8
BLACK
6
CONTINUOUS
10
-0.51315
20
0.7616611417322835
11
-0.5076926377952756
21
0.7671185039370079
0
LINE
8
BLACK
6
CONTINUOUS
10
-0.5076926377952756
20
0.7671185039370079
11
-0.5012754724409448
21
0.7714063385826772
0
LINE
8
BLACK
6
CONTINUOUS
10
-0.5012754724409448
20
0.7714063385826772
11
-0.4941450787401575
21
0.774359842519685
0
LINE
8
BLACK
6
CONTINUOUS
10
-0.4941450787401575
20
0.774359842519685
11
-0.4865754724409448
21
0.7758655511811023
0
LINE
8
BLACK
6
CONTINUOUS
10
-0.4865754724409448
20
0.7758655511811023
11
-0.4788575984251968
21
0.7758655511811023
0
LINE
8
BLACK
6
CONTINUOUS
10
-0.4788575984251968
20
0.7758655511811023
11
-0.4712879921259843
21
0.774359842519685
0
LINE
8
BLACK
6
CONTINUOUS
10
-0.0974538976377953
20
0.7538492125984252
11
-0.0942607480314961
21
0.7517156299212598
0
LINE
8
BLACK
6
CONTINUOUS
10
-0.0942607480314961
20
0.7517156299212598
11
-0.0921271653543307
21
0.7485224803149606
0
LINE
8
BLACK
6
CONTINUOUS
10
-0.0921271653543307
20
0.7485224803149606
11
-0.0913779527559055
21
0.744755905511811
0
LINE
8
BLACK
6
CONTINUOUS
10
-0.0913779527559055
20
0.744755905511811
11
-0.0913779527559055
21
0.7073543307086614
0
LINE
8
BLACK
6
CONTINUOUS
10
-0.0913779527559055
20
0.7073543307086614
11
-0.0921271653543307
21
0.7035877559055118
0
LINE
8
BLACK
6
CONTINUOUS
10
-0.0921271653543307
20
0.7035877559055118
11
-0.0942607480314961
21
0.7003946062992126
0
LINE
8
BLACK
6
CONTINUOUS
10
-0.0942607480314961
20
0.7003946062992126
11
-0.0974538976377953
21
0.6982610236220472
0
LINE
8
BLACK
6
CONTINUOUS
10
-0.0974538976377953
20
0.6982610236220472
11
-0.1012204724409449
21
0.697511811023622
0
LINE
8
BLACK
6
CONTINUOUS
10
-0.1012204724409449
20
0.697511811023622
11
-0.1209055118110236
21
0.697511811023622
0
LINE
8
BLACK
6
CONTINUOUS
10
-0.1209055118110236
20
0.697511811023622
11
-0.1246720866141732
21
0.6982610236220472
0
LINE
8
BLACK
6
CONTINUOUS
10
-0.1246720866141732
20
0.6982610236220472
11
-0.1278652362204724
21
0.7003946062992126
0
LINE
8
BLACK
6
CONTINUOUS
10
-0.1278652362204724
20
0.7003946062992126
11
-0.1299988188976378
21
0.7035877559055118
0
LINE
8
BLACK
6
CONTINUOUS
10
-0.1299988188976378
20
0.7035877559055118
11
-0.130748031496063
21
0.7073543307086614
0
LINE
8
BLACK
6
CONTINUOUS
10
-0.130748031496063
20
0.7073543307086614
11
-0.130748031496063
21
0.744755905511811
0
LINE
8
BLACK
6
CONTINUOUS
10
-0.130748031496063
20
0.744755905511811
11
-0.1299988188976378
21
0.7485224803149606
0
LINE
8
BLACK
6
CONTINUOUS
10
-0.1299988188976378
20
0.7485224803149606
11
-0.1278652362204724
21
0.7517156299212598
0
LINE
8
BLACK
6
CONTINUOUS
10
-0.1278652362204724
20
0.7517156299212598
11
-0.1246720866141732
21
0.7538492125984252
0
LINE
8
BLACK
6
CONTINUOUS
10
-0.1246720866141732
20
0.7538492125984252
11
-0.1209055118110236
21
0.7545984251968504
0
LINE
8
BLACK
6
CONTINUOUS
10
-0.1209055118110236
20
0.7545984251968504
11
-0.1012204724409449
21
0.7545984251968504
0
LINE
8
BLACK
6
CONTINUOUS
10
-0.1012204724409449
20
0.7545984251968504
11
-0.0974538976377953
21
0.7538492125984252
0
LINE
8
BLACK
6
CONTINUOUS
10
-0.0226507480314961
20
0.7538492125984252
11
-0.0194575984251968
21
0.7517156299212598
0
LINE
8
BLACK
6
CONTINUOUS
10
-0.0194575984251968
20
0.7517156299212598
11
-0.0173240157480315
21
0.7485224803149606
0
LINE
8
BLACK
6
CONTINUOUS
10
-0.0173240157480315
20
0.7485224803149606
11
-0.0165748031496063
21
0.744755905511811
0
LINE
8
BLACK
6
CONTINUOUS
10
-0.0165748031496063
20
0.744755905511811
11
-0.0165748031496063
21
0.7073543307086614
0
LINE
8
BLACK
6
CONTINUOUS
10
-0.0165748031496063
20
0.7073543307086614
11
-0.0173240157480315
21
0.7035877559055118
0
LINE
8
BLACK
6
CONTINUOUS
10
-0.0173240157480315
20
0.7035877559055118
11
-0.0194575984251968
21
0.7003946062992126
0
LINE
8
BLACK
6
CONTINUOUS
10
-0.0194575984251968
20
0.7003946062992126
11
-0.0226507480314961
21
0.6982610236220472
0
LINE
8
BLACK
6
CONTINUOUS
10
-0.0226507480314961
20
0.6982610236220472
11
-0.0264173228346457
21
0.697511811023622
0
LINE
8
BLACK
6
CONTINUOUS
10
-0.0264173228346457
20
0.697511811023622
11
-0.0461023622047244
21
0.697511811023622
0
LINE
8
BLACK
6
CONTINUOUS
10
-0.0461023622047244
20
0.697511811023622
11
-0.049868937007874
21
0.6982610236220472
0
LINE
8
BLACK
6
CONTINUOUS
10
-0.049868937007874
20
0.6982610236220472
11
-0.0530620866141732
21
0.7003946062992126
0
LINE
8
BLACK
6
CONTINUOUS
10
-0.0530620866141732
20
0.7003946062992126
11
-0.0551956692913386
21
0.7035877559055118
0
LINE
8
BLACK
6
CONTINUOUS
10
-0.0551956692913386
20
0.7035877559055118
11
-0.0559448818897638
21
0.7073543307086614
0
LINE
8
BLACK
6
CONTINUOUS
10
-0.0559448818897638
20
0.7073543307086614
11
-0.0559448818897638
21
0.744755905511811
0
LINE
8
BLACK
6
CONTINUOUS
10
-0.0559448818897638
20
0.744755905511811
11
-0.0551956692913386
21
0.7485224803149606
0
LINE
8
BLACK
6
CONTINUOUS
10
-0.0551956692913386
20
0.7485224803149606
11
-0.0530620866141732
21
0.7517156299212598
0
LINE
8
BLACK
6
CONTINUOUS
10
-0.0530620866141732
20
0.7517156299212598
11
-0.049868937007874
21
0.7538492125984252
0
LINE
8
BLACK
6
CONTINUOUS
10
-0.049868937007874
20
0.7538492125984252
11
-0.0461023622047244
21
0.7545984251968504
0
LINE
8
BLACK
6
CONTINUOUS
10
-0.0461023622047244
20
0.7545984251968504
11
-0.0264173228346457
21
0.7545984251968504
0
LINE
8
BLACK
6
CONTINUOUS
10
-0.0264173228346457
20
0.7545984251968504
11
-0.0226507480314961
21
0.7538492125984252
0
LINE
8
BLACK
6
CONTINUOUS
10
-0.3354460236220472
20
0.7652665354330709
11
-0.332252874015748
21
0.7631329527559055
0
LINE
8
BLACK
6
CONTINUOUS
10
-0.332252874015748
20
0.7631329527559055
11
-0.3301192913385826
21
0.7599398031496063
0
LINE
8
BLACK
6
CONTINUOUS
10
-0.3301192913385826
20
0.7599398031496063
11
-0.3293700787401574
21
0.7561732283464567
0
LINE
8
BLACK
6
CONTINUOUS
10
-0.3293700787401574
20
0.7561732283464567
11
-0.3293700787401574
21
0.7089291338582677
0
LINE
8
BLACK
6
CONTINUOUS
10
-0.3293700787401574
20
0.7089291338582677
11
-0.3301192913385826
21
0.705162559055118
0
LINE
8
BLACK
6
CONTINUOUS
10
-0.3301192913385826
20
0.705162559055118
11
-0.332252874015748
21
0.7019694094488189
0
LINE
8
BLACK
6
CONTINUOUS
10
-0.332252874015748
20
0.7019694094488189
11
-0.3354460236220472
21
0.6998358267716536
0
LINE
8
BLACK
6
CONTINUOUS
10
-0.3354460236220472
20
0.6998358267716536
11
-0.3392125984251969
21
0.6990866141732284
0
LINE
8
BLACK
6
CONTINUOUS
10
-0.3392125984251969
20
0.6990866141732284
11
-0.3707086614173228
21
0.6990866141732284
0
LINE
8
BLACK
6
CONTINUOUS
10
-0.3707086614173228
20
0.6990866141732284
11
-0.3744752362204724
21
0.6998358267716536
0
LINE
8
BLACK
6
CONTINUOUS
10
-0.3744752362204724
20
0.6998358267716536
11
-0.3776683858267716
21
0.7019694094488189
0
LINE
8
BLACK
6
CONTINUOUS
10
-0.3776683858267716
20
0.7019694094488189
11
-0.379801968503937
21
0.705162559055118
0
LINE
8
BLACK
6
CONTINUOUS
10
-0.379801968503937
20
0.705162559055118
11
-0.3805511811023622
21
0.7089291338582677
0
LINE
8
BLACK
6
CONTINUOUS
10
-0.3805511811023622
20
0.7089291338582677
11
-0.3805511811023622
21
0.7561732283464567
0
LINE
8
BLACK
6
CONTINUOUS
10
-0.3805511811023622
20
0.7561732283464567
11
-0.379801968503937
21
0.7599398031496063
0
LINE
8
BLACK
6
CONTINUOUS
10
-0.379801968503937
20
0.7599398031496063
11
-0.3776683858267716
21
0.7631329527559055
0
LINE
8
BLACK
6
CONTINUOUS
10
-0.3776683858267716
20
0.7631329527559055
11
-0.3744752362204724
21
0.7652665354330709
0
LINE
8
BLACK
6
CONTINUOUS
10
-0.3744752362204724
20
0.7652665354330709
11
-0.3707086614173228
21
0.7660157480314961
0
LINE
8
BLACK
6
CONTINUOUS
10
-0.3707086614173228
20
0.7660157480314961
11
-0.3392125984251969
21
0.7660157480314961
0
LINE
8
BLACK
6
CONTINUOUS
10
-0.3392125984251969
20
0.7660157480314961
11
-0.3354460236220472
21
0.7652665354330709
0
LINE
8
BLACK
6
CONTINUOUS
10
-0.1976507480314961
20
0.7652665354330709
11
-0.1944575984251969
21
0.7631329527559055
0
LINE
8
BLACK
6
CONTINUOUS
10
-0.1944575984251969
20
0.7631329527559055
11
-0.1923240157480315
21
0.7599398031496063
0
LINE
8
BLACK
6
CONTINUOUS
10
-0.1923240157480315
20
0.7599398031496063
11
-0.1915748031496063
21
0.7561732283464567
0
LINE
8
BLACK
6
CONTINUOUS
10
-0.1915748031496063
20
0.7561732283464567
11
-0.1915748031496063
21
0.7089291338582677
0
LINE
8
BLACK
6
CONTINUOUS
10
-0.1915748031496063
20
0.7089291338582677
11
-0.1923240157480315
21
0.705162559055118
0
LINE
8
BLACK
6
CONTINUOUS
10
-0.1923240157480315
20
0.705162559055118
11
-0.1944575984251969
21
0.7019694094488189
0
LINE
8
BLACK
6
CONTINUOUS
10
-0.1944575984251969
20
0.7019694094488189
11
-0.1976507480314961
21
0.6998358267716536
0
LINE
8
BLACK
6
CONTINUOUS
10
-0.1976507480314961
20
0.6998358267716536
11
-0.2014173228346457
21
0.6990866141732284
0
LINE
8
BLACK
6
CONTINUOUS
10
-0.2014173228346457
20
0.6990866141732284
11
-0.2329133858267717
21
0.6990866141732284
0
LINE
8
BLACK
6
CONTINUOUS
10
-0.2329133858267717
20
0.6990866141732284
11
-0.2366799606299212
21
0.6998358267716536
0
LINE
8
BLACK
6
CONTINUOUS
10
-0.2366799606299212
20
0.6998358267716536
11
-0.2398731102362205
21
0.7019694094488189
0
LINE
8
BLACK
6
CONTINUOUS
10
-0.2398731102362205
20
0.7019694094488189
11
-0.2420066929133858
21
0.705162559055118
0
LINE
8
BLACK
6
CONTINUOUS
10
-0.2420066929133858
20
0.705162559055118
11
-0.242755905511811
21
0.7089291338582677
0
LINE
8
BLACK
6
CONTINUOUS
10
-0.242755905511811
20
0.7089291338582677
11
-0.242755905511811
21
0.7561732283464567
0
LINE
8
BLACK
6
CONTINUOUS
10
-0.242755905511811
20
0.7561732283464567
11
-0.2420066929133858
21
0.7599398031496063
0
LINE
8
BLACK
6
CONTINUOUS
10
-0.2420066929133858
20
0.7599398031496063
11
-0.2398731102362205
21
0.7631329527559055
0
LINE
8
BLACK
6
CONTINUOUS
10
-0.2398731102362205
20
0.7631329527559055
11
-0.2366799606299212
21
0.7652665354330709
0
LINE
8
BLACK
6
CONTINUOUS
10
-0.2366799606299212
20
0.7652665354330709
11
-0.2329133858267717
21
0.7660157480314961
0
LINE
8
BLACK
6
CONTINUOUS
10
-0.2329133858267717
20
0.7660157480314961
11
-0.2014173228346457
21
0.7660157480314961
0
LINE
8
BLACK
6
CONTINUOUS
10
-0.2014173228346457
20
0.7660157480314961
11
-0.1976507480314961
21
0.7652665354330709
0
LINE
8
BLACK
6
CONTINUOUS
10
-0.6952362204724409
20
0.7375905511811024
11
-0.7552362204724409
21
0.7375905511811024
0
LINE
8
BLACK
6
CONTINUOUS
10
-0.7552362204724409
20
0.7375905511811024
11
-0.7552362204724409
21
0.7975905511811023
0
LINE
8
BLACK
6
CONTINUOUS
10
-0.7552362204724409
20
0.7975905511811023
11
-0.6952362204724409
21
0.7975905511811023
0
LINE
8
BLACK
6
CONTINUOUS
10
-0.6952362204724409
20
0.7975905511811023
11
-0.6952362204724409
21
0.7375905511811024
0
LINE
8
BLACK
6
CONTINUOUS
10
-0.595236220472441
20
0.7375905511811024
11
-0.6552362204724409
21
0.7375905511811024
0
LINE
8
BLACK
6
CONTINUOUS
10
-0.6552362204724409
20
0.7375905511811024
11
-0.6552362204724409
21
0.7975905511811023
0
LINE
8
BLACK
6
CONTINUOUS
10
-0.6552362204724409
20
0.7975905511811023
11
-0.595236220472441
21
0.7975905511811023
0
LINE
8
BLACK
6
CONTINUOUS
10
-0.595236220472441
20
0.7975905511811023
11
-0.595236220472441
21
0.7375905511811024
0
LINE
8
BLACK
6
CONTINUOUS
10
0.5837165354330709
20
0.7748503937007873
11
0.5443464566929134
21
0.7748503937007873
0
LINE
8
BLACK
6
CONTINUOUS
10
0.5443464566929134
20
0.7748503937007873
11
0.5443464566929134
21
0.9244566929133858
0
LINE
8
BLACK
6
CONTINUOUS
10
0.5443464566929134
20
0.9244566929133858
11
0.5837165354330709
21
0.9244566929133858
0
LINE
8
BLACK
6
CONTINUOUS
10
0.5837165354330709
20
0.9244566929133858
11
0.5837165354330709
21
0.7748503937007873
0
LINE
8
BLACK
6
CONTINUOUS
10
1.8356850393700788
20
0.7748503937007873
11
1.7963149606299211
21
0.7748503937007873
0
LINE
8
BLACK
6
CONTINUOUS
10
1.7963149606299211
20
0.7748503937007873
11
1.7963149606299211
21
0.9244566929133858
0
LINE
8
BLACK
6
CONTINUOUS
10
1.7963149606299211
20
0.9244566929133858
11
1.8356850393700788
21
0.9244566929133858
0
LINE
8
BLACK
6
CONTINUOUS
10
1.8356850393700788
20
0.9244566929133858
11
1.8356850393700788
21
0.7748503937007873
0
LINE
8
BLACK
6
CONTINUOUS
10
-0.0974538976377953
20
0.8723531496062992
11
-0.0942607480314961
21
0.8702195669291338
0
LINE
8
BLACK
6
CONTINUOUS
10
-0.0942607480314961
20
0.8702195669291338
11
-0.0921271653543307
21
0.8670264173228346
0
LINE
8
BLACK
6
CONTINUOUS
10
-0.0921271653543307
20
0.8670264173228346
11
-0.0913779527559055
21
0.863259842519685
0
LINE
8
BLACK
6
CONTINUOUS
10
-0.0913779527559055
20
0.863259842519685
11
-0.0913779527559055
21
0.8258582677165354
0
LINE
8
BLACK
6
CONTINUOUS
10
-0.0913779527559055
20
0.8258582677165354
11
-0.0921271653543307
21
0.8220916929133858
0
LINE
8
BLACK
6
CONTINUOUS
10
-0.0921271653543307
20
0.8220916929133858
11
-0.0942607480314961
21
0.8188985433070866
0
LINE
8
BLACK
6
CONTINUOUS
10
-0.0942607480314961
20
0.8188985433070866
11
-0.0974538976377953
21
0.8167649606299212
0
LINE
8
BLACK
6
CONTINUOUS
10
-0.0974538976377953
20
0.8167649606299212
11
-0.1012204724409449
21
0.816015748031496
0
LINE
8
BLACK
6
CONTINUOUS
10
-0.1012204724409449
20
0.816015748031496
11
-0.1209055118110236
21
0.816015748031496
0
LINE
8
BLACK
6
CONTINUOUS
10
-0.1209055118110236
20
0.816015748031496
11
-0.1246720866141732
21
0.8167649606299212
0
LINE
8
BLACK
6
CONTINUOUS
10
-0.1246720866141732
20
0.8167649606299212
11
-0.1278652362204724
21
0.8188985433070866
0
LINE
8
BLACK
6
CONTINUOUS
10
-0.1278652362204724
20
0.8188985433070866
11
-0.1299988188976378
21
0.8220916929133858
0
LINE
8
BLACK
6
CONTINUOUS
10
-0.1299988188976378
20
0.8220916929133858
11
-0.130748031496063
21
0.8258582677165354
0
LINE
8
BLACK
6
CONTINUOUS
10
-0.130748031496063
20
0.8258582677165354
11
-0.130748031496063
21
0.863259842519685
0
LINE
8
BLACK
6
CONTINUOUS
10
-0.130748031496063
20
0.863259842519685
11
-0.1299988188976378
21
0.8670264173228346
0
LINE
8
BLACK
6
CONTINUOUS
10
-0.1299988188976378
20
0.8670264173228346
11
-0.1278652362204724
21
0.8702195669291338
0
LINE
8
BLACK
6
CONTINUOUS
10
-0.1278652362204724
20
0.8702195669291338
11
-0.1246720866141732
21
0.8723531496062992
0
LINE
8
BLACK
6
CONTINUOUS
10
-0.1246720866141732
20
0.8723531496062992
11
-0.1209055118110236
21
0.8731023622047244
0
LINE
8
BLACK
6
CONTINUOUS
10
-0.1209055118110236
20
0.8731023622047244
11
-0.1012204724409449
21
0.8731023622047244
0
LINE
8
BLACK
6
CONTINUOUS
10
-0.1012204724409449
20
0.8731023622047244
11
-0.0974538976377953
21
0.8723531496062992
0
LINE
8
BLACK
6
CONTINUOUS
10
-0.0226507480314961
20
0.8723531496062992
11
-0.0194575984251968
21
0.8702195669291338
0
LINE
8
BLACK
6
CONTINUOUS
10
-0.0194575984251968
20
0.8702195669291338
11
-0.0173240157480315
21
0.8670264173228346
0
LINE
8
BLACK
6
CONTINUOUS
10
-0.0173240157480315
20
0.8670264173228346
11
-0.0165748031496063
21
0.863259842519685
0
LINE
8
BLACK
6
CONTINUOUS
10
-0.0165748031496063
20
0.863259842519685
11
-0.0165748031496063
21
0.8258582677165354
0
LINE
8
BLACK
6
CONTINUOUS
10
-0.0165748031496063
20
0.8258582677165354
11
-0.0173240157480315
21
0.8220916929133858
0
LINE
8
BLACK
6
CONTINUOUS
10
-0.0173240157480315
20
0.8220916929133858
11
-0.0194575984251968
21
0.8188985433070866
0
LINE
8
BLACK
6
CONTINUOUS
10
-0.0194575984251968
20
0.8188985433070866
11
-0.0226507480314961
21
0.8167649606299212
0
LINE
8
BLACK
6
CONTINUOUS
10
-0.0226507480314961
20
0.8167649606299212
11
-0.0264173228346457
21
0.816015748031496
0
LINE
8
BLACK
6
CONTINUOUS
10
-0.0264173228346457
20
0.816015748031496
11
-0.0461023622047244
21
0.816015748031496
0
LINE
8
BLACK
6
CONTINUOUS
10
-0.0461023622047244
20
0.816015748031496
11
-0.049868937007874
21
0.8167649606299212
0
LINE
8
BLACK
6
CONTINUOUS
10
-0.049868937007874
20
0.8167649606299212
11
-0.0530620866141732
21
0.8188985433070866
0
LINE
8
BLACK
6
CONTINUOUS
10
-0.0530620866141732
20
0.8188985433070866
11
-0.0551956692913386
21
0.8220916929133858
0
LINE
8
BLACK
6
CONTINUOUS
10
-0.0551956692913386
20
0.8220916929133858
11
-0.0559448818897638
21
0.8258582677165354
0
LINE
8
BLACK
6
CONTINUOUS
10
-0.0559448818897638
20
0.8258582677165354
11
-0.0559448818897638
21
0.863259842519685
0
LINE
8
BLACK
6
CONTINUOUS
10
-0.0559448818897638
20
0.863259842519685
11
-0.0551956692913386
21
0.8670264173228346
0
LINE
8
BLACK
6
CONTINUOUS
10
-0.0551956692913386
20
0.8670264173228346
11
-0.0530620866141732
21
0.8702195669291338
0
LINE
8
BLACK
6
CONTINUOUS
10
-0.0530620866141732
20
0.8702195669291338
11
-0.049868937007874
21
0.8723531496062992
0
LINE
8
BLACK
6
CONTINUOUS
10
-0.049868937007874
20
0.8723531496062992
11
-0.0461023622047244
21
0.8731023622047244
0
LINE
8
BLACK
6
CONTINUOUS
10
-0.0461023622047244
20
0.8731023622047244
11
-0.0264173228346457
21
0.8731023622047244
0
LINE
8
BLACK
6
CONTINUOUS
10
-0.0264173228346457
20
0.8731023622047244
11
-0.0226507480314961
21
0.8723531496062992
0
LINE
8
BLACK
6
CONTINUOUS
10
-0.4712879921259843
20
0.9141236220472441
11
-0.4641575984251968
21
0.9111701181102362
0
LINE
8
BLACK
6
CONTINUOUS
10
-0.4641575984251968
20
0.9111701181102362
11
-0.4577404330708661
21
0.9068822834645669
0
LINE
8
BLACK
6
CONTINUOUS
10
-0.4577404330708661
20
0.9068822834645669
11
-0.4522830708661417
21
0.9014249212598425
0
LINE
8
BLACK
6
CONTINUOUS
10
-0.4522830708661417
20
0.9014249212598425
11
-0.4479952362204724
21
0.8950077559055117
0
LINE
8
BLACK
6
CONTINUOUS
10
-0.4479952362204724
20
0.8950077559055117
11
-0.4450417322834646
21
0.8878773622047244
0
LINE
8
BLACK
6
CONTINUOUS
10
-0.4450417322834646
20
0.8878773622047244
11
-0.4435360236220472
21
0.8803077559055118
0
LINE
8
BLACK
6
CONTINUOUS
10
-0.4435360236220472
20
0.8803077559055118
11
-0.4435360236220472
21
0.8725898818897637
0
LINE
8
BLACK
6
CONTINUOUS
10
-0.4435360236220472
20
0.8725898818897637
11
-0.4450417322834646
21
0.8650202755905512
0
LINE
8
BLACK
6
CONTINUOUS
10
-0.4450417322834646
20
0.8650202755905512
11
-0.4479952362204724
21
0.8578898818897638
0
LINE
8
BLACK
6
CONTINUOUS
10
-0.4479952362204724
20
0.8578898818897638
11
-0.4522830708661417
21
0.8514727165354331
0
LINE
8
BLACK
6
CONTINUOUS
10
-0.4522830708661417
20
0.8514727165354331
11
-0.4577404330708661
21
0.8460153543307086
0
LINE
8
BLACK
6
CONTINUOUS
10
-0.4577404330708661
20
0.8460153543307086
11
-0.4641575984251968
21
0.8417275196850393
0
LINE
8
BLACK
6
CONTINUOUS
10
-0.4641575984251968
20
0.8417275196850393
11
-0.4712879921259843
21
0.8387740157480315
0
LINE
8
BLACK
6
CONTINUOUS
10
-0.4712879921259843
20
0.8387740157480315
11
-0.4788575984251968
21
0.8372683070866141
0
LINE
8
BLACK
6
CONTINUOUS
10
-0.4788575984251968
20
0.8372683070866141
11
-0.4865754724409448
21
0.8372683070866141
0
LINE
8
BLACK
6
CONTINUOUS
10
-0.4865754724409448
20
0.8372683070866141
11
-0.4941450787401575
21
0.8387740157480315
0
LINE
8
BLACK
6
CONTINUOUS
10
-0.4941450787401575
20
0.8387740157480315
11
-0.5012754724409448
21
0.8417275196850393
0
LINE
8
BLACK
6
CONTINUOUS
10
-0.5012754724409448
20
0.8417275196850393
11
-0.5076926377952756
21
0.8460153543307086
0
LINE
8
BLACK
6
CONTINUOUS
10
-0.5076926377952756
20
0.8460153543307086
11
-0.51315
21
0.8514727165354331
0
LINE
8
BLACK
6
CONTINUOUS
10
-0.51315
20
0.8514727165354331
11
-0.5174378346456693
21
0.8578898818897638
0
LINE
8
BLACK
6
CONTINUOUS
10
-0.5174378346456693
20
0.8578898818897638
11
-0.5203913385826772
21
0.8650202755905512
0
LINE
8
BLACK
6
CONTINUOUS
10
-0.5203913385826772
20
0.8650202755905512
11
-0.5218970472440945
21
0.8725898818897637
0
LINE
8
BLACK
6
CONTINUOUS
10
-0.5218970472440945
20
0.8725898818897637
11
-0.5218970472440945
21
0.8803077559055118
0
LINE
8
BLACK
6
CONTINUOUS
10
-0.5218970472440945
20
0.8803077559055118
11
-0.5203913385826772
21
0.8878773622047244
0
LINE
8
BLACK
6
CONTINUOUS
10
-0.5203913385826772
20
0.8878773622047244
11
-0.5174378346456693
21
0.8950077559055117
0
LINE
8
BLACK
6
CONTINUOUS
10
-0.5174378346456693
20
0.8950077559055117
11
-0.51315
21
0.9014249212598425
0
LINE
8
BLACK
6
CONTINUOUS
10
-0.51315
20
0.9014249212598425
11
-0.5076926377952756
21
0.9068822834645669
0
LINE
8
BLACK
6
CONTINUOUS
10
-0.5076926377952756
20
0.9068822834645669
11
-0.5012754724409448
21
0.9111701181102362
0
LINE
8
BLACK
6
CONTINUOUS
10
-0.5012754724409448
20
0.9111701181102362
11
-0.4941450787401575
21
0.9141236220472441
0
LINE
8
BLACK
6
CONTINUOUS
10
-0.4941450787401575
20
0.9141236220472441
11
-0.4865754724409448
21
0.9156293307086614
0
LINE
8
BLACK
6
CONTINUOUS
10
-0.4865754724409448
20
0.9156293307086614
11
-0.4788575984251968
21
0.9156293307086614
0
LINE
8
BLACK
6
CONTINUOUS
10
-0.4788575984251968
20
0.9156293307086614
11
-0.4712879921259843
21
0.9141236220472441
0
LINE
8
BLACK
6
CONTINUOUS
10
-0.6952362204724409
20
0.8375905511811024
11
-0.7552362204724409
21
0.8375905511811024
0
LINE
8
BLACK
6
CONTINUOUS
10
-0.7552362204724409
20
0.8375905511811024
11
-0.7552362204724409
21
0.8975905511811023
0
LINE
8
BLACK
6
CONTINUOUS
10
-0.7552362204724409
20
0.8975905511811023
11
-0.6952362204724409
21
0.8975905511811023
0
LINE
8
BLACK
6
CONTINUOUS
10
-0.6952362204724409
20
0.8975905511811023
11
-0.6952362204724409
21
0.8375905511811024
0
LINE
8
BLACK
6
CONTINUOUS
10
-0.595236220472441
20
0.8375905511811024
11
-0.6552362204724409
21
0.8375905511811024
0
LINE
8
BLACK
6
CONTINUOUS
10
-0.6552362204724409
20
0.8375905511811024
11
-0.6552362204724409
21
0.8975905511811023
0
LINE
8
BLACK
6
CONTINUOUS
10
-0.6552362204724409
20
0.8975905511811023
11
-0.595236220472441
21
0.8975905511811023
0
LINE
8
BLACK
6
CONTINUOUS
10
-0.595236220472441
20
0.8975905511811023
11
-0.595236220472441
21
0.8375905511811024
0
LINE
8
BLACK
6
CONTINUOUS
10
0.5837165354330709
20
1.0110708661417322
11
0.5443464566929134
21
1.0110708661417322
0
LINE
8
BLACK
6
CONTINUOUS
10
0.5443464566929134
20
1.0110708661417322
11
0.5443464566929134
21
1.1606771653543306
0
LINE
8
BLACK
6
CONTINUOUS
10
0.5443464566929134
20
1.1606771653543306
11
0.5837165354330709
21
1.1606771653543306
0
LINE
8
BLACK
6
CONTINUOUS
10
0.5837165354330709
20
1.1606771653543306
11
0.5837165354330709
21
1.0110708661417322
0
LINE
8
BLACK
6
CONTINUOUS
10
1.8356850393700788
20
1.0110708661417322
11
1.7963149606299211
21
1.0110708661417322
0
LINE
8
BLACK
6
CONTINUOUS
10
1.7963149606299211
20
1.0110708661417322
11
1.7963149606299211
21
1.1606771653543306
0
LINE
8
BLACK
6
CONTINUOUS
10
1.7963149606299211
20
1.1606771653543306
11
1.8356850393700788
21
1.1606771653543306
0
LINE
8
BLACK
6
CONTINUOUS
10
1.8356850393700788
20
1.1606771653543306
11
1.8356850393700788
21
1.0110708661417322
0
LINE
8
BLACK
6
CONTINUOUS
10
0.5837165354330709
20
1.2472913385826772
11
0.5443464566929134
21
1.2472913385826772
0
LINE
8
BLACK
6
CONTINUOUS
10
0.5443464566929134
20
1.2472913385826772
11
0.5443464566929134
21
1.3968976377952755
0
LINE
8
BLACK
6
CONTINUOUS
10
0.5443464566929134
20
1.3968976377952755
11
0.5837165354330709
21
1.3968976377952755
0
LINE
8
BLACK
6
CONTINUOUS
10
0.5837165354330709
20
1.3968976377952755
11
0.5837165354330709
21
1.2472913385826772
0
LINE
8
BLACK
6
CONTINUOUS
10
1.8356850393700788
20
1.2472913385826772
11
1.7963149606299211
21
1.2472913385826772
0
LINE
8
BLACK
6
CONTINUOUS
10
1.7963149606299211
20
1.2472913385826772
11
1.7963149606299211
21
1.3968976377952755
0
LINE
8
BLACK
6
CONTINUOUS
10
1.7963149606299211
20
1.3968976377952755
11
1.8356850393700788
21
1.3968976377952755
0
LINE
8
BLACK
6
CONTINUOUS
10
1.8356850393700788
20
1.3968976377952755
11
1.8356850393700788
21
1.2472913385826772
0
LINE
8
BLACK
6
CONTINUOUS
10
0.5837165354330709
20
1.4835118110236221
11
0.5443464566929134
21
1.4835118110236221
0
LINE
8
BLACK
6
CONTINUOUS
10
0.5443464566929134
20
1.4835118110236221
11
0.5443464566929134
21
1.6331181102362204
0
LINE
8
BLACK
6
CONTINUOUS
10
0.5443464566929134
20
1.6331181102362204
11
0.5837165354330709
21
1.6331181102362204
0
LINE
8
BLACK
6
CONTINUOUS
10
0.5837165354330709
20
1.6331181102362204
11
0.5837165354330709
21
1.4835118110236221
0
LINE
8
BLACK
6
CONTINUOUS
10
1.8356850393700788
20
1.4835118110236221
11
1.7963149606299211
21
1.4835118110236221
0
LINE
8
BLACK
6
CONTINUOUS
10
1.7963149606299211
20
1.4835118110236221
11
1.7963149606299211
21
1.6331181102362204
0
LINE
8
BLACK
6
CONTINUOUS
10
1.7963149606299211
20
1.6331181102362204
11
1.8356850393700788
21
1.6331181102362204
0
LINE
8
BLACK
6
CONTINUOUS
10
1.8356850393700788
20
1.6331181102362204
11
1.8356850393700788
21
1.4835118110236221
0
LINE
8
BLACK
6
CONTINUOUS
10
0.5837165354330709
20
1.719732283464567
11
0.5443464566929134
21
1.719732283464567
0
LINE
8
BLACK
6
CONTINUOUS
10
0.5443464566929134
20
1.719732283464567
11
0.5443464566929134
21
1.810283464566929
0
LINE
8
BLACK
6
CONTINUOUS
10
0.5443464566929134
20
1.810283464566929
11
0.5443464566929134
21
1.8496535433070866
0
LINE
8
BLACK
6
CONTINUOUS
10
0.5443464566929134
20
1.8496535433070866
11
0.5837165354330709
21
1.8496535433070866
0
LINE
8
BLACK
6
CONTINUOUS
10
0.5837165354330709
20
1.8496535433070866
11
0.674267716535433
21
1.8496535433070866
0
LINE
8
BLACK
6
CONTINUOUS
10
0.674267716535433
20
1.8496535433070866
11
0.674267716535433
21
1.810283464566929
0
LINE
8
BLACK
6
CONTINUOUS
10
0.674267716535433
20
1.810283464566929
11
0.5837165354330709
21
1.810283464566929
0
LINE
8
BLACK
6
CONTINUOUS
10
0.5837165354330709
20
1.810283464566929
11
0.5837165354330709
21
1.719732283464567
0
LINE
8
BLACK
6
CONTINUOUS
10
1.8356850393700788
20
1.719732283464567
11
1.7963149606299211
21
1.719732283464567
0
LINE
8
BLACK
6
CONTINUOUS
10
1.7963149606299211
20
1.719732283464567
11
1.7963149606299211
21
1.810283464566929
0
LINE
8
BLACK
6
CONTINUOUS
10
1.7963149606299211
20
1.810283464566929
11
1.7057637795275591
21
1.810283464566929
0
LINE
8
BLACK
6
CONTINUOUS
10
1.7057637795275591
20
1.810283464566929
11
1.7057637795275591
21
1.8496535433070866
0
LINE
8
BLACK
6
CONTINUOUS
10
1.7057637795275591
20
1.8496535433070866
11
1.7963149606299211
21
1.8496535433070866
0
LINE
8
BLACK
6
CONTINUOUS
10
1.7963149606299211
20
1.8496535433070866
11
1.8356850393700788
21
1.8496535433070866
0
LINE
8
BLACK
6
CONTINUOUS
10
1.8356850393700788
20
1.8496535433070866
11
1.8356850393700788
21
1.810283464566929
0
LINE
8
BLACK
6
CONTINUOUS
10
1.8356850393700788
20
1.810283464566929
11
1.8356850393700788
21
1.719732283464567
0
LINE
8
BLACK
6
CONTINUOUS
10
0.910488188976378
20
1.810283464566929
11
0.7608818897637795
21
1.810283464566929
0
LINE
8
BLACK
6
CONTINUOUS
10
0.7608818897637795
20
1.810283464566929
11
0.7608818897637795
21
1.8496535433070866
0
LINE
8
BLACK
6
CONTINUOUS
10
0.7608818897637795
20
1.8496535433070866
11
0.910488188976378
21
1.8496535433070866
0
LINE
8
BLACK
6
CONTINUOUS
10
0.910488188976378
20
1.8496535433070866
11
0.910488188976378
21
1.810283464566929
0
LINE
8
BLACK
6
CONTINUOUS
10
1.1467086614173227
20
1.810283464566929
11
0.9971023622047244
21
1.810283464566929
0
LINE
8
BLACK
6
CONTINUOUS
10
0.9971023622047244
20
1.810283464566929
11
0.9971023622047244
21
1.8496535433070866
0
LINE
8
BLACK
6
CONTINUOUS
10
0.9971023622047244
20
1.8496535433070866
11
1.1467086614173227
21
1.8496535433070866
0
LINE
8
BLACK
6
CONTINUOUS
10
1.1467086614173227
20
1.8496535433070866
11
1.1467086614173227
21
1.810283464566929
0
LINE
8
BLACK
6
CONTINUOUS
10
1.3829291338582677
20
1.810283464566929
11
1.2333228346456693
21
1.810283464566929
0
LINE
8
BLACK
6
CONTINUOUS
10
1.2333228346456693
20
1.810283464566929
11
1.2333228346456693
21
1.8496535433070866
0
LINE
8
BLACK
6
CONTINUOUS
10
1.2333228346456693
20
1.8496535433070866
11
1.3829291338582677
21
1.8496535433070866
0
LINE
8
BLACK
6
CONTINUOUS
10
1.3829291338582677
20
1.8496535433070866
11
1.3829291338582677
21
1.810283464566929
0
LINE
8
BLACK
6
CONTINUOUS
10
1.6191496062992126
20
1.810283464566929
11
1.4695433070866142
21
1.810283464566929
0
LINE
8
BLACK
6
CONTINUOUS
10
1.4695433070866142
20
1.810283464566929
11
1.4695433070866142
21
1.8496535433070866
0
LINE
8
BLACK
6
CONTINUOUS
10
1.4695433070866142
20
1.8496535433070866
11
1.6191496062992126
21
1.8496535433070866
0
LINE
8
BLACK
6
CONTINUOUS
10
1.6191496062992126
20
1.8496535433070866
11
1.6191496062992126
21
1.810283464566929
0
LINE
8
BLACK
6
CONTINUOUS
10
0.4197842125984252
20
2.1164414566929133
11
0.432697125984252
21
2.1134941732283465
0
LINE
8
BLACK
6
CONTINUOUS
10
0.432697125984252
20
2.1134941732283465
11
0.4451988188976378
21
2.1091196456692911
0
LINE
8
BLACK
6
CONTINUOUS
10
0.4451988188976378
20
2.1091196456692911
11
0.4571321653543307
21
2.1033728346456693
0
LINE
8
BLACK
6
CONTINUOUS
10
0.4571321653543307
20
2.1033728346456693
11
0.4683470078740157
21
2.0963261023622048
0
LINE
8
BLACK
6
CONTINUOUS
10
0.4683470078740157
20
2.0963261023622048
11
0.4787023622047244
21
2.0880679527559054
0
LINE
8
BLACK
6
CONTINUOUS
10
0.4787023622047244
20
2.0880679527559054
11
0.4880679527559055
21
2.0787023622047243
0
LINE
8
BLACK
6
CONTINUOUS
10
0.4880679527559055
20
2.0787023622047243
11
0.4963261023622047
21
2.0683470078740158
0
LINE
8
BLACK
6
CONTINUOUS
10
0.4963261023622047
20
2.0683470078740158
11
0.5033728346456693
21
2.0571321653543309
0
LINE
8
BLACK
6
CONTINUOUS
10
0.5033728346456693
20
2.0571321653543309
11
0.5091196456692914
21
2.0451988188976378
0
LINE
8
BLACK
6
CONTINUOUS
10
0.5091196456692914
20
2.0451988188976378
11
0.5134941732283465
21
2.0326971259842521
0
LINE
8
BLACK
6
CONTINUOUS
10
0.5134941732283465
20
2.0326971259842521
11
0.5164414566929134
21
2.0197842125984251
0
LINE
8
BLACK
6
CONTINUOUS
10
0.5164414566929134
20
2.0197842125984251
11
0.5179244094488189
21
2.0066224803149604
0
LINE
8
BLACK
6
CONTINUOUS
10
0.5179244094488189
20
2.0066224803149604
11
0.5179244094488189
21
1.9933775196850394
0
LINE
8
BLACK
6
CONTINUOUS
10
0.5179244094488189
20
1.9933775196850394
11
0.5164414566929134
21
1.9802157874015747
0
LINE
8
BLACK
6
CONTINUOUS
10
0.5164414566929134
20
1.9802157874015747
11
0.5134941732283465
21
1.9673028740157479
0
LINE
8
BLACK
6
CONTINUOUS
10
0.5134941732283465
20
1.9673028740157479
11
0.5091196456692914
21
1.9548011811023622
0
LINE
8
BLACK
6
CONTINUOUS
10
0.5091196456692914
20
1.9548011811023622
11
0.5033728346456693
21
1.9428678346456691
0
LINE
8
BLACK
6
CONTINUOUS
10
0.5033728346456693
20
1.9428678346456691
11
0.4963261023622047
21
1.9316529921259842
0
LINE
8
BLACK
6
CONTINUOUS
10
0.4963261023622047
20
1.9316529921259842
11
0.4880679527559055
21
1.9212976377952755
0
LINE
8
BLACK
6
CONTINUOUS
10
0.4880679527559055
20
1.9212976377952755
11
0.4787023622047244
21
1.9119320472440944
0
LINE
8
BLACK
6
CONTINUOUS
10
0.4787023622047244
20
1.9119320472440944
11
0.4683470078740157
21
1.9036738976377952
0
LINE
8
BLACK
6
CONTINUOUS
10
0.4683470078740157
20
1.9036738976377952
11
0.4571321653543307
21
1.8966271653543307
0
LINE
8
BLACK
6
CONTINUOUS
10
0.4571321653543307
20
1.8966271653543307
11
0.4451988188976378
21
1.8908803543307087
0
LINE
8
BLACK
6
CONTINUOUS
10
0.4451988188976378
20
1.8908803543307087
11
0.432697125984252
21
1.8865058267716535
0
LINE
8
BLACK
6
CONTINUOUS
10
0.432697125984252
20
1.8865058267716535
11
0.4197842125984252
21
1.8835585433070865
0
LINE
8
BLACK
6
CONTINUOUS
10
0.4197842125984252
20
1.8835585433070865
11
0.4066224803149606
21
1.882075590551181
0
LINE
8
BLACK
6
CONTINUOUS
10
0.4066224803149606
20
1.882075590551181
11
0.3933775196850394
21
1.882075590551181
0
LINE
8
BLACK
6
CONTINUOUS
10
0.3933775196850394
20
1.882075590551181
11
0.3802157874015748
21
1.8835585433070865
0
LINE
8
BLACK
6
CONTINUOUS
10
0.3802157874015748
20
1.8835585433070865
11
0.367302874015748
21
1.8865058267716535
0
LINE
8
BLACK
6
CONTINUOUS
10
0.367302874015748
20
1.8865058267716535
11
0.3548011811023622
21
1.8908803543307087
0
LINE
8
BLACK
6
CONTINUOUS
10
0.3548011811023622
20
1.8908803543307087
11
0.3428678346456693
21
1.8966271653543307
0
LINE
8
BLACK
6
CONTINUOUS
10
0.3428678346456693
20
1.8966271653543307
11
0.3316529921259843
21
1.9036738976377952
0
LINE
8
BLACK
6
CONTINUOUS
10
0.3316529921259843
20
1.9036738976377952
11
0.3212976377952756
21
1.9119320472440944
0
LINE
8
BLACK
6
CONTINUOUS
10
0.3212976377952756
20
1.9119320472440944
11
0.3119320472440945
21
1.9212976377952755
0
LINE
8
BLACK
6
CONTINUOUS
10
0.3119320472440945
20
1.9212976377952755
11
0.3036738976377953
21
1.9316529921259842
0
LINE
8
BLACK
6
CONTINUOUS
10
0.3036738976377953
20
1.9316529921259842
11
0.2966271653543307
21
1.9428678346456691
0
LINE
8
BLACK
6
CONTINUOUS
10
0.2966271653543307
20
1.9428678346456691
11
0.2908803543307086
21
1.9548011811023622
0
LINE
8
BLACK
6
CONTINUOUS
10
0.2908803543307086
20
1.9548011811023622
11
0.2865058267716535
21
1.9673028740157479
0
LINE
8
BLACK
6
CONTINUOUS
10
0.2865058267716535
20
1.9673028740157479
11
0.2835585433070866
21
1.9802157874015747
0
LINE
8
BLACK
6
CONTINUOUS
10
0.2835585433070866
20
1.9802157874015747
11
0.2820755905511811
21
1.9933775196850394
0
LINE
8
BLACK
6
CONTINUOUS
10
0.2820755905511811
20
1.9933775196850394
11
0.2820755905511811
21
2.0066224803149604
0
LINE
8
BLACK
6
CONTINUOUS
10
0.2820755905511811
20
2.0066224803149604
11
0.2835585433070866
21
2.0197842125984251
0
LINE
8
BLACK
6
CONTINUOUS
10
0.2835585433070866
20
2.0197842125984251
11
0.2865058267716535
21
2.0326971259842521
0
LINE
8
BLACK
6
CONTINUOUS
10
0.2865058267716535
20
2.0326971259842521
11
0.2908803543307086
21
2.0451988188976378
0
LINE
8
BLACK
6
CONTINUOUS
10
0.2908803543307086
20
2.0451988188976378
11
0.2966271653543307
21
2.0571321653543309
0
LINE
8
BLACK
6
CONTINUOUS
10
0.2966271653543307
20
2.0571321653543309
11
0.3036738976377953
21
2.0683470078740158
0
LINE
8
BLACK
6
CONTINUOUS
10
0.3036738976377953
20
2.0683470078740158
11
0.3119320472440945
21
2.0787023622047243
0
LINE
8
BLACK
6
CONTINUOUS
10
0.3119320472440945
20
2.0787023622047243
11
0.3212976377952756
21
2.0880679527559054
0
LINE
8
BLACK
6
CONTINUOUS
10
0.3212976377952756
20
2.0880679527559054
11
0.3316529921259843
21
2.0963261023622048
0
LINE
8
BLACK
6
CONTINUOUS
10
0.3316529921259843
20
2.0963261023622048
11
0.3428678346456693
21
2.1033728346456693
0
LINE
8
BLACK
6
CONTINUOUS
10
0.3428678346456693
20
2.1033728346456693
11
0.3548011811023622
21
2.1091196456692911
0
LINE
8
BLACK
6
CONTINUOUS
10
0.3548011811023622
20
2.1091196456692911
11
0.367302874015748
21
2.1134941732283465
0
LINE
8
BLACK
6
CONTINUOUS
10
0.367302874015748
20
2.1134941732283465
11
0.3802157874015748
21
2.1164414566929133
0
LINE
8
BLACK
6
CONTINUOUS
10
0.3802157874015748
20
2.1164414566929133
11
0.3933775196850394
21
2.1179244094488188
0
LINE
8
BLACK
6
CONTINUOUS
10
0.3933775196850394
20
2.1179244094488188
11
0.4066224803149606
21
2.1179244094488188
0
LINE
8
BLACK
6
CONTINUOUS
10
0.4066224803149606
20
2.1179244094488188
11
0.4197842125984252
21
2.1164414566929133
0
LINE
8
BLACK
6
CONTINUOUS
10
2.0197842125984251
20
2.1164414566929133
11
2.0326971259842521
21
2.1134941732283465
0
LINE
8
BLACK
6
CONTINUOUS
10
2.0326971259842521
20
2.1134941732283465
11
2.0451988188976378
21
2.1091196456692911
0
LINE
8
BLACK
6
CONTINUOUS
10
2.0451988188976378
20
2.1091196456692911
11
2.0571321653543309
21
2.1033728346456693
0
LINE
8
BLACK
6
CONTINUOUS
10
2.0571321653543309
20
2.1033728346456693
11
2.0683470078740158
21
2.0963261023622048
0
LINE
8
BLACK
6
CONTINUOUS
10
2.0683470078740158
20
2.0963261023622048
11
2.0787023622047243
21
2.0880679527559054
0
LINE
8
BLACK
6
CONTINUOUS
10
2.0787023622047243
20
2.0880679527559054
11
2.0880679527559054
21
2.0787023622047243
0
LINE
8
BLACK
6
CONTINUOUS
10
2.0880679527559054
20
2.0787023622047243
11
2.0963261023622048
21
2.0683470078740158
0
LINE
8
BLACK
6
CONTINUOUS
10
2.0963261023622048
20
2.0683470078740158
11
2.1033728346456693
21
2.0571321653543309
0
LINE
8
BLACK
6
CONTINUOUS
10
2.1033728346456693
20
2.0571321653543309
11
2.1091196456692911
21
2.0451988188976378
0
LINE
8
BLACK
6
CONTINUOUS
10
2.1091196456692911
20
2.0451988188976378
11
2.1134941732283465
21
2.0326971259842521
0
LINE
8
BLACK
6
CONTINUOUS
10
2.1134941732283465
20
2.0326971259842521
11
2.1164414566929133
21
2.0197842125984251
0
LINE
8
BLACK
6
CONTINUOUS
10
2.1164414566929133
20
2.0197842125984251
11
2.1179244094488188
21
2.0066224803149604
0
LINE
8
BLACK
6
CONTINUOUS
10
2.1179244094488188
20
2.0066224803149604
11
2.1179244094488188
21
1.9933775196850394
0
LINE
8
BLACK
6
CONTINUOUS
10
2.1179244094488188
20
1.9933775196850394
11
2.1164414566929133
21
1.9802157874015747
0
LINE
8
BLACK
6
CONTINUOUS
10
2.1164414566929133
20
1.9802157874015747
11
2.1134941732283465
21
1.9673028740157479
0
LINE
8
BLACK
6
CONTINUOUS
10
2.1134941732283465
20
1.9673028740157479
11
2.1091196456692911
21
1.9548011811023622
0
LINE
8
BLACK
6
CONTINUOUS
10
2.1091196456692911
20
1.9548011811023622
11
2.1033728346456693
21
1.9428678346456691
0
LINE
8
BLACK
6
CONTINUOUS
10
2.1033728346456693
20
1.9428678346456691
11
2.0963261023622048
21
1.9316529921259842
0
LINE
8
BLACK
6
CONTINUOUS
10
2.0963261023622048
20
1.9316529921259842
11
2.0880679527559054
21
1.9212976377952755
0
LINE
8
BLACK
6
CONTINUOUS
10
2.0880679527559054
20
1.9212976377952755
11
2.0787023622047243
21
1.9119320472440944
0
LINE
8
BLACK
6
CONTINUOUS
10
2.0787023622047243
20
1.9119320472440944
11
2.0683470078740158
21
1.9036738976377952
0
LINE
8
BLACK
6
CONTINUOUS
10
2.0683470078740158
20
1.9036738976377952
11
2.0571321653543309
21
1.8966271653543307
0
LINE
8
BLACK
6
CONTINUOUS
10
2.0571321653543309
20
1.8966271653543307
11
2.0451988188976378
21
1.8908803543307087
0
LINE
8
BLACK
6
CONTINUOUS
10
2.0451988188976378
20
1.8908803543307087
11
2.0326971259842521
21
1.8865058267716535
0
LINE
8
BLACK
6
CONTINUOUS
10
2.0326971259842521
20
1.8865058267716535
11
2.0197842125984251
21
1.8835585433070865
0
LINE
8
BLACK
6
CONTINUOUS
10
2.0197842125984251
20
1.8835585433070865
11
2.0066224803149604
21
1.882075590551181
0
LINE
8
BLACK
6
CONTINUOUS
10
2.0066224803149604
20
1.882075590551181
11
1.9933775196850394
21
1.882075590551181
0
LINE
8
BLACK
6
CONTINUOUS
10
1.9933775196850394
20
1.882075590551181
11
1.9802157874015747
21
1.8835585433070865
0
LINE
8
BLACK
6
CONTINUOUS
10
1.9802157874015747
20
1.8835585433070865
11
1.9673028740157479
21
1.8865058267716535
0
LINE
8
BLACK
6
CONTINUOUS
10
1.9673028740157479
20
1.8865058267716535
11
1.9548011811023622
21
1.8908803543307087
0
LINE
8
BLACK
6
CONTINUOUS
10
1.9548011811023622
20
1.8908803543307087
11
1.9428678346456691
21
1.8966271653543307
0
LINE
8
BLACK
6
CONTINUOUS
10
1.9428678346456691
20
1.8966271653543307
11
1.9316529921259842
21
1.9036738976377952
0
LINE
8
BLACK
6
CONTINUOUS
10
1.9316529921259842
20
1.9036738976377952
11
1.9212976377952755
21
1.9119320472440944
0
LINE
8
BLACK
6
CONTINUOUS
10
1.9212976377952755
20
1.9119320472440944
11
1.9119320472440944
21
1.9212976377952755
0
LINE
8
BLACK
6
CONTINUOUS
10
1.9119320472440944
20
1.9212976377952755
11
1.9036738976377952
21
1.9316529921259842
0
LINE
8
BLACK
6
CONTINUOUS
10
1.9036738976377952
20
1.9316529921259842
11
1.8966271653543307
21
1.9428678346456691
0
LINE
8
BLACK
6
CONTINUOUS
10
1.8966271653543307
20
1.9428678346456691
11
1.8908803543307087
21
1.9548011811023622
0
LINE
8
BLACK
6
CONTINUOUS
10
1.8908803543307087
20
1.9548011811023622
11
1.8865058267716535
21
1.9673028740157479
0
LINE
8
BLACK
6
CONTINUOUS
10
1.8865058267716535
20
1.9673028740157479
11
1.8835585433070865
21
1.9802157874015747
0
LINE
8
BLACK
6
CONTINUOUS
10
1.8835585433070865
20
1.9802157874015747
11
1.882075590551181
21
1.9933775196850394
0
LINE
8
BLACK
6
CONTINUOUS
10
1.882075590551181
20
1.9933775196850394
11
1.882075590551181
21
2.0066224803149604
0
LINE
8
BLACK
6
CONTINUOUS
10
1.882075590551181
20
2.0066224803149604
11
1.8835585433070865
21
2.0197842125984251
0
LINE
8
BLACK
6
CONTINUOUS
10
1.8835585433070865
20
2.0197842125984251
11
1.8865058267716535
21
2.0326971259842521
0
LINE
8
BLACK
6
CONTINUOUS
10
1.8865058267716535
20
2.0326971259842521
11
1.8908803543307087
21
2.0451988188976378
0
LINE
8
BLACK
6
CONTINUOUS
10
1.8908803543307087
20
2.0451988188976378
11
1.8966271653543307
21
2.0571321653543309
0
LINE
8
BLACK
6
CONTINUOUS
10
1.8966271653543307
20
2.0571321653543309
11
1.9036738976377952
21
2.0683470078740158
0
LINE
8
BLACK
6
CONTINUOUS
10
1.9036738976377952
20
2.0683470078740158
11
1.9119320472440944
21
2.0787023622047243
0
LINE
8
BLACK
6
CONTINUOUS
10
1.9119320472440944
20
2.0787023622047243
11
1.9212976377952755
21
2.0880679527559054
0
LINE
8
BLACK
6
CONTINUOUS
10
1.9212976377952755
20
2.0880679527559054
11
1.9316529921259842
21
2.0963261023622048
0
LINE
8
BLACK
6
CONTINUOUS
10
1.9316529921259842
20
2.0963261023622048
11
1.9428678346456691
21
2.1033728346456693
0
LINE
8
BLACK
6
CONTINUOUS
10
1.9428678346456691
20
2.1033728346456693
11
1.9548011811023622
21
2.1091196456692911
0
LINE
8
BLACK
6
CONTINUOUS
10
1.9548011811023622
20
2.1091196456692911
11
1.9673028740157479
21
2.1134941732283465
0
LINE
8
BLACK
6
CONTINUOUS
10
1.9673028740157479
20
2.1134941732283465
11
1.9802157874015747
21
2.1164414566929133
0
LINE
8
BLACK
6
CONTINUOUS
10
1.9802157874015747
20
2.1164414566929133
11
1.9933775196850394
21
2.1179244094488188
0
LINE
8
BLACK
6
CONTINUOUS
10
1.9933775196850394
20
2.1179244094488188
11
2.0066224803149604
21
2.1179244094488188
0
LINE
8
BLACK
6
CONTINUOUS
10
2.0066224803149604
20
2.1179244094488188
11
2.0197842125984251
21
2.1164414566929133
0
LINE
8
BLACK
6
CONTINUOUS
10
-1.7924668503937007
20
2.922911023622047
11
-1.7880164960629921
21
2.9203416141732284
0
LINE
8
BLACK
6
CONTINUOUS
10
-1.7880164960629921
20
2.9203416141732284
11
-1.7843827952755904
21
2.9167079133858267
0
LINE
8
BLACK
6
CONTINUOUS
10
-1.7843827952755904
20
2.9167079133858267
11
-1.7818133858267715
21
2.9122575590551181
0
LINE
8
BLACK
6
CONTINUOUS
10
-1.7818133858267715
20
2.9122575590551181
11
-1.7804833858267717
21
2.9072938188976378
0
LINE
8
BLACK
6
CONTINUOUS
10
-1.7804833858267717
20
2.9072938188976378
11
-1.7804833858267717
21
2.902155
0
LINE
8
BLACK
6
CONTINUOUS
10
-1.7804833858267717
20
2.902155
11
-1.7818133858267715
21
2.8971912598425198
0
LINE
8
BLACK
6
CONTINUOUS
10
-1.7818133858267715
20
2.8971912598425198
11
-1.7843827952755904
21
2.8927409055118112
0
LINE
8
BLACK
6
CONTINUOUS
10
-1.7843827952755904
20
2.8927409055118112
11
-1.7880164960629921
21
2.8891072047244095
0
LINE
8
BLACK
6
CONTINUOUS
10
-1.7880164960629921
20
2.8891072047244095
11
-1.7924668503937007
21
2.8865377952755904
0
LINE
8
BLACK
6
CONTINUOUS
10
-1.7924668503937007
20
2.8865377952755904
11
-1.7974305905511812
21
2.8852077952755906
0
LINE
8
BLACK
6
CONTINUOUS
10
-1.7974305905511812
20
2.8852077952755906
11
-1.8025694094488189
21
2.8852077952755906
0
LINE
8
BLACK
6
CONTINUOUS
10
-1.8025694094488189
20
2.8852077952755906
11
-1.8075331496062992
21
2.8865377952755904
0
LINE
8
BLACK
6
CONTINUOUS
10
-1.8075331496062992
20
2.8865377952755904
11
-1.8119835039370078
21
2.8891072047244095
0
LINE
8
BLACK
6
CONTINUOUS
10
-1.8119835039370078
20
2.8891072047244095
11
-1.8156172047244095
21
2.8927409055118112
0
LINE
8
BLACK
6
CONTINUOUS
10
-1.8156172047244095
20
2.8927409055118112
11
-1.8181866141732284
21
2.8971912598425198
0
LINE
8
BLACK
6
CONTINUOUS
10
-1.8181866141732284
20
2.8971912598425198
11
-1.8195166141732284
21
2.902155
0
LINE
8
BLACK
6
CONTINUOUS
10
-1.8195166141732284
20
2.902155
11
-1.8195166141732284
21
2.9072938188976378
0
LINE
8
BLACK
6
CONTINUOUS
10
-1.8195166141732284
20
2.9072938188976378
11
-1.8181866141732284
21
2.9122575590551181
0
LINE
8
BLACK
6
CONTINUOUS
10
-1.8181866141732284
20
2.9122575590551181
11
-1.8156172047244095
21
2.9167079133858267
0
LINE
8
BLACK
6
CONTINUOUS
10
-1.8156172047244095
20
2.9167079133858267
11
-1.8119835039370078
21
2.9203416141732284
0
LINE
8
BLACK
6
CONTINUOUS
10
-1.8119835039370078
20
2.9203416141732284
11
-1.8075331496062992
21
2.922911023622047
0
LINE
8
BLACK
6
CONTINUOUS
10
-1.8075331496062992
20
2.922911023622047
11
-1.8025694094488189
21
2.9242410236220473
0
LINE
8
BLACK
6
CONTINUOUS
10
-1.8025694094488189
20
2.9242410236220473
11
-1.7974305905511812
21
2.9242410236220473
0
LINE
8
BLACK
6
CONTINUOUS
10
-1.7974305905511812
20
2.9242410236220473
11
-1.7924668503937007
21
2.922911023622047
0
LINE
8
BLACK
6
CONTINUOUS
10
-2.2806558267716537
20
3.0961393700787401
11
-2.2762054724409446
21
3.0935699606299214
0
LINE
8
BLACK
6
CONTINUOUS
10
-2.2762054724409446
20
3.0935699606299214
11
-2.2725717716535434
21
3.0899362598425197
0
LINE
8
BLACK
6
CONTINUOUS
10
-2.2725717716535434
20
3.0899362598425197
11
-2.2700023622047243
21
3.0854859055118111
0
LINE
8
BLACK
6
CONTINUOUS
10
-2.2700023622047243
20
3.0854859055118111
11
-2.2686723622047245
21
3.0805221653543304
0
LINE
8
BLACK
6
CONTINUOUS
10
-2.2686723622047245
20
3.0805221653543304
11
-2.2686723622047245
21
3.0753833464566926
0
LINE
8
BLACK
6
CONTINUOUS
10
-2.2686723622047245
20
3.0753833464566926
11
-2.2700023622047243
21
3.0704196062992124
0
LINE
8
BLACK
6
CONTINUOUS
10
-2.2700023622047243
20
3.0704196062992124
11
-2.2725717716535434
21
3.0659692519685038
0
LINE
8
BLACK
6
CONTINUOUS
10
-2.2725717716535434
20
3.0659692519685038
11
-2.2762054724409446
21
3.0623355511811021
0
LINE
8
BLACK
6
CONTINUOUS
10
-2.2762054724409446
20
3.0623355511811021
11
-2.2806558267716537
21
3.0597661417322835
0
LINE
8
BLACK
6
CONTINUOUS
10
-2.2806558267716537
20
3.0597661417322835
11
-2.2856195669291339
21
3.0584361417322832
0
LINE
8
BLACK
6
CONTINUOUS
10
-2.2856195669291339
20
3.0584361417322832
11
-2.2907583858267717
21
3.0584361417322832
0
LINE
8
BLACK
6
CONTINUOUS
10
-2.2907583858267717
20
3.0584361417322832
11
-2.295722125984252
21
3.0597661417322835
0
LINE
8
BLACK
6
CONTINUOUS
10
-2.295722125984252
20
3.0597661417322835
11
-2.3001724803149606
21
3.0623355511811021
0
LINE
8
BLACK
6
CONTINUOUS
10
-2.3001724803149606
20
3.0623355511811021
11
-2.3038061811023622
21
3.0659692519685038
0
LINE
8
BLACK
6
CONTINUOUS
10
-2.3038061811023622
20
3.0659692519685038
11
-2.3063755905511809
21
3.0704196062992124
0
LINE
8
BLACK
6
CONTINUOUS
10
-2.3063755905511809
20
3.0704196062992124
11
-2.3077055905511812
21
3.0753833464566926
0
LINE
8
BLACK
6
CONTINUOUS
10
-2.3077055905511812
20
3.0753833464566926
11
-2.3077055905511812
21
3.0805221653543304
0
LINE
8
BLACK
6
CONTINUOUS
10
-2.3077055905511812
20
3.0805221653543304
11
-2.3063755905511809
21
3.0854859055118111
0
LINE
8
BLACK
6
CONTINUOUS
10
-2.3063755905511809
20
3.0854859055118111
11
-2.3038061811023622
21
3.0899362598425197
0
LINE
8
BLACK
6
CONTINUOUS
10
-2.3038061811023622
20
3.0899362598425197
11
-2.3001724803149606
21
3.0935699606299214
0
LINE
8
BLACK
6
CONTINUOUS
10
-2.3001724803149606
20
3.0935699606299214
11
-2.295722125984252
21
3.0961393700787401
0
LINE
8
BLACK
6
CONTINUOUS
10
-2.295722125984252
20
3.0961393700787401
11
-2.2907583858267717
21
3.0974693700787399
0
LINE
8
BLACK
6
CONTINUOUS
10
-2.2907583858267717
20
3.0974693700787399
11
-2.2856195669291339
21
3.0974693700787399
0
LINE
8
BLACK
6
CONTINUOUS
10
-2.2856195669291339
20
3.0974693700787399
11
-2.2806558267716537
21
3.0961393700787401
0
LINE
8
BLACK
6
CONTINUOUS
10
-2.4223881102362204
20
3.2103125984251966
11
-2.4179377559055117
21
3.2077431889763779
0
LINE
8
BLACK
6
CONTINUOUS
10
-2.4179377559055117
20
3.2077431889763779
11
-2.4143040551181101
21
3.2041094881889762
0
LINE
8
BLACK
6
CONTINUOUS
10
-2.4143040551181101
20
3.2041094881889762
11
-2.4117346456692914
21
3.1996591338582676
0
LINE
8
BLACK
6
CONTINUOUS
10
-2.4117346456692914
20
3.1996591338582676
11
-2.4104046456692911
21
3.1946953937007874
0
LINE
8
BLACK
6
CONTINUOUS
10
-2.4104046456692911
20
3.1946953937007874
11
-2.4104046456692911
21
3.1895565748031496
0
LINE
8
BLACK
6
CONTINUOUS
10
-2.4104046456692911
20
3.1895565748031496
11
-2.4117346456692914
21
3.1845928346456693
0
LINE
8
BLACK
6
CONTINUOUS
10
-2.4117346456692914
20
3.1845928346456693
11
-2.4143040551181101
21
3.1801424803149607
0
LINE
8
BLACK
6
CONTINUOUS
10
-2.4143040551181101
20
3.1801424803149607
11
-2.4179377559055117
21
3.1765087795275591
0
LINE
8
BLACK
6
CONTINUOUS
10
-2.4179377559055117
20
3.1765087795275591
11
-2.4223881102362204
21
3.1739393700787399
0
LINE
8
BLACK
6
CONTINUOUS
10
-2.4223881102362204
20
3.1739393700787399
11
-2.4273518503937006
21
3.1726093700787401
0
LINE
8
BLACK
6
CONTINUOUS
10
-2.4273518503937006
20
3.1726093700787401
11
-2.4324906692913384
21
3.1726093700787401
0
LINE
8
BLACK
6
CONTINUOUS
10
-2.4324906692913384
20
3.1726093700787401
11
-2.4374544094488186
21
3.1739393700787399
0
LINE
8
BLACK
6
CONTINUOUS
10
-2.4374544094488186
20
3.1739393700787399
11
-2.4419047637795277
21
3.1765087795275591
0
LINE
8
BLACK
6
CONTINUOUS
10
-2.4419047637795277
20
3.1765087795275591
11
-2.4455384645669289
21
3.1801424803149607
0
LINE
8
BLACK
6
CONTINUOUS
10
-2.4455384645669289
20
3.1801424803149607
11
-2.448107874015748
21
3.1845928346456693
0
LINE
8
BLACK
6
CONTINUOUS
10
-2.448107874015748
20
3.1845928346456693
11
-2.4494378740157479
21
3.1895565748031496
0
LINE
8
BLACK
6
CONTINUOUS
10
-2.4494378740157479
20
3.1895565748031496
11
-2.4494378740157479
21
3.1946953937007874
0
LINE
8
BLACK
6
CONTINUOUS
10
-2.4494378740157479
20
3.1946953937007874
11
-2.448107874015748
21
3.1996591338582676
0
LINE
8
BLACK
6
CONTINUOUS
10
-2.448107874015748
20
3.1996591338582676
11
-2.4455384645669289
21
3.2041094881889762
0
LINE
8
BLACK
6
CONTINUOUS
10
-2.4455384645669289
20
3.2041094881889762
11
-2.4419047637795277
21
3.2077431889763779
0
LINE
8
BLACK
6
CONTINUOUS
10
-2.4419047637795277
20
3.2077431889763779
11
-2.4374544094488186
21
3.2103125984251966
0
LINE
8
BLACK
6
CONTINUOUS
10
-2.4374544094488186
20
3.2103125984251966
11
-2.4324906692913384
21
3.2116425984251968
0
LINE
8
BLACK
6
CONTINUOUS
10
-2.4324906692913384
20
3.2116425984251968
11
-2.4273518503937006
21
3.2116425984251968
0
LINE
8
BLACK
6
CONTINUOUS
10
-2.4273518503937006
20
3.2116425984251968
11
-2.4223881102362204
21
3.2103125984251966
0
LINE
8
BLACK
6
CONTINUOUS
10
-2.3121518897637796
20
3.2378716535433072
11
-2.307701535433071
21
3.2353022440944881
0
LINE
8
BLACK
6
CONTINUOUS
10
-2.307701535433071
20
3.2353022440944881
11
-2.3040678346456693
21
3.2316685433070864
0
LINE
8
BLACK
6
CONTINUOUS
10
-2.3040678346456693
20
3.2316685433070864
11
-2.3014984251968502
21
3.2272181889763778
0
LINE
8
BLACK
6
CONTINUOUS
10
-2.3014984251968502
20
3.2272181889763778
11
-2.3001684251968504
21
3.2222544488188976
0
LINE
8
BLACK
6
CONTINUOUS
10
-2.3001684251968504
20
3.2222544488188976
11
-2.3001684251968504
21
3.2171156299212598
0
LINE
8
BLACK
6
CONTINUOUS
10
-2.3001684251968504
20
3.2171156299212598
11
-2.3014984251968502
21
3.2121518897637795
0
LINE
8
BLACK
6
CONTINUOUS
10
-2.3014984251968502
20
3.2121518897637795
11
-2.3040678346456693
21
3.2077015354330709
0
LINE
8
BLACK
6
CONTINUOUS
10
-2.3040678346456693
20
3.2077015354330709
11
-2.307701535433071
21
3.2040678346456692
0
LINE
8
BLACK
6
CONTINUOUS
10
-2.307701535433071
20
3.2040678346456692
11
-2.3121518897637796
21
3.2014984251968501
0
LINE
8
BLACK
6
CONTINUOUS
10
-2.3121518897637796
20
3.2014984251968501
11
-2.3171156299212599
21
3.2001684251968503
0
LINE
8
BLACK
6
CONTINUOUS
10
-2.3171156299212599
20
3.2001684251968503
11
-2.3222544488188976
21
3.2001684251968503
0
LINE
8
BLACK
6
CONTINUOUS
10
-2.3222544488188976
20
3.2001684251968503
11
-2.3272181889763779
21
3.2014984251968501
0
LINE
8
BLACK
6
CONTINUOUS
10
-2.3272181889763779
20
3.2014984251968501
11
-2.3316685433070865
21
3.2040678346456692
0
LINE
8
BLACK
6
CONTINUOUS
10
-2.3316685433070865
20
3.2040678346456692
11
-2.3353022440944882
21
3.2077015354330709
0
LINE
8
BLACK
6
CONTINUOUS
10
-2.3353022440944882
20
3.2077015354330709
11
-2.3378716535433068
21
3.2121518897637795
0
LINE
8
BLACK
6
CONTINUOUS
10
-2.3378716535433068
20
3.2121518897637795
11
-2.3392016535433071
21
3.2171156299212598
0
LINE
8
BLACK
6
CONTINUOUS
10
-2.3392016535433071
20
3.2171156299212598
11
-2.3392016535433071
21
3.2222544488188976
0
LINE
8
BLACK
6
CONTINUOUS
10
-2.3392016535433071
20
3.2222544488188976
11
-2.3378716535433068
21
3.2272181889763778
0
LINE
8
BLACK
6
CONTINUOUS
10
-2.3378716535433068
20
3.2272181889763778
11
-2.3353022440944882
21
3.2316685433070864
0
LINE
8
BLACK
6
CONTINUOUS
10
-2.3353022440944882
20
3.2316685433070864
11
-2.3316685433070865
21
3.2353022440944881
0
LINE
8
BLACK
6
CONTINUOUS
10
-2.3316685433070865
20
3.2353022440944881
11
-2.3272181889763779
21
3.2378716535433072
0
LINE
8
BLACK
6
CONTINUOUS
10
-2.3272181889763779
20
3.2378716535433072
11
-2.3222544488188976
21
3.239201653543307
0
LINE
8
BLACK
6
CONTINUOUS
10
-2.3222544488188976
20
3.239201653543307
11
-2.3171156299212599
21
3.239201653543307
0
LINE
8
BLACK
6
CONTINUOUS
10
-2.3171156299212599
20
3.239201653543307
11
-2.3121518897637796
21
3.2378716535433072
0
LINE
8
BLACK
6
CONTINUOUS
10
-1.7806558267716535
20
3.4504700787401572
11
-1.7762054724409448
21
3.4479006692913385
0
LINE
8
BLACK
6
CONTINUOUS
10
-1.7762054724409448
20
3.4479006692913385
11
-1.7725717716535432
21
3.4442669685039369
0
LINE
8
BLACK
6
CONTINUOUS
10
-1.7725717716535432
20
3.4442669685039369
11
-1.7700023622047243
21
3.4398166141732283
0
LINE
8
BLACK
6
CONTINUOUS
10
-1.7700023622047243
20
3.4398166141732283
11
-1.7686723622047245
21
3.434852874015748
0
LINE
8
BLACK
6
CONTINUOUS
10
-1.7686723622047245
20
3.434852874015748
11
-1.7686723622047245
21
3.4297140551181102
0
LINE
8
BLACK
6
CONTINUOUS
10
-1.7686723622047245
20
3.4297140551181102
11
-1.7700023622047243
21
3.42475031496063
0
LINE
8
BLACK
6
CONTINUOUS
10
-1.7700023622047243
20
3.42475031496063
11
-1.7725717716535432
21
3.4202999606299214
0
LINE
8
BLACK
6
CONTINUOUS
10
-1.7725717716535432
20
3.4202999606299214
11
-1.7762054724409448
21
3.4166662598425197
0
LINE
8
BLACK
6
CONTINUOUS
10
-1.7762054724409448
20
3.4166662598425197
11
-1.7806558267716535
21
3.4140968503937006
0
LINE
8
BLACK
6
CONTINUOUS
10
-1.7806558267716535
20
3.4140968503937006
11
-1.7856195669291339
21
3.4127668503937008
0
LINE
8
BLACK
6
CONTINUOUS
10
-1.7856195669291339
20
3.4127668503937008
11
-1.7907583858267717
21
3.4127668503937008
0
LINE
8
BLACK
6
CONTINUOUS
10
-1.7907583858267717
20
3.4127668503937008
11
-1.795722125984252
21
3.4140968503937006
0
LINE
8
BLACK
6
CONTINUOUS
10
-1.795722125984252
20
3.4140968503937006
11
-1.8001724803149606
21
3.4166662598425197
0
LINE
8
BLACK
6
CONTINUOUS
10
-1.8001724803149606
20
3.4166662598425197
11
-1.8038061811023622
21
3.4202999606299214
0
LINE
8
BLACK
6
CONTINUOUS
10
-1.8038061811023622
20
3.4202999606299214
11
-1.8063755905511811
21
3.42475031496063
0
LINE
8
BLACK
6
CONTINUOUS
10
-1.8063755905511811
20
3.42475031496063
11
-1.807705590551181
21
3.4297140551181102
0
LINE
8
BLACK
6
CONTINUOUS
10
-1.807705590551181
20
3.4297140551181102
11
-1.807705590551181
21
3.434852874015748
0
LINE
8
BLACK
6
CONTINUOUS
10
-1.807705590551181
20
3.434852874015748
11
-1.8063755905511811
21
3.4398166141732283
0
LINE
8
BLACK
6
CONTINUOUS
10
-1.8063755905511811
20
3.4398166141732283
11
-1.8038061811023622
21
3.4442669685039369
0
LINE
8
BLACK
6
CONTINUOUS
10
-1.8038061811023622
20
3.4442669685039369
11
-1.8001724803149606
21
3.4479006692913385
0
LINE
8
BLACK
6
CONTINUOUS
10
-1.8001724803149606
20
3.4479006692913385
11
-1.795722125984252
21
3.4504700787401572
0
LINE
8
BLACK
6
CONTINUOUS
10
-1.795722125984252
20
3.4504700787401572
11
-1.7907583858267717
21
3.4518000787401575
0
LINE
8
BLACK
6
CONTINUOUS
10
-1.7907583858267717
20
3.4518000787401575
11
-1.7856195669291339
21
3.4518000787401575
0
LINE
8
BLACK
6
CONTINUOUS
10
-1.7856195669291339
20
3.4518000787401575
11
-1.7806558267716535
21
3.4504700787401572
0
LINE
8
BLACK
6
CONTINUOUS
10
-2.3397109448818898
20
3.6473204724409447
11
-2.3352605905511812
21
3.644751062992126
0
LINE
8
BLACK
6
CONTINUOUS
10
-2.3352605905511812
20
3.644751062992126
11
-2.3316268897637795
21
3.6411173622047244
0
LINE
8
BLACK
6
CONTINUOUS
10
-2.3316268897637795
20
3.6411173622047244
11
-2.3290574803149604
21
3.6366670078740158
0
LINE
8
BLACK
6
CONTINUOUS
10
-2.3290574803149604
20
3.6366670078740158
11
-2.3277274803149606
21
3.6317032677165355
0
LINE
8
BLACK
6
CONTINUOUS
10
-2.3277274803149606
20
3.6317032677165355
11
-2.3277274803149606
21
3.6265644488188977
0
LINE
8
BLACK
6
CONTINUOUS
10
-2.3277274803149606
20
3.6265644488188977
11
-2.3290574803149604
21
3.621600708661417
0
LINE
8
BLACK
6
CONTINUOUS
10
-2.3290574803149604
20
3.621600708661417
11
-2.3316268897637795
21
3.6171503543307084
0
LINE
8
BLACK
6
CONTINUOUS
10
-2.3316268897637795
20
3.6171503543307084
11
-2.3352605905511812
21
3.6135166535433072
0
LINE
8
BLACK
6
CONTINUOUS
10
-2.3352605905511812
20
3.6135166535433072
11
-2.3397109448818898
21
3.6109472440944881
0
LINE
8
BLACK
6
CONTINUOUS
10
-2.3397109448818898
20
3.6109472440944881
11
-2.34467468503937
21
3.6096172440944883
0
LINE
8
BLACK
6
CONTINUOUS
10
-2.34467468503937
20
3.6096172440944883
11
-2.3498135039370078
21
3.6096172440944883
0
LINE
8
BLACK
6
CONTINUOUS
10
-2.3498135039370078
20
3.6096172440944883
11
-2.3547772440944881
21
3.6109472440944881
0
LINE
8
BLACK
6
CONTINUOUS
10
-2.3547772440944881
20
3.6109472440944881
11
-2.3592275984251967
21
3.6135166535433072
0
LINE
8
BLACK
6
CONTINUOUS
10
-2.3592275984251967
20
3.6135166535433072
11
-2.3628612992125984
21
3.6171503543307084
0
LINE
8
BLACK
6
CONTINUOUS
10
-2.3628612992125984
20
3.6171503543307084
11
-2.3654307086614175
21
3.621600708661417
0
LINE
8
BLACK
6
CONTINUOUS
10
-2.3654307086614175
20
3.621600708661417
11
-2.3667607086614173
21
3.6265644488188977
0
LINE
8
BLACK
6
CONTINUOUS
10
-2.3667607086614173
20
3.6265644488188977
11
-2.3667607086614173
21
3.6317032677165355
0
LINE
8
BLACK
6
CONTINUOUS
10
-2.3667607086614173
20
3.6317032677165355
11
-2.3654307086614175
21
3.6366670078740158
0
LINE
8
BLACK
6
CONTINUOUS
10
-2.3654307086614175
20
3.6366670078740158
11
-2.3628612992125984
21
3.6411173622047244
0
LINE
8
BLACK
6
CONTINUOUS
10
-2.3628612992125984
20
3.6411173622047244
11
-2.3592275984251967
21
3.644751062992126
0
LINE
8
BLACK
6
CONTINUOUS
10
-2.3592275984251967
20
3.644751062992126
11
-2.3547772440944881
21
3.6473204724409447
0
LINE
8
BLACK
6
CONTINUOUS
10
-2.3547772440944881
20
3.6473204724409447
11
-2.3498135039370078
21
3.648650472440945
0
LINE
8
BLACK
6
CONTINUOUS
10
-2.3498135039370078
20
3.648650472440945
11
-2.34467468503937
21
3.648650472440945
0
LINE
8
BLACK
6
CONTINUOUS
10
-2.34467468503937
20
3.648650472440945
11
-2.3397109448818898
21
3.6473204724409447
0
LINE
8
BLACK
6
CONTINUOUS
10
-2.0175137401574803
20
3.7697912992125984
11
-2.0095817716535431
21
3.7672140551181101
0
LINE
8
BLACK
6
CONTINUOUS
10
-2.0095817716535431
20
3.7672140551181101
11
-2.0021506692913387
21
3.7634277165354328
0
LINE
8
BLACK
6
CONTINUOUS
10
-2.0021506692913387
20
3.7634277165354328
11
-1.9954033464566929
21
3.7585255118110235
0
LINE
8
BLACK
6
CONTINUOUS
10
-1.9954033464566929
20
3.7585255118110235
11
-1.9895059842519685
21
3.752628149606299
0
LINE
8
BLACK
6
CONTINUOUS
10
-1.9895059842519685
20
3.752628149606299
11
-1.9846037795275591
21
3.7458808267716535
0
LINE
8
BLACK
6
CONTINUOUS
10
-1.9846037795275591
20
3.7458808267716535
11
-1.9808174409448818
21
3.7384497244094486
0
LINE
8
BLACK
6
CONTINUOUS
10
-1.9808174409448818
20
3.7384497244094486
11
-1.9782401968503938
21
3.7305177559055118
0
LINE
8
BLACK
6
CONTINUOUS
10
-1.9782401968503938
20
3.7305177559055118
11
-1.9769355118110237
21
3.7222803149606301
0
LINE
8
BLACK
6
CONTINUOUS
10
-1.9769355118110237
20
3.7222803149606301
11
-1.9769355118110237
21
3.713940157480315
0
LINE
8
BLACK
6
CONTINUOUS
10
-1.9769355118110237
20
3.713940157480315
11
-1.9782401968503938
21
3.7057027165354328
0
LINE
8
BLACK
6
CONTINUOUS
10
-1.9782401968503938
20
3.7057027165354328
11
-1.9808174409448818
21
3.6977707480314961
0
LINE
8
BLACK
6
CONTINUOUS
10
-1.9808174409448818
20
3.6977707480314961
11
-1.9846037795275591
21
3.6903396456692912
0
LINE
8
BLACK
6
CONTINUOUS
10
-1.9846037795275591
20
3.6903396456692912
11
-1.9895059842519685
21
3.6835923228346457
0
LINE
8
BLACK
6
CONTINUOUS
10
-1.9895059842519685
20
3.6835923228346457
11
-1.9954033464566929
21
3.6776949606299212
0
LINE
8
BLACK
6
CONTINUOUS
10
-1.9954033464566929
20
3.6776949606299212
11
-2.0021506692913387
21
3.6727927559055118
0
LINE
8
BLACK
6
CONTINUOUS
10
-2.0021506692913387
20
3.6727927559055118
11
-2.0095817716535431
21
3.6690064173228345
0
LINE
8
BLACK
6
CONTINUOUS
10
-2.0095817716535431
20
3.6690064173228345
11
-2.0175137401574803
21
3.6664291732283463
0
LINE
8
BLACK
6
CONTINUOUS
10
-2.0175137401574803
20
3.6664291732283463
11
-2.0257511811023621
21
3.6651244881889764
0
LINE
8
BLACK
6
CONTINUOUS
10
-2.0257511811023621
20
3.6651244881889764
11
-2.0340913385826771
21
3.6651244881889764
0
LINE
8
BLACK
6
CONTINUOUS
10
-2.0340913385826771
20
3.6651244881889764
11
-2.0423287795275589
21
3.6664291732283463
0
LINE
8
BLACK
6
CONTINUOUS
10
-2.0423287795275589
20
3.6664291732283463
11
-2.050260748031496
21
3.6690064173228345
0
LINE
8
BLACK
6
CONTINUOUS
10
-2.050260748031496
20
3.6690064173228345
11
-2.0576918503937009
21
3.6727927559055118
0
LINE
8
BLACK
6
CONTINUOUS
10
-2.0576918503937009
20
3.6727927559055118
11
-2.0644391732283465
21
3.6776949606299212
0
LINE
8
BLACK
6
CONTINUOUS
10
-2.0644391732283465
20
3.6776949606299212
11
-2.0703365354330709
21
3.6835923228346457
0
LINE
8
BLACK
6
CONTINUOUS
10
-2.0703365354330709
20
3.6835923228346457
11
-2.0752387401574803
21
3.6903396456692912
0
LINE
8
BLACK
6
CONTINUOUS
10
-2.0752387401574803
20
3.6903396456692912
11
-2.0790250787401576
21
3.6977707480314961
0
LINE
8
BLACK
6
CONTINUOUS
10
-2.0790250787401576
20
3.6977707480314961
11
-2.0816023228346454
21
3.7057027165354328
0
LINE
8
BLACK
6
CONTINUOUS
10
-2.0816023228346454
20
3.7057027165354328
11
-2.0829070078740157
21
3.713940157480315
0
LINE
8
BLACK
6
CONTINUOUS
10
-2.0829070078740157
20
3.713940157480315
11
-2.0829070078740157
21
3.7222803149606301
0
LINE
8
BLACK
6
CONTINUOUS
10
-2.0829070078740157
20
3.7222803149606301
11
-2.0816023228346454
21
3.7305177559055118
0
LINE
8
BLACK
6
CONTINUOUS
10
-2.0816023228346454
20
3.7305177559055118
11
-2.0790250787401576
21
3.7384497244094486
0
LINE
8
BLACK
6
CONTINUOUS
10
-2.0790250787401576
20
3.7384497244094486
11
-2.0752387401574803
21
3.7458808267716535
0
LINE
8
BLACK
6
CONTINUOUS
10
-2.0752387401574803
20
3.7458808267716535
11
-2.0703365354330709
21
3.752628149606299
0
LINE
8
BLACK
6
CONTINUOUS
10
-2.0703365354330709
20
3.752628149606299
11
-2.0644391732283465
21
3.7585255118110235
0
LINE
8
BLACK
6
CONTINUOUS
10
-2.0644391732283465
20
3.7585255118110235
11
-2.0576918503937009
21
3.7634277165354328
0
LINE
8
BLACK
6
CONTINUOUS
10
-2.0576918503937009
20
3.7634277165354328
11
-2.050260748031496
21
3.7672140551181101
0
LINE
8
BLACK
6
CONTINUOUS
10
-2.050260748031496
20
3.7672140551181101
11
-2.0423287795275589
21
3.7697912992125984
0
LINE
8
BLACK
6
CONTINUOUS
10
-2.0423287795275589
20
3.7697912992125984
11
-2.0340913385826771
21
3.7710959842519682
0
LINE
8
BLACK
6
CONTINUOUS
10
-2.0340913385826771
20
3.7710959842519682
11
-2.0257511811023621
21
3.7710959842519682
0
LINE
8
BLACK
6
CONTINUOUS
10
-2.0257511811023621
20
3.7710959842519682
11
-2.0175137401574803
21
3.7697912992125984
0
LINE
8
BLACK
6
CONTINUOUS
10
-1.8175137401574804
20
3.7697912992125984
11
-1.8095817716535432
21
3.7672140551181101
0
LINE
8
BLACK
6
CONTINUOUS
10
-1.8095817716535432
20
3.7672140551181101
11
-1.8021506692913385
21
3.7634277165354328
0
LINE
8
BLACK
6
CONTINUOUS
10
-1.8021506692913385
20
3.7634277165354328
11
-1.795403346456693
21
3.7585255118110235
0
LINE
8
BLACK
6
CONTINUOUS
10
-1.795403346456693
20
3.7585255118110235
11
-1.7895059842519685
21
3.752628149606299
0
LINE
8
BLACK
6
CONTINUOUS
10
-1.7895059842519685
20
3.752628149606299
11
-1.7846037795275591
21
3.7458808267716535
0
LINE
8
BLACK
6
CONTINUOUS
10
-1.7846037795275591
20
3.7458808267716535
11
-1.7808174409448818
21
3.7384497244094486
0
LINE
8
BLACK
6
CONTINUOUS
10
-1.7808174409448818
20
3.7384497244094486
11
-1.7782401968503936
21
3.7305177559055118
0
LINE
8
BLACK
6
CONTINUOUS
10
-1.7782401968503936
20
3.7305177559055118
11
-1.7769355118110235
21
3.7222803149606301
0
LINE
8
BLACK
6
CONTINUOUS
10
-1.7769355118110235
20
3.7222803149606301
11
-1.7769355118110235
21
3.713940157480315
0
LINE
8
BLACK
6
CONTINUOUS
10
-1.7769355118110235
20
3.713940157480315
11
-1.7782401968503936
21
3.7057027165354328
0
LINE
8
BLACK
6
CONTINUOUS
10
-1.7782401968503936
20
3.7057027165354328
11
-1.7808174409448818
21
3.6977707480314961
0
LINE
8
BLACK
6
CONTINUOUS
10
-1.7808174409448818
20
3.6977707480314961
11
-1.7846037795275591
21
3.6903396456692912
0
LINE
8
BLACK
6
CONTINUOUS
10
-1.7846037795275591
20
3.6903396456692912
11
-1.7895059842519685
21
3.6835923228346457
0
LINE
8
BLACK
6
CONTINUOUS
10
-1.7895059842519685
20
3.6835923228346457
11
-1.795403346456693
21
3.6776949606299212
0
LINE
8
BLACK
6
CONTINUOUS
10
-1.795403346456693
20
3.6776949606299212
11
-1.8021506692913385
21
3.6727927559055118
0
LINE
8
BLACK
6
CONTINUOUS
10
-1.8021506692913385
20
3.6727927559055118
11
-1.8095817716535432
21
3.6690064173228345
0
LINE
8
BLACK
6
CONTINUOUS
10
-1.8095817716535432
20
3.6690064173228345
11
-1.8175137401574804
21
3.6664291732283463
0
LINE
8
BLACK
6
CONTINUOUS
10
-1.8175137401574804
20
3.6664291732283463
11
-1.8257511811023621
21
3.6651244881889764
0
LINE
8
BLACK
6
CONTINUOUS
10
-1.8257511811023621
20
3.6651244881889764
11
-1.8340913385826771
21
3.6651244881889764
0
LINE
8
BLACK
6
CONTINUOUS
10
-1.8340913385826771
20
3.6651244881889764
11
-1.8423287795275589
21
3.6664291732283463
0
LINE
8
BLACK
6
CONTINUOUS
10
-1.8423287795275589
20
3.6664291732283463
11
-1.8502607480314961
21
3.6690064173228345
0
LINE
8
BLACK
6
CONTINUOUS
10
-1.8502607480314961
20
3.6690064173228345
11
-1.8576918503937008
21
3.6727927559055118
0
LINE
8
BLACK
6
CONTINUOUS
10
-1.8576918503937008
20
3.6727927559055118
11
-1.8644391732283465
21
3.6776949606299212
0
LINE
8
BLACK
6
CONTINUOUS
10
-1.8644391732283465
20
3.6776949606299212
11
-1.8703365354330708
21
3.6835923228346457
0
LINE
8
BLACK
6
CONTINUOUS
10
-1.8703365354330708
20
3.6835923228346457
11
-1.8752387401574804
21
3.6903396456692912
0
LINE
8
BLACK
6
CONTINUOUS
10
-1.8752387401574804
20
3.6903396456692912
11
-1.8790250787401575
21
3.6977707480314961
0
LINE
8
BLACK
6
CONTINUOUS
10
-1.8790250787401575
20
3.6977707480314961
11
-1.8816023228346457
21
3.7057027165354328
0
LINE
8
BLACK
6
CONTINUOUS
10
-1.8816023228346457
20
3.7057027165354328
11
-1.8829070078740158
21
3.713940157480315
0
LINE
8
BLACK
6
CONTINUOUS
10
-1.8829070078740158
20
3.713940157480315
11
-1.8829070078740158
21
3.7222803149606301
0
LINE
8
BLACK
6
CONTINUOUS
10
-1.8829070078740158
20
3.7222803149606301
11
-1.8816023228346457
21
3.7305177559055118
0
LINE
8
BLACK
6
CONTINUOUS
10
-1.8816023228346457
20
3.7305177559055118
11
-1.8790250787401575
21
3.7384497244094486
0
LINE
8
BLACK
6
CONTINUOUS
10
-1.8790250787401575
20
3.7384497244094486
11
-1.8752387401574804
21
3.7458808267716535
0
LINE
8
BLACK
6
CONTINUOUS
10
-1.8752387401574804
20
3.7458808267716535
11
-1.8703365354330708
21
3.752628149606299
0
LINE
8
BLACK
6
CONTINUOUS
10
-1.8703365354330708
20
3.752628149606299
11
-1.8644391732283465
21
3.7585255118110235
0
LINE
8
BLACK
6
CONTINUOUS
10
-1.8644391732283465
20
3.7585255118110235
11
-1.8576918503937008
21
3.7634277165354328
0
LINE
8
BLACK
6
CONTINUOUS
10
-1.8576918503937008
20
3.7634277165354328
11
-1.8502607480314961
21
3.7672140551181101
0
LINE
8
BLACK
6
CONTINUOUS
10
-1.8502607480314961
20
3.7672140551181101
11
-1.8423287795275589
21
3.7697912992125984
0
LINE
8
BLACK
6
CONTINUOUS
10
-1.8423287795275589
20
3.7697912992125984
11
-1.8340913385826771
21
3.7710959842519682
0
LINE
8
BLACK
6
CONTINUOUS
10
-1.8340913385826771
20
3.7710959842519682
11
-1.8257511811023621
21
3.7710959842519682
0
LINE
8
BLACK
6
CONTINUOUS
10
-1.8257511811023621
20
3.7710959842519682
11
-1.8175137401574804
21
3.7697912992125984
0
LINE
8
BLACK
6
CONTINUOUS
10
-1.9184327952755904
20
3.8659630708661417
11
-1.9110884251968503
21
3.8635767322834647
0
LINE
8
BLACK
6
CONTINUOUS
10
-1.9110884251968503
20
3.8635767322834647
11
-1.9042077559055117
21
3.860070866141732
0
LINE
8
BLACK
6
CONTINUOUS
10
-1.9042077559055117
20
3.860070866141732
11
-1.8979602362204724
21
3.8555317716535433
0
LINE
8
BLACK
6
CONTINUOUS
10
-1.8979602362204724
20
3.8555317716535433
11
-1.8924997244094488
21
3.8500712598425197
0
LINE
8
BLACK
6
CONTINUOUS
10
-1.8924997244094488
20
3.8500712598425197
11
-1.8879606299212599
21
3.8438237401574802
0
LINE
8
BLACK
6
CONTINUOUS
10
-1.8879606299212599
20
3.8438237401574802
11
-1.8844547637795275
21
3.8369430708661416
0
LINE
8
BLACK
6
CONTINUOUS
10
-1.8844547637795275
20
3.8369430708661416
11
-1.8820684251968502
21
3.8295987007874013
0
LINE
8
BLACK
6
CONTINUOUS
10
-1.8820684251968502
20
3.8295987007874013
11
-1.8808603543307085
21
3.8219714173228345
0
LINE
8
BLACK
6
CONTINUOUS
10
-1.8808603543307085
20
3.8219714173228345
11
-1.8808603543307085
21
3.8142490551181103
0
LINE
8
BLACK
6
CONTINUOUS
10
-1.8808603543307085
20
3.8142490551181103
11
-1.8820684251968502
21
3.8066217716535431
0
LINE
8
BLACK
6
CONTINUOUS
10
-1.8820684251968502
20
3.8066217716535431
11
-1.8844547637795275
21
3.7992774015748032
0
LINE
8
BLACK
6
CONTINUOUS
10
-1.8844547637795275
20
3.7992774015748032
11
-1.8879606299212599
21
3.7923967322834646
0
LINE
8
BLACK
6
CONTINUOUS
10
-1.8879606299212599
20
3.7923967322834646
11
-1.8924997244094488
21
3.7861492125984251
0
LINE
8
BLACK
6
CONTINUOUS
10
-1.8924997244094488
20
3.7861492125984251
11
-1.8979602362204724
21
3.7806887007874015
0
LINE
8
BLACK
6
CONTINUOUS
10
-1.8979602362204724
20
3.7806887007874015
11
-1.9042077559055117
21
3.7761496062992124
0
LINE
8
BLACK
6
CONTINUOUS
10
-1.9042077559055117
20
3.7761496062992124
11
-1.9110884251968503
21
3.7726437401574802
0
LINE
8
BLACK
6
CONTINUOUS
10
-1.9110884251968503
20
3.7726437401574802
11
-1.9184327952755904
21
3.7702574015748032
0
LINE
8
BLACK
6
CONTINUOUS
10
-1.9184327952755904
20
3.7702574015748032
11
-1.9260600787401574
21
3.7690493307086612
0
LINE
8
BLACK
6
CONTINUOUS
10
-1.9260600787401574
20
3.7690493307086612
11
-1.9337824409448818
21
3.7690493307086612
0
LINE
8
BLACK
6
CONTINUOUS
10
-1.9337824409448818
20
3.7690493307086612
11
-1.9414097244094488
21
3.7702574015748032
0
LINE
8
BLACK
6
CONTINUOUS
10
-1.9414097244094488
20
3.7702574015748032
11
-1.9487540944881889
21
3.7726437401574802
0
LINE
8
BLACK
6
CONTINUOUS
10
-1.9487540944881889
20
3.7726437401574802
11
-1.9556347637795275
21
3.7761496062992124
0
LINE
8
BLACK
6
CONTINUOUS
10
-1.9556347637795275
20
3.7761496062992124
11
-1.9618822834645668
21
3.7806887007874015
0
LINE
8
BLACK
6
CONTINUOUS
10
-1.9618822834645668
20
3.7806887007874015
11
-1.9673427952755904
21
3.7861492125984251
0
LINE
8
BLACK
6
CONTINUOUS
10
-1.9673427952755904
20
3.7861492125984251
11
-1.9718818897637795
21
3.7923967322834646
0
LINE
8
BLACK
6
CONTINUOUS
10
-1.9718818897637795
20
3.7923967322834646
11
-1.9753877559055117
21
3.7992774015748032
0
LINE
8
BLACK
6
CONTINUOUS
10
-1.9753877559055117
20
3.7992774015748032
11
-1.977774094488189
21
3.8066217716535431
0
LINE
8
BLACK
6
CONTINUOUS
10
-1.977774094488189
20
3.8066217716535431
11
-1.9789821653543307
21
3.8142490551181103
0
LINE
8
BLACK
6
CONTINUOUS
10
-1.9789821653543307
20
3.8142490551181103
11
-1.9789821653543307
21
3.8219714173228345
0
LINE
8
BLACK
6
CONTINUOUS
10
-1.9789821653543307
20
3.8219714173228345
11
-1.977774094488189
21
3.8295987007874013
0
LINE
8
BLACK
6
CONTINUOUS
10
-1.977774094488189
20
3.8295987007874013
11
-1.9753877559055117
21
3.8369430708661416
0
LINE
8
BLACK
6
CONTINUOUS
10
-1.9753877559055117
20
3.8369430708661416
11
-1.9718818897637795
21
3.8438237401574802
0
LINE
8
BLACK
6
CONTINUOUS
10
-1.9718818897637795
20
3.8438237401574802
11
-1.9673427952755904
21
3.8500712598425197
0
LINE
8
BLACK
6
CONTINUOUS
10
-1.9673427952755904
20
3.8500712598425197
11
-1.9618822834645668
21
3.8555317716535433
0
LINE
8
BLACK
6
CONTINUOUS
10
-1.9618822834645668
20
3.8555317716535433
11
-1.9556347637795275
21
3.860070866141732
0
LINE
8
BLACK
6
CONTINUOUS
10
-1.9556347637795275
20
3.860070866141732
11
-1.9487540944881889
21
3.8635767322834647
0
LINE
8
BLACK
6
CONTINUOUS
10
-1.9487540944881889
20
3.8635767322834647
11
-1.9414097244094488
21
3.8659630708661417
0
LINE
8
BLACK
6
CONTINUOUS
10
-1.9414097244094488
20
3.8659630708661417
11
-1.9337824409448818
21
3.8671711417322832
0
LINE
8
BLACK
6
CONTINUOUS
10
-1.9337824409448818
20
3.8671711417322832
11
-1.9260600787401574
21
3.8671711417322832
0
LINE
8
BLACK
6
CONTINUOUS
10
-1.9260600787401574
20
3.8671711417322832
11
-1.9184327952755904
21
3.8659630708661417
0
LINE
8
BLACK
6
CONTINUOUS
10
-2.3357739370078741
20
3.8126748031496063
11
-2.3313235826771654
21
3.8101053937007872
0
LINE
8
BLACK
6
CONTINUOUS
10
-2.3313235826771654
20
3.8101053937007872
11
-2.3276898818897638
21
3.8064716929133859
0
LINE
8
BLACK
6
CONTINUOUS
10
-2.3276898818897638
20
3.8064716929133859
11
-2.3251204724409447
21
3.8020213385826769
0
LINE
8
BLACK
6
CONTINUOUS
10
-2.3251204724409447
20
3.8020213385826769
11
-2.3237904724409448
21
3.7970575984251966
0
LINE
8
BLACK
6
CONTINUOUS
10
-2.3237904724409448
20
3.7970575984251966
11
-2.3237904724409448
21
3.7919187795275588
0
LINE
8
BLACK
6
CONTINUOUS
10
-2.3237904724409448
20
3.7919187795275588
11
-2.3251204724409447
21
3.7869550393700786
0
LINE
8
BLACK
6
CONTINUOUS
10
-2.3251204724409447
20
3.7869550393700786
11
-2.3276898818897638
21
3.78250468503937
0
LINE
8
BLACK
6
CONTINUOUS
10
-2.3276898818897638
20
3.78250468503937
11
-2.3313235826771654
21
3.7788709842519683
0
LINE
8
BLACK
6
CONTINUOUS
10
-2.3313235826771654
20
3.7788709842519683
11
-2.3357739370078741
21
3.7763015748031497
0
LINE
8
BLACK
6
CONTINUOUS
10
-2.3357739370078741
20
3.7763015748031497
11
-2.3407376771653543
21
3.7749715748031494
0
LINE
8
BLACK
6
CONTINUOUS
10
-2.3407376771653543
20
3.7749715748031494
11
-2.3458764960629921
21
3.7749715748031494
0
LINE
8
BLACK
6
CONTINUOUS
10
-2.3458764960629921
20
3.7749715748031494
11
-2.3508402362204723
21
3.7763015748031497
0
LINE
8
BLACK
6
CONTINUOUS
10
-2.3508402362204723
20
3.7763015748031497
11
-2.355290590551181
21
3.7788709842519683
0
LINE
8
BLACK
6
CONTINUOUS
10
-2.355290590551181
20
3.7788709842519683
11
-2.3589242913385826
21
3.78250468503937
0
LINE
8
BLACK
6
CONTINUOUS
10
-2.3589242913385826
20
3.78250468503937
11
-2.3614937007874017
21
3.7869550393700786
0
LINE
8
BLACK
6
CONTINUOUS
10
-2.3614937007874017
20
3.7869550393700786
11
-2.3628237007874016
21
3.7919187795275588
0
LINE
8
BLACK
6
CONTINUOUS
10
-2.3628237007874016
20
3.7919187795275588
11
-2.3628237007874016
21
3.7970575984251966
0
LINE
8
BLACK
6
CONTINUOUS
10
-2.3628237007874016
20
3.7970575984251966
11
-2.3614937007874017
21
3.8020213385826769
0
LINE
8
BLACK
6
CONTINUOUS
10
-2.3614937007874017
20
3.8020213385826769
11
-2.3589242913385826
21
3.8064716929133859
0
LINE
8
BLACK
6
CONTINUOUS
10
-2.3589242913385826
20
3.8064716929133859
11
-2.355290590551181
21
3.8101053937007872
0
LINE
8
BLACK
6
CONTINUOUS
10
-2.355290590551181
20
3.8101053937007872
11
-2.3508402362204723
21
3.8126748031496063
0
LINE
8
BLACK
6
CONTINUOUS
10
-2.3508402362204723
20
3.8126748031496063
11
-2.3458764960629921
21
3.8140048031496061
0
LINE
8
BLACK
6
CONTINUOUS
10
-2.3458764960629921
20
3.8140048031496061
11
-2.3407376771653543
21
3.8140048031496061
0
LINE
8
BLACK
6
CONTINUOUS
10
-2.3407376771653543
20
3.8140048031496061
11
-2.3357739370078741
21
3.8126748031496063
0
LINE
8
BLACK
6
CONTINUOUS
10
-2.3357739370078741
20
3.8953519685039368
11
-2.3313235826771654
21
3.8927825590551182
0
LINE
8
BLACK
6
CONTINUOUS
10
-2.3313235826771654
20
3.8927825590551182
11
-2.3276898818897638
21
3.8891488582677165
0
LINE
8
BLACK
6
CONTINUOUS
10
-2.3276898818897638
20
3.8891488582677165
11
-2.3251204724409447
21
3.8846985039370079
0
LINE
8
BLACK
6
CONTINUOUS
10
-2.3251204724409447
20
3.8846985039370079
11
-2.3237904724409448
21
3.8797347637795276
0
LINE
8
BLACK
6
CONTINUOUS
10
-2.3237904724409448
20
3.8797347637795276
11
-2.3237904724409448
21
3.8745959448818899
0
LINE
8
BLACK
6
CONTINUOUS
10
-2.3237904724409448
20
3.8745959448818899
11
-2.3251204724409447
21
3.8696322047244092
0
LINE
8
BLACK
6
CONTINUOUS
10
-2.3251204724409447
20
3.8696322047244092
11
-2.3276898818897638
21
3.8651818503937005
0
LINE
8
BLACK
6
CONTINUOUS
10
-2.3276898818897638
20
3.8651818503937005
11
-2.3313235826771654
21
3.8615481496062993
0
LINE
8
BLACK
6
CONTINUOUS
10
-2.3313235826771654
20
3.8615481496062993
11
-2.3357739370078741
21
3.8589787401574802
0
LINE
8
BLACK
6
CONTINUOUS
10
-2.3357739370078741
20
3.8589787401574802
11
-2.3407376771653543
21
3.8576487401574804
0
LINE
8
BLACK
6
CONTINUOUS
10
-2.3407376771653543
20
3.8576487401574804
11
-2.3458764960629921
21
3.8576487401574804
0
LINE
8
BLACK
6
CONTINUOUS
10
-2.3458764960629921
20
3.8576487401574804
11
-2.3508402362204723
21
3.8589787401574802
0
LINE
8
BLACK
6
CONTINUOUS
10
-2.3508402362204723
20
3.8589787401574802
11
-2.355290590551181
21
3.8615481496062993
0
LINE
8
BLACK
6
CONTINUOUS
10
-2.355290590551181
20
3.8615481496062993
11
-2.3589242913385826
21
3.8651818503937005
0
LINE
8
BLACK
6
CONTINUOUS
10
-2.3589242913385826
20
3.8651818503937005
11
-2.3614937007874017
21
3.8696322047244092
0
LINE
8
BLACK
6
CONTINUOUS
10
-2.3614937007874017
20
3.8696322047244092
11
-2.3628237007874016
21
3.8745959448818899
0
LINE
8
BLACK
6
CONTINUOUS
10
-2.3628237007874016
20
3.8745959448818899
11
-2.3628237007874016
21
3.8797347637795276
0
LINE
8
BLACK
6
CONTINUOUS
10
-2.3628237007874016
20
3.8797347637795276
11
-2.3614937007874017
21
3.8846985039370079
0
LINE
8
BLACK
6
CONTINUOUS
10
-2.3614937007874017
20
3.8846985039370079
11
-2.3589242913385826
21
3.8891488582677165
0
LINE
8
BLACK
6
CONTINUOUS
10
-2.3589242913385826
20
3.8891488582677165
11
-2.355290590551181
21
3.8927825590551182
0
LINE
8
BLACK
6
CONTINUOUS
10
-2.355290590551181
20
3.8927825590551182
11
-2.3508402362204723
21
3.8953519685039368
0
LINE
8
BLACK
6
CONTINUOUS
10
-2.3508402362204723
20
3.8953519685039368
11
-2.3458764960629921
21
3.8966819685039371
0
LINE
8
BLACK
6
CONTINUOUS
10
-2.3458764960629921
20
3.8966819685039371
11
-2.3407376771653543
21
3.8966819685039371
0
LINE
8
BLACK
6
CONTINUOUS
10
-2.3407376771653543
20
3.8966819685039371
11
-2.3357739370078741
21
3.8953519685039368
0
LINE
8
BLACK
6
CONTINUOUS
10
-2.0175137401574803
20
3.9697912992125985
11
-2.0095817716535431
21
3.9672140551181103
0
LINE
8
BLACK
6
CONTINUOUS
10
-2.0095817716535431
20
3.9672140551181103
11
-2.0021506692913387
21
3.963427716535433
0
LINE
8
BLACK
6
CONTINUOUS
10
-2.0021506692913387
20
3.963427716535433
11
-1.9954033464566929
21
3.9585255118110236
0
LINE
8
BLACK
6
CONTINUOUS
10
-1.9954033464566929
20
3.9585255118110236
11
-1.9895059842519685
21
3.9526281496062992
0
LINE
8
BLACK
6
CONTINUOUS
10
-1.9895059842519685
20
3.9526281496062992
11
-1.9846037795275591
21
3.9458808267716536
0
LINE
8
BLACK
6
CONTINUOUS
10
-1.9846037795275591
20
3.9458808267716536
11
-1.9808174409448818
21
3.9384497244094487
0
LINE
8
BLACK
6
CONTINUOUS
10
-1.9808174409448818
20
3.9384497244094487
11
-1.9782401968503938
21
3.9305177559055116
0
LINE
8
BLACK
6
CONTINUOUS
10
-1.9782401968503938
20
3.9305177559055116
11
-1.9769355118110237
21
3.9222803149606298
0
LINE
8
BLACK
6
CONTINUOUS
10
-1.9769355118110237
20
3.9222803149606298
11
-1.9769355118110237
21
3.9139401574803148
0
LINE
8
BLACK
6
CONTINUOUS
10
-1.9769355118110237
20
3.9139401574803148
11
-1.9782401968503938
21
3.905702716535433
0
LINE
8
BLACK
6
CONTINUOUS
10
-1.9782401968503938
20
3.905702716535433
11
-1.9808174409448818
21
3.8977707480314958
0
LINE
8
BLACK
6
CONTINUOUS
10
-1.9808174409448818
20
3.8977707480314958
11
-1.9846037795275591
21
3.8903396456692914
0
LINE
8
BLACK
6
CONTINUOUS
10
-1.9846037795275591
20
3.8903396456692914
11
-1.9895059842519685
21
3.8835923228346454
0
LINE
8
BLACK
6
CONTINUOUS
10
-1.9895059842519685
20
3.8835923228346454
11
-1.9954033464566929
21
3.8776949606299214
0
LINE
8
BLACK
6
CONTINUOUS
10
-1.9954033464566929
20
3.8776949606299214
11
-2.0021506692913387
21
3.8727927559055115
0
LINE
8
BLACK
6
CONTINUOUS
10
-2.0021506692913387
20
3.8727927559055115
11
-2.0095817716535431
21
3.8690064173228347
0
LINE
8
BLACK
6
CONTINUOUS
10
-2.0095817716535431
20
3.8690064173228347
11
-2.0175137401574803
21
3.8664291732283464
0
LINE
8
BLACK
6
CONTINUOUS
10
-2.0175137401574803
20
3.8664291732283464
11
-2.0257511811023621
21
3.8651244881889761
0
LINE
8
BLACK
6
CONTINUOUS
10
-2.0257511811023621
20
3.8651244881889761
11
-2.0340913385826771
21
3.8651244881889761
0
LINE
8
BLACK
6
CONTINUOUS
10
-2.0340913385826771
20
3.8651244881889761
11
-2.0423287795275589
21
3.8664291732283464
0
LINE
8
BLACK
6
CONTINUOUS
10
-2.0423287795275589
20
3.8664291732283464
11
-2.050260748031496
21
3.8690064173228347
0
LINE
8
BLACK
6
CONTINUOUS
10
-2.050260748031496
20
3.8690064173228347
11
-2.0576918503937009
21
3.8727927559055115
0
LINE
8
BLACK
6
CONTINUOUS
10
-2.0576918503937009
20
3.8727927559055115
11
-2.0644391732283465
21
3.8776949606299214
0
LINE
8
BLACK
6
CONTINUOUS
10
-2.0644391732283465
20
3.8776949606299214
11
-2.0703365354330709
21
3.8835923228346454
0
LINE
8
BLACK
6
CONTINUOUS
10
-2.0703365354330709
20
3.8835923228346454
11
-2.0752387401574803
21
3.8903396456692914
0
LINE
8
BLACK
6
CONTINUOUS
10
-2.0752387401574803
20
3.8903396456692914
11
-2.0790250787401576
21
3.8977707480314958
0
LINE
8
BLACK
6
CONTINUOUS
10
-2.0790250787401576
20
3.8977707480314958
11
-2.0816023228346454
21
3.905702716535433
0
LINE
8
BLACK
6
CONTINUOUS
10
-2.0816023228346454
20
3.905702716535433
11
-2.0829070078740157
21
3.9139401574803148
0
LINE
8
BLACK
6
CONTINUOUS
10
-2.0829070078740157
20
3.9139401574803148
11
-2.0829070078740157
21
3.9222803149606298
0
LINE
8
BLACK
6
CONTINUOUS
10
-2.0829070078740157
20
3.9222803149606298
11
-2.0816023228346454
21
3.9305177559055116
0
LINE
8
BLACK
6
CONTINUOUS
10
-2.0816023228346454
20
3.9305177559055116
11
-2.0790250787401576
21
3.9384497244094487
0
LINE
8
BLACK
6
CONTINUOUS
10
-2.0790250787401576
20
3.9384497244094487
11
-2.0752387401574803
21
3.9458808267716536
0
LINE
8
BLACK
6
CONTINUOUS
10
-2.0752387401574803
20
3.9458808267716536
11
-2.0703365354330709
21
3.9526281496062992
0
LINE
8
BLACK
6
CONTINUOUS
10
-2.0703365354330709
20
3.9526281496062992
11
-2.0644391732283465
21
3.9585255118110236
0
LINE
8
BLACK
6
CONTINUOUS
10
-2.0644391732283465
20
3.9585255118110236
11
-2.0576918503937009
21
3.963427716535433
0
LINE
8
BLACK
6
CONTINUOUS
10
-2.0576918503937009
20
3.963427716535433
11
-2.050260748031496
21
3.9672140551181103
0
LINE
8
BLACK
6
CONTINUOUS
10
-2.050260748031496
20
3.9672140551181103
11
-2.0423287795275589
21
3.9697912992125985
0
LINE
8
BLACK
6
CONTINUOUS
10
-2.0423287795275589
20
3.9697912992125985
11
-2.0340913385826771
21
3.9710959842519684
0
LINE
8
BLACK
6
CONTINUOUS
10
-2.0340913385826771
20
3.9710959842519684
11
-2.0257511811023621
21
3.9710959842519684
0
LINE
8
BLACK
6
CONTINUOUS
10
-2.0257511811023621
20
3.9710959842519684
11
-2.0175137401574803
21
3.9697912992125985
0
LINE
8
BLACK
6
CONTINUOUS
10
-1.8175137401574804
20
3.9697912992125985
11
-1.8095817716535432
21
3.9672140551181103
0
LINE
8
BLACK
6
CONTINUOUS
10
-1.8095817716535432
20
3.9672140551181103
11
-1.8021506692913385
21
3.963427716535433
0
LINE
8
BLACK
6
CONTINUOUS
10
-1.8021506692913385
20
3.963427716535433
11
-1.795403346456693
21
3.9585255118110236
0
LINE
8
BLACK
6
CONTINUOUS
10
-1.795403346456693
20
3.9585255118110236
11
-1.7895059842519685
21
3.9526281496062992
0
LINE
8
BLACK
6
CONTINUOUS
10
-1.7895059842519685
20
3.9526281496062992
11
-1.7846037795275591
21
3.9458808267716536
0
LINE
8
BLACK
6
CONTINUOUS
10
-1.7846037795275591
20
3.9458808267716536
11
-1.7808174409448818
21
3.9384497244094487
0
LINE
8
BLACK
6
CONTINUOUS
10
-1.7808174409448818
20
3.9384497244094487
11
-1.7782401968503936
21
3.9305177559055116
0
LINE
8
BLACK
6
CONTINUOUS
10
-1.7782401968503936
20
3.9305177559055116
11
-1.7769355118110235
21
3.9222803149606298
0
LINE
8
BLACK
6
CONTINUOUS
10
-1.7769355118110235
20
3.9222803149606298
11
-1.7769355118110235
21
3.9139401574803148
0
LINE
8
BLACK
6
CONTINUOUS
10
-1.7769355118110235
20
3.9139401574803148
11
-1.7782401968503936
21
3.905702716535433
0
LINE
8
BLACK
6
CONTINUOUS
10
-1.7782401968503936
20
3.905702716535433
11
-1.7808174409448818
21
3.8977707480314958
0
LINE
8
BLACK
6
CONTINUOUS
10
-1.7808174409448818
20
3.8977707480314958
11
-1.7846037795275591
21
3.8903396456692914
0
LINE
8
BLACK
6
CONTINUOUS
10
-1.7846037795275591
20
3.8903396456692914
11
-1.7895059842519685
21
3.8835923228346454
0
LINE
8
BLACK
6
CONTINUOUS
10
-1.7895059842519685
20
3.8835923228346454
11
-1.795403346456693
21
3.8776949606299214
0
LINE
8
BLACK
6
CONTINUOUS
10
-1.795403346456693
20
3.8776949606299214
11
-1.8021506692913385
21
3.8727927559055115
0
LINE
8
BLACK
6
CONTINUOUS
10
-1.8021506692913385
20
3.8727927559055115
11
-1.8095817716535432
21
3.8690064173228347
0
LINE
8
BLACK
6
CONTINUOUS
10
-1.8095817716535432
20
3.8690064173228347
11
-1.8175137401574804
21
3.8664291732283464
0
LINE
8
BLACK
6
CONTINUOUS
10
-1.8175137401574804
20
3.8664291732283464
11
-1.8257511811023621
21
3.8651244881889761
0
LINE
8
BLACK
6
CONTINUOUS
10
-1.8257511811023621
20
3.8651244881889761
11
-1.8340913385826771
21
3.8651244881889761
0
LINE
8
BLACK
6
CONTINUOUS
10
-1.8340913385826771
20
3.8651244881889761
11
-1.8423287795275589
21
3.8664291732283464
0
LINE
8
BLACK
6
CONTINUOUS
10
-1.8423287795275589
20
3.8664291732283464
11
-1.8502607480314961
21
3.8690064173228347
0
LINE
8
BLACK
6
CONTINUOUS
10
-1.8502607480314961
20
3.8690064173228347
11
-1.8576918503937008
21
3.8727927559055115
0
LINE
8
BLACK
6
CONTINUOUS
10
-1.8576918503937008
20
3.8727927559055115
11
-1.8644391732283465
21
3.8776949606299214
0
LINE
8
BLACK
6
CONTINUOUS
10
-1.8644391732283465
20
3.8776949606299214
11
-1.8703365354330708
21
3.8835923228346454
0
LINE
8
BLACK
6
CONTINUOUS
10
-1.8703365354330708
20
3.8835923228346454
11
-1.8752387401574804
21
3.8903396456692914
0
LINE
8
BLACK
6
CONTINUOUS
10
-1.8752387401574804
20
3.8903396456692914
11
-1.8790250787401575
21
3.8977707480314958
0
LINE
8
BLACK
6
CONTINUOUS
10
-1.8790250787401575
20
3.8977707480314958
11
-1.8816023228346457
21
3.905702716535433
0
LINE
8
BLACK
6
CONTINUOUS
10
-1.8816023228346457
20
3.905702716535433
11
-1.8829070078740158
21
3.9139401574803148
0
LINE
8
BLACK
6
CONTINUOUS
10
-1.8829070078740158
20
3.9139401574803148
11
-1.8829070078740158
21
3.9222803149606298
0
LINE
8
BLACK
6
CONTINUOUS
10
-1.8829070078740158
20
3.9222803149606298
11
-1.8816023228346457
21
3.9305177559055116
0
LINE
8
BLACK
6
CONTINUOUS
10
-1.8816023228346457
20
3.9305177559055116
11
-1.8790250787401575
21
3.9384497244094487
0
LINE
8
BLACK
6
CONTINUOUS
10
-1.8790250787401575
20
3.9384497244094487
11
-1.8752387401574804
21
3.9458808267716536
0
LINE
8
BLACK
6
CONTINUOUS
10
-1.8752387401574804
20
3.9458808267716536
11
-1.8703365354330708
21
3.9526281496062992
0
LINE
8
BLACK
6
CONTINUOUS
10
-1.8703365354330708
20
3.9526281496062992
11
-1.8644391732283465
21
3.9585255118110236
0
LINE
8
BLACK
6
CONTINUOUS
10
-1.8644391732283465
20
3.9585255118110236
11
-1.8576918503937008
21
3.963427716535433
0
LINE
8
BLACK
6
CONTINUOUS
10
-1.8576918503937008
20
3.963427716535433
11
-1.8502607480314961
21
3.9672140551181103
0
LINE
8
BLACK
6
CONTINUOUS
10
-1.8502607480314961
20
3.9672140551181103
11
-1.8423287795275589
21
3.9697912992125985
0
LINE
8
BLACK
6
CONTINUOUS
10
-1.8423287795275589
20
3.9697912992125985
11
-1.8340913385826771
21
3.9710959842519684
0
LINE
8
BLACK
6
CONTINUOUS
10
-1.8340913385826771
20
3.9710959842519684
11
-1.8257511811023621
21
3.9710959842519684
0
LINE
8
BLACK
6
CONTINUOUS
10
-1.8257511811023621
20
3.9710959842519684
11
-1.8175137401574804
21
3.9697912992125985
0
CIRCLE
8
BLACK
10
2.
20
0.4
40
0.0068897637795276
0
CIRCLE
8
BLACK
10
0.4
20
2.
40
0.0068897637795276
0
CIRCLE
8
BLACK
10
0.4
20
0.4
40
0.0068897637795276
0
CIRCLE
8
BLACK
10
-0.725236220472441
20
0.8675905511811023
40
0.0068897637795276
0
CIRCLE
8
BLACK
10
-0.625236220472441
20
0.8675905511811023
40
0.0068897637795276
0
CIRCLE
8
BLACK
10
-0.725236220472441
20
0.7675905511811023
40
0.0068897637795276
0
CIRCLE
8
BLACK
10
-0.625236220472441
20
0.7675905511811023
40
0.0068897637795276
0
CIRCLE
8
BLACK
10
-0.725236220472441
20
0.6675905511811023
40
0.0068897637795276
0
CIRCLE
8
BLACK
10
-0.625236220472441
20
0.6675905511811023
40
0.0068897637795276
0
CIRCLE
8
BLACK
10
-1.9299212598425197
20
3.8181102362204724
40
0.0068897637795276
0
CIRCLE
8
BLACK
10
-1.8299212598425196
20
3.9181102362204725
40
0.0068897637795276
0
CIRCLE
8
BLACK
10
-2.0299212598425198
20
3.9181102362204725
40
0.0068897637795276
0
CIRCLE
8
BLACK
10
-1.8299212598425196
20
3.7181102362204723
40
0.0068897637795276
0
CIRCLE
8
BLACK
10
-2.0299212598425198
20
3.7181102362204723
40
0.0068897637795276
0
CIRCLE
8
BLACK
10
2.
20
2.
40
0.0068897637795276
0
CIRCLE
8
WHITE
10
2.
20
0.4
40
0.0068897637795276
0
CIRCLE
8
WHITE
10
0.4
20
2.
40
0.0068897637795276
0
CIRCLE
8
WHITE
10
0.4
20
0.4
40
0.0068897637795276
0
CIRCLE
8
WHITE
10
-0.725236220472441
20
0.8675905511811023
40
0.0068897637795276
0
CIRCLE
8
WHITE
10
-0.625236220472441
20
0.8675905511811023
40
0.0068897637795276
0
CIRCLE
8
WHITE
10
-0.725236220472441
20
0.7675905511811023
40
0.0068897637795276
0
CIRCLE
8
WHITE
10
-0.625236220472441
20
0.7675905511811023
40
0.0068897637795276
0
CIRCLE
8
WHITE
10
-0.725236220472441
20
0.6675905511811023
40
0.0068897637795276
0
CIRCLE
8
WHITE
10
-0.625236220472441
20
0.6675905511811023
40
0.0068897637795276
0
CIRCLE
8
WHITE
10
-1.9299212598425197
20
3.8181102362204724
40
0.0068897637795276
0
CIRCLE
8
WHITE
10
-1.8299212598425196
20
3.9181102362204725
40
0.0068897637795276
0
CIRCLE
8
WHITE
10
-2.0299212598425198
20
3.9181102362204725
40
0.0068897637795276
0
CIRCLE
8
WHITE
10
-1.8299212598425196
20
3.7181102362204723
40
0.0068897637795276
0
CIRCLE
8
WHITE
10
-2.0299212598425198
20
3.7181102362204723
40
0.0068897637795276
0
CIRCLE
8
WHITE
10
2.
20
2.
40
0.0068897637795276
  0
ENDSEC
  0
EOF
