  0
SECTION
  2
HEADER
  9
$ANGBASE
  50
0.0
  9
$ANGDIR
  70
1
  9
$MEASUREMENT
  70
0
  0
ENDSEC
  0
SECTION
  2
TABLES
  0
TABLE
  2
LTYPE
  70
4
  0
LTYPE
  5
40F
  2
CONTINUOUS
  70
0
  3
Solid line
  72
65
  73
0
  40
0.0
  0
LTYPE
  5
410
  2
DASHDOT
 70
0
  3
Dash Dot ____ _ ____ _
 72
65
 73
4
 40
2.0
 49
1.25
 49
-0.25
 49
0.25
 49
-0.25
  0
LTYPE
  5
411
  2
DASHED
 70
0
  3
Dashed __ __ __ __ __
 72
65
 73
2
 40
0.75
 49
0.5
 49
-0.25
  0
LTYPE
  5
43B
  2
DOTTED
 70
0
  3
Dotted .  .  .  .
 72
65
 73
2
 40
0.2
 49
0.0
 49
-0.2
  0
ENDTAB
  0
TABLE
  2
STYLE
  70
4
  0
STYLE
  2
KICAD
  70
0
  40
0
  41
1
  42
1
  50
0
  71
0
  3
isocp.shx
  0
STYLE
  2
KICADB
  70
0
  40
0
  41
1
  42
1
  50
0
  71
0
  3
isocp.shx
  0
STYLE
  2
KICADI
  70
0
  40
0
  41
1
  42
1
  50
15
  71
0
  3
isocp.shx
  0
STYLE
  2
KICADBI
  70
0
  40
0
  41
1
  42
1
  50
15
  71
0
  3
isocp.shx
  0
ENDTAB
  0
TABLE
  2
LAYER
  70
1
  0
LAYER
  2
BLACK
  70
0
  62
7
  6
CONTINUOUS
  0
ENDTAB
  0
ENDSEC
  0
SECTION
  2
ENTITIES
0
LINE
8
BLACK
6
CONTINUOUS
10
-0.574660157480315
20
0.9204865748031495
11
-0.573595748031496
21
0.9200456692913386
0
LINE
8
BLACK
6
CONTINUOUS
10
-0.573595748031496
20
0.9200456692913386
11
-0.5727811023622047
21
0.9192310236220472
0
LINE
8
BLACK
6
CONTINUOUS
10
-0.5727811023622047
20
0.9192310236220472
11
-0.5723401968503937
21
0.9181666141732283
0
LINE
8
BLACK
6
CONTINUOUS
10
-0.5723401968503937
20
0.9181666141732283
11
-0.5722834645669291
21
0.9175905511811023
0
LINE
8
BLACK
6
CONTINUOUS
10
-0.5722834645669291
20
0.9175905511811023
11
-0.5722834645669291
21
0.6175905511811024
0
LINE
8
BLACK
6
CONTINUOUS
10
-0.5722834645669291
20
0.6175905511811024
11
-0.5723401968503937
21
0.6170144881889764
0
LINE
8
BLACK
6
CONTINUOUS
10
-0.5723401968503937
20
0.6170144881889764
11
-0.5727811023622047
21
0.6159500787401575
0
LINE
8
BLACK
6
CONTINUOUS
10
-0.5727811023622047
20
0.6159500787401575
11
-0.573595748031496
21
0.6151354330708662
0
LINE
8
BLACK
6
CONTINUOUS
10
-0.573595748031496
20
0.6151354330708662
11
-0.574660157480315
21
0.6146945275590551
0
LINE
8
BLACK
6
CONTINUOUS
10
-0.574660157480315
20
0.6146945275590551
11
-0.5752362204724409
21
0.6146377952755906
0
LINE
8
BLACK
6
CONTINUOUS
10
-0.5752362204724409
20
0.6146377952755906
11
-0.7752362204724409
21
0.6146377952755906
0
LINE
8
BLACK
6
CONTINUOUS
10
-0.7752362204724409
20
0.6146377952755906
11
-0.7758122834645669
21
0.6146945275590551
0
LINE
8
BLACK
6
CONTINUOUS
10
-0.7758122834645669
20
0.6146945275590551
11
-0.7768766929133858
21
0.6151354330708662
0
LINE
8
BLACK
6
CONTINUOUS
10
-0.7768766929133858
20
0.6151354330708662
11
-0.7776913385826771
21
0.6159500787401575
0
LINE
8
BLACK
6
CONTINUOUS
10
-0.7776913385826771
20
0.6159500787401575
11
-0.7781322440944882
21
0.6170144881889764
0
LINE
8
BLACK
6
CONTINUOUS
10
-0.7781322440944882
20
0.6170144881889764
11
-0.7781889763779527
21
0.6175905511811024
0
LINE
8
BLACK
6
CONTINUOUS
10
-0.7781889763779527
20
0.6175905511811024
11
-0.7781889763779527
21
0.9175905511811023
0
LINE
8
BLACK
6
CONTINUOUS
10
-0.7781889763779527
20
0.9175905511811023
11
-0.7781322440944882
21
0.9181666141732283
0
LINE
8
BLACK
6
CONTINUOUS
10
-0.7781322440944882
20
0.9181666141732283
11
-0.7776913385826771
21
0.9192310236220472
0
LINE
8
BLACK
6
CONTINUOUS
10
-0.7776913385826771
20
0.9192310236220472
11
-0.7768766929133858
21
0.9200456692913386
0
LINE
8
BLACK
6
CONTINUOUS
10
-0.7768766929133858
20
0.9200456692913386
11
-0.7758122834645669
21
0.9204865748031495
0
LINE
8
BLACK
6
CONTINUOUS
10
-0.7758122834645669
20
0.9204865748031495
11
-0.7752362204724409
21
0.9205433070866141
0
LINE
8
BLACK
6
CONTINUOUS
10
-0.7752362204724409
20
0.9205433070866141
11
-0.5752362204724409
21
0.9205433070866141
0
LINE
8
BLACK
6
CONTINUOUS
10
-0.5752362204724409
20
0.9205433070866141
11
-0.574660157480315
21
0.9204865748031495
0
LINE
8
BLACK
6
CONTINUOUS
10
-0.7722834645669291
20
0.9146377952755905
11
-0.7722834645669291
21
0.6205433070866142
0
LINE
8
BLACK
6
CONTINUOUS
10
-0.7722834645669291
20
0.6205433070866142
11
-0.5781889763779527
21
0.6205433070866142
0
LINE
8
BLACK
6
CONTINUOUS
10
-0.5781889763779527
20
0.6205433070866142
11
-0.5781889763779527
21
0.9146377952755905
0
LINE
8
BLACK
6
CONTINUOUS
10
-0.5781889763779527
20
0.9146377952755905
11
-0.7722834645669291
21
0.9146377952755905
0
LINE
8
BLACK
6
CONTINUOUS
10
-1.8127322047244094
20
2.8919461811023623
11
-1.8114537795275589
21
2.8906677559055116
0
LINE
8
BLACK
6
CONTINUOUS
10
-1.8114537795275589
20
2.8906677559055116
11
-1.8114537795275589
21
2.8888598031496064
0
LINE
8
BLACK
6
CONTINUOUS
10
-1.8114537795275589
20
2.8888598031496064
11
-1.8127322047244094
21
2.8875813779527557
0
LINE
8
BLACK
6
CONTINUOUS
10
-1.8127322047244094
20
2.8875813779527557
11
-1.8136361811023622
21
2.8874015748031496
0
LINE
8
BLACK
6
CONTINUOUS
10
-1.8136361811023622
20
2.8874015748031496
11
-1.8257338976377953
21
2.8874015748031496
0
LINE
8
BLACK
6
CONTINUOUS
10
-1.8257338976377953
20
2.8874015748031496
11
-1.8266378740157481
21
2.8875813779527557
0
LINE
8
BLACK
6
CONTINUOUS
10
-1.8266378740157481
20
2.8875813779527557
11
-1.8279162992125984
21
2.8888598031496064
0
LINE
8
BLACK
6
CONTINUOUS
10
-1.8279162992125984
20
2.8888598031496064
11
-1.8279162992125984
21
2.8906677559055116
0
LINE
8
BLACK
6
CONTINUOUS
10
-1.8279162992125984
20
2.8906677559055116
11
-1.8266378740157481
21
2.8919461811023623
0
LINE
8
BLACK
6
CONTINUOUS
10
-1.8266378740157481
20
2.8919461811023623
11
-1.8257338976377953
21
2.8921259842519684
0
LINE
8
BLACK
6
CONTINUOUS
10
-1.8257338976377953
20
2.8921259842519684
11
-1.8136361811023622
21
2.8921259842519684
0
LINE
8
BLACK
6
CONTINUOUS
10
-1.8136361811023622
20
2.8921259842519684
11
-1.8127322047244094
21
2.8919461811023623
0
LINE
8
BLACK
6
CONTINUOUS
10
-1.8127322047244094
20
2.9218674409448817
11
-1.8114537795275589
21
2.9205890157480314
0
LINE
8
BLACK
6
CONTINUOUS
10
-1.8114537795275589
20
2.9205890157480314
11
-1.8114537795275589
21
2.9187810629921258
0
LINE
8
BLACK
6
CONTINUOUS
10
-1.8114537795275589
20
2.9187810629921258
11
-1.8127322047244094
21
2.9175026377952755
0
LINE
8
BLACK
6
CONTINUOUS
10
-1.8127322047244094
20
2.9175026377952755
11
-1.8136361811023622
21
2.9173228346456694
0
LINE
8
BLACK
6
CONTINUOUS
10
-1.8136361811023622
20
2.9173228346456694
11
-1.8257338976377953
21
2.9173228346456694
0
LINE
8
BLACK
6
CONTINUOUS
10
-1.8257338976377953
20
2.9173228346456694
11
-1.8266378740157481
21
2.9175026377952755
0
LINE
8
BLACK
6
CONTINUOUS
10
-1.8266378740157481
20
2.9175026377952755
11
-1.8279162992125984
21
2.9187810629921258
0
LINE
8
BLACK
6
CONTINUOUS
10
-1.8279162992125984
20
2.9187810629921258
11
-1.8279162992125984
21
2.9205890157480314
0
LINE
8
BLACK
6
CONTINUOUS
10
-1.8279162992125984
20
2.9205890157480314
11
-1.8266378740157481
21
2.9218674409448817
0
LINE
8
BLACK
6
CONTINUOUS
10
-1.8266378740157481
20
2.9218674409448817
11
-1.8257338976377953
21
2.9220472440944882
0
LINE
8
BLACK
6
CONTINUOUS
10
-1.8257338976377953
20
2.9220472440944882
11
-1.8136361811023622
21
2.9220472440944882
0
LINE
8
BLACK
6
CONTINUOUS
10
-1.8136361811023622
20
2.9220472440944882
11
-1.8127322047244094
21
2.9218674409448817
0
LINE
8
BLACK
6
CONTINUOUS
10
-1.9202585433070867
20
3.118226811023622
11
-1.9200787401574804
21
3.1173228346456692
0
LINE
8
BLACK
6
CONTINUOUS
10
-1.9200787401574804
20
3.1173228346456692
11
-1.9200787401574804
21
3.0582677165354331
0
LINE
8
BLACK
6
CONTINUOUS
10
-1.9200787401574804
20
3.0582677165354331
11
-1.9200787401574804
21
2.9992125984251969
0
LINE
8
BLACK
6
CONTINUOUS
10
-1.9200787401574804
20
2.9992125984251969
11
-1.9202585433070867
21
2.9983086220472441
0
LINE
8
BLACK
6
CONTINUOUS
10
-1.9202585433070867
20
2.9983086220472441
11
-1.921536968503937
21
2.9970301968503938
0
LINE
8
BLACK
6
CONTINUOUS
10
-1.921536968503937
20
2.9970301968503938
11
-1.9233449212598426
21
2.9970301968503938
0
LINE
8
BLACK
6
CONTINUOUS
10
-1.9233449212598426
20
2.9970301968503938
11
-1.9246233464566929
21
2.9983086220472441
0
LINE
8
BLACK
6
CONTINUOUS
10
-1.9246233464566929
20
2.9983086220472441
11
-1.9248031496062992
21
2.9992125984251969
0
LINE
8
BLACK
6
CONTINUOUS
10
-1.9248031496062992
20
2.9992125984251969
11
-1.9248031496062992
21
3.0582677165354331
0
LINE
8
BLACK
6
CONTINUOUS
10
-1.9248031496062992
20
3.0582677165354331
11
-1.9248031496062992
21
3.1173228346456692
0
LINE
8
BLACK
6
CONTINUOUS
10
-1.9248031496062992
20
3.1173228346456692
11
-1.9246233464566929
21
3.118226811023622
0
LINE
8
BLACK
6
CONTINUOUS
10
-1.9246233464566929
20
3.118226811023622
11
-1.9233449212598426
21
3.1195052362204723
0
LINE
8
BLACK
6
CONTINUOUS
10
-1.9233449212598426
20
3.1195052362204723
11
-1.921536968503937
21
3.1195052362204723
0
LINE
8
BLACK
6
CONTINUOUS
10
-1.921536968503937
20
3.1195052362204723
11
-1.9202585433070867
21
3.118226811023622
0
LINE
8
BLACK
6
CONTINUOUS
10
-1.7934868897637795
20
3.118226811023622
11
-1.7933070866141732
21
3.1173228346456692
0
LINE
8
BLACK
6
CONTINUOUS
10
-1.7933070866141732
20
3.1173228346456692
11
-1.7933070866141732
21
3.0582677165354331
0
LINE
8
BLACK
6
CONTINUOUS
10
-1.7933070866141732
20
3.0582677165354331
11
-1.7933070866141732
21
2.9992125984251969
0
LINE
8
BLACK
6
CONTINUOUS
10
-1.7933070866141732
20
2.9992125984251969
11
-1.7934868897637795
21
2.9983086220472441
0
LINE
8
BLACK
6
CONTINUOUS
10
-1.7934868897637795
20
2.9983086220472441
11
-1.79476531496063
21
2.9970301968503938
0
LINE
8
BLACK
6
CONTINUOUS
10
-1.79476531496063
20
2.9970301968503938
11
-1.7965732677165354
21
2.9970301968503938
0
LINE
8
BLACK
6
CONTINUOUS
10
-1.7965732677165354
20
2.9970301968503938
11
-1.7978516929133859
21
2.9983086220472441
0
LINE
8
BLACK
6
CONTINUOUS
10
-1.7978516929133859
20
2.9983086220472441
11
-1.7980314960629922
21
2.9992125984251969
0
LINE
8
BLACK
6
CONTINUOUS
10
-1.7980314960629922
20
2.9992125984251969
11
-1.7980314960629922
21
3.0582677165354331
0
LINE
8
BLACK
6
CONTINUOUS
10
-1.7980314960629922
20
3.0582677165354331
11
-1.7980314960629922
21
3.1173228346456692
0
LINE
8
BLACK
6
CONTINUOUS
10
-1.7980314960629922
20
3.1173228346456692
11
-1.7978516929133859
21
3.118226811023622
0
LINE
8
BLACK
6
CONTINUOUS
10
-1.7978516929133859
20
3.118226811023622
11
-1.7965732677165354
21
3.1195052362204723
0
LINE
8
BLACK
6
CONTINUOUS
10
-1.7965732677165354
20
3.1195052362204723
11
-1.79476531496063
21
3.1195052362204723
0
LINE
8
BLACK
6
CONTINUOUS
10
-1.79476531496063
20
3.1195052362204723
11
-1.7934868897637795
21
3.118226811023622
0
LINE
8
BLACK
6
CONTINUOUS
10
-2.2505791338582677
20
3.1149025196850393
11
-2.2375870078740157
21
3.1054537007874017
0
LINE
8
BLACK
6
CONTINUOUS
10
-2.2375870078740157
20
3.1054537007874017
11
-2.2366430708661418
21
3.1039117322834646
0
LINE
8
BLACK
6
CONTINUOUS
10
-2.2366430708661418
20
3.1039117322834646
11
-2.2370659842519682
21
3.1021539370078739
0
LINE
8
BLACK
6
CONTINUOUS
10
-2.2370659842519682
20
3.1021539370078739
11
-2.2375870078740157
21
3.1016329133858269
0
LINE
8
BLACK
6
CONTINUOUS
10
-2.2375870078740157
20
3.1016329133858269
11
-2.2505791338582677
21
3.0921840944881889
0
LINE
8
BLACK
6
CONTINUOUS
10
-2.2505791338582677
20
3.0921840944881889
11
-2.2523369291338584
21
3.091761181102362
0
LINE
8
BLACK
6
CONTINUOUS
10
-2.2523369291338584
20
3.091761181102362
11
-2.253878897637795
21
3.0927051181102363
0
LINE
8
BLACK
6
CONTINUOUS
10
-2.253878897637795
20
3.0927051181102363
11
-2.2543307086614175
21
3.0940944881889765
0
LINE
8
BLACK
6
CONTINUOUS
10
-2.2543307086614175
20
3.0940944881889765
11
-2.2543307086614175
21
3.1129921259842517
0
LINE
8
BLACK
6
CONTINUOUS
10
-2.2543307086614175
20
3.1129921259842517
11
-2.2536388188976377
21
3.114662440944882
0
LINE
8
BLACK
6
CONTINUOUS
10
-2.2536388188976377
20
3.114662440944882
11
-2.2519685039370079
21
3.1153543307086613
0
LINE
8
BLACK
6
CONTINUOUS
10
-2.2519685039370079
20
3.1153543307086613
11
-2.2505791338582677
21
3.1149025196850393
0
LINE
8
BLACK
6
CONTINUOUS
10
-2.0962427952755904
20
3.120338661417323
11
-2.0960629921259843
21
3.1194346850393702
0
LINE
8
BLACK
6
CONTINUOUS
10
-2.0960629921259843
20
3.1194346850393702
11
-2.0960629921259843
21
3.1073369685039371
0
LINE
8
BLACK
6
CONTINUOUS
10
-2.0960629921259843
20
3.1073369685039371
11
-2.0962427952755904
21
3.1064329921259843
0
LINE
8
BLACK
6
CONTINUOUS
10
-2.0962427952755904
20
3.1064329921259843
11
-2.0975212204724407
21
3.1051545669291336
0
LINE
8
BLACK
6
CONTINUOUS
10
-2.0975212204724407
20
3.1051545669291336
11
-2.0993291732283463
21
3.1051545669291336
0
LINE
8
BLACK
6
CONTINUOUS
10
-2.0993291732283463
20
3.1051545669291336
11
-2.1006075984251966
21
3.1064329921259843
0
LINE
8
BLACK
6
CONTINUOUS
10
-2.1006075984251966
20
3.1064329921259843
11
-2.1007874015748031
21
3.1073369685039371
0
LINE
8
BLACK
6
CONTINUOUS
10
-2.1007874015748031
20
3.1073369685039371
11
-2.1007874015748031
21
3.1194346850393702
0
LINE
8
BLACK
6
CONTINUOUS
10
-2.1007874015748031
20
3.1194346850393702
11
-2.1006075984251966
21
3.120338661417323
0
LINE
8
BLACK
6
CONTINUOUS
10
-2.1006075984251966
20
3.120338661417323
11
-2.0993291732283463
21
3.1216170866141733
0
LINE
8
BLACK
6
CONTINUOUS
10
-2.0993291732283463
20
3.1216170866141733
11
-2.0975212204724407
21
3.1216170866141733
0
LINE
8
BLACK
6
CONTINUOUS
10
-2.0975212204724407
20
3.1216170866141733
11
-2.0962427952755904
21
3.120338661417323
0
LINE
8
BLACK
6
CONTINUOUS
10
-2.0663215354330706
20
3.120338661417323
11
-2.0661417322834645
21
3.1194346850393702
0
LINE
8
BLACK
6
CONTINUOUS
10
-2.0661417322834645
20
3.1194346850393702
11
-2.0661417322834645
21
3.1073369685039371
0
LINE
8
BLACK
6
CONTINUOUS
10
-2.0661417322834645
20
3.1073369685039371
11
-2.0663215354330706
21
3.1064329921259843
0
LINE
8
BLACK
6
CONTINUOUS
10
-2.0663215354330706
20
3.1064329921259843
11
-2.0675999606299214
21
3.1051545669291336
0
LINE
8
BLACK
6
CONTINUOUS
10
-2.0675999606299214
20
3.1051545669291336
11
-2.0694079133858265
21
3.1051545669291336
0
LINE
8
BLACK
6
CONTINUOUS
10
-2.0694079133858265
20
3.1051545669291336
11
-2.0706863385826773
21
3.1064329921259843
0
LINE
8
BLACK
6
CONTINUOUS
10
-2.0706863385826773
20
3.1064329921259843
11
-2.0708661417322833
21
3.1073369685039371
0
LINE
8
BLACK
6
CONTINUOUS
10
-2.0708661417322833
20
3.1073369685039371
11
-2.0708661417322833
21
3.1194346850393702
0
LINE
8
BLACK
6
CONTINUOUS
10
-2.0708661417322833
20
3.1194346850393702
11
-2.0706863385826773
21
3.120338661417323
0
LINE
8
BLACK
6
CONTINUOUS
10
-2.0706863385826773
20
3.120338661417323
11
-2.0694079133858265
21
3.1216170866141733
0
LINE
8
BLACK
6
CONTINUOUS
10
-2.0694079133858265
20
3.1216170866141733
11
-2.0675999606299214
21
3.1216170866141733
0
LINE
8
BLACK
6
CONTINUOUS
10
-2.0675999606299214
20
3.1216170866141733
11
-2.0663215354330706
21
3.120338661417323
0
LINE
8
BLACK
6
CONTINUOUS
10
-2.0192599606299213
20
3.1210800393700788
11
-2.017981535433071
21
3.1198016141732281
0
LINE
8
BLACK
6
CONTINUOUS
10
-2.017981535433071
20
3.1198016141732281
11
-2.017981535433071
21
3.1179936614173229
0
LINE
8
BLACK
6
CONTINUOUS
10
-2.017981535433071
20
3.1179936614173229
11
-2.0192599606299213
21
3.1167152362204722
0
LINE
8
BLACK
6
CONTINUOUS
10
-2.0192599606299213
20
3.1167152362204722
11
-2.0201639370078741
21
3.1165354330708661
0
LINE
8
BLACK
6
CONTINUOUS
10
-2.0201639370078741
20
3.1165354330708661
11
-2.0286549606299213
21
3.1165354330708661
0
LINE
8
BLACK
6
CONTINUOUS
10
-2.0286549606299213
20
3.1165354330708661
11
-2.0295589370078742
21
3.1167152362204722
0
LINE
8
BLACK
6
CONTINUOUS
10
-2.0295589370078742
20
3.1167152362204722
11
-2.0308373622047244
21
3.1179936614173229
0
LINE
8
BLACK
6
CONTINUOUS
10
-2.0308373622047244
20
3.1179936614173229
11
-2.0308373622047244
21
3.1198016141732281
0
LINE
8
BLACK
6
CONTINUOUS
10
-2.0308373622047244
20
3.1198016141732281
11
-2.0295589370078742
21
3.1210800393700788
0
LINE
8
BLACK
6
CONTINUOUS
10
-2.0295589370078742
20
3.1210800393700788
11
-2.0286549606299213
21
3.1212598425196849
0
LINE
8
BLACK
6
CONTINUOUS
10
-2.0286549606299213
20
3.1212598425196849
11
-2.0201639370078741
21
3.1212598425196849
0
LINE
8
BLACK
6
CONTINUOUS
10
-2.0201639370078741
20
3.1212598425196849
11
-2.0192599606299213
21
3.1210800393700788
0
LINE
8
BLACK
6
CONTINUOUS
10
-2.2434868897637794
20
3.2422425590551178
11
-2.2433070866141733
21
3.2413385826771655
0
LINE
8
BLACK
6
CONTINUOUS
10
-2.2433070866141733
20
3.2413385826771655
11
-2.2433070866141733
21
3.1232283464566928
0
LINE
8
BLACK
6
CONTINUOUS
10
-2.2433070866141733
20
3.1232283464566928
11
-2.2434868897637794
21
3.12232437007874
0
LINE
8
BLACK
6
CONTINUOUS
10
-2.2434868897637794
20
3.12232437007874
11
-2.2447653149606297
21
3.1210459448818897
0
LINE
8
BLACK
6
CONTINUOUS
10
-2.2447653149606297
20
3.1210459448818897
11
-2.2465732677165353
21
3.1210459448818897
0
LINE
8
BLACK
6
CONTINUOUS
10
-2.2465732677165353
20
3.1210459448818897
11
-2.2478516929133856
21
3.12232437007874
0
LINE
8
BLACK
6
CONTINUOUS
10
-2.2478516929133856
20
3.12232437007874
11
-2.2480314960629921
21
3.1232283464566928
0
LINE
8
BLACK
6
CONTINUOUS
10
-2.2480314960629921
20
3.1232283464566928
11
-2.2480314960629921
21
3.2413385826771655
0
LINE
8
BLACK
6
CONTINUOUS
10
-2.2480314960629921
20
3.2413385826771655
11
-2.2478516929133856
21
3.2422425590551178
0
LINE
8
BLACK
6
CONTINUOUS
10
-2.2478516929133856
20
3.2422425590551178
11
-2.2465732677165353
21
3.2435209842519686
0
LINE
8
BLACK
6
CONTINUOUS
10
-2.2465732677165353
20
3.2435209842519686
11
-2.2447653149606297
21
3.2435209842519686
0
LINE
8
BLACK
6
CONTINUOUS
10
-2.2447653149606297
20
3.2435209842519686
11
-2.2434868897637794
21
3.2422425590551178
0
LINE
8
BLACK
6
CONTINUOUS
10
-2.1159278346456691
20
3.2422425590551178
11
-2.1157480314960631
21
3.2413385826771655
0
LINE
8
BLACK
6
CONTINUOUS
10
-2.1157480314960631
20
3.2413385826771655
11
-2.1157480314960631
21
3.1232283464566928
0
LINE
8
BLACK
6
CONTINUOUS
10
-2.1157480314960631
20
3.1232283464566928
11
-2.1159278346456691
21
3.12232437007874
0
LINE
8
BLACK
6
CONTINUOUS
10
-2.1159278346456691
20
3.12232437007874
11
-2.1172062598425194
21
3.1210459448818897
0
LINE
8
BLACK
6
CONTINUOUS
10
-2.1172062598425194
20
3.1210459448818897
11
-2.119014212598425
21
3.1210459448818897
0
LINE
8
BLACK
6
CONTINUOUS
10
-2.119014212598425
20
3.1210459448818897
11
-2.1202926377952753
21
3.12232437007874
0
LINE
8
BLACK
6
CONTINUOUS
10
-2.1202926377952753
20
3.12232437007874
11
-2.1204724409448819
21
3.1232283464566928
0
LINE
8
BLACK
6
CONTINUOUS
10
-2.1204724409448819
20
3.1232283464566928
11
-2.1204724409448819
21
3.2413385826771655
0
LINE
8
BLACK
6
CONTINUOUS
10
-2.1204724409448819
20
3.2413385826771655
11
-2.1202926377952753
21
3.2422425590551178
0
LINE
8
BLACK
6
CONTINUOUS
10
-2.1202926377952753
20
3.2422425590551178
11
-2.119014212598425
21
3.2435209842519686
0
LINE
8
BLACK
6
CONTINUOUS
10
-2.119014212598425
20
3.2435209842519686
11
-2.1172062598425194
21
3.2435209842519686
0
LINE
8
BLACK
6
CONTINUOUS
10
-2.1172062598425194
20
3.2435209842519686
11
-2.1159278346456691
21
3.2422425590551178
0
LINE
8
BLACK
6
CONTINUOUS
10
-1.7876565354330709
20
3.1562122047244094
11
-1.7872047244094489
21
3.1548228346456693
0
LINE
8
BLACK
6
CONTINUOUS
10
-1.7872047244094489
20
3.1548228346456693
11
-1.7872047244094489
21
3.1359251968503936
0
LINE
8
BLACK
6
CONTINUOUS
10
-1.7872047244094489
20
3.1359251968503936
11
-1.7878966141732282
21
3.1342548818897638
0
LINE
8
BLACK
6
CONTINUOUS
10
-1.7878966141732282
20
3.1342548818897638
11
-1.7895669291338583
21
3.133562992125984
0
LINE
8
BLACK
6
CONTINUOUS
10
-1.7895669291338583
20
3.133562992125984
11
-1.7909562992125985
21
3.134014803149606
0
LINE
8
BLACK
6
CONTINUOUS
10
-1.7909562992125985
20
3.134014803149606
11
-1.8039484251968503
21
3.1434636220472441
0
LINE
8
BLACK
6
CONTINUOUS
10
-1.8039484251968503
20
3.1434636220472441
11
-1.8048923622047244
21
3.1450055905511811
0
LINE
8
BLACK
6
CONTINUOUS
10
-1.8048923622047244
20
3.1450055905511811
11
-1.8044694488188977
21
3.1467633858267714
0
LINE
8
BLACK
6
CONTINUOUS
10
-1.8044694488188977
20
3.1467633858267714
11
-1.8039484251968503
21
3.1472844094488188
0
LINE
8
BLACK
6
CONTINUOUS
10
-1.8039484251968503
20
3.1472844094488188
11
-1.7909562992125985
21
3.1567332283464564
0
LINE
8
BLACK
6
CONTINUOUS
10
-1.7909562992125985
20
3.1567332283464564
11
-1.7891985039370077
21
3.1571561417322833
0
LINE
8
BLACK
6
CONTINUOUS
10
-1.7891985039370077
20
3.1571561417322833
11
-1.7876565354330709
21
3.1562122047244094
0
LINE
8
BLACK
6
CONTINUOUS
10
-2.0192599606299213
20
3.1494264960629921
11
-2.017981535433071
21
3.1481480708661418
0
LINE
8
BLACK
6
CONTINUOUS
10
-2.017981535433071
20
3.1481480708661418
11
-2.017981535433071
21
3.1463401181102362
0
LINE
8
BLACK
6
CONTINUOUS
10
-2.017981535433071
20
3.1463401181102362
11
-2.0192599606299213
21
3.1450616929133859
0
LINE
8
BLACK
6
CONTINUOUS
10
-2.0192599606299213
20
3.1450616929133859
11
-2.0201639370078741
21
3.1448818897637794
0
LINE
8
BLACK
6
CONTINUOUS
10
-2.0201639370078741
20
3.1448818897637794
11
-2.0286549606299213
21
3.1448818897637794
0
LINE
8
BLACK
6
CONTINUOUS
10
-2.0286549606299213
20
3.1448818897637794
11
-2.0295589370078742
21
3.1450616929133859
0
LINE
8
BLACK
6
CONTINUOUS
10
-2.0295589370078742
20
3.1450616929133859
11
-2.0308373622047244
21
3.1463401181102362
0
LINE
8
BLACK
6
CONTINUOUS
10
-2.0308373622047244
20
3.1463401181102362
11
-2.0308373622047244
21
3.1481480708661418
0
LINE
8
BLACK
6
CONTINUOUS
10
-2.0308373622047244
20
3.1481480708661418
11
-2.0295589370078742
21
3.1494264960629921
0
LINE
8
BLACK
6
CONTINUOUS
10
-2.0295589370078742
20
3.1494264960629921
11
-2.0286549606299213
21
3.1496062992125982
0
LINE
8
BLACK
6
CONTINUOUS
10
-2.0286549606299213
20
3.1496062992125982
11
-2.0201639370078741
21
3.1496062992125982
0
LINE
8
BLACK
6
CONTINUOUS
10
-2.0201639370078741
20
3.1496062992125982
11
-2.0192599606299213
21
3.1494264960629921
0
LINE
8
BLACK
6
CONTINUOUS
10
-1.9663215354330708
20
3.1636457480314961
11
-1.9661417322834644
21
3.1627417716535433
0
LINE
8
BLACK
6
CONTINUOUS
10
-1.9661417322834644
20
3.1627417716535433
11
-1.9661417322834644
21
3.1506440551181103
0
LINE
8
BLACK
6
CONTINUOUS
10
-1.9661417322834644
20
3.1506440551181103
11
-1.9663215354330708
21
3.1497400787401575
0
LINE
8
BLACK
6
CONTINUOUS
10
-1.9663215354330708
20
3.1497400787401575
11
-1.9675999606299213
21
3.1484616535433072
0
LINE
8
BLACK
6
CONTINUOUS
10
-1.9675999606299213
20
3.1484616535433072
11
-1.9694079133858267
21
3.1484616535433072
0
LINE
8
BLACK
6
CONTINUOUS
10
-1.9694079133858267
20
3.1484616535433072
11
-1.9706863385826772
21
3.1497400787401575
0
LINE
8
BLACK
6
CONTINUOUS
10
-1.9706863385826772
20
3.1497400787401575
11
-1.9708661417322835
21
3.1506440551181103
0
LINE
8
BLACK
6
CONTINUOUS
10
-1.9708661417322835
20
3.1506440551181103
11
-1.9708661417322835
21
3.1627417716535433
0
LINE
8
BLACK
6
CONTINUOUS
10
-1.9708661417322835
20
3.1627417716535433
11
-1.9706863385826772
21
3.1636457480314961
0
LINE
8
BLACK
6
CONTINUOUS
10
-1.9706863385826772
20
3.1636457480314961
11
-1.9694079133858267
21
3.1649241732283464
0
LINE
8
BLACK
6
CONTINUOUS
10
-1.9694079133858267
20
3.1649241732283464
11
-1.9675999606299213
21
3.1649241732283464
0
LINE
8
BLACK
6
CONTINUOUS
10
-1.9675999606299213
20
3.1649241732283464
11
-1.9663215354330708
21
3.1636457480314961
0
LINE
8
BLACK
6
CONTINUOUS
10
-1.9364002755905512
20
3.1636457480314961
11
-1.9362204724409449
21
3.1627417716535433
0
LINE
8
BLACK
6
CONTINUOUS
10
-1.9362204724409449
20
3.1627417716535433
11
-1.9362204724409449
21
3.1506440551181103
0
LINE
8
BLACK
6
CONTINUOUS
10
-1.9362204724409449
20
3.1506440551181103
11
-1.9364002755905512
21
3.1497400787401575
0
LINE
8
BLACK
6
CONTINUOUS
10
-1.9364002755905512
20
3.1497400787401575
11
-1.9376787007874015
21
3.1484616535433072
0
LINE
8
BLACK
6
CONTINUOUS
10
-1.9376787007874015
20
3.1484616535433072
11
-1.9394866535433071
21
3.1484616535433072
0
LINE
8
BLACK
6
CONTINUOUS
10
-1.9394866535433071
20
3.1484616535433072
11
-1.9407650787401574
21
3.1497400787401575
0
LINE
8
BLACK
6
CONTINUOUS
10
-1.9407650787401574
20
3.1497400787401575
11
-1.9409448818897637
21
3.1506440551181103
0
LINE
8
BLACK
6
CONTINUOUS
10
-1.9409448818897637
20
3.1506440551181103
11
-1.9409448818897637
21
3.1627417716535433
0
LINE
8
BLACK
6
CONTINUOUS
10
-1.9409448818897637
20
3.1627417716535433
11
-1.9407650787401574
21
3.1636457480314961
0
LINE
8
BLACK
6
CONTINUOUS
10
-1.9407650787401574
20
3.1636457480314961
11
-1.9394866535433071
21
3.1649241732283464
0
LINE
8
BLACK
6
CONTINUOUS
10
-1.9394866535433071
20
3.1649241732283464
11
-1.9376787007874015
21
3.1649241732283464
0
LINE
8
BLACK
6
CONTINUOUS
10
-1.9376787007874015
20
3.1649241732283464
11
-1.9364002755905512
21
3.1636457480314961
0
LINE
8
BLACK
6
CONTINUOUS
10
-1.777345157480315
20
3.1636457480314961
11
-1.7771653543307087
21
3.1627417716535433
0
LINE
8
BLACK
6
CONTINUOUS
10
-1.7771653543307087
20
3.1627417716535433
11
-1.7771653543307087
21
3.1506440551181103
0
LINE
8
BLACK
6
CONTINUOUS
10
-1.7771653543307087
20
3.1506440551181103
11
-1.777345157480315
21
3.1497400787401575
0
LINE
8
BLACK
6
CONTINUOUS
10
-1.777345157480315
20
3.1497400787401575
11
-1.7786235826771652
21
3.1484616535433072
0
LINE
8
BLACK
6
CONTINUOUS
10
-1.7786235826771652
20
3.1484616535433072
11
-1.7804315354330709
21
3.1484616535433072
0
LINE
8
BLACK
6
CONTINUOUS
10
-1.7804315354330709
20
3.1484616535433072
11
-1.7817099606299212
21
3.1497400787401575
0
LINE
8
BLACK
6
CONTINUOUS
10
-1.7817099606299212
20
3.1497400787401575
11
-1.7818897637795275
21
3.1506440551181103
0
LINE
8
BLACK
6
CONTINUOUS
10
-1.7818897637795275
20
3.1506440551181103
11
-1.7818897637795275
21
3.1627417716535433
0
LINE
8
BLACK
6
CONTINUOUS
10
-1.7818897637795275
20
3.1627417716535433
11
-1.7817099606299212
21
3.1636457480314961
0
LINE
8
BLACK
6
CONTINUOUS
10
-1.7817099606299212
20
3.1636457480314961
11
-1.7804315354330709
21
3.1649241732283464
0
LINE
8
BLACK
6
CONTINUOUS
10
-1.7804315354330709
20
3.1649241732283464
11
-1.7786235826771652
21
3.1649241732283464
0
LINE
8
BLACK
6
CONTINUOUS
10
-1.7786235826771652
20
3.1649241732283464
11
-1.777345157480315
21
3.1636457480314961
0
LINE
8
BLACK
6
CONTINUOUS
10
-1.7474238976377952
20
3.1636457480314961
11
-1.7472440944881888
21
3.1627417716535433
0
LINE
8
BLACK
6
CONTINUOUS
10
-1.7472440944881888
20
3.1627417716535433
11
-1.7472440944881888
21
3.1506440551181103
0
LINE
8
BLACK
6
CONTINUOUS
10
-1.7472440944881888
20
3.1506440551181103
11
-1.7474238976377952
21
3.1497400787401575
0
LINE
8
BLACK
6
CONTINUOUS
10
-1.7474238976377952
20
3.1497400787401575
11
-1.7487023228346457
21
3.1484616535433072
0
LINE
8
BLACK
6
CONTINUOUS
10
-1.7487023228346457
20
3.1484616535433072
11
-1.7505102755905511
21
3.1484616535433072
0
LINE
8
BLACK
6
CONTINUOUS
10
-1.7505102755905511
20
3.1484616535433072
11
-1.7517887007874016
21
3.1497400787401575
0
LINE
8
BLACK
6
CONTINUOUS
10
-1.7517887007874016
20
3.1497400787401575
11
-1.7519685039370079
21
3.1506440551181103
0
LINE
8
BLACK
6
CONTINUOUS
10
-1.7519685039370079
20
3.1506440551181103
11
-1.7519685039370079
21
3.1627417716535433
0
LINE
8
BLACK
6
CONTINUOUS
10
-1.7519685039370079
20
3.1627417716535433
11
-1.7517887007874016
21
3.1636457480314961
0
LINE
8
BLACK
6
CONTINUOUS
10
-1.7517887007874016
20
3.1636457480314961
11
-1.7505102755905511
21
3.1649241732283464
0
LINE
8
BLACK
6
CONTINUOUS
10
-1.7505102755905511
20
3.1649241732283464
11
-1.7487023228346457
21
3.1649241732283464
0
LINE
8
BLACK
6
CONTINUOUS
10
-1.7487023228346457
20
3.1649241732283464
11
-1.7474238976377952
21
3.1636457480314961
0
LINE
8
BLACK
6
CONTINUOUS
10
-2.0001854330708659
20
3.1700206299212597
11
-1.999664409448819
21
3.1694996062992127
0
LINE
8
BLACK
6
CONTINUOUS
10
-1.999664409448819
20
3.1694996062992127
11
-1.9902155905511811
21
3.1565074803149606
0
LINE
8
BLACK
6
CONTINUOUS
10
-1.9902155905511811
20
3.1565074803149606
11
-1.9897926771653542
21
3.1547496850393699
0
LINE
8
BLACK
6
CONTINUOUS
10
-1.9897926771653542
20
3.1547496850393699
11
-1.9907366141732283
21
3.1532077165354329
0
LINE
8
BLACK
6
CONTINUOUS
10
-1.9907366141732283
20
3.1532077165354329
11
-1.9921259842519685
21
3.1527559055118108
0
LINE
8
BLACK
6
CONTINUOUS
10
-1.9921259842519685
20
3.1527559055118108
11
-2.0110236220472442
21
3.1527559055118108
0
LINE
8
BLACK
6
CONTINUOUS
10
-2.0110236220472442
20
3.1527559055118108
11
-2.012693937007874
21
3.1534477952755906
0
LINE
8
BLACK
6
CONTINUOUS
10
-2.012693937007874
20
3.1534477952755906
11
-2.0133858267716533
21
3.1551181102362205
0
LINE
8
BLACK
6
CONTINUOUS
10
-2.0133858267716533
20
3.1551181102362205
11
-2.0129340157480313
21
3.1565074803149606
0
LINE
8
BLACK
6
CONTINUOUS
10
-2.0129340157480313
20
3.1565074803149606
11
-2.0034851968503937
21
3.1694996062992127
0
LINE
8
BLACK
6
CONTINUOUS
10
-2.0034851968503937
20
3.1694996062992127
11
-2.0019432283464567
21
3.1704435433070866
0
LINE
8
BLACK
6
CONTINUOUS
10
-2.0019432283464567
20
3.1704435433070866
11
-2.0001854330708659
21
3.1700206299212597
0
LINE
8
BLACK
6
CONTINUOUS
10
-2.0152377559055119
20
3.1683241338582677
11
-2.0139593307086612
21
3.1670457086614174
0
LINE
8
BLACK
6
CONTINUOUS
10
-2.0139593307086612
20
3.1670457086614174
11
-2.0139593307086612
21
3.1652377559055118
0
LINE
8
BLACK
6
CONTINUOUS
10
-2.0139593307086612
20
3.1652377559055118
11
-2.0152377559055119
21
3.1639593307086615
0
LINE
8
BLACK
6
CONTINUOUS
10
-2.0152377559055119
20
3.1639593307086615
11
-2.0161417322834647
21
3.163779527559055
0
LINE
8
BLACK
6
CONTINUOUS
10
-2.0161417322834647
20
3.163779527559055
11
-2.0716535433070864
21
3.163779527559055
0
LINE
8
BLACK
6
CONTINUOUS
10
-2.0716535433070864
20
3.163779527559055
11
-2.0725575196850392
21
3.1639593307086615
0
LINE
8
BLACK
6
CONTINUOUS
10
-2.0725575196850392
20
3.1639593307086615
11
-2.0738359448818899
21
3.1652377559055118
0
LINE
8
BLACK
6
CONTINUOUS
10
-2.0738359448818899
20
3.1652377559055118
11
-2.0738359448818899
21
3.1670457086614174
0
LINE
8
BLACK
6
CONTINUOUS
10
-2.0738359448818899
20
3.1670457086614174
11
-2.0725575196850392
21
3.1683241338582677
0
LINE
8
BLACK
6
CONTINUOUS
10
-2.0725575196850392
20
3.1683241338582677
11
-2.0716535433070864
21
3.1685039370078738
0
LINE
8
BLACK
6
CONTINUOUS
10
-2.0716535433070864
20
3.1685039370078738
11
-2.0161417322834647
21
3.1685039370078738
0
LINE
8
BLACK
6
CONTINUOUS
10
-2.0161417322834647
20
3.1685039370078738
11
-2.0152377559055119
21
3.1683241338582677
0
LINE
8
BLACK
6
CONTINUOUS
10
-1.930101062992126
20
3.2405825590551181
11
-1.9299212598425197
21
3.2396785826771652
0
LINE
8
BLACK
6
CONTINUOUS
10
-1.9299212598425197
20
3.2396785826771652
11
-1.9299212598425197
21
3.231187559055118
0
LINE
8
BLACK
6
CONTINUOUS
10
-1.9299212598425197
20
3.231187559055118
11
-1.930101062992126
21
3.2302835826771652
0
LINE
8
BLACK
6
CONTINUOUS
10
-1.930101062992126
20
3.2302835826771652
11
-1.9313794881889763
21
3.2290051574803149
0
LINE
8
BLACK
6
CONTINUOUS
10
-1.9313794881889763
20
3.2290051574803149
11
-1.9331874409448819
21
3.2290051574803149
0
LINE
8
BLACK
6
CONTINUOUS
10
-1.9331874409448819
20
3.2290051574803149
11
-1.9344658661417322
21
3.2302835826771652
0
LINE
8
BLACK
6
CONTINUOUS
10
-1.9344658661417322
20
3.2302835826771652
11
-1.9346456692913385
21
3.231187559055118
0
LINE
8
BLACK
6
CONTINUOUS
10
-1.9346456692913385
20
3.231187559055118
11
-1.9346456692913385
21
3.2396785826771652
0
LINE
8
BLACK
6
CONTINUOUS
10
-1.9346456692913385
20
3.2396785826771652
11
-1.9344658661417322
21
3.2405825590551181
0
LINE
8
BLACK
6
CONTINUOUS
10
-1.9344658661417322
20
3.2405825590551181
11
-1.9331874409448819
21
3.2418609842519683
0
LINE
8
BLACK
6
CONTINUOUS
10
-1.9331874409448819
20
3.2418609842519683
11
-1.9313794881889763
21
3.2418609842519683
0
LINE
8
BLACK
6
CONTINUOUS
10
-1.9313794881889763
20
3.2418609842519683
11
-1.930101062992126
21
3.2405825590551181
0
LINE
8
BLACK
6
CONTINUOUS
10
-1.9017546062992126
20
3.2405825590551181
11
-1.9015748031496063
21
3.2396785826771652
0
LINE
8
BLACK
6
CONTINUOUS
10
-1.9015748031496063
20
3.2396785826771652
11
-1.9015748031496063
21
3.231187559055118
0
LINE
8
BLACK
6
CONTINUOUS
10
-1.9015748031496063
20
3.231187559055118
11
-1.9017546062992126
21
3.2302835826771652
0
LINE
8
BLACK
6
CONTINUOUS
10
-1.9017546062992126
20
3.2302835826771652
11
-1.9030330314960628
21
3.2290051574803149
0
LINE
8
BLACK
6
CONTINUOUS
10
-1.9030330314960628
20
3.2290051574803149
11
-1.9048409842519685
21
3.2290051574803149
0
LINE
8
BLACK
6
CONTINUOUS
10
-1.9048409842519685
20
3.2290051574803149
11
-1.9061194094488187
21
3.2302835826771652
0
LINE
8
BLACK
6
CONTINUOUS
10
-1.9061194094488187
20
3.2302835826771652
11
-1.9062992125984251
21
3.231187559055118
0
LINE
8
BLACK
6
CONTINUOUS
10
-1.9062992125984251
20
3.231187559055118
11
-1.9062992125984251
21
3.2396785826771652
0
LINE
8
BLACK
6
CONTINUOUS
10
-1.9062992125984251
20
3.2396785826771652
11
-1.9061194094488187
21
3.2405825590551181
0
LINE
8
BLACK
6
CONTINUOUS
10
-1.9061194094488187
20
3.2405825590551181
11
-1.9048409842519685
21
3.2418609842519683
0
LINE
8
BLACK
6
CONTINUOUS
10
-1.9048409842519685
20
3.2418609842519683
11
-1.9030330314960628
21
3.2418609842519683
0
LINE
8
BLACK
6
CONTINUOUS
10
-1.9030330314960628
20
3.2418609842519683
11
-1.9017546062992126
21
3.2405825590551181
0
LINE
8
BLACK
6
CONTINUOUS
10
-1.8119908267716536
20
3.2405825590551181
11
-1.8118110236220473
21
3.2396785826771652
0
LINE
8
BLACK
6
CONTINUOUS
10
-1.8118110236220473
20
3.2396785826771652
11
-1.8118110236220473
21
3.231187559055118
0
LINE
8
BLACK
6
CONTINUOUS
10
-1.8118110236220473
20
3.231187559055118
11
-1.8119908267716536
21
3.2302835826771652
0
LINE
8
BLACK
6
CONTINUOUS
10
-1.8119908267716536
20
3.2302835826771652
11
-1.8132692519685039
21
3.2290051574803149
0
LINE
8
BLACK
6
CONTINUOUS
10
-1.8132692519685039
20
3.2290051574803149
11
-1.8150772047244095
21
3.2290051574803149
0
LINE
8
BLACK
6
CONTINUOUS
10
-1.8150772047244095
20
3.2290051574803149
11
-1.8163556299212598
21
3.2302835826771652
0
LINE
8
BLACK
6
CONTINUOUS
10
-1.8163556299212598
20
3.2302835826771652
11
-1.8165354330708661
21
3.231187559055118
0
LINE
8
BLACK
6
CONTINUOUS
10
-1.8165354330708661
20
3.231187559055118
11
-1.8165354330708661
21
3.2396785826771652
0
LINE
8
BLACK
6
CONTINUOUS
10
-1.8165354330708661
20
3.2396785826771652
11
-1.8163556299212598
21
3.2405825590551181
0
LINE
8
BLACK
6
CONTINUOUS
10
-1.8163556299212598
20
3.2405825590551181
11
-1.8150772047244095
21
3.2418609842519683
0
LINE
8
BLACK
6
CONTINUOUS
10
-1.8150772047244095
20
3.2418609842519683
11
-1.8132692519685039
21
3.2418609842519683
0
LINE
8
BLACK
6
CONTINUOUS
10
-1.8132692519685039
20
3.2418609842519683
11
-1.8119908267716536
21
3.2405825590551181
0
LINE
8
BLACK
6
CONTINUOUS
10
-1.7836443700787401
20
3.2405825590551181
11
-1.7834645669291338
21
3.2396785826771652
0
LINE
8
BLACK
6
CONTINUOUS
10
-1.7834645669291338
20
3.2396785826771652
11
-1.7834645669291338
21
3.231187559055118
0
LINE
8
BLACK
6
CONTINUOUS
10
-1.7834645669291338
20
3.231187559055118
11
-1.7836443700787401
21
3.2302835826771652
0
LINE
8
BLACK
6
CONTINUOUS
10
-1.7836443700787401
20
3.2302835826771652
11
-1.7849227952755906
21
3.2290051574803149
0
LINE
8
BLACK
6
CONTINUOUS
10
-1.7849227952755906
20
3.2290051574803149
11
-1.786730748031496
21
3.2290051574803149
0
LINE
8
BLACK
6
CONTINUOUS
10
-1.786730748031496
20
3.2290051574803149
11
-1.7880091732283465
21
3.2302835826771652
0
LINE
8
BLACK
6
CONTINUOUS
10
-1.7880091732283465
20
3.2302835826771652
11
-1.7881889763779528
21
3.231187559055118
0
LINE
8
BLACK
6
CONTINUOUS
10
-1.7881889763779528
20
3.231187559055118
11
-1.7881889763779528
21
3.2396785826771652
0
LINE
8
BLACK
6
CONTINUOUS
10
-1.7881889763779528
20
3.2396785826771652
11
-1.7880091732283465
21
3.2405825590551181
0
LINE
8
BLACK
6
CONTINUOUS
10
-1.7880091732283465
20
3.2405825590551181
11
-1.786730748031496
21
3.2418609842519683
0
LINE
8
BLACK
6
CONTINUOUS
10
-1.786730748031496
20
3.2418609842519683
11
-1.7849227952755906
21
3.2418609842519683
0
LINE
8
BLACK
6
CONTINUOUS
10
-1.7849227952755906
20
3.2418609842519683
11
-1.7836443700787401
21
3.2405825590551181
0
LINE
8
BLACK
6
CONTINUOUS
10
-2.2923057874015749
20
3.256330590551181
11
-2.2921259842519683
21
3.2554266141732282
0
LINE
8
BLACK
6
CONTINUOUS
10
-2.2921259842519683
20
3.2554266141732282
11
-2.2921259842519683
21
3.246935590551181
0
LINE
8
BLACK
6
CONTINUOUS
10
-2.2921259842519683
20
3.246935590551181
11
-2.2923057874015749
21
3.2460316141732282
0
LINE
8
BLACK
6
CONTINUOUS
10
-2.2923057874015749
20
3.2460316141732282
11
-2.2935842125984252
21
3.2447531889763779
0
LINE
8
BLACK
6
CONTINUOUS
10
-2.2935842125984252
20
3.2447531889763779
11
-2.2953921653543308
21
3.2447531889763779
0
LINE
8
BLACK
6
CONTINUOUS
10
-2.2953921653543308
20
3.2447531889763779
11
-2.2966705905511811
21
3.2460316141732282
0
LINE
8
BLACK
6
CONTINUOUS
10
-2.2966705905511811
20
3.2460316141732282
11
-2.2968503937007871
21
3.246935590551181
0
LINE
8
BLACK
6
CONTINUOUS
10
-2.2968503937007871
20
3.246935590551181
11
-2.2968503937007871
21
3.2554266141732282
0
LINE
8
BLACK
6
CONTINUOUS
10
-2.2968503937007871
20
3.2554266141732282
11
-2.2966705905511811
21
3.256330590551181
0
LINE
8
BLACK
6
CONTINUOUS
10
-2.2966705905511811
20
3.256330590551181
11
-2.2953921653543308
21
3.2576090157480313
0
LINE
8
BLACK
6
CONTINUOUS
10
-2.2953921653543308
20
3.2576090157480313
11
-2.2935842125984252
21
3.2576090157480313
0
LINE
8
BLACK
6
CONTINUOUS
10
-2.2935842125984252
20
3.2576090157480313
11
-2.2923057874015749
21
3.256330590551181
0
LINE
8
BLACK
6
CONTINUOUS
10
-2.2639593307086612
20
3.256330590551181
11
-2.2637795275590551
21
3.2554266141732282
0
LINE
8
BLACK
6
CONTINUOUS
10
-2.2637795275590551
20
3.2554266141732282
11
-2.2637795275590551
21
3.246935590551181
0
LINE
8
BLACK
6
CONTINUOUS
10
-2.2637795275590551
20
3.246935590551181
11
-2.2639593307086612
21
3.2460316141732282
0
LINE
8
BLACK
6
CONTINUOUS
10
-2.2639593307086612
20
3.2460316141732282
11
-2.2652377559055119
21
3.2447531889763779
0
LINE
8
BLACK
6
CONTINUOUS
10
-2.2652377559055119
20
3.2447531889763779
11
-2.2670457086614171
21
3.2447531889763779
0
LINE
8
BLACK
6
CONTINUOUS
10
-2.2670457086614171
20
3.2447531889763779
11
-2.2683241338582678
21
3.2460316141732282
0
LINE
8
BLACK
6
CONTINUOUS
10
-2.2683241338582678
20
3.2460316141732282
11
-2.2685039370078739
21
3.246935590551181
0
LINE
8
BLACK
6
CONTINUOUS
10
-2.2685039370078739
20
3.246935590551181
11
-2.2685039370078739
21
3.2554266141732282
0
LINE
8
BLACK
6
CONTINUOUS
10
-2.2685039370078739
20
3.2554266141732282
11
-2.2683241338582678
21
3.256330590551181
0
LINE
8
BLACK
6
CONTINUOUS
10
-2.2683241338582678
20
3.256330590551181
11
-2.2670457086614171
21
3.2576090157480313
0
LINE
8
BLACK
6
CONTINUOUS
10
-2.2670457086614171
20
3.2576090157480313
11
-2.2652377559055119
21
3.2576090157480313
0
LINE
8
BLACK
6
CONTINUOUS
10
-2.2652377559055119
20
3.2576090157480313
11
-2.2639593307086612
21
3.256330590551181
0
LINE
8
BLACK
6
CONTINUOUS
10
-2.0156314566929132
20
3.2596627165354328
11
-2.0143530314960629
21
3.2583842913385825
0
LINE
8
BLACK
6
CONTINUOUS
10
-2.0143530314960629
20
3.2583842913385825
11
-2.0143530314960629
21
3.2565763385826769
0
LINE
8
BLACK
6
CONTINUOUS
10
-2.0143530314960629
20
3.2565763385826769
11
-2.0156314566929132
21
3.2552979133858266
0
LINE
8
BLACK
6
CONTINUOUS
10
-2.0156314566929132
20
3.2552979133858266
11
-2.016535433070866
21
3.2551181102362206
0
LINE
8
BLACK
6
CONTINUOUS
10
-2.016535433070866
20
3.2551181102362206
11
-2.0716535433070864
21
3.2551181102362206
0
LINE
8
BLACK
6
CONTINUOUS
10
-2.0716535433070864
20
3.2551181102362206
11
-2.0725575196850392
21
3.2552979133858266
0
LINE
8
BLACK
6
CONTINUOUS
10
-2.0725575196850392
20
3.2552979133858266
11
-2.0738359448818899
21
3.2565763385826769
0
LINE
8
BLACK
6
CONTINUOUS
10
-2.0738359448818899
20
3.2565763385826769
11
-2.0738359448818899
21
3.2583842913385825
0
LINE
8
BLACK
6
CONTINUOUS
10
-2.0738359448818899
20
3.2583842913385825
11
-2.0725575196850392
21
3.2596627165354328
0
LINE
8
BLACK
6
CONTINUOUS
10
-2.0725575196850392
20
3.2596627165354328
11
-2.0716535433070864
21
3.2598425196850394
0
LINE
8
BLACK
6
CONTINUOUS
10
-2.0716535433070864
20
3.2598425196850394
11
-2.016535433070866
21
3.2598425196850394
0
LINE
8
BLACK
6
CONTINUOUS
10
-2.016535433070866
20
3.2598425196850394
11
-2.0156314566929132
21
3.2596627165354328
0
LINE
8
BLACK
6
CONTINUOUS
10
-1.8907309842519684
20
3.2799526377952755
11
-1.8905511811023621
21
3.2790486614173227
0
LINE
8
BLACK
6
CONTINUOUS
10
-1.8905511811023621
20
3.2790486614173227
11
-1.8905511811023621
21
3.2705576377952754
0
LINE
8
BLACK
6
CONTINUOUS
10
-1.8905511811023621
20
3.2705576377952754
11
-1.8907309842519684
21
3.2696536614173226
0
LINE
8
BLACK
6
CONTINUOUS
10
-1.8907309842519684
20
3.2696536614173226
11
-1.8920094094488189
21
3.2683752362204723
0
LINE
8
BLACK
6
CONTINUOUS
10
-1.8920094094488189
20
3.2683752362204723
11
-1.8938173622047243
21
3.2683752362204723
0
LINE
8
BLACK
6
CONTINUOUS
10
-1.8938173622047243
20
3.2683752362204723
11
-1.8950957874015748
21
3.2696536614173226
0
LINE
8
BLACK
6
CONTINUOUS
10
-1.8950957874015748
20
3.2696536614173226
11
-1.8952755905511811
21
3.2705576377952754
0
LINE
8
BLACK
6
CONTINUOUS
10
-1.8952755905511811
20
3.2705576377952754
11
-1.8952755905511811
21
3.2790486614173227
0
LINE
8
BLACK
6
CONTINUOUS
10
-1.8952755905511811
20
3.2790486614173227
11
-1.8950957874015748
21
3.2799526377952755
0
LINE
8
BLACK
6
CONTINUOUS
10
-1.8950957874015748
20
3.2799526377952755
11
-1.8938173622047243
21
3.2812310629921257
0
LINE
8
BLACK
6
CONTINUOUS
10
-1.8938173622047243
20
3.2812310629921257
11
-1.8920094094488189
21
3.2812310629921257
0
LINE
8
BLACK
6
CONTINUOUS
10
-1.8920094094488189
20
3.2812310629921257
11
-1.8907309842519684
21
3.2799526377952755
0
LINE
8
BLACK
6
CONTINUOUS
10
-1.8623845275590551
20
3.2799526377952755
11
-1.8622047244094488
21
3.2790486614173227
0
LINE
8
BLACK
6
CONTINUOUS
10
-1.8622047244094488
20
3.2790486614173227
11
-1.8622047244094488
21
3.2705576377952754
0
LINE
8
BLACK
6
CONTINUOUS
10
-1.8622047244094488
20
3.2705576377952754
11
-1.8623845275590551
21
3.2696536614173226
0
LINE
8
BLACK
6
CONTINUOUS
10
-1.8623845275590551
20
3.2696536614173226
11
-1.8636629527559054
21
3.2683752362204723
0
LINE
8
BLACK
6
CONTINUOUS
10
-1.8636629527559054
20
3.2683752362204723
11
-1.8654709055118111
21
3.2683752362204723
0
LINE
8
BLACK
6
CONTINUOUS
10
-1.8654709055118111
20
3.2683752362204723
11
-1.8667493307086613
21
3.2696536614173226
0
LINE
8
BLACK
6
CONTINUOUS
10
-1.8667493307086613
20
3.2696536614173226
11
-1.8669291338582676
21
3.2705576377952754
0
LINE
8
BLACK
6
CONTINUOUS
10
-1.8669291338582676
20
3.2705576377952754
11
-1.8669291338582676
21
3.2790486614173227
0
LINE
8
BLACK
6
CONTINUOUS
10
-1.8669291338582676
20
3.2790486614173227
11
-1.8667493307086613
21
3.2799526377952755
0
LINE
8
BLACK
6
CONTINUOUS
10
-1.8667493307086613
20
3.2799526377952755
11
-1.8654709055118111
21
3.2812310629921257
0
LINE
8
BLACK
6
CONTINUOUS
10
-1.8654709055118111
20
3.2812310629921257
11
-1.8636629527559054
21
3.2812310629921257
0
LINE
8
BLACK
6
CONTINUOUS
10
-1.8636629527559054
20
3.2812310629921257
11
-1.8623845275590551
21
3.2799526377952755
0
LINE
8
BLACK
6
CONTINUOUS
10
-1.851360905511811
20
3.2799526377952755
11
-1.8511811023622047
21
3.2790486614173227
0
LINE
8
BLACK
6
CONTINUOUS
10
-1.8511811023622047
20
3.2790486614173227
11
-1.8511811023622047
21
3.2705576377952754
0
LINE
8
BLACK
6
CONTINUOUS
10
-1.8511811023622047
20
3.2705576377952754
11
-1.851360905511811
21
3.2696536614173226
0
LINE
8
BLACK
6
CONTINUOUS
10
-1.851360905511811
20
3.2696536614173226
11
-1.8526393307086613
21
3.2683752362204723
0
LINE
8
BLACK
6
CONTINUOUS
10
-1.8526393307086613
20
3.2683752362204723
11
-1.8544472834645669
21
3.2683752362204723
0
LINE
8
BLACK
6
CONTINUOUS
10
-1.8544472834645669
20
3.2683752362204723
11
-1.8557257086614172
21
3.2696536614173226
0
LINE
8
BLACK
6
CONTINUOUS
10
-1.8557257086614172
20
3.2696536614173226
11
-1.8559055118110235
21
3.2705576377952754
0
LINE
8
BLACK
6
CONTINUOUS
10
-1.8559055118110235
20
3.2705576377952754
11
-1.8559055118110235
21
3.2790486614173227
0
LINE
8
BLACK
6
CONTINUOUS
10
-1.8559055118110235
20
3.2790486614173227
11
-1.8557257086614172
21
3.2799526377952755
0
LINE
8
BLACK
6
CONTINUOUS
10
-1.8557257086614172
20
3.2799526377952755
11
-1.8544472834645669
21
3.2812310629921257
0
LINE
8
BLACK
6
CONTINUOUS
10
-1.8544472834645669
20
3.2812310629921257
11
-1.8526393307086613
21
3.2812310629921257
0
LINE
8
BLACK
6
CONTINUOUS
10
-1.8526393307086613
20
3.2812310629921257
11
-1.851360905511811
21
3.2799526377952755
0
LINE
8
BLACK
6
CONTINUOUS
10
-1.8230144488188975
20
3.2799526377952755
11
-1.8228346456692912
21
3.2790486614173227
0
LINE
8
BLACK
6
CONTINUOUS
10
-1.8228346456692912
20
3.2790486614173227
11
-1.8228346456692912
21
3.2705576377952754
0
LINE
8
BLACK
6
CONTINUOUS
10
-1.8228346456692912
20
3.2705576377952754
11
-1.8230144488188975
21
3.2696536614173226
0
LINE
8
BLACK
6
CONTINUOUS
10
-1.8230144488188975
20
3.2696536614173226
11
-1.824292874015748
21
3.2683752362204723
0
LINE
8
BLACK
6
CONTINUOUS
10
-1.824292874015748
20
3.2683752362204723
11
-1.8261008267716534
21
3.2683752362204723
0
LINE
8
BLACK
6
CONTINUOUS
10
-1.8261008267716534
20
3.2683752362204723
11
-1.8273792519685039
21
3.2696536614173226
0
LINE
8
BLACK
6
CONTINUOUS
10
-1.8273792519685039
20
3.2696536614173226
11
-1.8275590551181102
21
3.2705576377952754
0
LINE
8
BLACK
6
CONTINUOUS
10
-1.8275590551181102
20
3.2705576377952754
11
-1.8275590551181102
21
3.2790486614173227
0
LINE
8
BLACK
6
CONTINUOUS
10
-1.8275590551181102
20
3.2790486614173227
11
-1.8273792519685039
21
3.2799526377952755
0
LINE
8
BLACK
6
CONTINUOUS
10
-1.8273792519685039
20
3.2799526377952755
11
-1.8261008267716534
21
3.2812310629921257
0
LINE
8
BLACK
6
CONTINUOUS
10
-1.8261008267716534
20
3.2812310629921257
11
-1.824292874015748
21
3.2812310629921257
0
LINE
8
BLACK
6
CONTINUOUS
10
-1.824292874015748
20
3.2812310629921257
11
-1.8230144488188975
21
3.2799526377952755
0
LINE
8
BLACK
6
CONTINUOUS
10
-1.9301066929133859
20
3.3460048818897636
11
-1.9171145669291338
21
3.336556062992126
0
LINE
8
BLACK
6
CONTINUOUS
10
-1.9171145669291338
20
3.336556062992126
11
-1.9161706299212597
21
3.335014094488189
0
LINE
8
BLACK
6
CONTINUOUS
10
-1.9161706299212597
20
3.335014094488189
11
-1.9165935433070866
21
3.3332562992125983
0
LINE
8
BLACK
6
CONTINUOUS
10
-1.9165935433070866
20
3.3332562992125983
11
-1.9171145669291338
21
3.3327352755905513
0
LINE
8
BLACK
6
CONTINUOUS
10
-1.9171145669291338
20
3.3327352755905513
11
-1.9301066929133859
21
3.3232864566929132
0
LINE
8
BLACK
6
CONTINUOUS
10
-1.9301066929133859
20
3.3232864566929132
11
-1.9318644881889764
21
3.3228635433070863
0
LINE
8
BLACK
6
CONTINUOUS
10
-1.9318644881889764
20
3.3228635433070863
11
-1.9334064566929134
21
3.3238074803149606
0
LINE
8
BLACK
6
CONTINUOUS
10
-1.9334064566929134
20
3.3238074803149606
11
-1.9338582677165355
21
3.3251968503937008
0
LINE
8
BLACK
6
CONTINUOUS
10
-1.9338582677165355
20
3.3251968503937008
11
-1.9338582677165355
21
3.3440944881889765
0
LINE
8
BLACK
6
CONTINUOUS
10
-1.9338582677165355
20
3.3440944881889765
11
-1.9331663779527559
21
3.3457648031496063
0
LINE
8
BLACK
6
CONTINUOUS
10
-1.9331663779527559
20
3.3457648031496063
11
-1.9314960629921258
21
3.3464566929133857
0
LINE
8
BLACK
6
CONTINUOUS
10
-1.9314960629921258
20
3.3464566929133857
11
-1.9301066929133859
21
3.3460048818897636
0
LINE
8
BLACK
6
CONTINUOUS
10
-2.0408283070866142
20
3.4147808267716533
11
-2.0395498818897639
21
3.413502401574803
0
LINE
8
BLACK
6
CONTINUOUS
10
-2.0395498818897639
20
3.413502401574803
11
-2.0393700787401574
21
3.4125984251968502
0
LINE
8
BLACK
6
CONTINUOUS
10
-2.0393700787401574
20
3.4125984251968502
11
-2.0393700787401574
21
3.3338582677165354
0
LINE
8
BLACK
6
CONTINUOUS
10
-2.0393700787401574
20
3.3338582677165354
11
-2.0395498818897639
21
3.3329542913385826
0
LINE
8
BLACK
6
CONTINUOUS
10
-2.0395498818897639
20
3.3329542913385826
11
-2.0408283070866142
21
3.3316758661417323
0
LINE
8
BLACK
6
CONTINUOUS
10
-2.0408283070866142
20
3.3316758661417323
11
-2.041732283464567
21
3.3314960629921258
0
LINE
8
BLACK
6
CONTINUOUS
10
-2.041732283464567
20
3.3314960629921258
11
-2.1996062992125984
21
3.3314960629921258
0
LINE
8
BLACK
6
CONTINUOUS
10
-2.1996062992125984
20
3.3314960629921258
11
-2.2005102755905512
21
3.3316758661417323
0
LINE
8
BLACK
6
CONTINUOUS
10
-2.2005102755905512
20
3.3316758661417323
11
-2.2017887007874015
21
3.3329542913385826
0
LINE
8
BLACK
6
CONTINUOUS
10
-2.2017887007874015
20
3.3329542913385826
11
-2.2017887007874015
21
3.3347622440944882
0
LINE
8
BLACK
6
CONTINUOUS
10
-2.2017887007874015
20
3.3347622440944882
11
-2.2005102755905512
21
3.3360406692913385
0
LINE
8
BLACK
6
CONTINUOUS
10
-2.2005102755905512
20
3.3360406692913385
11
-2.1996062992125984
21
3.336220472440945
0
LINE
8
BLACK
6
CONTINUOUS
10
-2.1996062992125984
20
3.336220472440945
11
-2.0440944881889762
21
3.336220472440945
0
LINE
8
BLACK
6
CONTINUOUS
10
-2.0440944881889762
20
3.336220472440945
11
-2.0440944881889762
21
3.410236220472441
0
LINE
8
BLACK
6
CONTINUOUS
10
-2.0440944881889762
20
3.410236220472441
11
-2.1996062992125984
21
3.410236220472441
0
LINE
8
BLACK
6
CONTINUOUS
10
-2.1996062992125984
20
3.410236220472441
11
-2.2005102755905512
21
3.4104160236220471
0
LINE
8
BLACK
6
CONTINUOUS
10
-2.2005102755905512
20
3.4104160236220471
11
-2.2017887007874015
21
3.4116944488188974
0
LINE
8
BLACK
6
CONTINUOUS
10
-2.2017887007874015
20
3.4116944488188974
11
-2.2017887007874015
21
3.413502401574803
0
LINE
8
BLACK
6
CONTINUOUS
10
-2.2017887007874015
20
3.413502401574803
11
-2.2005102755905512
21
3.4147808267716533
0
LINE
8
BLACK
6
CONTINUOUS
10
-2.2005102755905512
20
3.4147808267716533
11
-2.1996062992125984
21
3.4149606299212598
0
LINE
8
BLACK
6
CONTINUOUS
10
-2.1996062992125984
20
3.4149606299212598
11
-2.041732283464567
21
3.4149606299212598
0
LINE
8
BLACK
6
CONTINUOUS
10
-2.041732283464567
20
3.4149606299212598
11
-2.0408283070866142
21
3.4147808267716533
0
LINE
8
BLACK
6
CONTINUOUS
10
-1.9182900393700788
20
3.4056283858267715
11
-1.9181102362204725
21
3.4047244094488187
0
LINE
8
BLACK
6
CONTINUOUS
10
-1.9181102362204725
20
3.4047244094488187
11
-1.9181102362204725
21
3.3492125984251966
0
LINE
8
BLACK
6
CONTINUOUS
10
-1.9181102362204725
20
3.3492125984251966
11
-1.9182900393700788
21
3.3483086220472442
0
LINE
8
BLACK
6
CONTINUOUS
10
-1.9182900393700788
20
3.3483086220472442
11
-1.9195684645669291
21
3.3470301968503935
0
LINE
8
BLACK
6
CONTINUOUS
10
-1.9195684645669291
20
3.3470301968503935
11
-1.9213764173228347
21
3.3470301968503935
0
LINE
8
BLACK
6
CONTINUOUS
10
-1.9213764173228347
20
3.3470301968503935
11
-1.922654842519685
21
3.3483086220472442
0
LINE
8
BLACK
6
CONTINUOUS
10
-1.922654842519685
20
3.3483086220472442
11
-1.9228346456692913
21
3.3492125984251966
0
LINE
8
BLACK
6
CONTINUOUS
10
-1.9228346456692913
20
3.3492125984251966
11
-1.9228346456692913
21
3.4047244094488187
0
LINE
8
BLACK
6
CONTINUOUS
10
-1.9228346456692913
20
3.4047244094488187
11
-1.922654842519685
21
3.4056283858267715
0
LINE
8
BLACK
6
CONTINUOUS
10
-1.922654842519685
20
3.4056283858267715
11
-1.9213764173228347
21
3.4069068110236218
0
LINE
8
BLACK
6
CONTINUOUS
10
-1.9213764173228347
20
3.4069068110236218
11
-1.9195684645669291
21
3.4069068110236218
0
LINE
8
BLACK
6
CONTINUOUS
10
-1.9195684645669291
20
3.4069068110236218
11
-1.9182900393700788
21
3.4056283858267715
0
LINE
8
BLACK
6
CONTINUOUS
10
-1.8269514566929133
20
3.4056283858267715
11
-1.826771653543307
21
3.4047244094488187
0
LINE
8
BLACK
6
CONTINUOUS
10
-1.826771653543307
20
3.4047244094488187
11
-1.826771653543307
21
3.3496062992125983
0
LINE
8
BLACK
6
CONTINUOUS
10
-1.826771653543307
20
3.3496062992125983
11
-1.8269514566929133
21
3.3487023228346455
0
LINE
8
BLACK
6
CONTINUOUS
10
-1.8269514566929133
20
3.3487023228346455
11
-1.8282298818897638
21
3.3474238976377952
0
LINE
8
BLACK
6
CONTINUOUS
10
-1.8282298818897638
20
3.3474238976377952
11
-1.8300378346456692
21
3.3474238976377952
0
LINE
8
BLACK
6
CONTINUOUS
10
-1.8300378346456692
20
3.3474238976377952
11
-1.8313162598425197
21
3.3487023228346455
0
LINE
8
BLACK
6
CONTINUOUS
10
-1.8313162598425197
20
3.3487023228346455
11
-1.831496062992126
21
3.3496062992125983
0
LINE
8
BLACK
6
CONTINUOUS
10
-1.831496062992126
20
3.3496062992125983
11
-1.831496062992126
21
3.4047244094488187
0
LINE
8
BLACK
6
CONTINUOUS
10
-1.831496062992126
20
3.4047244094488187
11
-1.8313162598425197
21
3.4056283858267715
0
LINE
8
BLACK
6
CONTINUOUS
10
-1.8313162598425197
20
3.4056283858267715
11
-1.8300378346456692
21
3.4069068110236218
0
LINE
8
BLACK
6
CONTINUOUS
10
-1.8300378346456692
20
3.4069068110236218
11
-1.8282298818897638
21
3.4069068110236218
0
LINE
8
BLACK
6
CONTINUOUS
10
-1.8282298818897638
20
3.4069068110236218
11
-1.8269514566929133
21
3.4056283858267715
0
LINE
8
BLACK
6
CONTINUOUS
10
-1.9635656299212598
20
3.3823148425196852
11
-1.9633858267716535
21
3.3814108661417324
0
LINE
8
BLACK
6
CONTINUOUS
10
-1.9633858267716535
20
3.3814108661417324
11
-1.9633858267716535
21
3.3729198425196851
0
LINE
8
BLACK
6
CONTINUOUS
10
-1.9633858267716535
20
3.3729198425196851
11
-1.9635656299212598
21
3.3720158661417323
0
LINE
8
BLACK
6
CONTINUOUS
10
-1.9635656299212598
20
3.3720158661417323
11
-1.9648440551181101
21
3.3707374409448816
0
LINE
8
BLACK
6
CONTINUOUS
10
-1.9648440551181101
20
3.3707374409448816
11
-1.9666520078740157
21
3.3707374409448816
0
LINE
8
BLACK
6
CONTINUOUS
10
-1.9666520078740157
20
3.3707374409448816
11
-1.967930433070866
21
3.3720158661417323
0
LINE
8
BLACK
6
CONTINUOUS
10
-1.967930433070866
20
3.3720158661417323
11
-1.9681102362204723
21
3.3729198425196851
0
LINE
8
BLACK
6
CONTINUOUS
10
-1.9681102362204723
20
3.3729198425196851
11
-1.9681102362204723
21
3.3814108661417324
0
LINE
8
BLACK
6
CONTINUOUS
10
-1.9681102362204723
20
3.3814108661417324
11
-1.967930433070866
21
3.3823148425196852
0
LINE
8
BLACK
6
CONTINUOUS
10
-1.967930433070866
20
3.3823148425196852
11
-1.9666520078740157
21
3.3835932677165355
0
LINE
8
BLACK
6
CONTINUOUS
10
-1.9666520078740157
20
3.3835932677165355
11
-1.9648440551181101
21
3.3835932677165355
0
LINE
8
BLACK
6
CONTINUOUS
10
-1.9648440551181101
20
3.3835932677165355
11
-1.9635656299212598
21
3.3823148425196852
0
LINE
8
BLACK
6
CONTINUOUS
10
-1.9352191732283464
20
3.3823148425196852
11
-1.9350393700787401
21
3.3814108661417324
0
LINE
8
BLACK
6
CONTINUOUS
10
-1.9350393700787401
20
3.3814108661417324
11
-1.9350393700787401
21
3.3729198425196851
0
LINE
8
BLACK
6
CONTINUOUS
10
-1.9350393700787401
20
3.3729198425196851
11
-1.9352191732283464
21
3.3720158661417323
0
LINE
8
BLACK
6
CONTINUOUS
10
-1.9352191732283464
20
3.3720158661417323
11
-1.9364975984251969
21
3.3707374409448816
0
LINE
8
BLACK
6
CONTINUOUS
10
-1.9364975984251969
20
3.3707374409448816
11
-1.9383055511811023
21
3.3707374409448816
0
LINE
8
BLACK
6
CONTINUOUS
10
-1.9383055511811023
20
3.3707374409448816
11
-1.9395839763779528
21
3.3720158661417323
0
LINE
8
BLACK
6
CONTINUOUS
10
-1.9395839763779528
20
3.3720158661417323
11
-1.9397637795275591
21
3.3729198425196851
0
LINE
8
BLACK
6
CONTINUOUS
10
-1.9397637795275591
20
3.3729198425196851
11
-1.9397637795275591
21
3.3814108661417324
0
LINE
8
BLACK
6
CONTINUOUS
10
-1.9397637795275591
20
3.3814108661417324
11
-1.9395839763779528
21
3.3823148425196852
0
LINE
8
BLACK
6
CONTINUOUS
10
-1.9395839763779528
20
3.3823148425196852
11
-1.9383055511811023
21
3.3835932677165355
0
LINE
8
BLACK
6
CONTINUOUS
10
-1.9383055511811023
20
3.3835932677165355
11
-1.9364975984251969
21
3.3835932677165355
0
LINE
8
BLACK
6
CONTINUOUS
10
-1.9364975984251969
20
3.3835932677165355
11
-1.9352191732283464
21
3.3823148425196852
0
LINE
8
BLACK
6
CONTINUOUS
10
-2.1828109448818895
20
3.4313162598425198
11
-2.1815325196850393
21
3.430037834645669
0
LINE
8
BLACK
6
CONTINUOUS
10
-2.1815325196850393
20
3.430037834645669
11
-2.1815325196850393
21
3.4282298818897639
0
LINE
8
BLACK
6
CONTINUOUS
10
-2.1815325196850393
20
3.4282298818897639
11
-2.1828109448818895
21
3.4269514566929131
0
LINE
8
BLACK
6
CONTINUOUS
10
-2.1828109448818895
20
3.4269514566929131
11
-2.1837149212598423
21
3.426771653543307
0
LINE
8
BLACK
6
CONTINUOUS
10
-2.1837149212598423
20
3.426771653543307
11
-2.1958126377952754
21
3.426771653543307
0
LINE
8
BLACK
6
CONTINUOUS
10
-2.1958126377952754
20
3.426771653543307
11
-2.1967166141732282
21
3.4269514566929131
0
LINE
8
BLACK
6
CONTINUOUS
10
-2.1967166141732282
20
3.4269514566929131
11
-2.1979950393700789
21
3.4282298818897639
0
LINE
8
BLACK
6
CONTINUOUS
10
-2.1979950393700789
20
3.4282298818897639
11
-2.1979950393700789
21
3.430037834645669
0
LINE
8
BLACK
6
CONTINUOUS
10
-2.1979950393700789
20
3.430037834645669
11
-2.1967166141732282
21
3.4313162598425198
0
LINE
8
BLACK
6
CONTINUOUS
10
-2.1967166141732282
20
3.4313162598425198
11
-2.1958126377952754
21
3.4314960629921258
0
LINE
8
BLACK
6
CONTINUOUS
10
-2.1958126377952754
20
3.4314960629921258
11
-2.1837149212598423
21
3.4314960629921258
0
LINE
8
BLACK
6
CONTINUOUS
10
-2.1837149212598423
20
3.4314960629921258
11
-2.1828109448818895
21
3.4313162598425198
0
LINE
8
BLACK
6
CONTINUOUS
10
-2.1466420866141731
20
3.4562411023622048
11
-2.1336499606299211
21
3.4467922834645668
0
LINE
8
BLACK
6
CONTINUOUS
10
-2.1336499606299211
20
3.4467922834645668
11
-2.1327060236220472
21
3.4452503149606297
0
LINE
8
BLACK
6
CONTINUOUS
10
-2.1327060236220472
20
3.4452503149606297
11
-2.1331289370078741
21
3.4434925196850394
0
LINE
8
BLACK
6
CONTINUOUS
10
-2.1331289370078741
20
3.4434925196850394
11
-2.1336499606299211
21
3.442971496062992
0
LINE
8
BLACK
6
CONTINUOUS
10
-2.1336499606299211
20
3.442971496062992
11
-2.1466420866141731
21
3.4335226771653544
0
LINE
8
BLACK
6
CONTINUOUS
10
-2.1466420866141731
20
3.4335226771653544
11
-2.1483998818897638
21
3.4330997637795275
0
LINE
8
BLACK
6
CONTINUOUS
10
-2.1483998818897638
20
3.4330997637795275
11
-2.1499418503937009
21
3.4340437007874014
0
LINE
8
BLACK
6
CONTINUOUS
10
-2.1499418503937009
20
3.4340437007874014
11
-2.1503936614173229
21
3.4354330708661416
0
LINE
8
BLACK
6
CONTINUOUS
10
-2.1503936614173229
20
3.4354330708661416
11
-2.1503936614173229
21
3.4543307086614172
0
LINE
8
BLACK
6
CONTINUOUS
10
-2.1503936614173229
20
3.4543307086614172
11
-2.1497017716535431
21
3.4560010236220471
0
LINE
8
BLACK
6
CONTINUOUS
10
-2.1497017716535431
20
3.4560010236220471
11
-2.1480314566929133
21
3.4566929133858268
0
LINE
8
BLACK
6
CONTINUOUS
10
-2.1480314566929133
20
3.4566929133858268
11
-2.1466420866141731
21
3.4562411023622048
0
LINE
8
BLACK
6
CONTINUOUS
10
-1.8775276771653542
20
3.4517887007874015
11
-1.8762492519685039
21
3.4505102755905512
0
LINE
8
BLACK
6
CONTINUOUS
10
-1.8762492519685039
20
3.4505102755905512
11
-1.8762492519685039
21
3.4487023228346456
0
LINE
8
BLACK
6
CONTINUOUS
10
-1.8762492519685039
20
3.4487023228346456
11
-1.8775276771653542
21
3.4474238976377953
0
LINE
8
BLACK
6
CONTINUOUS
10
-1.8775276771653542
20
3.4474238976377953
11
-1.878431653543307
21
3.4472440944881888
0
LINE
8
BLACK
6
CONTINUOUS
10
-1.878431653543307
20
3.4472440944881888
11
-1.8869226771653542
21
3.4472440944881888
0
LINE
8
BLACK
6
CONTINUOUS
10
-1.8869226771653542
20
3.4472440944881888
11
-1.887826653543307
21
3.4474238976377953
0
LINE
8
BLACK
6
CONTINUOUS
10
-1.887826653543307
20
3.4474238976377953
11
-1.8891050787401575
21
3.4487023228346456
0
LINE
8
BLACK
6
CONTINUOUS
10
-1.8891050787401575
20
3.4487023228346456
11
-1.8891050787401575
21
3.4505102755905512
0
LINE
8
BLACK
6
CONTINUOUS
10
-1.8891050787401575
20
3.4505102755905512
11
-1.887826653543307
21
3.4517887007874015
0
LINE
8
BLACK
6
CONTINUOUS
10
-1.887826653543307
20
3.4517887007874015
11
-1.8869226771653542
21
3.4519685039370076
0
LINE
8
BLACK
6
CONTINUOUS
10
-1.8869226771653542
20
3.4519685039370076
11
-1.878431653543307
21
3.4519685039370076
0
LINE
8
BLACK
6
CONTINUOUS
10
-1.878431653543307
20
3.4519685039370076
11
-1.8775276771653542
21
3.4517887007874015
0
LINE
8
BLACK
6
CONTINUOUS
10
-2.1828109448818895
20
3.4612375196850391
11
-2.1815325196850393
21
3.4599590944881888
0
LINE
8
BLACK
6
CONTINUOUS
10
-2.1815325196850393
20
3.4599590944881888
11
-2.1815325196850393
21
3.4581511417322832
0
LINE
8
BLACK
6
CONTINUOUS
10
-2.1815325196850393
20
3.4581511417322832
11
-2.1828109448818895
21
3.4568727165354329
0
LINE
8
BLACK
6
CONTINUOUS
10
-2.1828109448818895
20
3.4568727165354329
11
-2.1837149212598423
21
3.4566929133858268
0
LINE
8
BLACK
6
CONTINUOUS
10
-2.1837149212598423
20
3.4566929133858268
11
-2.1958126377952754
21
3.4566929133858268
0
LINE
8
BLACK
6
CONTINUOUS
10
-2.1958126377952754
20
3.4566929133858268
11
-2.1967166141732282
21
3.4568727165354329
0
LINE
8
BLACK
6
CONTINUOUS
10
-2.1967166141732282
20
3.4568727165354329
11
-2.1979950393700789
21
3.4581511417322832
0
LINE
8
BLACK
6
CONTINUOUS
10
-2.1979950393700789
20
3.4581511417322832
11
-2.1979950393700789
21
3.4599590944881888
0
LINE
8
BLACK
6
CONTINUOUS
10
-2.1979950393700789
20
3.4599590944881888
11
-2.1967166141732282
21
3.4612375196850391
0
LINE
8
BLACK
6
CONTINUOUS
10
-2.1967166141732282
20
3.4612375196850391
11
-2.1958126377952754
21
3.4614173228346456
0
LINE
8
BLACK
6
CONTINUOUS
10
-2.1958126377952754
20
3.4614173228346456
11
-2.1837149212598423
21
3.4614173228346456
0
LINE
8
BLACK
6
CONTINUOUS
10
-2.1837149212598423
20
3.4614173228346456
11
-2.1828109448818895
21
3.4612375196850391
0
LINE
8
BLACK
6
CONTINUOUS
10
-2.134825433070866
20
3.5158646062992127
11
-2.1346456299212599
21
3.5149606299212599
0
LINE
8
BLACK
6
CONTINUOUS
10
-2.1346456299212599
20
3.5149606299212599
11
-2.1346456299212599
21
3.4594488188976378
0
LINE
8
BLACK
6
CONTINUOUS
10
-2.1346456299212599
20
3.4594488188976378
11
-2.134825433070866
21
3.458544842519685
0
LINE
8
BLACK
6
CONTINUOUS
10
-2.134825433070866
20
3.458544842519685
11
-2.1361038582677163
21
3.4572664173228347
0
LINE
8
BLACK
6
CONTINUOUS
10
-2.1361038582677163
20
3.4572664173228347
11
-2.1379118110236219
21
3.4572664173228347
0
LINE
8
BLACK
6
CONTINUOUS
10
-2.1379118110236219
20
3.4572664173228347
11
-2.1391902362204722
21
3.458544842519685
0
LINE
8
BLACK
6
CONTINUOUS
10
-2.1391902362204722
20
3.458544842519685
11
-2.1393700393700787
21
3.4594488188976378
0
LINE
8
BLACK
6
CONTINUOUS
10
-2.1393700393700787
20
3.4594488188976378
11
-2.1393700393700787
21
3.5149606299212599
0
LINE
8
BLACK
6
CONTINUOUS
10
-2.1393700393700787
20
3.5149606299212599
11
-2.1391902362204722
21
3.5158646062992127
0
LINE
8
BLACK
6
CONTINUOUS
10
-2.1391902362204722
20
3.5158646062992127
11
-2.1379118110236219
21
3.517143031496063
0
LINE
8
BLACK
6
CONTINUOUS
10
-2.1379118110236219
20
3.517143031496063
11
-2.1361038582677163
21
3.517143031496063
0
LINE
8
BLACK
6
CONTINUOUS
10
-2.1361038582677163
20
3.517143031496063
11
-2.134825433070866
21
3.5158646062992127
0
LINE
8
BLACK
6
CONTINUOUS
10
-2.0434868503937009
20
3.5158646062992127
11
-2.0433070472440944
21
3.5149606299212599
0
LINE
8
BLACK
6
CONTINUOUS
10
-2.0433070472440944
20
3.5149606299212599
11
-2.0433070472440944
21
3.4598425196850391
0
LINE
8
BLACK
6
CONTINUOUS
10
-2.0433070472440944
20
3.4598425196850391
11
-2.0434868503937009
21
3.4589385433070867
0
LINE
8
BLACK
6
CONTINUOUS
10
-2.0434868503937009
20
3.4589385433070867
11
-2.0447652755905512
21
3.457660118110236
0
LINE
8
BLACK
6
CONTINUOUS
10
-2.0447652755905512
20
3.457660118110236
11
-2.0465732283464568
21
3.457660118110236
0
LINE
8
BLACK
6
CONTINUOUS
10
-2.0465732283464568
20
3.457660118110236
11
-2.0478516535433071
21
3.4589385433070867
0
LINE
8
BLACK
6
CONTINUOUS
10
-2.0478516535433071
20
3.4589385433070867
11
-2.0480314566929132
21
3.4598425196850391
0
LINE
8
BLACK
6
CONTINUOUS
10
-2.0480314566929132
20
3.4598425196850391
11
-2.0480314566929132
21
3.5149606299212599
0
LINE
8
BLACK
6
CONTINUOUS
10
-2.0480314566929132
20
3.5149606299212599
11
-2.0478516535433071
21
3.5158646062992127
0
LINE
8
BLACK
6
CONTINUOUS
10
-2.0478516535433071
20
3.5158646062992127
11
-2.0465732283464568
21
3.517143031496063
0
LINE
8
BLACK
6
CONTINUOUS
10
-2.0465732283464568
20
3.517143031496063
11
-2.0447652755905512
21
3.517143031496063
0
LINE
8
BLACK
6
CONTINUOUS
10
-2.0447652755905512
20
3.517143031496063
11
-2.0434868503937009
21
3.5158646062992127
0
LINE
8
BLACK
6
CONTINUOUS
10
-2.1846142913385824
20
3.4714737401574802
11
-2.1833358661417321
21
3.4701953149606299
0
LINE
8
BLACK
6
CONTINUOUS
10
-2.1833358661417321
20
3.4701953149606299
11
-2.1833358661417321
21
3.4683873622047243
0
LINE
8
BLACK
6
CONTINUOUS
10
-2.1833358661417321
20
3.4683873622047243
11
-2.1846142913385824
21
3.467108937007874
0
LINE
8
BLACK
6
CONTINUOUS
10
-2.1846142913385824
20
3.467108937007874
11
-2.1855182677165352
21
3.4669291338582675
0
LINE
8
BLACK
6
CONTINUOUS
10
-2.1855182677165352
20
3.4669291338582675
11
-2.1940092913385825
21
3.4669291338582675
0
LINE
8
BLACK
6
CONTINUOUS
10
-2.1940092913385825
20
3.4669291338582675
11
-2.1949132677165353
21
3.467108937007874
0
LINE
8
BLACK
6
CONTINUOUS
10
-2.1949132677165353
20
3.467108937007874
11
-2.1961916929133856
21
3.4683873622047243
0
LINE
8
BLACK
6
CONTINUOUS
10
-2.1961916929133856
20
3.4683873622047243
11
-2.1961916929133856
21
3.4701953149606299
0
LINE
8
BLACK
6
CONTINUOUS
10
-2.1961916929133856
20
3.4701953149606299
11
-2.1949132677165353
21
3.4714737401574802
0
LINE
8
BLACK
6
CONTINUOUS
10
-2.1949132677165353
20
3.4714737401574802
11
-2.1940092913385825
21
3.4716535433070868
0
LINE
8
BLACK
6
CONTINUOUS
10
-2.1940092913385825
20
3.4716535433070868
11
-2.1855182677165352
21
3.4716535433070868
0
LINE
8
BLACK
6
CONTINUOUS
10
-2.1855182677165352
20
3.4716535433070868
11
-2.1846142913385824
21
3.4714737401574802
0
LINE
8
BLACK
6
CONTINUOUS
10
-1.8775276771653542
20
3.4801351574803148
11
-1.8762492519685039
21
3.4788567322834645
0
LINE
8
BLACK
6
CONTINUOUS
10
-1.8762492519685039
20
3.4788567322834645
11
-1.8762492519685039
21
3.4770487795275589
0
LINE
8
BLACK
6
CONTINUOUS
10
-1.8762492519685039
20
3.4770487795275589
11
-1.8775276771653542
21
3.4757703543307086
0
LINE
8
BLACK
6
CONTINUOUS
10
-1.8775276771653542
20
3.4757703543307086
11
-1.878431653543307
21
3.4755905511811025
0
LINE
8
BLACK
6
CONTINUOUS
10
-1.878431653543307
20
3.4755905511811025
11
-1.8869226771653542
21
3.4755905511811025
0
LINE
8
BLACK
6
CONTINUOUS
10
-1.8869226771653542
20
3.4755905511811025
11
-1.887826653543307
21
3.4757703543307086
0
LINE
8
BLACK
6
CONTINUOUS
10
-1.887826653543307
20
3.4757703543307086
11
-1.8891050787401575
21
3.4770487795275589
0
LINE
8
BLACK
6
CONTINUOUS
10
-1.8891050787401575
20
3.4770487795275589
11
-1.8891050787401575
21
3.4788567322834645
0
LINE
8
BLACK
6
CONTINUOUS
10
-1.8891050787401575
20
3.4788567322834645
11
-1.887826653543307
21
3.4801351574803148
0
LINE
8
BLACK
6
CONTINUOUS
10
-1.887826653543307
20
3.4801351574803148
11
-1.8869226771653542
21
3.4803149606299213
0
LINE
8
BLACK
6
CONTINUOUS
10
-1.8869226771653542
20
3.4803149606299213
11
-1.878431653543307
21
3.4803149606299213
0
LINE
8
BLACK
6
CONTINUOUS
10
-1.878431653543307
20
3.4803149606299213
11
-1.8775276771653542
21
3.4801351574803148
0
LINE
8
BLACK
6
CONTINUOUS
10
-2.1846142913385824
20
3.4998201968503935
11
-2.1833358661417321
21
3.4985417716535432
0
LINE
8
BLACK
6
CONTINUOUS
10
-2.1833358661417321
20
3.4985417716535432
11
-2.1833358661417321
21
3.4967338188976376
0
LINE
8
BLACK
6
CONTINUOUS
10
-2.1833358661417321
20
3.4967338188976376
11
-2.1846142913385824
21
3.4954553937007873
0
LINE
8
BLACK
6
CONTINUOUS
10
-2.1846142913385824
20
3.4954553937007873
11
-2.1855182677165352
21
3.4952755905511812
0
LINE
8
BLACK
6
CONTINUOUS
10
-2.1855182677165352
20
3.4952755905511812
11
-2.1940092913385825
21
3.4952755905511812
0
LINE
8
BLACK
6
CONTINUOUS
10
-2.1940092913385825
20
3.4952755905511812
11
-2.1949132677165353
21
3.4954553937007873
0
LINE
8
BLACK
6
CONTINUOUS
10
-2.1949132677165353
20
3.4954553937007873
11
-2.1961916929133856
21
3.4967338188976376
0
LINE
8
BLACK
6
CONTINUOUS
10
-2.1961916929133856
20
3.4967338188976376
11
-2.1961916929133856
21
3.4985417716535432
0
LINE
8
BLACK
6
CONTINUOUS
10
-2.1961916929133856
20
3.4985417716535432
11
-2.1949132677165353
21
3.4998201968503935
0
LINE
8
BLACK
6
CONTINUOUS
10
-2.1949132677165353
20
3.4998201968503935
11
-2.1940092913385825
21
3.5
0
LINE
8
BLACK
6
CONTINUOUS
10
-2.1940092913385825
20
3.5
11
-2.1855182677165352
21
3.5
0
LINE
8
BLACK
6
CONTINUOUS
10
-2.1855182677165352
20
3.5
11
-2.1846142913385824
21
3.4998201968503935
0
LINE
8
BLACK
6
CONTINUOUS
10
-1.9425026377952757
20
3.5296441338582678
11
-1.9423228346456693
21
3.528740157480315
0
LINE
8
BLACK
6
CONTINUOUS
10
-1.9423228346456693
20
3.528740157480315
11
-1.9423228346456693
21
3.5015748031496061
0
LINE
8
BLACK
6
CONTINUOUS
10
-1.9423228346456693
20
3.5015748031496061
11
-1.9338582677165355
21
3.5015748031496061
0
LINE
8
BLACK
6
CONTINUOUS
10
-1.9338582677165355
20
3.5015748031496061
11
-1.9329542913385827
21
3.501395
0
LINE
8
BLACK
6
CONTINUOUS
10
-1.9329542913385827
20
3.501395
11
-1.9316758661417321
21
3.5001165748031493
0
LINE
8
BLACK
6
CONTINUOUS
10
-1.9316758661417321
20
3.5001165748031493
11
-1.9316758661417321
21
3.4983086220472441
0
LINE
8
BLACK
6
CONTINUOUS
10
-1.9316758661417321
20
3.4983086220472441
11
-1.9329542913385827
21
3.4970301968503934
0
LINE
8
BLACK
6
CONTINUOUS
10
-1.9329542913385827
20
3.4970301968503934
11
-1.9338582677165355
21
3.4968503937007873
0
LINE
8
BLACK
6
CONTINUOUS
10
-1.9338582677165355
20
3.4968503937007873
11
-1.9446850393700787
21
3.4968503937007873
0
LINE
8
BLACK
6
CONTINUOUS
10
-1.9446850393700787
20
3.4968503937007873
11
-1.9455890157480316
21
3.4970301968503934
0
LINE
8
BLACK
6
CONTINUOUS
10
-1.9455890157480316
20
3.4970301968503934
11
-1.9468674409448818
21
3.4983086220472441
0
LINE
8
BLACK
6
CONTINUOUS
10
-1.9468674409448818
20
3.4983086220472441
11
-1.9470472440944881
21
3.4992125984251969
0
LINE
8
BLACK
6
CONTINUOUS
10
-1.9470472440944881
20
3.4992125984251969
11
-1.9470472440944881
21
3.528740157480315
0
LINE
8
BLACK
6
CONTINUOUS
10
-1.9470472440944881
20
3.528740157480315
11
-1.9468674409448818
21
3.5296441338582678
0
LINE
8
BLACK
6
CONTINUOUS
10
-1.9468674409448818
20
3.5296441338582678
11
-1.9455890157480316
21
3.5309225590551181
0
LINE
8
BLACK
6
CONTINUOUS
10
-1.9455890157480316
20
3.5309225590551181
11
-1.9437810629921259
21
3.5309225590551181
0
LINE
8
BLACK
6
CONTINUOUS
10
-1.9437810629921259
20
3.5309225590551181
11
-1.9425026377952757
21
3.5296441338582678
0
LINE
8
BLACK
6
CONTINUOUS
10
-1.7751798031496062
20
3.5296441338582678
11
-1.7749999999999999
21
3.528740157480315
0
LINE
8
BLACK
6
CONTINUOUS
10
-1.7749999999999999
20
3.528740157480315
11
-1.7749999999999999
21
3.4992125984251969
0
LINE
8
BLACK
6
CONTINUOUS
10
-1.7749999999999999
20
3.4992125984251969
11
-1.7751798031496062
21
3.4983086220472441
0
LINE
8
BLACK
6
CONTINUOUS
10
-1.7751798031496062
20
3.4983086220472441
11
-1.7764582283464567
21
3.4970301968503934
0
LINE
8
BLACK
6
CONTINUOUS
10
-1.7764582283464567
20
3.4970301968503934
11
-1.7773622047244093
21
3.4968503937007873
0
LINE
8
BLACK
6
CONTINUOUS
10
-1.7773622047244093
20
3.4968503937007873
11
-1.7921259842519686
21
3.4968503937007873
0
LINE
8
BLACK
6
CONTINUOUS
10
-1.7921259842519686
20
3.4968503937007873
11
-1.7930299606299211
21
3.4970301968503934
0
LINE
8
BLACK
6
CONTINUOUS
10
-1.7930299606299211
20
3.4970301968503934
11
-1.7943083858267717
21
3.4983086220472441
0
LINE
8
BLACK
6
CONTINUOUS
10
-1.7943083858267717
20
3.4983086220472441
11
-1.7943083858267717
21
3.5001165748031493
0
LINE
8
BLACK
6
CONTINUOUS
10
-1.7943083858267717
20
3.5001165748031493
11
-1.7930299606299211
21
3.501395
0
LINE
8
BLACK
6
CONTINUOUS
10
-1.7930299606299211
20
3.501395
11
-1.7921259842519686
21
3.5015748031496061
0
LINE
8
BLACK
6
CONTINUOUS
10
-1.7921259842519686
20
3.5015748031496061
11
-1.7797244094488189
21
3.5015748031496061
0
LINE
8
BLACK
6
CONTINUOUS
10
-1.7797244094488189
20
3.5015748031496061
11
-1.7797244094488189
21
3.528740157480315
0
LINE
8
BLACK
6
CONTINUOUS
10
-1.7797244094488189
20
3.528740157480315
11
-1.7795446062992126
21
3.5296441338582678
0
LINE
8
BLACK
6
CONTINUOUS
10
-1.7795446062992126
20
3.5296441338582678
11
-1.7782661811023621
21
3.5309225590551181
0
LINE
8
BLACK
6
CONTINUOUS
10
-1.7782661811023621
20
3.5309225590551181
11
-1.7764582283464567
21
3.5309225590551181
0
LINE
8
BLACK
6
CONTINUOUS
10
-1.7764582283464567
20
3.5309225590551181
11
-1.7751798031496062
21
3.5296441338582678
0
LINE
8
BLACK
6
CONTINUOUS
10
-2.1846142913385824
20
3.5147808267716534
11
-2.1833358661417321
21
3.5135024015748031
0
LINE
8
BLACK
6
CONTINUOUS
10
-2.1833358661417321
20
3.5135024015748031
11
-2.1833358661417321
21
3.5116944488188975
0
LINE
8
BLACK
6
CONTINUOUS
10
-2.1833358661417321
20
3.5116944488188975
11
-2.1846142913385824
21
3.5104160236220472
0
LINE
8
BLACK
6
CONTINUOUS
10
-2.1846142913385824
20
3.5104160236220472
11
-2.1855182677165352
21
3.5102362204724407
0
LINE
8
BLACK
6
CONTINUOUS
10
-2.1855182677165352
20
3.5102362204724407
11
-2.1940092913385825
21
3.5102362204724407
0
LINE
8
BLACK
6
CONTINUOUS
10
-2.1940092913385825
20
3.5102362204724407
11
-2.1949132677165353
21
3.5104160236220472
0
LINE
8
BLACK
6
CONTINUOUS
10
-2.1949132677165353
20
3.5104160236220472
11
-2.1961916929133856
21
3.5116944488188975
0
LINE
8
BLACK
6
CONTINUOUS
10
-2.1961916929133856
20
3.5116944488188975
11
-2.1961916929133856
21
3.5135024015748031
0
LINE
8
BLACK
6
CONTINUOUS
10
-2.1961916929133856
20
3.5135024015748031
11
-2.1949132677165353
21
3.5147808267716534
0
LINE
8
BLACK
6
CONTINUOUS
10
-2.1949132677165353
20
3.5147808267716534
11
-2.1940092913385825
21
3.5149606299212599
0
LINE
8
BLACK
6
CONTINUOUS
10
-2.1940092913385825
20
3.5149606299212599
11
-2.1855182677165352
21
3.5149606299212599
0
LINE
8
BLACK
6
CONTINUOUS
10
-2.1855182677165352
20
3.5149606299212599
11
-2.1846142913385824
21
3.5147808267716534
0
LINE
8
BLACK
6
CONTINUOUS
10
-2.1846142913385824
20
3.5431272834645671
11
-2.1833358661417321
21
3.5418488582677163
0
LINE
8
BLACK
6
CONTINUOUS
10
-2.1833358661417321
20
3.5418488582677163
11
-2.1833358661417321
21
3.5400409055118112
0
LINE
8
BLACK
6
CONTINUOUS
10
-2.1833358661417321
20
3.5400409055118112
11
-2.1846142913385824
21
3.5387624803149604
0
LINE
8
BLACK
6
CONTINUOUS
10
-2.1846142913385824
20
3.5387624803149604
11
-2.1855182677165352
21
3.5385826771653544
0
LINE
8
BLACK
6
CONTINUOUS
10
-2.1855182677165352
20
3.5385826771653544
11
-2.1940092913385825
21
3.5385826771653544
0
LINE
8
BLACK
6
CONTINUOUS
10
-2.1940092913385825
20
3.5385826771653544
11
-2.1949132677165353
21
3.5387624803149604
0
LINE
8
BLACK
6
CONTINUOUS
10
-2.1949132677165353
20
3.5387624803149604
11
-2.1961916929133856
21
3.5400409055118112
0
LINE
8
BLACK
6
CONTINUOUS
10
-2.1961916929133856
20
3.5400409055118112
11
-2.1961916929133856
21
3.5418488582677163
0
LINE
8
BLACK
6
CONTINUOUS
10
-2.1961916929133856
20
3.5418488582677163
11
-2.1949132677165353
21
3.5431272834645671
0
LINE
8
BLACK
6
CONTINUOUS
10
-2.1949132677165353
20
3.5431272834645671
11
-2.1940092913385825
21
3.5433070866141732
0
LINE
8
BLACK
6
CONTINUOUS
10
-2.1940092913385825
20
3.5433070866141732
11
-2.1855182677165352
21
3.5433070866141732
0
LINE
8
BLACK
6
CONTINUOUS
10
-2.1855182677165352
20
3.5433070866141732
11
-2.1846142913385824
21
3.5431272834645671
0
LINE
8
BLACK
6
CONTINUOUS
10
-2.2253766535433068
20
3.6497228740157479
11
-2.2251968503937007
21
3.6488188976377951
0
LINE
8
BLACK
6
CONTINUOUS
10
-2.2251968503937007
20
3.6488188976377951
11
-2.2251968503937007
21
3.5937007874015747
0
LINE
8
BLACK
6
CONTINUOUS
10
-2.2251968503937007
20
3.5937007874015747
11
-2.2253766535433068
21
3.5927968110236219
0
LINE
8
BLACK
6
CONTINUOUS
10
-2.2253766535433068
20
3.5927968110236219
11
-2.2266550787401576
21
3.5915183858267716
0
LINE
8
BLACK
6
CONTINUOUS
10
-2.2266550787401576
20
3.5915183858267716
11
-2.2284630314960627
21
3.5915183858267716
0
LINE
8
BLACK
6
CONTINUOUS
10
-2.2284630314960627
20
3.5915183858267716
11
-2.2297414566929135
21
3.5927968110236219
0
LINE
8
BLACK
6
CONTINUOUS
10
-2.2297414566929135
20
3.5927968110236219
11
-2.2299212598425195
21
3.5937007874015747
0
LINE
8
BLACK
6
CONTINUOUS
10
-2.2299212598425195
20
3.5937007874015747
11
-2.2299212598425195
21
3.6488188976377951
0
LINE
8
BLACK
6
CONTINUOUS
10
-2.2299212598425195
20
3.6488188976377951
11
-2.2297414566929135
21
3.6497228740157479
0
LINE
8
BLACK
6
CONTINUOUS
10
-2.2297414566929135
20
3.6497228740157479
11
-2.2284630314960627
21
3.6510012992125982
0
LINE
8
BLACK
6
CONTINUOUS
10
-2.2284630314960627
20
3.6510012992125982
11
-2.2266550787401576
21
3.6510012992125982
0
LINE
8
BLACK
6
CONTINUOUS
10
-2.2266550787401576
20
3.6510012992125982
11
-2.2253766535433068
21
3.6497228740157479
0
LINE
8
BLACK
6
CONTINUOUS
10
-2.1340380708661417
20
3.6501165748031497
11
-2.1338582677165352
21
3.6492125984251969
0
LINE
8
BLACK
6
CONTINUOUS
10
-2.1338582677165352
20
3.6492125984251969
11
-2.1338582677165352
21
3.5937007874015747
0
LINE
8
BLACK
6
CONTINUOUS
10
-2.1338582677165352
20
3.5937007874015747
11
-2.1340380708661417
21
3.5927968110236219
0
LINE
8
BLACK
6
CONTINUOUS
10
-2.1340380708661417
20
3.5927968110236219
11
-2.135316496062992
21
3.5915183858267716
0
LINE
8
BLACK
6
CONTINUOUS
10
-2.135316496062992
20
3.5915183858267716
11
-2.1371244488188976
21
3.5915183858267716
0
LINE
8
BLACK
6
CONTINUOUS
10
-2.1371244488188976
20
3.5915183858267716
11
-2.1384028740157479
21
3.5927968110236219
0
LINE
8
BLACK
6
CONTINUOUS
10
-2.1384028740157479
20
3.5927968110236219
11
-2.1385826771653544
21
3.5937007874015747
0
LINE
8
BLACK
6
CONTINUOUS
10
-2.1385826771653544
20
3.5937007874015747
11
-2.1385826771653544
21
3.6492125984251969
0
LINE
8
BLACK
6
CONTINUOUS
10
-2.1385826771653544
20
3.6492125984251969
11
-2.1384028740157479
21
3.6501165748031497
0
LINE
8
BLACK
6
CONTINUOUS
10
-2.1384028740157479
20
3.6501165748031497
11
-2.1371244488188976
21
3.6513949999999999
0
LINE
8
BLACK
6
CONTINUOUS
10
-2.1371244488188976
20
3.6513949999999999
11
-2.135316496062992
21
3.6513949999999999
0
LINE
8
BLACK
6
CONTINUOUS
10
-2.135316496062992
20
3.6513949999999999
11
-2.1340380708661417
21
3.6501165748031497
0
LINE
8
BLACK
6
CONTINUOUS
10
-2.1072664173228346
20
3.6497228740157479
11
-2.1070866141732285
21
3.6488188976377951
0
LINE
8
BLACK
6
CONTINUOUS
10
-2.1070866141732285
20
3.6488188976377951
11
-2.1070866141732285
21
3.5937007874015747
0
LINE
8
BLACK
6
CONTINUOUS
10
-2.1070866141732285
20
3.5937007874015747
11
-2.1072664173228346
21
3.5927968110236219
0
LINE
8
BLACK
6
CONTINUOUS
10
-2.1072664173228346
20
3.5927968110236219
11
-2.1085448425196849
21
3.5915183858267716
0
LINE
8
BLACK
6
CONTINUOUS
10
-2.1085448425196849
20
3.5915183858267716
11
-2.1103527952755905
21
3.5915183858267716
0
LINE
8
BLACK
6
CONTINUOUS
10
-2.1103527952755905
20
3.5915183858267716
11
-2.1116312204724408
21
3.5927968110236219
0
LINE
8
BLACK
6
CONTINUOUS
10
-2.1116312204724408
20
3.5927968110236219
11
-2.1118110236220473
21
3.5937007874015747
0
LINE
8
BLACK
6
CONTINUOUS
10
-2.1118110236220473
20
3.5937007874015747
11
-2.1118110236220473
21
3.6488188976377951
0
LINE
8
BLACK
6
CONTINUOUS
10
-2.1118110236220473
20
3.6488188976377951
11
-2.1116312204724408
21
3.6497228740157479
0
LINE
8
BLACK
6
CONTINUOUS
10
-2.1116312204724408
20
3.6497228740157479
11
-2.1103527952755905
21
3.6510012992125982
0
LINE
8
BLACK
6
CONTINUOUS
10
-2.1103527952755905
20
3.6510012992125982
11
-2.1085448425196849
21
3.6510012992125982
0
LINE
8
BLACK
6
CONTINUOUS
10
-2.1085448425196849
20
3.6510012992125982
11
-2.1072664173228346
21
3.6497228740157479
0
LINE
8
BLACK
6
CONTINUOUS
10
-2.015927834645669
20
3.6501165748031497
11
-2.015748031496063
21
3.6492125984251969
0
LINE
8
BLACK
6
CONTINUOUS
10
-2.015748031496063
20
3.6492125984251969
11
-2.015748031496063
21
3.5937007874015747
0
LINE
8
BLACK
6
CONTINUOUS
10
-2.015748031496063
20
3.5937007874015747
11
-2.015927834645669
21
3.5927968110236219
0
LINE
8
BLACK
6
CONTINUOUS
10
-2.015927834645669
20
3.5927968110236219
11
-2.0172062598425198
21
3.5915183858267716
0
LINE
8
BLACK
6
CONTINUOUS
10
-2.0172062598425198
20
3.5915183858267716
11
-2.019014212598425
21
3.5915183858267716
0
LINE
8
BLACK
6
CONTINUOUS
10
-2.019014212598425
20
3.5915183858267716
11
-2.0202926377952757
21
3.5927968110236219
0
LINE
8
BLACK
6
CONTINUOUS
10
-2.0202926377952757
20
3.5927968110236219
11
-2.0204724409448818
21
3.5937007874015747
0
LINE
8
BLACK
6
CONTINUOUS
10
-2.0204724409448818
20
3.5937007874015747
11
-2.0204724409448818
21
3.6492125984251969
0
LINE
8
BLACK
6
CONTINUOUS
10
-2.0204724409448818
20
3.6492125984251969
11
-2.0202926377952757
21
3.6501165748031497
0
LINE
8
BLACK
6
CONTINUOUS
10
-2.0202926377952757
20
3.6501165748031497
11
-2.019014212598425
21
3.6513949999999999
0
LINE
8
BLACK
6
CONTINUOUS
10
-2.019014212598425
20
3.6513949999999999
11
-2.0172062598425198
21
3.6513949999999999
0
LINE
8
BLACK
6
CONTINUOUS
10
-2.0172062598425198
20
3.6513949999999999
11
-2.015927834645669
21
3.6501165748031497
0
LINE
8
BLACK
6
CONTINUOUS
10
-1.9970301968503936
20
3.6067242913385824
11
-1.9968503937007873
21
3.60582031496063
0
LINE
8
BLACK
6
CONTINUOUS
10
-1.9968503937007873
20
3.60582031496063
11
-1.9968503937007873
21
3.5973292913385828
0
LINE
8
BLACK
6
CONTINUOUS
10
-1.9968503937007873
20
3.5973292913385828
11
-1.9970301968503936
21
3.59642531496063
0
LINE
8
BLACK
6
CONTINUOUS
10
-1.9970301968503936
20
3.59642531496063
11
-1.9983086220472441
21
3.5951468897637793
0
LINE
8
BLACK
6
CONTINUOUS
10
-1.9983086220472441
20
3.5951468897637793
11
-2.0001165748031497
21
3.5951468897637793
0
LINE
8
BLACK
6
CONTINUOUS
10
-2.0001165748031497
20
3.5951468897637793
11
-2.001395
21
3.59642531496063
0
LINE
8
BLACK
6
CONTINUOUS
10
-2.001395
20
3.59642531496063
11
-2.0015748031496061
21
3.5973292913385828
0
LINE
8
BLACK
6
CONTINUOUS
10
-2.0015748031496061
20
3.5973292913385828
11
-2.0015748031496061
21
3.60582031496063
0
LINE
8
BLACK
6
CONTINUOUS
10
-2.0015748031496061
20
3.60582031496063
11
-2.001395
21
3.6067242913385824
0
LINE
8
BLACK
6
CONTINUOUS
10
-2.001395
20
3.6067242913385824
11
-2.0001165748031497
21
3.6080027165354331
0
LINE
8
BLACK
6
CONTINUOUS
10
-2.0001165748031497
20
3.6080027165354331
11
-1.9983086220472441
21
3.6080027165354331
0
LINE
8
BLACK
6
CONTINUOUS
10
-1.9983086220472441
20
3.6080027165354331
11
-1.9970301968503936
21
3.6067242913385824
0
LINE
8
BLACK
6
CONTINUOUS
10
-1.9686837401574804
20
3.6067242913385824
11
-1.9685039370078741
21
3.60582031496063
0
LINE
8
BLACK
6
CONTINUOUS
10
-1.9685039370078741
20
3.60582031496063
11
-1.9685039370078741
21
3.5973292913385828
0
LINE
8
BLACK
6
CONTINUOUS
10
-1.9685039370078741
20
3.5973292913385828
11
-1.9686837401574804
21
3.59642531496063
0
LINE
8
BLACK
6
CONTINUOUS
10
-1.9686837401574804
20
3.59642531496063
11
-1.9699621653543307
21
3.5951468897637793
0
LINE
8
BLACK
6
CONTINUOUS
10
-1.9699621653543307
20
3.5951468897637793
11
-1.9717701181102363
21
3.5951468897637793
0
LINE
8
BLACK
6
CONTINUOUS
10
-1.9717701181102363
20
3.5951468897637793
11
-1.9730485433070866
21
3.59642531496063
0
LINE
8
BLACK
6
CONTINUOUS
10
-1.9730485433070866
20
3.59642531496063
11
-1.9732283464566929
21
3.5973292913385828
0
LINE
8
BLACK
6
CONTINUOUS
10
-1.9732283464566929
20
3.5973292913385828
11
-1.9732283464566929
21
3.60582031496063
0
LINE
8
BLACK
6
CONTINUOUS
10
-1.9732283464566929
20
3.60582031496063
11
-1.9730485433070866
21
3.6067242913385824
0
LINE
8
BLACK
6
CONTINUOUS
10
-1.9730485433070866
20
3.6067242913385824
11
-1.9717701181102363
21
3.6080027165354331
0
LINE
8
BLACK
6
CONTINUOUS
10
-1.9717701181102363
20
3.6080027165354331
11
-1.9699621653543307
21
3.6080027165354331
0
LINE
8
BLACK
6
CONTINUOUS
10
-1.9699621653543307
20
3.6080027165354331
11
-1.9686837401574804
21
3.6067242913385824
0
LINE
8
BLACK
6
CONTINUOUS
10
-1.778132559055118
20
3.6605496456692914
11
-1.7779527559055117
21
3.6596456692913386
0
LINE
8
BLACK
6
CONTINUOUS
10
-1.7779527559055117
20
3.6596456692913386
11
-1.7779527559055117
21
3.6301181102362206
0
LINE
8
BLACK
6
CONTINUOUS
10
-1.7779527559055117
20
3.6301181102362206
11
-1.778132559055118
21
3.6292141338582677
0
LINE
8
BLACK
6
CONTINUOUS
10
-1.778132559055118
20
3.6292141338582677
11
-1.7794109842519685
21
3.6279357086614175
0
LINE
8
BLACK
6
CONTINUOUS
10
-1.7794109842519685
20
3.6279357086614175
11
-1.7812189370078739
21
3.6279357086614175
0
LINE
8
BLACK
6
CONTINUOUS
10
-1.7812189370078739
20
3.6279357086614175
11
-1.7824973622047244
21
3.6292141338582677
0
LINE
8
BLACK
6
CONTINUOUS
10
-1.7824973622047244
20
3.6292141338582677
11
-1.7826771653543307
21
3.6301181102362206
0
LINE
8
BLACK
6
CONTINUOUS
10
-1.7826771653543307
20
3.6301181102362206
11
-1.7826771653543307
21
3.6596456692913386
0
LINE
8
BLACK
6
CONTINUOUS
10
-1.7826771653543307
20
3.6596456692913386
11
-1.7824973622047244
21
3.6605496456692914
0
LINE
8
BLACK
6
CONTINUOUS
10
-1.7824973622047244
20
3.6605496456692914
11
-1.7812189370078739
21
3.6618280708661417
0
LINE
8
BLACK
6
CONTINUOUS
10
-1.7812189370078739
20
3.6618280708661417
11
-1.7794109842519685
21
3.6618280708661417
0
LINE
8
BLACK
6
CONTINUOUS
10
-1.7794109842519685
20
3.6618280708661417
11
-1.778132559055118
21
3.6605496456692914
0
LINE
8
BLACK
6
CONTINUOUS
10
-1.9329542913385827
20
3.6657650787401574
11
-1.9316758661417321
21
3.6644866535433072
0
LINE
8
BLACK
6
CONTINUOUS
10
-1.9316758661417321
20
3.6644866535433072
11
-1.9316758661417321
21
3.6626787007874015
0
LINE
8
BLACK
6
CONTINUOUS
10
-1.9316758661417321
20
3.6626787007874015
11
-1.9329542913385827
21
3.6614002755905513
0
LINE
8
BLACK
6
CONTINUOUS
10
-1.9329542913385827
20
3.6614002755905513
11
-1.9338582677165355
21
3.6612204724409447
0
LINE
8
BLACK
6
CONTINUOUS
10
-1.9338582677165355
20
3.6612204724409447
11
-1.9433070866141733
21
3.6612204724409447
0
LINE
8
BLACK
6
CONTINUOUS
10
-1.9433070866141733
20
3.6612204724409447
11
-1.9433070866141733
21
3.6340551181102363
0
LINE
8
BLACK
6
CONTINUOUS
10
-1.9433070866141733
20
3.6340551181102363
11
-1.9434868897637796
21
3.6331511417322835
0
LINE
8
BLACK
6
CONTINUOUS
10
-1.9434868897637796
20
3.6331511417322835
11
-1.9447653149606299
21
3.6318727165354332
0
LINE
8
BLACK
6
CONTINUOUS
10
-1.9447653149606299
20
3.6318727165354332
11
-1.9465732677165355
21
3.6318727165354332
0
LINE
8
BLACK
6
CONTINUOUS
10
-1.9465732677165355
20
3.6318727165354332
11
-1.9478516929133858
21
3.6331511417322835
0
LINE
8
BLACK
6
CONTINUOUS
10
-1.9478516929133858
20
3.6331511417322835
11
-1.9480314960629921
21
3.6340551181102363
0
LINE
8
BLACK
6
CONTINUOUS
10
-1.9480314960629921
20
3.6340551181102363
11
-1.9480314960629921
21
3.6635826771653544
0
LINE
8
BLACK
6
CONTINUOUS
10
-1.9480314960629921
20
3.6635826771653544
11
-1.9478516929133858
21
3.6644866535433072
0
LINE
8
BLACK
6
CONTINUOUS
10
-1.9478516929133858
20
3.6644866535433072
11
-1.9465732677165355
21
3.6657650787401574
0
LINE
8
BLACK
6
CONTINUOUS
10
-1.9465732677165355
20
3.6657650787401574
11
-1.9456692913385827
21
3.6659448818897635
0
LINE
8
BLACK
6
CONTINUOUS
10
-1.9456692913385827
20
3.6659448818897635
11
-1.9338582677165355
21
3.6659448818897635
0
LINE
8
BLACK
6
CONTINUOUS
10
-1.9338582677165355
20
3.6659448818897635
11
-1.9329542913385827
21
3.6657650787401574
0
LINE
8
BLACK
6
CONTINUOUS
10
-2.2726207480314962
20
3.650031377952756
11
-2.2724409448818896
21
3.6491274015748032
0
LINE
8
BLACK
6
CONTINUOUS
10
-2.2724409448818896
20
3.6491274015748032
11
-2.2724409448818896
21
3.640636377952756
0
LINE
8
BLACK
6
CONTINUOUS
10
-2.2724409448818896
20
3.640636377952756
11
-2.2726207480314962
21
3.6397324015748032
0
LINE
8
BLACK
6
CONTINUOUS
10
-2.2726207480314962
20
3.6397324015748032
11
-2.2738991732283464
21
3.6384539763779529
0
LINE
8
BLACK
6
CONTINUOUS
10
-2.2738991732283464
20
3.6384539763779529
11
-2.2757071259842521
21
3.6384539763779529
0
LINE
8
BLACK
6
CONTINUOUS
10
-2.2757071259842521
20
3.6384539763779529
11
-2.2769855511811024
21
3.6397324015748032
0
LINE
8
BLACK
6
CONTINUOUS
10
-2.2769855511811024
20
3.6397324015748032
11
-2.2771653543307084
21
3.640636377952756
0
LINE
8
BLACK
6
CONTINUOUS
10
-2.2771653543307084
20
3.640636377952756
11
-2.2771653543307084
21
3.6491274015748032
0
LINE
8
BLACK
6
CONTINUOUS
10
-2.2771653543307084
20
3.6491274015748032
11
-2.2769855511811024
21
3.650031377952756
0
LINE
8
BLACK
6
CONTINUOUS
10
-2.2769855511811024
20
3.650031377952756
11
-2.2757071259842521
21
3.6513098031496063
0
LINE
8
BLACK
6
CONTINUOUS
10
-2.2757071259842521
20
3.6513098031496063
11
-2.2738991732283464
21
3.6513098031496063
0
LINE
8
BLACK
6
CONTINUOUS
10
-2.2738991732283464
20
3.6513098031496063
11
-2.2726207480314962
21
3.650031377952756
0
LINE
8
BLACK
6
CONTINUOUS
10
-2.2442742913385825
20
3.650031377952756
11
-2.2440944881889764
21
3.6491274015748032
0
LINE
8
BLACK
6
CONTINUOUS
10
-2.2440944881889764
20
3.6491274015748032
11
-2.2440944881889764
21
3.640636377952756
0
LINE
8
BLACK
6
CONTINUOUS
10
-2.2440944881889764
20
3.640636377952756
11
-2.2442742913385825
21
3.6397324015748032
0
LINE
8
BLACK
6
CONTINUOUS
10
-2.2442742913385825
20
3.6397324015748032
11
-2.2455527165354332
21
3.6384539763779529
0
LINE
8
BLACK
6
CONTINUOUS
10
-2.2455527165354332
20
3.6384539763779529
11
-2.2473606692913384
21
3.6384539763779529
0
LINE
8
BLACK
6
CONTINUOUS
10
-2.2473606692913384
20
3.6384539763779529
11
-2.2486390944881891
21
3.6397324015748032
0
LINE
8
BLACK
6
CONTINUOUS
10
-2.2486390944881891
20
3.6397324015748032
11
-2.2488188976377952
21
3.640636377952756
0
LINE
8
BLACK
6
CONTINUOUS
10
-2.2488188976377952
20
3.640636377952756
11
-2.2488188976377952
21
3.6491274015748032
0
LINE
8
BLACK
6
CONTINUOUS
10
-2.2488188976377952
20
3.6491274015748032
11
-2.2486390944881891
21
3.650031377952756
0
LINE
8
BLACK
6
CONTINUOUS
10
-2.2486390944881891
20
3.650031377952756
11
-2.2473606692913384
21
3.6513098031496063
0
LINE
8
BLACK
6
CONTINUOUS
10
-2.2473606692913384
20
3.6513098031496063
11
-2.2455527165354332
21
3.6513098031496063
0
LINE
8
BLACK
6
CONTINUOUS
10
-2.2455527165354332
20
3.6513098031496063
11
-2.2442742913385825
21
3.650031377952756
0
LINE
8
BLACK
6
CONTINUOUS
10
-2.1232864566929135
20
3.6746177165354328
11
-2.1228346456692915
21
3.673228346456693
0
LINE
8
BLACK
6
CONTINUOUS
10
-2.1228346456692915
20
3.673228346456693
11
-2.1228346456692915
21
3.6543307086614174
0
LINE
8
BLACK
6
CONTINUOUS
10
-2.1228346456692915
20
3.6543307086614174
11
-2.1235265354330708
21
3.6526603937007871
0
LINE
8
BLACK
6
CONTINUOUS
10
-2.1235265354330708
20
3.6526603937007871
11
-2.1251968503937007
21
3.6519685039370078
0
LINE
8
BLACK
6
CONTINUOUS
10
-2.1251968503937007
20
3.6519685039370078
11
-2.1265862204724408
21
3.6524203149606298
0
LINE
8
BLACK
6
CONTINUOUS
10
-2.1265862204724408
20
3.6524203149606298
11
-2.1395783464566929
21
3.6618691338582678
0
LINE
8
BLACK
6
CONTINUOUS
10
-2.1395783464566929
20
3.6618691338582678
11
-2.1405222834645667
21
3.6634111023622045
0
LINE
8
BLACK
6
CONTINUOUS
10
-2.1405222834645667
20
3.6634111023622045
11
-2.1400993700787403
21
3.6651688976377952
0
LINE
8
BLACK
6
CONTINUOUS
10
-2.1400993700787403
20
3.6651688976377952
11
-2.1395783464566929
21
3.6656899212598426
0
LINE
8
BLACK
6
CONTINUOUS
10
-2.1395783464566929
20
3.6656899212598426
11
-2.1265862204724408
21
3.6751387401574802
0
LINE
8
BLACK
6
CONTINUOUS
10
-2.1265862204724408
20
3.6751387401574802
11
-2.1248284251968506
21
3.6755616535433071
0
LINE
8
BLACK
6
CONTINUOUS
10
-2.1248284251968506
20
3.6755616535433071
11
-2.1232864566929135
21
3.6746177165354328
0
LINE
8
BLACK
6
CONTINUOUS
10
-2.0051762204724408
20
3.6746177165354328
11
-2.0047244094488188
21
3.673228346456693
0
LINE
8
BLACK
6
CONTINUOUS
10
-2.0047244094488188
20
3.673228346456693
11
-2.0047244094488188
21
3.6543307086614174
0
LINE
8
BLACK
6
CONTINUOUS
10
-2.0047244094488188
20
3.6543307086614174
11
-2.0054162992125986
21
3.6526603937007871
0
LINE
8
BLACK
6
CONTINUOUS
10
-2.0054162992125986
20
3.6526603937007871
11
-2.0070866141732284
21
3.6519685039370078
0
LINE
8
BLACK
6
CONTINUOUS
10
-2.0070866141732284
20
3.6519685039370078
11
-2.0084759842519686
21
3.6524203149606298
0
LINE
8
BLACK
6
CONTINUOUS
10
-2.0084759842519686
20
3.6524203149606298
11
-2.0214681102362206
21
3.6618691338582678
0
LINE
8
BLACK
6
CONTINUOUS
10
-2.0214681102362206
20
3.6618691338582678
11
-2.0224120472440945
21
3.6634111023622045
0
LINE
8
BLACK
6
CONTINUOUS
10
-2.0224120472440945
20
3.6634111023622045
11
-2.0219891338582676
21
3.6651688976377952
0
LINE
8
BLACK
6
CONTINUOUS
10
-2.0219891338582676
20
3.6651688976377952
11
-2.0214681102362206
21
3.6656899212598426
0
LINE
8
BLACK
6
CONTINUOUS
10
-2.0214681102362206
20
3.6656899212598426
11
-2.0084759842519686
21
3.6751387401574802
0
LINE
8
BLACK
6
CONTINUOUS
10
-2.0084759842519686
20
3.6751387401574802
11
-2.0067181889763779
21
3.6755616535433071
0
LINE
8
BLACK
6
CONTINUOUS
10
-2.0067181889763779
20
3.6755616535433071
11
-2.0051762204724408
21
3.6746177165354328
0
LINE
8
BLACK
6
CONTINUOUS
10
-1.8893451968503936
20
3.6832109842519682
11
-1.8882807874015748
21
3.6827700787401576
0
LINE
8
BLACK
6
CONTINUOUS
10
-1.8882807874015748
20
3.6827700787401576
11
-1.8874661417322833
21
3.6819554330708661
0
LINE
8
BLACK
6
CONTINUOUS
10
-1.8874661417322833
20
3.6819554330708661
11
-1.8870252362204725
21
3.6808910236220473
0
LINE
8
BLACK
6
CONTINUOUS
10
-1.8870252362204725
20
3.6808910236220473
11
-1.8870252362204725
21
3.6797388976377952
0
LINE
8
BLACK
6
CONTINUOUS
10
-1.8870252362204725
20
3.6797388976377952
11
-1.8874661417322833
21
3.6786744881889764
0
LINE
8
BLACK
6
CONTINUOUS
10
-1.8874661417322833
20
3.6786744881889764
11
-1.8882807874015748
21
3.6778598425196849
0
LINE
8
BLACK
6
CONTINUOUS
10
-1.8882807874015748
20
3.6778598425196849
11
-1.8893451968503936
21
3.6774189370078738
0
LINE
8
BLACK
6
CONTINUOUS
10
-1.8893451968503936
20
3.6774189370078738
11
-1.8899212598425197
21
3.6773622047244094
0
LINE
8
BLACK
6
CONTINUOUS
10
-1.8899212598425197
20
3.6773622047244094
11
-1.9699212598425195
21
3.6773622047244094
0
LINE
8
BLACK
6
CONTINUOUS
10
-1.9699212598425195
20
3.6773622047244094
11
-1.9704973228346456
21
3.6774189370078738
0
LINE
8
BLACK
6
CONTINUOUS
10
-1.9704973228346456
20
3.6774189370078738
11
-1.9715617322834644
21
3.6778598425196849
0
LINE
8
BLACK
6
CONTINUOUS
10
-1.9715617322834644
20
3.6778598425196849
11
-1.9723763779527559
21
3.6786744881889764
0
LINE
8
BLACK
6
CONTINUOUS
10
-1.9723763779527559
20
3.6786744881889764
11
-1.972817283464567
21
3.6797388976377952
0
LINE
8
BLACK
6
CONTINUOUS
10
-1.972817283464567
20
3.6797388976377952
11
-1.972817283464567
21
3.6808910236220473
0
LINE
8
BLACK
6
CONTINUOUS
10
-1.972817283464567
20
3.6808910236220473
11
-1.9723763779527559
21
3.6819554330708661
0
LINE
8
BLACK
6
CONTINUOUS
10
-1.9723763779527559
20
3.6819554330708661
11
-1.9715617322834644
21
3.6827700787401576
0
LINE
8
BLACK
6
CONTINUOUS
10
-1.9715617322834644
20
3.6827700787401576
11
-1.9704973228346456
21
3.6832109842519682
0
LINE
8
BLACK
6
CONTINUOUS
10
-1.9704973228346456
20
3.6832109842519682
11
-1.9699212598425195
21
3.6832677165354331
0
LINE
8
BLACK
6
CONTINUOUS
10
-1.9699212598425195
20
3.6832677165354331
11
-1.8899212598425197
21
3.6832677165354331
0
LINE
8
BLACK
6
CONTINUOUS
10
-1.8899212598425197
20
3.6832677165354331
11
-1.8893451968503936
21
3.6832109842519682
0
LINE
8
BLACK
6
CONTINUOUS
10
-2.2379290551181104
20
3.6911587795275591
11
-2.2366506299212596
21
3.6898803543307084
0
LINE
8
BLACK
6
CONTINUOUS
10
-2.2366506299212596
20
3.6898803543307084
11
-2.2366506299212596
21
3.6880724015748032
0
LINE
8
BLACK
6
CONTINUOUS
10
-2.2366506299212596
20
3.6880724015748032
11
-2.2379290551181104
21
3.6867939763779525
0
LINE
8
BLACK
6
CONTINUOUS
10
-2.2379290551181104
20
3.6867939763779525
11
-2.2388330314960627
21
3.6866141732283464
0
LINE
8
BLACK
6
CONTINUOUS
10
-2.2388330314960627
20
3.6866141732283464
11
-2.2509307480314962
21
3.6866141732283464
0
LINE
8
BLACK
6
CONTINUOUS
10
-2.2509307480314962
20
3.6866141732283464
11
-2.251834724409449
21
3.6867939763779525
0
LINE
8
BLACK
6
CONTINUOUS
10
-2.251834724409449
20
3.6867939763779525
11
-2.2531131496062993
21
3.6880724015748032
0
LINE
8
BLACK
6
CONTINUOUS
10
-2.2531131496062993
20
3.6880724015748032
11
-2.2531131496062993
21
3.6898803543307084
0
LINE
8
BLACK
6
CONTINUOUS
10
-2.2531131496062993
20
3.6898803543307084
11
-2.251834724409449
21
3.6911587795275591
0
LINE
8
BLACK
6
CONTINUOUS
10
-2.251834724409449
20
3.6911587795275591
11
-2.2509307480314962
21
3.6913385826771652
0
LINE
8
BLACK
6
CONTINUOUS
10
-2.2509307480314962
20
3.6913385826771652
11
-2.2388330314960627
21
3.6913385826771652
0
LINE
8
BLACK
6
CONTINUOUS
10
-2.2388330314960627
20
3.6913385826771652
11
-2.2379290551181104
21
3.6911587795275591
0
LINE
8
BLACK
6
CONTINUOUS
10
-1.8302835826771653
20
3.6919461811023622
11
-1.829005157480315
21
3.6906677559055119
0
LINE
8
BLACK
6
CONTINUOUS
10
-1.829005157480315
20
3.6906677559055119
11
-1.829005157480315
21
3.6888598031496063
0
LINE
8
BLACK
6
CONTINUOUS
10
-1.829005157480315
20
3.6888598031496063
11
-1.8302835826771653
21
3.687581377952756
0
LINE
8
BLACK
6
CONTINUOUS
10
-1.8302835826771653
20
3.687581377952756
11
-1.8311875590551181
21
3.6874015748031495
0
LINE
8
BLACK
6
CONTINUOUS
10
-1.8311875590551181
20
3.6874015748031495
11
-1.8396785826771653
21
3.6874015748031495
0
LINE
8
BLACK
6
CONTINUOUS
10
-1.8396785826771653
20
3.6874015748031495
11
-1.8405825590551181
21
3.687581377952756
0
LINE
8
BLACK
6
CONTINUOUS
10
-1.8405825590551181
20
3.687581377952756
11
-1.8418609842519684
21
3.6888598031496063
0
LINE
8
BLACK
6
CONTINUOUS
10
-1.8418609842519684
20
3.6888598031496063
11
-1.8418609842519684
21
3.6906677559055119
0
LINE
8
BLACK
6
CONTINUOUS
10
-1.8418609842519684
20
3.6906677559055119
11
-1.8405825590551181
21
3.6919461811023622
0
LINE
8
BLACK
6
CONTINUOUS
10
-1.8405825590551181
20
3.6919461811023622
11
-1.8396785826771653
21
3.6921259842519683
0
LINE
8
BLACK
6
CONTINUOUS
10
-1.8396785826771653
20
3.6921259842519683
11
-1.8311875590551181
21
3.6921259842519683
0
LINE
8
BLACK
6
CONTINUOUS
10
-1.8311875590551181
20
3.6921259842519683
11
-1.8302835826771653
21
3.6919461811023622
0
LINE
8
BLACK
6
CONTINUOUS
10
-1.8302835826771653
20
3.7202926377952754
11
-1.829005157480315
21
3.7190142125984251
0
LINE
8
BLACK
6
CONTINUOUS
10
-1.829005157480315
20
3.7190142125984251
11
-1.829005157480315
21
3.7172062598425195
0
LINE
8
BLACK
6
CONTINUOUS
10
-1.829005157480315
20
3.7172062598425195
11
-1.8302835826771653
21
3.7159278346456692
0
LINE
8
BLACK
6
CONTINUOUS
10
-1.8302835826771653
20
3.7159278346456692
11
-1.8311875590551181
21
3.7157480314960627
0
LINE
8
BLACK
6
CONTINUOUS
10
-1.8311875590551181
20
3.7157480314960627
11
-1.8396785826771653
21
3.7157480314960627
0
LINE
8
BLACK
6
CONTINUOUS
10
-1.8396785826771653
20
3.7157480314960627
11
-1.8405825590551181
21
3.7159278346456692
0
LINE
8
BLACK
6
CONTINUOUS
10
-1.8405825590551181
20
3.7159278346456692
11
-1.8418609842519684
21
3.7172062598425195
0
LINE
8
BLACK
6
CONTINUOUS
10
-1.8418609842519684
20
3.7172062598425195
11
-1.8418609842519684
21
3.7190142125984251
0
LINE
8
BLACK
6
CONTINUOUS
10
-1.8418609842519684
20
3.7190142125984251
11
-1.8405825590551181
21
3.7202926377952754
0
LINE
8
BLACK
6
CONTINUOUS
10
-1.8405825590551181
20
3.7202926377952754
11
-1.8396785826771653
21
3.7204724409448819
0
LINE
8
BLACK
6
CONTINUOUS
10
-1.8396785826771653
20
3.7204724409448819
11
-1.8311875590551181
21
3.7204724409448819
0
LINE
8
BLACK
6
CONTINUOUS
10
-1.8311875590551181
20
3.7204724409448819
11
-1.8302835826771653
21
3.7202926377952754
0
LINE
8
BLACK
6
CONTINUOUS
10
-2.2379290551181104
20
3.7210800393700785
11
-2.2366506299212596
21
3.7198016141732282
0
LINE
8
BLACK
6
CONTINUOUS
10
-2.2366506299212596
20
3.7198016141732282
11
-2.2366506299212596
21
3.7179936614173226
0
LINE
8
BLACK
6
CONTINUOUS
10
-2.2366506299212596
20
3.7179936614173226
11
-2.2379290551181104
21
3.7167152362204723
0
LINE
8
BLACK
6
CONTINUOUS
10
-2.2379290551181104
20
3.7167152362204723
11
-2.2388330314960627
21
3.7165354330708662
0
LINE
8
BLACK
6
CONTINUOUS
10
-2.2388330314960627
20
3.7165354330708662
11
-2.2509307480314962
21
3.7165354330708662
0
LINE
8
BLACK
6
CONTINUOUS
10
-2.2509307480314962
20
3.7165354330708662
11
-2.251834724409449
21
3.7167152362204723
0
LINE
8
BLACK
6
CONTINUOUS
10
-2.251834724409449
20
3.7167152362204723
11
-2.2531131496062993
21
3.7179936614173226
0
LINE
8
BLACK
6
CONTINUOUS
10
-2.2531131496062993
20
3.7179936614173226
11
-2.2531131496062993
21
3.7198016141732282
0
LINE
8
BLACK
6
CONTINUOUS
10
-2.2531131496062993
20
3.7198016141732282
11
-2.251834724409449
21
3.7210800393700785
0
LINE
8
BLACK
6
CONTINUOUS
10
-2.251834724409449
20
3.7210800393700785
11
-2.2509307480314962
21
3.721259842519685
0
LINE
8
BLACK
6
CONTINUOUS
10
-2.2509307480314962
20
3.721259842519685
11
-2.2388330314960627
21
3.721259842519685
0
LINE
8
BLACK
6
CONTINUOUS
10
-2.2388330314960627
20
3.721259842519685
11
-2.2379290551181104
21
3.7210800393700785
0
LINE
8
BLACK
6
CONTINUOUS
10
-2.1316758661417321
20
3.734118149606299
11
-2.131496062992126
21
3.7332141732283466
0
LINE
8
BLACK
6
CONTINUOUS
10
-2.131496062992126
20
3.7332141732283466
11
-2.131496062992126
21
3.7211164566929131
0
LINE
8
BLACK
6
CONTINUOUS
10
-2.131496062992126
20
3.7211164566929131
11
-2.1316758661417321
21
3.7202124803149603
0
LINE
8
BLACK
6
CONTINUOUS
10
-2.1316758661417321
20
3.7202124803149603
11
-2.1329542913385828
21
3.71893405511811
0
LINE
8
BLACK
6
CONTINUOUS
10
-2.1329542913385828
20
3.71893405511811
11
-2.134762244094488
21
3.71893405511811
0
LINE
8
BLACK
6
CONTINUOUS
10
-2.134762244094488
20
3.71893405511811
11
-2.1360406692913387
21
3.7202124803149603
0
LINE
8
BLACK
6
CONTINUOUS
10
-2.1360406692913387
20
3.7202124803149603
11
-2.1362204724409448
21
3.7211164566929131
0
LINE
8
BLACK
6
CONTINUOUS
10
-2.1362204724409448
20
3.7211164566929131
11
-2.1362204724409448
21
3.7332141732283466
0
LINE
8
BLACK
6
CONTINUOUS
10
-2.1362204724409448
20
3.7332141732283466
11
-2.1360406692913387
21
3.734118149606299
0
LINE
8
BLACK
6
CONTINUOUS
10
-2.1360406692913387
20
3.734118149606299
11
-2.134762244094488
21
3.7353965748031497
0
LINE
8
BLACK
6
CONTINUOUS
10
-2.134762244094488
20
3.7353965748031497
11
-2.1329542913385828
21
3.7353965748031497
0
LINE
8
BLACK
6
CONTINUOUS
10
-2.1329542913385828
20
3.7353965748031497
11
-2.1316758661417321
21
3.734118149606299
0
LINE
8
BLACK
6
CONTINUOUS
10
-2.1017546062992127
20
3.734118149606299
11
-2.1015748031496062
21
3.7332141732283466
0
LINE
8
BLACK
6
CONTINUOUS
10
-2.1015748031496062
20
3.7332141732283466
11
-2.1015748031496062
21
3.7211164566929131
0
LINE
8
BLACK
6
CONTINUOUS
10
-2.1015748031496062
20
3.7211164566929131
11
-2.1017546062992127
21
3.7202124803149603
0
LINE
8
BLACK
6
CONTINUOUS
10
-2.1017546062992127
20
3.7202124803149603
11
-2.103033031496063
21
3.71893405511811
0
LINE
8
BLACK
6
CONTINUOUS
10
-2.103033031496063
20
3.71893405511811
11
-2.1048409842519686
21
3.71893405511811
0
LINE
8
BLACK
6
CONTINUOUS
10
-2.1048409842519686
20
3.71893405511811
11
-2.1061194094488189
21
3.7202124803149603
0
LINE
8
BLACK
6
CONTINUOUS
10
-2.1061194094488189
20
3.7202124803149603
11
-2.106299212598425
21
3.7211164566929131
0
LINE
8
BLACK
6
CONTINUOUS
10
-2.106299212598425
20
3.7211164566929131
11
-2.106299212598425
21
3.7332141732283466
0
LINE
8
BLACK
6
CONTINUOUS
10
-2.106299212598425
20
3.7332141732283466
11
-2.1061194094488189
21
3.734118149606299
0
LINE
8
BLACK
6
CONTINUOUS
10
-2.1061194094488189
20
3.734118149606299
11
-2.1048409842519686
21
3.7353965748031497
0
LINE
8
BLACK
6
CONTINUOUS
10
-2.1048409842519686
20
3.7353965748031497
11
-2.103033031496063
21
3.7353965748031497
0
LINE
8
BLACK
6
CONTINUOUS
10
-2.103033031496063
20
3.7353965748031497
11
-2.1017546062992127
21
3.734118149606299
0
LINE
8
BLACK
6
CONTINUOUS
10
-2.0529357086614173
20
3.7345118897637795
11
-2.0527559055118112
21
3.7336079133858266
0
LINE
8
BLACK
6
CONTINUOUS
10
-2.0527559055118112
20
3.7336079133858266
11
-2.0527559055118112
21
3.7215101968503936
0
LINE
8
BLACK
6
CONTINUOUS
10
-2.0527559055118112
20
3.7215101968503936
11
-2.0529357086614173
21
3.7206062204724408
0
LINE
8
BLACK
6
CONTINUOUS
10
-2.0529357086614173
20
3.7206062204724408
11
-2.0542141338582676
21
3.7193277952755905
0
LINE
8
BLACK
6
CONTINUOUS
10
-2.0542141338582676
20
3.7193277952755905
11
-2.0560220866141732
21
3.7193277952755905
0
LINE
8
BLACK
6
CONTINUOUS
10
-2.0560220866141732
20
3.7193277952755905
11
-2.0573005118110235
21
3.7206062204724408
0
LINE
8
BLACK
6
CONTINUOUS
10
-2.0573005118110235
20
3.7206062204724408
11
-2.05748031496063
21
3.7215101968503936
0
LINE
8
BLACK
6
CONTINUOUS
10
-2.05748031496063
20
3.7215101968503936
11
-2.05748031496063
21
3.7336079133858266
0
LINE
8
BLACK
6
CONTINUOUS
10
-2.05748031496063
20
3.7336079133858266
11
-2.0573005118110235
21
3.7345118897637795
0
LINE
8
BLACK
6
CONTINUOUS
10
-2.0573005118110235
20
3.7345118897637795
11
-2.0560220866141732
21
3.7357903149606297
0
LINE
8
BLACK
6
CONTINUOUS
10
-2.0560220866141732
20
3.7357903149606297
11
-2.0542141338582676
21
3.7357903149606297
0
LINE
8
BLACK
6
CONTINUOUS
10
-2.0542141338582676
20
3.7357903149606297
11
-2.0529357086614173
21
3.7345118897637795
0
LINE
8
BLACK
6
CONTINUOUS
10
-2.0230144488188975
20
3.7345118897637795
11
-2.0228346456692914
21
3.7336079133858266
0
LINE
8
BLACK
6
CONTINUOUS
10
-2.0228346456692914
20
3.7336079133858266
11
-2.0228346456692914
21
3.7215101968503936
0
LINE
8
BLACK
6
CONTINUOUS
10
-2.0228346456692914
20
3.7215101968503936
11
-2.0230144488188975
21
3.7206062204724408
0
LINE
8
BLACK
6
CONTINUOUS
10
-2.0230144488188975
20
3.7206062204724408
11
-2.0242928740157482
21
3.7193277952755905
0
LINE
8
BLACK
6
CONTINUOUS
10
-2.0242928740157482
20
3.7193277952755905
11
-2.0261008267716534
21
3.7193277952755905
0
LINE
8
BLACK
6
CONTINUOUS
10
-2.0261008267716534
20
3.7193277952755905
11
-2.0273792519685041
21
3.7206062204724408
0
LINE
8
BLACK
6
CONTINUOUS
10
-2.0273792519685041
20
3.7206062204724408
11
-2.0275590551181102
21
3.7215101968503936
0
LINE
8
BLACK
6
CONTINUOUS
10
-2.0275590551181102
20
3.7215101968503936
11
-2.0275590551181102
21
3.7336079133858266
0
LINE
8
BLACK
6
CONTINUOUS
10
-2.0275590551181102
20
3.7336079133858266
11
-2.0273792519685041
21
3.7345118897637795
0
LINE
8
BLACK
6
CONTINUOUS
10
-2.0273792519685041
20
3.7345118897637795
11
-2.0261008267716534
21
3.7357903149606297
0
LINE
8
BLACK
6
CONTINUOUS
10
-2.0261008267716534
20
3.7357903149606297
11
-2.0242928740157482
21
3.7357903149606297
0
LINE
8
BLACK
6
CONTINUOUS
10
-2.0242928740157482
20
3.7357903149606297
11
-2.0230144488188975
21
3.7345118897637795
0
LINE
8
BLACK
6
CONTINUOUS
10
-2.1702585039370077
20
3.7323148031496061
11
-2.1700787007874016
21
3.7314108267716533
0
LINE
8
BLACK
6
CONTINUOUS
10
-2.1700787007874016
20
3.7314108267716533
11
-2.1700787007874016
21
3.722919803149606
0
LINE
8
BLACK
6
CONTINUOUS
10
-2.1700787007874016
20
3.722919803149606
11
-2.1702585039370077
21
3.7220158267716537
0
LINE
8
BLACK
6
CONTINUOUS
10
-2.1702585039370077
20
3.7220158267716537
11
-2.1715369291338584
21
3.7207374015748029
0
LINE
8
BLACK
6
CONTINUOUS
10
-2.1715369291338584
20
3.7207374015748029
11
-2.1733448818897636
21
3.7207374015748029
0
LINE
8
BLACK
6
CONTINUOUS
10
-2.1733448818897636
20
3.7207374015748029
11
-2.1746233070866143
21
3.7220158267716537
0
LINE
8
BLACK
6
CONTINUOUS
10
-2.1746233070866143
20
3.7220158267716537
11
-2.1748031102362204
21
3.722919803149606
0
LINE
8
BLACK
6
CONTINUOUS
10
-2.1748031102362204
20
3.722919803149606
11
-2.1748031102362204
21
3.7314108267716533
0
LINE
8
BLACK
6
CONTINUOUS
10
-2.1748031102362204
20
3.7314108267716533
11
-2.1746233070866143
21
3.7323148031496061
0
LINE
8
BLACK
6
CONTINUOUS
10
-2.1746233070866143
20
3.7323148031496061
11
-2.1733448818897636
21
3.7335932283464568
0
LINE
8
BLACK
6
CONTINUOUS
10
-2.1733448818897636
20
3.7335932283464568
11
-2.1715369291338584
21
3.7335932283464568
0
LINE
8
BLACK
6
CONTINUOUS
10
-2.1715369291338584
20
3.7335932283464568
11
-2.1702585039370077
21
3.7323148031496061
0
LINE
8
BLACK
6
CONTINUOUS
10
-2.1419120472440945
20
3.7323148031496061
11
-2.1417322440944879
21
3.7314108267716533
0
LINE
8
BLACK
6
CONTINUOUS
10
-2.1417322440944879
20
3.7314108267716533
11
-2.1417322440944879
21
3.722919803149606
0
LINE
8
BLACK
6
CONTINUOUS
10
-2.1417322440944879
20
3.722919803149606
11
-2.1419120472440945
21
3.7220158267716537
0
LINE
8
BLACK
6
CONTINUOUS
10
-2.1419120472440945
20
3.7220158267716537
11
-2.1431904724409447
21
3.7207374015748029
0
LINE
8
BLACK
6
CONTINUOUS
10
-2.1431904724409447
20
3.7207374015748029
11
-2.1449984251968504
21
3.7207374015748029
0
LINE
8
BLACK
6
CONTINUOUS
10
-2.1449984251968504
20
3.7207374015748029
11
-2.1462768503937006
21
3.7220158267716537
0
LINE
8
BLACK
6
CONTINUOUS
10
-2.1462768503937006
20
3.7220158267716537
11
-2.1464566535433072
21
3.722919803149606
0
LINE
8
BLACK
6
CONTINUOUS
10
-2.1464566535433072
20
3.722919803149606
11
-2.1464566535433072
21
3.7314108267716533
0
LINE
8
BLACK
6
CONTINUOUS
10
-2.1464566535433072
20
3.7314108267716533
11
-2.1462768503937006
21
3.7323148031496061
0
LINE
8
BLACK
6
CONTINUOUS
10
-2.1462768503937006
20
3.7323148031496061
11
-2.1449984251968504
21
3.7335932283464568
0
LINE
8
BLACK
6
CONTINUOUS
10
-2.1449984251968504
20
3.7335932283464568
11
-2.1431904724409447
21
3.7335932283464568
0
LINE
8
BLACK
6
CONTINUOUS
10
-2.1431904724409447
20
3.7335932283464568
11
-2.1419120472440945
21
3.7323148031496061
0
LINE
8
BLACK
6
CONTINUOUS
10
-2.0915183858267716
20
3.7327085433070866
11
-2.0913385826771651
21
3.7318045669291338
0
LINE
8
BLACK
6
CONTINUOUS
10
-2.0913385826771651
20
3.7318045669291338
11
-2.0913385826771651
21
3.7233135433070865
0
LINE
8
BLACK
6
CONTINUOUS
10
-2.0913385826771651
20
3.7233135433070865
11
-2.0915183858267716
21
3.7224095669291337
0
LINE
8
BLACK
6
CONTINUOUS
10
-2.0915183858267716
20
3.7224095669291337
11
-2.0927968110236219
21
3.7211311417322834
0
LINE
8
BLACK
6
CONTINUOUS
10
-2.0927968110236219
20
3.7211311417322834
11
-2.0946047637795275
21
3.7211311417322834
0
LINE
8
BLACK
6
CONTINUOUS
10
-2.0946047637795275
20
3.7211311417322834
11
-2.0958831889763778
21
3.7224095669291337
0
LINE
8
BLACK
6
CONTINUOUS
10
-2.0958831889763778
20
3.7224095669291337
11
-2.0960629921259843
21
3.7233135433070865
0
LINE
8
BLACK
6
CONTINUOUS
10
-2.0960629921259843
20
3.7233135433070865
11
-2.0960629921259843
21
3.7318045669291338
0
LINE
8
BLACK
6
CONTINUOUS
10
-2.0960629921259843
20
3.7318045669291338
11
-2.0958831889763778
21
3.7327085433070866
0
LINE
8
BLACK
6
CONTINUOUS
10
-2.0958831889763778
20
3.7327085433070866
11
-2.0946047637795275
21
3.7339869685039369
0
LINE
8
BLACK
6
CONTINUOUS
10
-2.0946047637795275
20
3.7339869685039369
11
-2.0927968110236219
21
3.7339869685039369
0
LINE
8
BLACK
6
CONTINUOUS
10
-2.0927968110236219
20
3.7339869685039369
11
-2.0915183858267716
21
3.7327085433070866
0
LINE
8
BLACK
6
CONTINUOUS
10
-2.0631719291338584
20
3.7327085433070866
11
-2.0629921259842519
21
3.7318045669291338
0
LINE
8
BLACK
6
CONTINUOUS
10
-2.0629921259842519
20
3.7318045669291338
11
-2.0629921259842519
21
3.7233135433070865
0
LINE
8
BLACK
6
CONTINUOUS
10
-2.0629921259842519
20
3.7233135433070865
11
-2.0631719291338584
21
3.7224095669291337
0
LINE
8
BLACK
6
CONTINUOUS
10
-2.0631719291338584
20
3.7224095669291337
11
-2.0644503543307087
21
3.7211311417322834
0
LINE
8
BLACK
6
CONTINUOUS
10
-2.0644503543307087
20
3.7211311417322834
11
-2.0662583070866143
21
3.7211311417322834
0
LINE
8
BLACK
6
CONTINUOUS
10
-2.0662583070866143
20
3.7211311417322834
11
-2.0675367322834646
21
3.7224095669291337
0
LINE
8
BLACK
6
CONTINUOUS
10
-2.0675367322834646
20
3.7224095669291337
11
-2.0677165354330707
21
3.7233135433070865
0
LINE
8
BLACK
6
CONTINUOUS
10
-2.0677165354330707
20
3.7233135433070865
11
-2.0677165354330707
21
3.7318045669291338
0
LINE
8
BLACK
6
CONTINUOUS
10
-2.0677165354330707
20
3.7318045669291338
11
-2.0675367322834646
21
3.7327085433070866
0
LINE
8
BLACK
6
CONTINUOUS
10
-2.0675367322834646
20
3.7327085433070866
11
-2.0662583070866143
21
3.7339869685039369
0
LINE
8
BLACK
6
CONTINUOUS
10
-2.0662583070866143
20
3.7339869685039369
11
-2.0644503543307087
21
3.7339869685039369
0
LINE
8
BLACK
6
CONTINUOUS
10
-2.0644503543307087
20
3.7339869685039369
11
-2.0631719291338584
21
3.7327085433070866
0
LINE
8
BLACK
6
CONTINUOUS
10
-1.7187022834645669
20
3.8013492913385827
11
-1.718624527559055
21
3.8013548031496063
0
LINE
8
BLACK
6
CONTINUOUS
10
-1.718624527559055
20
3.8013548031496063
11
-1.7185222834645668
21
3.8013315748031493
0
LINE
8
BLACK
6
CONTINUOUS
10
-1.7185222834645668
20
3.8013315748031493
11
-1.7184177559055118
21
3.8013212598425197
0
LINE
8
BLACK
6
CONTINUOUS
10
-1.7184177559055118
20
3.8013212598425197
11
-1.7183456692913386
21
3.8012914173228345
0
LINE
8
BLACK
6
CONTINUOUS
10
-1.7183456692913386
20
3.8012914173228345
11
-1.7180600787401574
21
3.8012264566929135
0
LINE
8
BLACK
6
CONTINUOUS
10
-1.7180600787401574
20
3.8012264566929135
11
-1.7096236614173228
21
3.7984142913385828
0
LINE
8
BLACK
6
CONTINUOUS
10
-1.7096236614173228
20
3.7984142913385828
11
-1.7090951181102363
21
3.798178307086614
0
LINE
8
BLACK
6
CONTINUOUS
10
-1.7090951181102363
20
3.798178307086614
11
-1.7090150393700787
21
3.7981088582677165
0
LINE
8
BLACK
6
CONTINUOUS
10
-1.7090150393700787
20
3.7981088582677165
11
-1.7089169685039369
21
3.7980682283464566
0
LINE
8
BLACK
6
CONTINUOUS
10
-1.7089169685039369
20
3.7980682283464566
11
-1.7084694881889764
21
3.7977009842519682
0
LINE
8
BLACK
6
CONTINUOUS
10
-1.7084694881889764
20
3.7977009842519682
11
-1.702845157480315
21
3.7920766929133856
0
LINE
8
BLACK
6
CONTINUOUS
10
-1.702845157480315
20
3.7920766929133856
11
-1.7024779527559055
21
3.7916292519685038
0
LINE
8
BLACK
6
CONTINUOUS
10
-1.7024779527559055
20
3.7916292519685038
11
-1.7024373622047244
21
3.7915312204724407
0
LINE
8
BLACK
6
CONTINUOUS
10
-1.7024373622047244
20
3.7915312204724407
11
-1.7023678346456692
21
3.7914510629921261
0
LINE
8
BLACK
6
CONTINUOUS
10
-1.7023678346456692
20
3.7914510629921261
11
-1.7021318503937009
21
3.7909225196850391
0
LINE
8
BLACK
6
CONTINUOUS
10
-1.7021318503937009
20
3.7909225196850391
11
-1.6993197244094487
21
3.7824860629921258
0
LINE
8
BLACK
6
CONTINUOUS
10
-1.6993197244094487
20
3.7824860629921258
11
-1.6992548031496062
21
3.7822005118110233
0
LINE
8
BLACK
6
CONTINUOUS
10
-1.6992548031496062
20
3.7822005118110233
11
-1.6992249212598425
21
3.7821283858267716
0
LINE
8
BLACK
6
CONTINUOUS
10
-1.6992249212598425
20
3.7821283858267716
11
-1.6992146456692914
21
3.7820238976377953
0
LINE
8
BLACK
6
CONTINUOUS
10
-1.6992146456692914
20
3.7820238976377953
11
-1.6991913779527559
21
3.7819216141732284
0
LINE
8
BLACK
6
CONTINUOUS
10
-1.6991913779527559
20
3.7819216141732284
11
-1.6991969291338582
21
3.781843897637795
0
LINE
8
BLACK
6
CONTINUOUS
10
-1.6991969291338582
20
3.781843897637795
11
-1.6991681889763779
21
3.7815523228346457
0
LINE
8
BLACK
6
CONTINUOUS
10
-1.6991681889763779
20
3.7815523228346457
11
-1.6991681889763779
21
3.775928031496063
0
LINE
8
BLACK
6
CONTINUOUS
10
-1.6991681889763779
20
3.775928031496063
11
-1.6992249212598425
21
3.7753519685039367
0
LINE
8
BLACK
6
CONTINUOUS
10
-1.6992249212598425
20
3.7753519685039367
11
-1.6996658267716536
21
3.7742875590551179
0
LINE
8
BLACK
6
CONTINUOUS
10
-1.6996658267716536
20
3.7742875590551179
11
-1.7004804724409448
21
3.7734729133858265
0
LINE
8
BLACK
6
CONTINUOUS
10
-1.7004804724409448
20
3.7734729133858265
11
-1.7015448818897638
21
3.7730320078740158
0
LINE
8
BLACK
6
CONTINUOUS
10
-1.7015448818897638
20
3.7730320078740158
11
-1.7026970078740158
21
3.7730320078740158
0
LINE
8
BLACK
6
CONTINUOUS
10
-1.7026970078740158
20
3.7730320078740158
11
-1.7037614173228346
21
3.7734729133858265
0
LINE
8
BLACK
6
CONTINUOUS
10
-1.7037614173228346
20
3.7734729133858265
11
-1.7045760629921261
21
3.7742875590551179
0
LINE
8
BLACK
6
CONTINUOUS
10
-1.7045760629921261
20
3.7742875590551179
11
-1.7050169685039369
21
3.7753519685039367
0
LINE
8
BLACK
6
CONTINUOUS
10
-1.7050169685039369
20
3.7753519685039367
11
-1.7050737007874015
21
3.775928031496063
0
LINE
8
BLACK
6
CONTINUOUS
10
-1.7050737007874015
20
3.775928031496063
11
-1.7050737007874015
21
3.7810732283464565
0
LINE
8
BLACK
6
CONTINUOUS
10
-1.7050737007874015
20
3.7810732283464565
11
-1.7075138976377953
21
3.7883937401574803
0
LINE
8
BLACK
6
CONTINUOUS
10
-1.7075138976377953
20
3.7883937401574803
11
-1.7121524409448818
21
3.7930322834645667
0
LINE
8
BLACK
6
CONTINUOUS
10
-1.7121524409448818
20
3.7930322834645667
11
-1.7194729527559054
21
3.7954724803149604
0
LINE
8
BLACK
6
CONTINUOUS
10
-1.7194729527559054
20
3.7954724803149604
11
-1.761176062992126
21
3.7954724803149604
0
LINE
8
BLACK
6
CONTINUOUS
10
-1.761176062992126
20
3.7954724803149604
11
-1.7617521259842519
21
3.7955292125984252
0
LINE
8
BLACK
6
CONTINUOUS
10
-1.7617521259842519
20
3.7955292125984252
11
-1.7628165354330709
21
3.7959701181102363
0
LINE
8
BLACK
6
CONTINUOUS
10
-1.7628165354330709
20
3.7959701181102363
11
-1.7636311811023622
21
3.7967847637795273
0
LINE
8
BLACK
6
CONTINUOUS
10
-1.7636311811023622
20
3.7967847637795273
11
-1.7640720866141733
21
3.7978491732283466
0
LINE
8
BLACK
6
CONTINUOUS
10
-1.7640720866141733
20
3.7978491732283466
11
-1.7640720866141733
21
3.7990012992125983
0
LINE
8
BLACK
6
CONTINUOUS
10
-1.7640720866141733
20
3.7990012992125983
11
-1.7636311811023622
21
3.8000657086614171
0
LINE
8
BLACK
6
CONTINUOUS
10
-1.7636311811023622
20
3.8000657086614171
11
-1.7628165354330709
21
3.8008803543307086
0
LINE
8
BLACK
6
CONTINUOUS
10
-1.7628165354330709
20
3.8008803543307086
11
-1.7617521259842519
21
3.8013212598425197
0
LINE
8
BLACK
6
CONTINUOUS
10
-1.7617521259842519
20
3.8013212598425197
11
-1.761176062992126
21
3.801377992125984
0
LINE
8
BLACK
6
CONTINUOUS
10
-1.761176062992126
20
3.801377992125984
11
-1.7189938188976377
21
3.801377992125984
0
LINE
8
BLACK
6
CONTINUOUS
10
-1.7189938188976377
20
3.801377992125984
11
-1.7187022834645669
21
3.8013492913385827
0
LINE
8
BLACK
6
CONTINUOUS
10
-2.0650760629921261
20
3.8605653543307086
11
-2.0642614173228346
21
3.8597507086614171
0
LINE
8
BLACK
6
CONTINUOUS
10
-2.0642614173228346
20
3.8597507086614171
11
-2.0638205118110236
21
3.8586862992125983
0
LINE
8
BLACK
6
CONTINUOUS
10
-2.0638205118110236
20
3.8586862992125983
11
-2.0637637795275592
21
3.8581102362204724
0
LINE
8
BLACK
6
CONTINUOUS
10
-2.0637637795275592
20
3.8581102362204724
11
-2.0637637795275592
21
3.7781102362204724
0
LINE
8
BLACK
6
CONTINUOUS
10
-2.0637637795275592
20
3.7781102362204724
11
-2.0638205118110236
21
3.7775341732283465
0
LINE
8
BLACK
6
CONTINUOUS
10
-2.0638205118110236
20
3.7775341732283465
11
-2.0642614173228346
21
3.7764697637795273
0
LINE
8
BLACK
6
CONTINUOUS
10
-2.0642614173228346
20
3.7764697637795273
11
-2.0650760629921261
21
3.7756551181102362
0
LINE
8
BLACK
6
CONTINUOUS
10
-2.0650760629921261
20
3.7756551181102362
11
-2.0661404724409449
21
3.7752142125984252
0
LINE
8
BLACK
6
CONTINUOUS
10
-2.0661404724409449
20
3.7752142125984252
11
-2.0672925984251966
21
3.7752142125984252
0
LINE
8
BLACK
6
CONTINUOUS
10
-2.0672925984251966
20
3.7752142125984252
11
-2.0683570078740159
21
3.7756551181102362
0
LINE
8
BLACK
6
CONTINUOUS
10
-2.0683570078740159
20
3.7756551181102362
11
-2.0691716535433069
21
3.7764697637795273
0
LINE
8
BLACK
6
CONTINUOUS
10
-2.0691716535433069
20
3.7764697637795273
11
-2.069612559055118
21
3.7775341732283465
0
LINE
8
BLACK
6
CONTINUOUS
10
-2.069612559055118
20
3.7775341732283465
11
-2.0696692913385828
21
3.7781102362204724
0
LINE
8
BLACK
6
CONTINUOUS
10
-2.0696692913385828
20
3.7781102362204724
11
-2.0696692913385828
21
3.8581102362204724
0
LINE
8
BLACK
6
CONTINUOUS
10
-2.0696692913385828
20
3.8581102362204724
11
-2.069612559055118
21
3.8586862992125983
0
LINE
8
BLACK
6
CONTINUOUS
10
-2.069612559055118
20
3.8586862992125983
11
-2.0691716535433069
21
3.8597507086614171
0
LINE
8
BLACK
6
CONTINUOUS
10
-2.0691716535433069
20
3.8597507086614171
11
-2.0683570078740159
21
3.8605653543307086
0
LINE
8
BLACK
6
CONTINUOUS
10
-2.0683570078740159
20
3.8605653543307086
11
-2.0672925984251966
21
3.8610062598425197
0
LINE
8
BLACK
6
CONTINUOUS
10
-2.0672925984251966
20
3.8610062598425197
11
-2.0661404724409449
21
3.8610062598425197
0
LINE
8
BLACK
6
CONTINUOUS
10
-2.0661404724409449
20
3.8610062598425197
11
-2.0650760629921261
21
3.8605653543307086
0
LINE
8
BLACK
6
CONTINUOUS
10
-1.8332506692913386
20
3.8741323228346456
11
-1.8330708661417323
21
3.8732283464566928
0
LINE
8
BLACK
6
CONTINUOUS
10
-1.8330708661417323
20
3.8732283464566928
11
-1.8330708661417323
21
3.7984251968503937
0
LINE
8
BLACK
6
CONTINUOUS
10
-1.8330708661417323
20
3.7984251968503937
11
-1.7950787401574804
21
3.7984251968503937
0
LINE
8
BLACK
6
CONTINUOUS
10
-1.7950787401574804
20
3.7984251968503937
11
-1.7950787401574804
21
3.8581102362204724
0
LINE
8
BLACK
6
CONTINUOUS
10
-1.7950787401574804
20
3.8581102362204724
11
-1.7950220078740158
21
3.8586862992125983
0
LINE
8
BLACK
6
CONTINUOUS
10
-1.7950220078740158
20
3.8586862992125983
11
-1.7945811023622047
21
3.8597507086614171
0
LINE
8
BLACK
6
CONTINUOUS
10
-1.7945811023622047
20
3.8597507086614171
11
-1.7937664566929132
21
3.8605653543307086
0
LINE
8
BLACK
6
CONTINUOUS
10
-1.7937664566929132
20
3.8605653543307086
11
-1.7927020472440944
21
3.8610062598425197
0
LINE
8
BLACK
6
CONTINUOUS
10
-1.7927020472440944
20
3.8610062598425197
11
-1.7915499212598425
21
3.8610062598425197
0
LINE
8
BLACK
6
CONTINUOUS
10
-1.7915499212598425
20
3.8610062598425197
11
-1.7905511811023622
21
3.8605925590551182
0
LINE
8
BLACK
6
CONTINUOUS
10
-1.7905511811023622
20
3.8605925590551182
11
-1.7905511811023622
21
3.8732283464566928
0
LINE
8
BLACK
6
CONTINUOUS
10
-1.7905511811023622
20
3.8732283464566928
11
-1.7903713779527559
21
3.8741323228346456
0
LINE
8
BLACK
6
CONTINUOUS
10
-1.7903713779527559
20
3.8741323228346456
11
-1.7890929527559054
21
3.8754107480314959
0
LINE
8
BLACK
6
CONTINUOUS
10
-1.7890929527559054
20
3.8754107480314959
11
-1.787285
21
3.8754107480314959
0
LINE
8
BLACK
6
CONTINUOUS
10
-1.787285
20
3.8754107480314959
11
-1.7860065748031495
21
3.8741323228346456
0
LINE
8
BLACK
6
CONTINUOUS
10
-1.7860065748031495
20
3.8741323228346456
11
-1.7858267716535432
21
3.8732283464566928
0
LINE
8
BLACK
6
CONTINUOUS
10
-1.7858267716535432
20
3.8732283464566928
11
-1.7858267716535432
21
3.7960629921259841
0
LINE
8
BLACK
6
CONTINUOUS
10
-1.7858267716535432
20
3.7960629921259841
11
-1.7860065748031495
21
3.7951590157480313
0
LINE
8
BLACK
6
CONTINUOUS
10
-1.7860065748031495
20
3.7951590157480313
11
-1.787285
21
3.793880590551181
0
LINE
8
BLACK
6
CONTINUOUS
10
-1.787285
20
3.793880590551181
11
-1.7881889763779528
21
3.7937007874015749
0
LINE
8
BLACK
6
CONTINUOUS
10
-1.7881889763779528
20
3.7937007874015749
11
-1.7891732283464568
21
3.7937007874015749
0
LINE
8
BLACK
6
CONTINUOUS
10
-1.7891732283464568
20
3.7937007874015749
11
-1.7891732283464568
21
3.7781102362204724
0
LINE
8
BLACK
6
CONTINUOUS
10
-1.7891732283464568
20
3.7781102362204724
11
-1.7892299606299211
21
3.7775341732283465
0
LINE
8
BLACK
6
CONTINUOUS
10
-1.7892299606299211
20
3.7775341732283465
11
-1.7896708661417322
21
3.7764697637795273
0
LINE
8
BLACK
6
CONTINUOUS
10
-1.7896708661417322
20
3.7764697637795273
11
-1.7904855118110237
21
3.7756551181102362
0
LINE
8
BLACK
6
CONTINUOUS
10
-1.7904855118110237
20
3.7756551181102362
11
-1.7915499212598425
21
3.7752142125984252
0
LINE
8
BLACK
6
CONTINUOUS
10
-1.7915499212598425
20
3.7752142125984252
11
-1.7927020472440944
21
3.7752142125984252
0
LINE
8
BLACK
6
CONTINUOUS
10
-1.7927020472440944
20
3.7752142125984252
11
-1.7937664566929132
21
3.7756551181102362
0
LINE
8
BLACK
6
CONTINUOUS
10
-1.7937664566929132
20
3.7756551181102362
11
-1.7945811023622047
21
3.7764697637795273
0
LINE
8
BLACK
6
CONTINUOUS
10
-1.7945811023622047
20
3.7764697637795273
11
-1.7950220078740158
21
3.7775341732283465
0
LINE
8
BLACK
6
CONTINUOUS
10
-1.7950220078740158
20
3.7775341732283465
11
-1.7950787401574804
21
3.7781102362204724
0
LINE
8
BLACK
6
CONTINUOUS
10
-1.7950787401574804
20
3.7781102362204724
11
-1.7950787401574804
21
3.7937007874015749
0
LINE
8
BLACK
6
CONTINUOUS
10
-1.7950787401574804
20
3.7937007874015749
11
-1.8354330708661417
21
3.7937007874015749
0
LINE
8
BLACK
6
CONTINUOUS
10
-1.8354330708661417
20
3.7937007874015749
11
-1.8363370472440945
21
3.793880590551181
0
LINE
8
BLACK
6
CONTINUOUS
10
-1.8363370472440945
20
3.793880590551181
11
-1.8376154724409448
21
3.7951590157480313
0
LINE
8
BLACK
6
CONTINUOUS
10
-1.8376154724409448
20
3.7951590157480313
11
-1.8377952755905511
21
3.7960629921259841
0
LINE
8
BLACK
6
CONTINUOUS
10
-1.8377952755905511
20
3.7960629921259841
11
-1.8377952755905511
21
3.8732283464566928
0
LINE
8
BLACK
6
CONTINUOUS
10
-1.8377952755905511
20
3.8732283464566928
11
-1.8376154724409448
21
3.8741323228346456
0
LINE
8
BLACK
6
CONTINUOUS
10
-1.8376154724409448
20
3.8741323228346456
11
-1.8363370472440945
21
3.8754107480314959
0
LINE
8
BLACK
6
CONTINUOUS
10
-1.8363370472440945
20
3.8754107480314959
11
-1.8345290944881889
21
3.8754107480314959
0
LINE
8
BLACK
6
CONTINUOUS
10
-1.8345290944881889
20
3.8754107480314959
11
-1.8332506692913386
21
3.8741323228346456
0
LINE
8
BLACK
6
CONTINUOUS
10
-1.7004804724409448
20
3.8599354724409447
11
-1.6996658267716536
21
3.8591208267716532
0
LINE
8
BLACK
6
CONTINUOUS
10
-1.6996658267716536
20
3.8591208267716532
11
-1.6992249212598425
21
3.8580564173228344
0
LINE
8
BLACK
6
CONTINUOUS
10
-1.6992249212598425
20
3.8580564173228344
11
-1.6991681889763779
21
3.8574803543307086
0
LINE
8
BLACK
6
CONTINUOUS
10
-1.6991681889763779
20
3.8574803543307086
11
-1.6991681889763779
21
3.8237345669291338
0
LINE
8
BLACK
6
CONTINUOUS
10
-1.6991681889763779
20
3.8237345669291338
11
-1.6992249212598425
21
3.823158503937008
0
LINE
8
BLACK
6
CONTINUOUS
10
-1.6992249212598425
20
3.823158503937008
11
-1.6996658267716536
21
3.8220940944881887
0
LINE
8
BLACK
6
CONTINUOUS
10
-1.6996658267716536
20
3.8220940944881887
11
-1.7004804724409448
21
3.8212794488188977
0
LINE
8
BLACK
6
CONTINUOUS
10
-1.7004804724409448
20
3.8212794488188977
11
-1.7015448818897638
21
3.8208385433070866
0
LINE
8
BLACK
6
CONTINUOUS
10
-1.7015448818897638
20
3.8208385433070866
11
-1.7026970078740158
21
3.8208385433070866
0
LINE
8
BLACK
6
CONTINUOUS
10
-1.7026970078740158
20
3.8208385433070866
11
-1.7037614173228346
21
3.8212794488188977
0
LINE
8
BLACK
6
CONTINUOUS
10
-1.7037614173228346
20
3.8212794488188977
11
-1.7045760629921261
21
3.8220940944881887
0
LINE
8
BLACK
6
CONTINUOUS
10
-1.7045760629921261
20
3.8220940944881887
11
-1.7050169685039369
21
3.823158503937008
0
LINE
8
BLACK
6
CONTINUOUS
10
-1.7050169685039369
20
3.823158503937008
11
-1.7050737007874015
21
3.8237345669291338
0
LINE
8
BLACK
6
CONTINUOUS
10
-1.7050737007874015
20
3.8237345669291338
11
-1.7050737007874015
21
3.8376546850393698
0
LINE
8
BLACK
6
CONTINUOUS
10
-1.7050737007874015
20
3.8376546850393698
11
-1.7514237401574804
21
3.8376546850393698
0
LINE
8
BLACK
6
CONTINUOUS
10
-1.7514237401574804
20
3.8376546850393698
11
-1.7511016929133858
21
3.83744
0
LINE
8
BLACK
6
CONTINUOUS
10
-1.7511016929133858
20
3.83744
11
-1.7511000393700786
21
3.8374386614173228
0
LINE
8
BLACK
6
CONTINUOUS
10
-1.7511000393700786
20
3.8374386614173228
11
-1.7510991338582678
21
3.8374382677165353
0
LINE
8
BLACK
6
CONTINUOUS
10
-1.7510991338582678
20
3.8374382677165353
11
-1.7508838582677164
21
3.8372615748031493
0
LINE
8
BLACK
6
CONTINUOUS
10
-1.7508838582677164
20
3.8372615748031493
11
-1.7506538582677165
21
3.8370732283464566
0
LINE
8
BLACK
6
CONTINUOUS
10
-1.7506538582677165
20
3.8370732283464566
11
-1.7506533070866142
21
3.8370724015748032
0
LINE
8
BLACK
6
CONTINUOUS
10
-1.7506533070866142
20
3.8370724015748032
11
-1.7506516929133857
21
3.8370710629921261
0
LINE
8
BLACK
6
CONTINUOUS
10
-1.7506516929133857
20
3.8370710629921261
11
-1.7450274015748031
21
3.8314467716535434
0
LINE
8
BLACK
6
CONTINUOUS
10
-1.7450274015748031
20
3.8314467716535434
11
-1.7448415748031496
21
3.8312203149606296
0
LINE
8
BLACK
6
CONTINUOUS
10
-1.7448415748031496
20
3.8312203149606296
11
-1.7447826771653543
21
3.8311692519685039
0
LINE
8
BLACK
6
CONTINUOUS
10
-1.7447826771653543
20
3.8311692519685039
11
-1.744726811023622
21
3.8310805118110234
0
LINE
8
BLACK
6
CONTINUOUS
10
-1.744726811023622
20
3.8310805118110234
11
-1.7446601968503936
21
3.8309993307086612
0
LINE
8
BLACK
6
CONTINUOUS
10
-1.7446601968503936
20
3.8309993307086612
11
-1.7446303543307087
21
3.8309272834645669
0
LINE
8
BLACK
6
CONTINUOUS
10
-1.7446303543307087
20
3.8309272834645669
11
-1.7444742913385827
21
3.83067937007874
0
LINE
8
BLACK
6
CONTINUOUS
10
-1.7444742913385827
20
3.83067937007874
11
-1.741662125984252
21
3.8250550787401574
0
LINE
8
BLACK
6
CONTINUOUS
10
-1.741662125984252
20
3.8250550787401574
11
-1.7414552362204725
21
3.8245144881889761
0
LINE
8
BLACK
6
CONTINUOUS
10
-1.7414552362204725
20
3.8245144881889761
11
-1.7413735826771652
21
3.8233652755905512
0
LINE
8
BLACK
6
CONTINUOUS
10
-1.7413735826771652
20
3.8233652755905512
11
-1.7417379133858268
21
3.8222722834645668
0
LINE
8
BLACK
6
CONTINUOUS
10
-1.7417379133858268
20
3.8222722834645668
11
-1.7424927559055117
21
3.8214019291338581
0
LINE
8
BLACK
6
CONTINUOUS
10
-1.7424927559055117
20
3.8214019291338581
11
-1.7435232677165353
21
3.8208866535433068
0
LINE
8
BLACK
6
CONTINUOUS
10
-1.7435232677165353
20
3.8208866535433068
11
-1.7446724803149607
21
3.820805
0
LINE
8
BLACK
6
CONTINUOUS
10
-1.7446724803149607
20
3.820805
11
-1.7457654330708661
21
3.8211693307086612
0
LINE
8
BLACK
6
CONTINUOUS
10
-1.7457654330708661
20
3.8211693307086612
11
-1.7466358267716535
21
3.8219241732283464
0
LINE
8
BLACK
6
CONTINUOUS
10
-1.7466358267716535
20
3.8219241732283464
11
-1.7469441732283464
21
3.8224140551181103
0
LINE
8
BLACK
6
CONTINUOUS
10
-1.7469441732283464
20
3.8224140551181103
11
-1.7495420472440943
21
3.8276097637795274
0
LINE
8
BLACK
6
CONTINUOUS
10
-1.7495420472440943
20
3.8276097637795274
11
-1.7546207874015747
21
3.8326885039370078
0
LINE
8
BLACK
6
CONTINUOUS
10
-1.7546207874015747
20
3.8326885039370078
11
-1.7628139370078739
21
3.838150590551181
0
LINE
8
BLACK
6
CONTINUOUS
10
-1.7628139370078739
20
3.838150590551181
11
-1.7628155905511811
21
3.8381519291338582
0
LINE
8
BLACK
6
CONTINUOUS
10
-1.7628155905511811
20
3.8381519291338582
11
-1.7628165354330709
21
3.8381523228346457
0
LINE
8
BLACK
6
CONTINUOUS
10
-1.7628165354330709
20
3.8381523228346457
11
-1.7628187401574802
21
3.838154527559055
0
LINE
8
BLACK
6
CONTINUOUS
10
-1.7628187401574802
20
3.838154527559055
11
-1.763261811023622
21
3.8385173622047244
0
LINE
8
BLACK
6
CONTINUOUS
10
-1.763261811023622
20
3.8385173622047244
11
-1.7634244881889762
21
3.838760275590551
0
LINE
8
BLACK
6
CONTINUOUS
10
-1.7634244881889762
20
3.838760275590551
11
-1.7636311811023622
21
3.8389669685039367
0
LINE
8
BLACK
6
CONTINUOUS
10
-1.7636311811023622
20
3.8389669685039367
11
-1.7637419291338583
21
3.8392342913385824
0
LINE
8
BLACK
6
CONTINUOUS
10
-1.7637419291338583
20
3.8392342913385824
11
-1.7639028740157481
21
3.8394746456692914
0
LINE
8
BLACK
6
CONTINUOUS
10
-1.7639028740157481
20
3.8394746456692914
11
-1.7639602362204725
21
3.8397612992125985
0
LINE
8
BLACK
6
CONTINUOUS
10
-1.7639602362204725
20
3.8397612992125985
11
-1.7640720866141733
21
3.840031377952756
0
LINE
8
BLACK
6
CONTINUOUS
10
-1.7640720866141733
20
3.840031377952756
11
-1.7640720866141733
21
3.8403207086614173
0
LINE
8
BLACK
6
CONTINUOUS
10
-1.7640720866141733
20
3.8403207086614173
11
-1.7641288188976378
21
3.8406043307086613
0
LINE
8
BLACK
6
CONTINUOUS
10
-1.7641288188976378
20
3.8406043307086613
11
-1.7640720866141733
21
3.8408911417322833
0
LINE
8
BLACK
6
CONTINUOUS
10
-1.7640720866141733
20
3.8408911417322833
11
-1.7640720866141733
21
3.8411835039370077
0
LINE
8
BLACK
6
CONTINUOUS
10
-1.7640720866141733
20
3.8411835039370077
11
-1.7639613779527559
21
3.8414507874015746
0
LINE
8
BLACK
6
CONTINUOUS
10
-1.7639613779527559
20
3.8414507874015746
11
-1.7639052362204724
21
3.8417345669291336
0
LINE
8
BLACK
6
CONTINUOUS
10
-1.7639052362204724
20
3.8417345669291336
11
-1.7637430708661417
21
3.841977834645669
0
LINE
8
BLACK
6
CONTINUOUS
10
-1.7637430708661417
20
3.841977834645669
11
-1.7636311811023622
21
3.8422479133858265
0
LINE
8
BLACK
6
CONTINUOUS
10
-1.7636311811023622
20
3.8422479133858265
11
-1.763426653543307
21
3.8424524803149605
0
LINE
8
BLACK
6
CONTINUOUS
10
-1.763426653543307
20
3.8424524803149605
11
-1.7632661417322835
21
3.8426931889763778
0
LINE
8
BLACK
6
CONTINUOUS
10
-1.7632661417322835
20
3.8426931889763778
11
-1.7630232677165354
21
3.8428558661417322
0
LINE
8
BLACK
6
CONTINUOUS
10
-1.7630232677165354
20
3.8428558661417322
11
-1.7628165354330709
21
3.843062559055118
0
LINE
8
BLACK
6
CONTINUOUS
10
-1.7628165354330709
20
3.843062559055118
11
-1.762549251968504
21
3.8431733070866141
0
LINE
8
BLACK
6
CONTINUOUS
10
-1.762549251968504
20
3.8431733070866141
11
-1.7623088582677164
21
3.8433342519685039
0
LINE
8
BLACK
6
CONTINUOUS
10
-1.7623088582677164
20
3.8433342519685039
11
-1.7620222440944882
21
3.8433916141732283
0
LINE
8
BLACK
6
CONTINUOUS
10
-1.7620222440944882
20
3.8433916141732283
11
-1.7617521259842519
21
3.843503464566929
0
LINE
8
BLACK
6
CONTINUOUS
10
-1.7617521259842519
20
3.843503464566929
11
-1.7611822047244095
21
3.8435596062992126
0
LINE
8
BLACK
6
CONTINUOUS
10
-1.7611822047244095
20
3.8435596062992126
11
-1.7611791732283464
21
3.8435601968503934
0
LINE
8
BLACK
6
CONTINUOUS
10
-1.7611791732283464
20
3.8435601968503934
11
-1.7611781496062993
21
3.8435600000000001
0
LINE
8
BLACK
6
CONTINUOUS
10
-1.7611781496062993
20
3.8435600000000001
11
-1.761176062992126
21
3.8435601968503934
0
LINE
8
BLACK
6
CONTINUOUS
10
-1.761176062992126
20
3.8435601968503934
11
-1.7050737007874015
21
3.8435601968503934
0
LINE
8
BLACK
6
CONTINUOUS
10
-1.7050737007874015
20
3.8435601968503934
11
-1.7050737007874015
21
3.8574803543307086
0
LINE
8
BLACK
6
CONTINUOUS
10
-1.7050737007874015
20
3.8574803543307086
11
-1.7050169685039369
21
3.8580564173228344
0
LINE
8
BLACK
6
CONTINUOUS
10
-1.7050169685039369
20
3.8580564173228344
11
-1.7045760629921261
21
3.8591208267716532
0
LINE
8
BLACK
6
CONTINUOUS
10
-1.7045760629921261
20
3.8591208267716532
11
-1.7037614173228346
21
3.8599354724409447
0
LINE
8
BLACK
6
CONTINUOUS
10
-1.7037614173228346
20
3.8599354724409447
11
-1.7026970078740158
21
3.8603763779527558
0
LINE
8
BLACK
6
CONTINUOUS
10
-1.7026970078740158
20
3.8603763779527558
11
-1.7015448818897638
21
3.8603763779527558
0
LINE
8
BLACK
6
CONTINUOUS
10
-1.7015448818897638
20
3.8603763779527558
11
-1.7004804724409448
21
3.8599354724409447
0
LINE
8
BLACK
6
CONTINUOUS
10
-1.8893451968503936
20
3.9588015354330706
11
-1.8882807874015748
21
3.9583606299212599
0
LINE
8
BLACK
6
CONTINUOUS
10
-1.8882807874015748
20
3.9583606299212599
11
-1.8874661417322833
21
3.9575459842519685
0
LINE
8
BLACK
6
CONTINUOUS
10
-1.8874661417322833
20
3.9575459842519685
11
-1.8870252362204725
21
3.9564815748031497
0
LINE
8
BLACK
6
CONTINUOUS
10
-1.8870252362204725
20
3.9564815748031497
11
-1.8870252362204725
21
3.9553294488188975
0
LINE
8
BLACK
6
CONTINUOUS
10
-1.8870252362204725
20
3.9553294488188975
11
-1.8874661417322833
21
3.9542650393700787
0
LINE
8
BLACK
6
CONTINUOUS
10
-1.8874661417322833
20
3.9542650393700787
11
-1.8882807874015748
21
3.9534503937007872
0
LINE
8
BLACK
6
CONTINUOUS
10
-1.8882807874015748
20
3.9534503937007872
11
-1.8893451968503936
21
3.9530094881889761
0
LINE
8
BLACK
6
CONTINUOUS
10
-1.8893451968503936
20
3.9530094881889761
11
-1.8899212598425197
21
3.9529527559055118
0
LINE
8
BLACK
6
CONTINUOUS
10
-1.8899212598425197
20
3.9529527559055118
11
-1.9699212598425195
21
3.9529527559055118
0
LINE
8
BLACK
6
CONTINUOUS
10
-1.9699212598425195
20
3.9529527559055118
11
-1.9704973228346456
21
3.9530094881889761
0
LINE
8
BLACK
6
CONTINUOUS
10
-1.9704973228346456
20
3.9530094881889761
11
-1.9715617322834644
21
3.9534503937007872
0
LINE
8
BLACK
6
CONTINUOUS
10
-1.9715617322834644
20
3.9534503937007872
11
-1.9723763779527559
21
3.9542650393700787
0
LINE
8
BLACK
6
CONTINUOUS
10
-1.9723763779527559
20
3.9542650393700787
11
-1.972817283464567
21
3.9553294488188975
0
LINE
8
BLACK
6
CONTINUOUS
10
-1.972817283464567
20
3.9553294488188975
11
-1.972817283464567
21
3.9564815748031497
0
LINE
8
BLACK
6
CONTINUOUS
10
-1.972817283464567
20
3.9564815748031497
11
-1.9723763779527559
21
3.9575459842519685
0
LINE
8
BLACK
6
CONTINUOUS
10
-1.9723763779527559
20
3.9575459842519685
11
-1.9715617322834644
21
3.9583606299212599
0
LINE
8
BLACK
6
CONTINUOUS
10
-1.9715617322834644
20
3.9583606299212599
11
-1.9704973228346456
21
3.9588015354330706
0
LINE
8
BLACK
6
CONTINUOUS
10
-1.9704973228346456
20
3.9588015354330706
11
-1.9699212598425195
21
3.9588582677165354
0
LINE
8
BLACK
6
CONTINUOUS
10
-1.9699212598425195
20
3.9588582677165354
11
-1.8899212598425197
21
3.9588582677165354
0
LINE
8
BLACK
6
CONTINUOUS
10
-1.8899212598425197
20
3.9588582677165354
11
-1.8893451968503936
21
3.9588015354330706
0
CIRCLE
8
BLACK
10
2.
20
0.4
40
0.0068897637795276
0
CIRCLE
8
BLACK
10
0.4
20
2.
40
0.0068897637795276
0
CIRCLE
8
BLACK
10
0.4
20
0.4
40
0.0068897637795276
0
CIRCLE
8
BLACK
10
-0.725236220472441
20
0.8675905511811023
40
0.0068897637795276
0
CIRCLE
8
BLACK
10
-0.625236220472441
20
0.8675905511811023
40
0.0068897637795276
0
CIRCLE
8
BLACK
10
-0.725236220472441
20
0.7675905511811023
40
0.0068897637795276
0
CIRCLE
8
BLACK
10
-0.625236220472441
20
0.7675905511811023
40
0.0068897637795276
0
CIRCLE
8
BLACK
10
-0.725236220472441
20
0.6675905511811023
40
0.0068897637795276
0
CIRCLE
8
BLACK
10
-0.625236220472441
20
0.6675905511811023
40
0.0068897637795276
0
CIRCLE
8
BLACK
10
-1.9299212598425197
20
3.8181102362204724
40
0.0068897637795276
0
CIRCLE
8
BLACK
10
-1.8299212598425196
20
3.9181102362204725
40
0.0068897637795276
0
CIRCLE
8
BLACK
10
-2.0299212598425198
20
3.9181102362204725
40
0.0068897637795276
0
CIRCLE
8
BLACK
10
-1.8299212598425196
20
3.7181102362204723
40
0.0068897637795276
0
CIRCLE
8
BLACK
10
-2.0299212598425198
20
3.7181102362204723
40
0.0068897637795276
0
CIRCLE
8
BLACK
10
2.
20
2.
40
0.0068897637795276
0
CIRCLE
8
BLACK
10
2.
20
0.4
40
0.0068897637795276
0
CIRCLE
8
BLACK
10
0.4
20
2.
40
0.0068897637795276
0
CIRCLE
8
BLACK
10
0.4
20
0.4
40
0.0068897637795276
0
CIRCLE
8
BLACK
10
-0.725236220472441
20
0.8675905511811023
40
0.0068897637795276
0
CIRCLE
8
BLACK
10
-0.625236220472441
20
0.8675905511811023
40
0.0068897637795276
0
CIRCLE
8
BLACK
10
-0.725236220472441
20
0.7675905511811023
40
0.0068897637795276
0
CIRCLE
8
BLACK
10
-0.625236220472441
20
0.7675905511811023
40
0.0068897637795276
0
CIRCLE
8
BLACK
10
-0.725236220472441
20
0.6675905511811023
40
0.0068897637795276
0
CIRCLE
8
BLACK
10
-0.625236220472441
20
0.6675905511811023
40
0.0068897637795276
0
CIRCLE
8
BLACK
10
-1.9299212598425197
20
3.8181102362204724
40
0.0068897637795276
0
CIRCLE
8
BLACK
10
-1.8299212598425196
20
3.9181102362204725
40
0.0068897637795276
0
CIRCLE
8
BLACK
10
-2.0299212598425198
20
3.9181102362204725
40
0.0068897637795276
0
CIRCLE
8
BLACK
10
-1.8299212598425196
20
3.7181102362204723
40
0.0068897637795276
0
CIRCLE
8
BLACK
10
-2.0299212598425198
20
3.7181102362204723
40
0.0068897637795276
0
CIRCLE
8
BLACK
10
2.
20
2.
40
0.0068897637795276
  0
ENDSEC
  0
EOF
