  0
SECTION
  2
HEADER
  9
$ANGBASE
  50
0.0
  9
$ANGDIR
  70
1
  9
$MEASUREMENT
  70
0
  0
ENDSEC
  0
SECTION
  2
TABLES
  0
TABLE
  2
LTYPE
  70
4
  0
LTYPE
  5
40F
  2
CONTINUOUS
  70
0
  3
Solid line
  72
65
  73
0
  40
0.0
  0
LTYPE
  5
410
  2
DASHDOT
 70
0
  3
Dash Dot ____ _ ____ _
 72
65
 73
4
 40
2.0
 49
1.25
 49
-0.25
 49
0.25
 49
-0.25
  0
LTYPE
  5
411
  2
DASHED
 70
0
  3
Dashed __ __ __ __ __
 72
65
 73
2
 40
0.75
 49
0.5
 49
-0.25
  0
LTYPE
  5
43B
  2
DOTTED
 70
0
  3
Dotted .  .  .  .
 72
65
 73
2
 40
0.2
 49
0.0
 49
-0.2
  0
ENDTAB
  0
TABLE
  2
STYLE
  70
4
  0
STYLE
  2
KICAD
  70
0
  40
0
  41
1
  42
1
  50
0
  71
0
  3
isocp.shx
  0
STYLE
  2
KICADB
  70
0
  40
0
  41
1
  42
1
  50
0
  71
0
  3
isocp.shx
  0
STYLE
  2
KICADI
  70
0
  40
0
  41
1
  42
1
  50
15
  71
0
  3
isocp.shx
  0
STYLE
  2
KICADBI
  70
0
  40
0
  41
1
  42
1
  50
15
  71
0
  3
isocp.shx
  0
ENDTAB
  0
TABLE
  2
LAYER
  70
1
  0
LAYER
  2
BLACK
  70
0
  62
7
  6
CONTINUOUS
  0
ENDTAB
  0
ENDSEC
  0
SECTION
  2
ENTITIES
0
LINE
8
BLACK
6
CONTINUOUS
10
0.674267716535433
20
0.5976850393700788
11
0.674267716535433
21
0.5583149606299213
0
LINE
8
BLACK
6
CONTINUOUS
10
0.674267716535433
20
0.5583149606299213
11
0.5837165354330709
21
0.5583149606299213
0
LINE
8
BLACK
6
CONTINUOUS
10
0.5837165354330709
20
0.5583149606299213
11
0.5443464566929134
21
0.5583149606299213
0
LINE
8
BLACK
6
CONTINUOUS
10
0.5443464566929134
20
0.5583149606299213
11
0.5443464566929134
21
0.5976850393700788
0
LINE
8
BLACK
6
CONTINUOUS
10
0.5443464566929134
20
0.5976850393700788
11
0.5443464566929134
21
0.6882362204724409
0
LINE
8
BLACK
6
CONTINUOUS
10
0.5443464566929134
20
0.6882362204724409
11
0.5837165354330709
21
0.6882362204724409
0
LINE
8
BLACK
6
CONTINUOUS
10
0.5837165354330709
20
0.6882362204724409
11
0.5837165354330709
21
0.5976850393700788
0
LINE
8
BLACK
6
CONTINUOUS
10
0.5837165354330709
20
0.5976850393700788
11
0.674267716535433
21
0.5976850393700788
0
LINE
8
BLACK
6
CONTINUOUS
10
0.910488188976378
20
0.5583149606299213
11
0.7608818897637795
21
0.5583149606299213
0
LINE
8
BLACK
6
CONTINUOUS
10
0.7608818897637795
20
0.5583149606299213
11
0.7608818897637795
21
0.5976850393700788
0
LINE
8
BLACK
6
CONTINUOUS
10
0.7608818897637795
20
0.5976850393700788
11
0.910488188976378
21
0.5976850393700788
0
LINE
8
BLACK
6
CONTINUOUS
10
0.910488188976378
20
0.5976850393700788
11
0.910488188976378
21
0.5583149606299213
0
LINE
8
BLACK
6
CONTINUOUS
10
1.1467086614173227
20
0.5583149606299213
11
0.9971023622047244
21
0.5583149606299213
0
LINE
8
BLACK
6
CONTINUOUS
10
0.9971023622047244
20
0.5583149606299213
11
0.9971023622047244
21
0.5976850393700788
0
LINE
8
BLACK
6
CONTINUOUS
10
0.9971023622047244
20
0.5976850393700788
11
1.1467086614173227
21
0.5976850393700788
0
LINE
8
BLACK
6
CONTINUOUS
10
1.1467086614173227
20
0.5976850393700788
11
1.1467086614173227
21
0.5583149606299213
0
LINE
8
BLACK
6
CONTINUOUS
10
1.3829291338582677
20
0.5583149606299213
11
1.2333228346456693
21
0.5583149606299213
0
LINE
8
BLACK
6
CONTINUOUS
10
1.2333228346456693
20
0.5583149606299213
11
1.2333228346456693
21
0.5976850393700788
0
LINE
8
BLACK
6
CONTINUOUS
10
1.2333228346456693
20
0.5976850393700788
11
1.3829291338582677
21
0.5976850393700788
0
LINE
8
BLACK
6
CONTINUOUS
10
1.3829291338582677
20
0.5976850393700788
11
1.3829291338582677
21
0.5583149606299213
0
LINE
8
BLACK
6
CONTINUOUS
10
1.6191496062992126
20
0.5583149606299213
11
1.4695433070866142
21
0.5583149606299213
0
LINE
8
BLACK
6
CONTINUOUS
10
1.4695433070866142
20
0.5583149606299213
11
1.4695433070866142
21
0.5976850393700788
0
LINE
8
BLACK
6
CONTINUOUS
10
1.4695433070866142
20
0.5976850393700788
11
1.6191496062992126
21
0.5976850393700788
0
LINE
8
BLACK
6
CONTINUOUS
10
1.6191496062992126
20
0.5976850393700788
11
1.6191496062992126
21
0.5583149606299213
0
LINE
8
BLACK
6
CONTINUOUS
10
1.7963149606299211
20
0.5976850393700788
11
1.7963149606299211
21
0.6882362204724409
0
LINE
8
BLACK
6
CONTINUOUS
10
1.7963149606299211
20
0.6882362204724409
11
1.8356850393700788
21
0.6882362204724409
0
LINE
8
BLACK
6
CONTINUOUS
10
1.8356850393700788
20
0.6882362204724409
11
1.8356850393700788
21
0.5976850393700788
0
LINE
8
BLACK
6
CONTINUOUS
10
1.8356850393700788
20
0.5976850393700788
11
1.8356850393700788
21
0.5583149606299213
0
LINE
8
BLACK
6
CONTINUOUS
10
1.8356850393700788
20
0.5583149606299213
11
1.7963149606299211
21
0.5583149606299213
0
LINE
8
BLACK
6
CONTINUOUS
10
1.7963149606299211
20
0.5583149606299213
11
1.7057637795275591
21
0.5583149606299213
0
LINE
8
BLACK
6
CONTINUOUS
10
1.7057637795275591
20
0.5583149606299213
11
1.7057637795275591
21
0.5976850393700788
0
LINE
8
BLACK
6
CONTINUOUS
10
1.7057637795275591
20
0.5976850393700788
11
1.7963149606299211
21
0.5976850393700788
0
LINE
8
BLACK
6
CONTINUOUS
10
-0.0974538976377953
20
0.7538492125984252
11
-0.0942607480314961
21
0.7517156299212598
0
LINE
8
BLACK
6
CONTINUOUS
10
-0.0942607480314961
20
0.7517156299212598
11
-0.0921271653543307
21
0.7485224803149606
0
LINE
8
BLACK
6
CONTINUOUS
10
-0.0921271653543307
20
0.7485224803149606
11
-0.0913779527559055
21
0.744755905511811
0
LINE
8
BLACK
6
CONTINUOUS
10
-0.0913779527559055
20
0.744755905511811
11
-0.0913779527559055
21
0.7073543307086614
0
LINE
8
BLACK
6
CONTINUOUS
10
-0.0913779527559055
20
0.7073543307086614
11
-0.0921271653543307
21
0.7035877559055118
0
LINE
8
BLACK
6
CONTINUOUS
10
-0.0921271653543307
20
0.7035877559055118
11
-0.0942607480314961
21
0.7003946062992126
0
LINE
8
BLACK
6
CONTINUOUS
10
-0.0942607480314961
20
0.7003946062992126
11
-0.0974538976377953
21
0.6982610236220472
0
LINE
8
BLACK
6
CONTINUOUS
10
-0.0974538976377953
20
0.6982610236220472
11
-0.1012204724409449
21
0.697511811023622
0
LINE
8
BLACK
6
CONTINUOUS
10
-0.1012204724409449
20
0.697511811023622
11
-0.1209055118110236
21
0.697511811023622
0
LINE
8
BLACK
6
CONTINUOUS
10
-0.1209055118110236
20
0.697511811023622
11
-0.1246720866141732
21
0.6982610236220472
0
LINE
8
BLACK
6
CONTINUOUS
10
-0.1246720866141732
20
0.6982610236220472
11
-0.1278652362204724
21
0.7003946062992126
0
LINE
8
BLACK
6
CONTINUOUS
10
-0.1278652362204724
20
0.7003946062992126
11
-0.1299988188976378
21
0.7035877559055118
0
LINE
8
BLACK
6
CONTINUOUS
10
-0.1299988188976378
20
0.7035877559055118
11
-0.130748031496063
21
0.7073543307086614
0
LINE
8
BLACK
6
CONTINUOUS
10
-0.130748031496063
20
0.7073543307086614
11
-0.130748031496063
21
0.744755905511811
0
LINE
8
BLACK
6
CONTINUOUS
10
-0.130748031496063
20
0.744755905511811
11
-0.1299988188976378
21
0.7485224803149606
0
LINE
8
BLACK
6
CONTINUOUS
10
-0.1299988188976378
20
0.7485224803149606
11
-0.1278652362204724
21
0.7517156299212598
0
LINE
8
BLACK
6
CONTINUOUS
10
-0.1278652362204724
20
0.7517156299212598
11
-0.1246720866141732
21
0.7538492125984252
0
LINE
8
BLACK
6
CONTINUOUS
10
-0.1246720866141732
20
0.7538492125984252
11
-0.1209055118110236
21
0.7545984251968504
0
LINE
8
BLACK
6
CONTINUOUS
10
-0.1209055118110236
20
0.7545984251968504
11
-0.1012204724409449
21
0.7545984251968504
0
LINE
8
BLACK
6
CONTINUOUS
10
-0.1012204724409449
20
0.7545984251968504
11
-0.0974538976377953
21
0.7538492125984252
0
LINE
8
BLACK
6
CONTINUOUS
10
-0.0226507480314961
20
0.7538492125984252
11
-0.0194575984251968
21
0.7517156299212598
0
LINE
8
BLACK
6
CONTINUOUS
10
-0.0194575984251968
20
0.7517156299212598
11
-0.0173240157480315
21
0.7485224803149606
0
LINE
8
BLACK
6
CONTINUOUS
10
-0.0173240157480315
20
0.7485224803149606
11
-0.0165748031496063
21
0.744755905511811
0
LINE
8
BLACK
6
CONTINUOUS
10
-0.0165748031496063
20
0.744755905511811
11
-0.0165748031496063
21
0.7073543307086614
0
LINE
8
BLACK
6
CONTINUOUS
10
-0.0165748031496063
20
0.7073543307086614
11
-0.0173240157480315
21
0.7035877559055118
0
LINE
8
BLACK
6
CONTINUOUS
10
-0.0173240157480315
20
0.7035877559055118
11
-0.0194575984251968
21
0.7003946062992126
0
LINE
8
BLACK
6
CONTINUOUS
10
-0.0194575984251968
20
0.7003946062992126
11
-0.0226507480314961
21
0.6982610236220472
0
LINE
8
BLACK
6
CONTINUOUS
10
-0.0226507480314961
20
0.6982610236220472
11
-0.0264173228346457
21
0.697511811023622
0
LINE
8
BLACK
6
CONTINUOUS
10
-0.0264173228346457
20
0.697511811023622
11
-0.0461023622047244
21
0.697511811023622
0
LINE
8
BLACK
6
CONTINUOUS
10
-0.0461023622047244
20
0.697511811023622
11
-0.049868937007874
21
0.6982610236220472
0
LINE
8
BLACK
6
CONTINUOUS
10
-0.049868937007874
20
0.6982610236220472
11
-0.0530620866141732
21
0.7003946062992126
0
LINE
8
BLACK
6
CONTINUOUS
10
-0.0530620866141732
20
0.7003946062992126
11
-0.0551956692913386
21
0.7035877559055118
0
LINE
8
BLACK
6
CONTINUOUS
10
-0.0551956692913386
20
0.7035877559055118
11
-0.0559448818897638
21
0.7073543307086614
0
LINE
8
BLACK
6
CONTINUOUS
10
-0.0559448818897638
20
0.7073543307086614
11
-0.0559448818897638
21
0.744755905511811
0
LINE
8
BLACK
6
CONTINUOUS
10
-0.0559448818897638
20
0.744755905511811
11
-0.0551956692913386
21
0.7485224803149606
0
LINE
8
BLACK
6
CONTINUOUS
10
-0.0551956692913386
20
0.7485224803149606
11
-0.0530620866141732
21
0.7517156299212598
0
LINE
8
BLACK
6
CONTINUOUS
10
-0.0530620866141732
20
0.7517156299212598
11
-0.049868937007874
21
0.7538492125984252
0
LINE
8
BLACK
6
CONTINUOUS
10
-0.049868937007874
20
0.7538492125984252
11
-0.0461023622047244
21
0.7545984251968504
0
LINE
8
BLACK
6
CONTINUOUS
10
-0.0461023622047244
20
0.7545984251968504
11
-0.0264173228346457
21
0.7545984251968504
0
LINE
8
BLACK
6
CONTINUOUS
10
-0.0264173228346457
20
0.7545984251968504
11
-0.0226507480314961
21
0.7538492125984252
0
LINE
8
BLACK
6
CONTINUOUS
10
-0.3354460236220472
20
0.7652665354330709
11
-0.332252874015748
21
0.7631329527559055
0
LINE
8
BLACK
6
CONTINUOUS
10
-0.332252874015748
20
0.7631329527559055
11
-0.3301192913385826
21
0.7599398031496063
0
LINE
8
BLACK
6
CONTINUOUS
10
-0.3301192913385826
20
0.7599398031496063
11
-0.3293700787401574
21
0.7561732283464567
0
LINE
8
BLACK
6
CONTINUOUS
10
-0.3293700787401574
20
0.7561732283464567
11
-0.3293700787401574
21
0.7089291338582677
0
LINE
8
BLACK
6
CONTINUOUS
10
-0.3293700787401574
20
0.7089291338582677
11
-0.3301192913385826
21
0.705162559055118
0
LINE
8
BLACK
6
CONTINUOUS
10
-0.3301192913385826
20
0.705162559055118
11
-0.332252874015748
21
0.7019694094488189
0
LINE
8
BLACK
6
CONTINUOUS
10
-0.332252874015748
20
0.7019694094488189
11
-0.3354460236220472
21
0.6998358267716536
0
LINE
8
BLACK
6
CONTINUOUS
10
-0.3354460236220472
20
0.6998358267716536
11
-0.3392125984251969
21
0.6990866141732284
0
LINE
8
BLACK
6
CONTINUOUS
10
-0.3392125984251969
20
0.6990866141732284
11
-0.3707086614173228
21
0.6990866141732284
0
LINE
8
BLACK
6
CONTINUOUS
10
-0.3707086614173228
20
0.6990866141732284
11
-0.3744752362204724
21
0.6998358267716536
0
LINE
8
BLACK
6
CONTINUOUS
10
-0.3744752362204724
20
0.6998358267716536
11
-0.3776683858267716
21
0.7019694094488189
0
LINE
8
BLACK
6
CONTINUOUS
10
-0.3776683858267716
20
0.7019694094488189
11
-0.379801968503937
21
0.705162559055118
0
LINE
8
BLACK
6
CONTINUOUS
10
-0.379801968503937
20
0.705162559055118
11
-0.3805511811023622
21
0.7089291338582677
0
LINE
8
BLACK
6
CONTINUOUS
10
-0.3805511811023622
20
0.7089291338582677
11
-0.3805511811023622
21
0.7561732283464567
0
LINE
8
BLACK
6
CONTINUOUS
10
-0.3805511811023622
20
0.7561732283464567
11
-0.379801968503937
21
0.7599398031496063
0
LINE
8
BLACK
6
CONTINUOUS
10
-0.379801968503937
20
0.7599398031496063
11
-0.3776683858267716
21
0.7631329527559055
0
LINE
8
BLACK
6
CONTINUOUS
10
-0.3776683858267716
20
0.7631329527559055
11
-0.3744752362204724
21
0.7652665354330709
0
LINE
8
BLACK
6
CONTINUOUS
10
-0.3744752362204724
20
0.7652665354330709
11
-0.3707086614173228
21
0.7660157480314961
0
LINE
8
BLACK
6
CONTINUOUS
10
-0.3707086614173228
20
0.7660157480314961
11
-0.3392125984251969
21
0.7660157480314961
0
LINE
8
BLACK
6
CONTINUOUS
10
-0.3392125984251969
20
0.7660157480314961
11
-0.3354460236220472
21
0.7652665354330709
0
LINE
8
BLACK
6
CONTINUOUS
10
-0.1976507480314961
20
0.7652665354330709
11
-0.1944575984251969
21
0.7631329527559055
0
LINE
8
BLACK
6
CONTINUOUS
10
-0.1944575984251969
20
0.7631329527559055
11
-0.1923240157480315
21
0.7599398031496063
0
LINE
8
BLACK
6
CONTINUOUS
10
-0.1923240157480315
20
0.7599398031496063
11
-0.1915748031496063
21
0.7561732283464567
0
LINE
8
BLACK
6
CONTINUOUS
10
-0.1915748031496063
20
0.7561732283464567
11
-0.1915748031496063
21
0.7089291338582677
0
LINE
8
BLACK
6
CONTINUOUS
10
-0.1915748031496063
20
0.7089291338582677
11
-0.1923240157480315
21
0.705162559055118
0
LINE
8
BLACK
6
CONTINUOUS
10
-0.1923240157480315
20
0.705162559055118
11
-0.1944575984251969
21
0.7019694094488189
0
LINE
8
BLACK
6
CONTINUOUS
10
-0.1944575984251969
20
0.7019694094488189
11
-0.1976507480314961
21
0.6998358267716536
0
LINE
8
BLACK
6
CONTINUOUS
10
-0.1976507480314961
20
0.6998358267716536
11
-0.2014173228346457
21
0.6990866141732284
0
LINE
8
BLACK
6
CONTINUOUS
10
-0.2014173228346457
20
0.6990866141732284
11
-0.2329133858267717
21
0.6990866141732284
0
LINE
8
BLACK
6
CONTINUOUS
10
-0.2329133858267717
20
0.6990866141732284
11
-0.2366799606299212
21
0.6998358267716536
0
LINE
8
BLACK
6
CONTINUOUS
10
-0.2366799606299212
20
0.6998358267716536
11
-0.2398731102362205
21
0.7019694094488189
0
LINE
8
BLACK
6
CONTINUOUS
10
-0.2398731102362205
20
0.7019694094488189
11
-0.2420066929133858
21
0.705162559055118
0
LINE
8
BLACK
6
CONTINUOUS
10
-0.2420066929133858
20
0.705162559055118
11
-0.242755905511811
21
0.7089291338582677
0
LINE
8
BLACK
6
CONTINUOUS
10
-0.242755905511811
20
0.7089291338582677
11
-0.242755905511811
21
0.7561732283464567
0
LINE
8
BLACK
6
CONTINUOUS
10
-0.242755905511811
20
0.7561732283464567
11
-0.2420066929133858
21
0.7599398031496063
0
LINE
8
BLACK
6
CONTINUOUS
10
-0.2420066929133858
20
0.7599398031496063
11
-0.2398731102362205
21
0.7631329527559055
0
LINE
8
BLACK
6
CONTINUOUS
10
-0.2398731102362205
20
0.7631329527559055
11
-0.2366799606299212
21
0.7652665354330709
0
LINE
8
BLACK
6
CONTINUOUS
10
-0.2366799606299212
20
0.7652665354330709
11
-0.2329133858267717
21
0.7660157480314961
0
LINE
8
BLACK
6
CONTINUOUS
10
-0.2329133858267717
20
0.7660157480314961
11
-0.2014173228346457
21
0.7660157480314961
0
LINE
8
BLACK
6
CONTINUOUS
10
-0.2014173228346457
20
0.7660157480314961
11
-0.1976507480314961
21
0.7652665354330709
0
LINE
8
BLACK
6
CONTINUOUS
10
0.5837165354330709
20
0.7748503937007873
11
0.5443464566929134
21
0.7748503937007873
0
LINE
8
BLACK
6
CONTINUOUS
10
0.5443464566929134
20
0.7748503937007873
11
0.5443464566929134
21
0.9244566929133858
0
LINE
8
BLACK
6
CONTINUOUS
10
0.5443464566929134
20
0.9244566929133858
11
0.5837165354330709
21
0.9244566929133858
0
LINE
8
BLACK
6
CONTINUOUS
10
0.5837165354330709
20
0.9244566929133858
11
0.5837165354330709
21
0.7748503937007873
0
LINE
8
BLACK
6
CONTINUOUS
10
1.8356850393700788
20
0.7748503937007873
11
1.7963149606299211
21
0.7748503937007873
0
LINE
8
BLACK
6
CONTINUOUS
10
1.7963149606299211
20
0.7748503937007873
11
1.7963149606299211
21
0.9244566929133858
0
LINE
8
BLACK
6
CONTINUOUS
10
1.7963149606299211
20
0.9244566929133858
11
1.8356850393700788
21
0.9244566929133858
0
LINE
8
BLACK
6
CONTINUOUS
10
1.8356850393700788
20
0.9244566929133858
11
1.8356850393700788
21
0.7748503937007873
0
LINE
8
BLACK
6
CONTINUOUS
10
-0.0974538976377953
20
0.8723531496062992
11
-0.0942607480314961
21
0.8702195669291338
0
LINE
8
BLACK
6
CONTINUOUS
10
-0.0942607480314961
20
0.8702195669291338
11
-0.0921271653543307
21
0.8670264173228346
0
LINE
8
BLACK
6
CONTINUOUS
10
-0.0921271653543307
20
0.8670264173228346
11
-0.0913779527559055
21
0.863259842519685
0
LINE
8
BLACK
6
CONTINUOUS
10
-0.0913779527559055
20
0.863259842519685
11
-0.0913779527559055
21
0.8258582677165354
0
LINE
8
BLACK
6
CONTINUOUS
10
-0.0913779527559055
20
0.8258582677165354
11
-0.0921271653543307
21
0.8220916929133858
0
LINE
8
BLACK
6
CONTINUOUS
10
-0.0921271653543307
20
0.8220916929133858
11
-0.0942607480314961
21
0.8188985433070866
0
LINE
8
BLACK
6
CONTINUOUS
10
-0.0942607480314961
20
0.8188985433070866
11
-0.0974538976377953
21
0.8167649606299212
0
LINE
8
BLACK
6
CONTINUOUS
10
-0.0974538976377953
20
0.8167649606299212
11
-0.1012204724409449
21
0.816015748031496
0
LINE
8
BLACK
6
CONTINUOUS
10
-0.1012204724409449
20
0.816015748031496
11
-0.1209055118110236
21
0.816015748031496
0
LINE
8
BLACK
6
CONTINUOUS
10
-0.1209055118110236
20
0.816015748031496
11
-0.1246720866141732
21
0.8167649606299212
0
LINE
8
BLACK
6
CONTINUOUS
10
-0.1246720866141732
20
0.8167649606299212
11
-0.1278652362204724
21
0.8188985433070866
0
LINE
8
BLACK
6
CONTINUOUS
10
-0.1278652362204724
20
0.8188985433070866
11
-0.1299988188976378
21
0.8220916929133858
0
LINE
8
BLACK
6
CONTINUOUS
10
-0.1299988188976378
20
0.8220916929133858
11
-0.130748031496063
21
0.8258582677165354
0
LINE
8
BLACK
6
CONTINUOUS
10
-0.130748031496063
20
0.8258582677165354
11
-0.130748031496063
21
0.863259842519685
0
LINE
8
BLACK
6
CONTINUOUS
10
-0.130748031496063
20
0.863259842519685
11
-0.1299988188976378
21
0.8670264173228346
0
LINE
8
BLACK
6
CONTINUOUS
10
-0.1299988188976378
20
0.8670264173228346
11
-0.1278652362204724
21
0.8702195669291338
0
LINE
8
BLACK
6
CONTINUOUS
10
-0.1278652362204724
20
0.8702195669291338
11
-0.1246720866141732
21
0.8723531496062992
0
LINE
8
BLACK
6
CONTINUOUS
10
-0.1246720866141732
20
0.8723531496062992
11
-0.1209055118110236
21
0.8731023622047244
0
LINE
8
BLACK
6
CONTINUOUS
10
-0.1209055118110236
20
0.8731023622047244
11
-0.1012204724409449
21
0.8731023622047244
0
LINE
8
BLACK
6
CONTINUOUS
10
-0.1012204724409449
20
0.8731023622047244
11
-0.0974538976377953
21
0.8723531496062992
0
LINE
8
BLACK
6
CONTINUOUS
10
-0.0226507480314961
20
0.8723531496062992
11
-0.0194575984251968
21
0.8702195669291338
0
LINE
8
BLACK
6
CONTINUOUS
10
-0.0194575984251968
20
0.8702195669291338
11
-0.0173240157480315
21
0.8670264173228346
0
LINE
8
BLACK
6
CONTINUOUS
10
-0.0173240157480315
20
0.8670264173228346
11
-0.0165748031496063
21
0.863259842519685
0
LINE
8
BLACK
6
CONTINUOUS
10
-0.0165748031496063
20
0.863259842519685
11
-0.0165748031496063
21
0.8258582677165354
0
LINE
8
BLACK
6
CONTINUOUS
10
-0.0165748031496063
20
0.8258582677165354
11
-0.0173240157480315
21
0.8220916929133858
0
LINE
8
BLACK
6
CONTINUOUS
10
-0.0173240157480315
20
0.8220916929133858
11
-0.0194575984251968
21
0.8188985433070866
0
LINE
8
BLACK
6
CONTINUOUS
10
-0.0194575984251968
20
0.8188985433070866
11
-0.0226507480314961
21
0.8167649606299212
0
LINE
8
BLACK
6
CONTINUOUS
10
-0.0226507480314961
20
0.8167649606299212
11
-0.0264173228346457
21
0.816015748031496
0
LINE
8
BLACK
6
CONTINUOUS
10
-0.0264173228346457
20
0.816015748031496
11
-0.0461023622047244
21
0.816015748031496
0
LINE
8
BLACK
6
CONTINUOUS
10
-0.0461023622047244
20
0.816015748031496
11
-0.049868937007874
21
0.8167649606299212
0
LINE
8
BLACK
6
CONTINUOUS
10
-0.049868937007874
20
0.8167649606299212
11
-0.0530620866141732
21
0.8188985433070866
0
LINE
8
BLACK
6
CONTINUOUS
10
-0.0530620866141732
20
0.8188985433070866
11
-0.0551956692913386
21
0.8220916929133858
0
LINE
8
BLACK
6
CONTINUOUS
10
-0.0551956692913386
20
0.8220916929133858
11
-0.0559448818897638
21
0.8258582677165354
0
LINE
8
BLACK
6
CONTINUOUS
10
-0.0559448818897638
20
0.8258582677165354
11
-0.0559448818897638
21
0.863259842519685
0
LINE
8
BLACK
6
CONTINUOUS
10
-0.0559448818897638
20
0.863259842519685
11
-0.0551956692913386
21
0.8670264173228346
0
LINE
8
BLACK
6
CONTINUOUS
10
-0.0551956692913386
20
0.8670264173228346
11
-0.0530620866141732
21
0.8702195669291338
0
LINE
8
BLACK
6
CONTINUOUS
10
-0.0530620866141732
20
0.8702195669291338
11
-0.049868937007874
21
0.8723531496062992
0
LINE
8
BLACK
6
CONTINUOUS
10
-0.049868937007874
20
0.8723531496062992
11
-0.0461023622047244
21
0.8731023622047244
0
LINE
8
BLACK
6
CONTINUOUS
10
-0.0461023622047244
20
0.8731023622047244
11
-0.0264173228346457
21
0.8731023622047244
0
LINE
8
BLACK
6
CONTINUOUS
10
-0.0264173228346457
20
0.8731023622047244
11
-0.0226507480314961
21
0.8723531496062992
0
LINE
8
BLACK
6
CONTINUOUS
10
0.5837165354330709
20
1.0110708661417322
11
0.5443464566929134
21
1.0110708661417322
0
LINE
8
BLACK
6
CONTINUOUS
10
0.5443464566929134
20
1.0110708661417322
11
0.5443464566929134
21
1.1606771653543306
0
LINE
8
BLACK
6
CONTINUOUS
10
0.5443464566929134
20
1.1606771653543306
11
0.5837165354330709
21
1.1606771653543306
0
LINE
8
BLACK
6
CONTINUOUS
10
0.5837165354330709
20
1.1606771653543306
11
0.5837165354330709
21
1.0110708661417322
0
LINE
8
BLACK
6
CONTINUOUS
10
1.8356850393700788
20
1.0110708661417322
11
1.7963149606299211
21
1.0110708661417322
0
LINE
8
BLACK
6
CONTINUOUS
10
1.7963149606299211
20
1.0110708661417322
11
1.7963149606299211
21
1.1606771653543306
0
LINE
8
BLACK
6
CONTINUOUS
10
1.7963149606299211
20
1.1606771653543306
11
1.8356850393700788
21
1.1606771653543306
0
LINE
8
BLACK
6
CONTINUOUS
10
1.8356850393700788
20
1.1606771653543306
11
1.8356850393700788
21
1.0110708661417322
0
LINE
8
BLACK
6
CONTINUOUS
10
0.5837165354330709
20
1.2472913385826772
11
0.5443464566929134
21
1.2472913385826772
0
LINE
8
BLACK
6
CONTINUOUS
10
0.5443464566929134
20
1.2472913385826772
11
0.5443464566929134
21
1.3968976377952755
0
LINE
8
BLACK
6
CONTINUOUS
10
0.5443464566929134
20
1.3968976377952755
11
0.5837165354330709
21
1.3968976377952755
0
LINE
8
BLACK
6
CONTINUOUS
10
0.5837165354330709
20
1.3968976377952755
11
0.5837165354330709
21
1.2472913385826772
0
LINE
8
BLACK
6
CONTINUOUS
10
1.8356850393700788
20
1.2472913385826772
11
1.7963149606299211
21
1.2472913385826772
0
LINE
8
BLACK
6
CONTINUOUS
10
1.7963149606299211
20
1.2472913385826772
11
1.7963149606299211
21
1.3968976377952755
0
LINE
8
BLACK
6
CONTINUOUS
10
1.7963149606299211
20
1.3968976377952755
11
1.8356850393700788
21
1.3968976377952755
0
LINE
8
BLACK
6
CONTINUOUS
10
1.8356850393700788
20
1.3968976377952755
11
1.8356850393700788
21
1.2472913385826772
0
LINE
8
BLACK
6
CONTINUOUS
10
0.5837165354330709
20
1.4835118110236221
11
0.5443464566929134
21
1.4835118110236221
0
LINE
8
BLACK
6
CONTINUOUS
10
0.5443464566929134
20
1.4835118110236221
11
0.5443464566929134
21
1.6331181102362204
0
LINE
8
BLACK
6
CONTINUOUS
10
0.5443464566929134
20
1.6331181102362204
11
0.5837165354330709
21
1.6331181102362204
0
LINE
8
BLACK
6
CONTINUOUS
10
0.5837165354330709
20
1.6331181102362204
11
0.5837165354330709
21
1.4835118110236221
0
LINE
8
BLACK
6
CONTINUOUS
10
1.8356850393700788
20
1.4835118110236221
11
1.7963149606299211
21
1.4835118110236221
0
LINE
8
BLACK
6
CONTINUOUS
10
1.7963149606299211
20
1.4835118110236221
11
1.7963149606299211
21
1.6331181102362204
0
LINE
8
BLACK
6
CONTINUOUS
10
1.7963149606299211
20
1.6331181102362204
11
1.8356850393700788
21
1.6331181102362204
0
LINE
8
BLACK
6
CONTINUOUS
10
1.8356850393700788
20
1.6331181102362204
11
1.8356850393700788
21
1.4835118110236221
0
LINE
8
BLACK
6
CONTINUOUS
10
0.5837165354330709
20
1.719732283464567
11
0.5443464566929134
21
1.719732283464567
0
LINE
8
BLACK
6
CONTINUOUS
10
0.5443464566929134
20
1.719732283464567
11
0.5443464566929134
21
1.810283464566929
0
LINE
8
BLACK
6
CONTINUOUS
10
0.5443464566929134
20
1.810283464566929
11
0.5443464566929134
21
1.8496535433070866
0
LINE
8
BLACK
6
CONTINUOUS
10
0.5443464566929134
20
1.8496535433070866
11
0.5837165354330709
21
1.8496535433070866
0
LINE
8
BLACK
6
CONTINUOUS
10
0.5837165354330709
20
1.8496535433070866
11
0.674267716535433
21
1.8496535433070866
0
LINE
8
BLACK
6
CONTINUOUS
10
0.674267716535433
20
1.8496535433070866
11
0.674267716535433
21
1.810283464566929
0
LINE
8
BLACK
6
CONTINUOUS
10
0.674267716535433
20
1.810283464566929
11
0.5837165354330709
21
1.810283464566929
0
LINE
8
BLACK
6
CONTINUOUS
10
0.5837165354330709
20
1.810283464566929
11
0.5837165354330709
21
1.719732283464567
0
LINE
8
BLACK
6
CONTINUOUS
10
1.8356850393700788
20
1.719732283464567
11
1.7963149606299211
21
1.719732283464567
0
LINE
8
BLACK
6
CONTINUOUS
10
1.7963149606299211
20
1.719732283464567
11
1.7963149606299211
21
1.810283464566929
0
LINE
8
BLACK
6
CONTINUOUS
10
1.7963149606299211
20
1.810283464566929
11
1.7057637795275591
21
1.810283464566929
0
LINE
8
BLACK
6
CONTINUOUS
10
1.7057637795275591
20
1.810283464566929
11
1.7057637795275591
21
1.8496535433070866
0
LINE
8
BLACK
6
CONTINUOUS
10
1.7057637795275591
20
1.8496535433070866
11
1.7963149606299211
21
1.8496535433070866
0
LINE
8
BLACK
6
CONTINUOUS
10
1.7963149606299211
20
1.8496535433070866
11
1.8356850393700788
21
1.8496535433070866
0
LINE
8
BLACK
6
CONTINUOUS
10
1.8356850393700788
20
1.8496535433070866
11
1.8356850393700788
21
1.810283464566929
0
LINE
8
BLACK
6
CONTINUOUS
10
1.8356850393700788
20
1.810283464566929
11
1.8356850393700788
21
1.719732283464567
0
LINE
8
BLACK
6
CONTINUOUS
10
0.910488188976378
20
1.810283464566929
11
0.7608818897637795
21
1.810283464566929
0
LINE
8
BLACK
6
CONTINUOUS
10
0.7608818897637795
20
1.810283464566929
11
0.7608818897637795
21
1.8496535433070866
0
LINE
8
BLACK
6
CONTINUOUS
10
0.7608818897637795
20
1.8496535433070866
11
0.910488188976378
21
1.8496535433070866
0
LINE
8
BLACK
6
CONTINUOUS
10
0.910488188976378
20
1.8496535433070866
11
0.910488188976378
21
1.810283464566929
0
LINE
8
BLACK
6
CONTINUOUS
10
1.1467086614173227
20
1.810283464566929
11
0.9971023622047244
21
1.810283464566929
0
LINE
8
BLACK
6
CONTINUOUS
10
0.9971023622047244
20
1.810283464566929
11
0.9971023622047244
21
1.8496535433070866
0
LINE
8
BLACK
6
CONTINUOUS
10
0.9971023622047244
20
1.8496535433070866
11
1.1467086614173227
21
1.8496535433070866
0
LINE
8
BLACK
6
CONTINUOUS
10
1.1467086614173227
20
1.8496535433070866
11
1.1467086614173227
21
1.810283464566929
0
LINE
8
BLACK
6
CONTINUOUS
10
1.3829291338582677
20
1.810283464566929
11
1.2333228346456693
21
1.810283464566929
0
LINE
8
BLACK
6
CONTINUOUS
10
1.2333228346456693
20
1.810283464566929
11
1.2333228346456693
21
1.8496535433070866
0
LINE
8
BLACK
6
CONTINUOUS
10
1.2333228346456693
20
1.8496535433070866
11
1.3829291338582677
21
1.8496535433070866
0
LINE
8
BLACK
6
CONTINUOUS
10
1.3829291338582677
20
1.8496535433070866
11
1.3829291338582677
21
1.810283464566929
0
LINE
8
BLACK
6
CONTINUOUS
10
1.6191496062992126
20
1.810283464566929
11
1.4695433070866142
21
1.810283464566929
0
LINE
8
BLACK
6
CONTINUOUS
10
1.4695433070866142
20
1.810283464566929
11
1.4695433070866142
21
1.8496535433070866
0
LINE
8
BLACK
6
CONTINUOUS
10
1.4695433070866142
20
1.8496535433070866
11
1.6191496062992126
21
1.8496535433070866
0
LINE
8
BLACK
6
CONTINUOUS
10
1.6191496062992126
20
1.8496535433070866
11
1.6191496062992126
21
1.810283464566929
0
CIRCLE
8
BLACK
10
2.
20
0.4
40
0.0068897637795276
0
CIRCLE
8
BLACK
10
0.4
20
2.
40
0.0068897637795276
0
CIRCLE
8
BLACK
10
0.4
20
0.4
40
0.0068897637795276
0
CIRCLE
8
BLACK
10
-0.725236220472441
20
0.8675905511811023
40
0.0068897637795276
0
CIRCLE
8
BLACK
10
-0.625236220472441
20
0.8675905511811023
40
0.0068897637795276
0
CIRCLE
8
BLACK
10
-0.725236220472441
20
0.7675905511811023
40
0.0068897637795276
0
CIRCLE
8
BLACK
10
-0.625236220472441
20
0.7675905511811023
40
0.0068897637795276
0
CIRCLE
8
BLACK
10
-0.725236220472441
20
0.6675905511811023
40
0.0068897637795276
0
CIRCLE
8
BLACK
10
-0.625236220472441
20
0.6675905511811023
40
0.0068897637795276
0
CIRCLE
8
BLACK
10
-1.9299212598425197
20
3.8181102362204724
40
0.0068897637795276
0
CIRCLE
8
BLACK
10
-1.8299212598425196
20
3.9181102362204725
40
0.0068897637795276
0
CIRCLE
8
BLACK
10
-2.0299212598425198
20
3.9181102362204725
40
0.0068897637795276
0
CIRCLE
8
BLACK
10
-1.8299212598425196
20
3.7181102362204723
40
0.0068897637795276
0
CIRCLE
8
BLACK
10
-2.0299212598425198
20
3.7181102362204723
40
0.0068897637795276
0
CIRCLE
8
BLACK
10
2.
20
2.
40
0.0068897637795276
  0
ENDSEC
  0
EOF
