  0
SECTION
  2
HEADER
  9
$ANGBASE
  50
0.0
  9
$ANGDIR
  70
1
  9
$MEASUREMENT
  70
0
  0
ENDSEC
  0
SECTION
  2
TABLES
  0
TABLE
  2
LTYPE
  70
4
  0
LTYPE
  5
40F
  2
CONTINUOUS
  70
0
  3
Solid line
  72
65
  73
0
  40
0.0
  0
LTYPE
  5
410
  2
DASHDOT
 70
0
  3
Dash Dot ____ _ ____ _
 72
65
 73
4
 40
2.0
 49
1.25
 49
-0.25
 49
0.25
 49
-0.25
  0
LTYPE
  5
411
  2
DASHED
 70
0
  3
Dashed __ __ __ __ __
 72
65
 73
2
 40
0.75
 49
0.5
 49
-0.25
  0
LTYPE
  5
43B
  2
DOTTED
 70
0
  3
Dotted .  .  .  .
 72
65
 73
2
 40
0.2
 49
0.0
 49
-0.2
  0
ENDTAB
  0
TABLE
  2
STYLE
  70
4
  0
STYLE
  2
KICAD
  70
0
  40
0
  41
1
  42
1
  50
0
  71
0
  3
isocp.shx
  0
STYLE
  2
KICADB
  70
0
  40
0
  41
1
  42
1
  50
0
  71
0
  3
isocp.shx
  0
STYLE
  2
KICADI
  70
0
  40
0
  41
1
  42
1
  50
15
  71
0
  3
isocp.shx
  0
STYLE
  2
KICADBI
  70
0
  40
0
  41
1
  42
1
  50
15
  71
0
  3
isocp.shx
  0
ENDTAB
  0
TABLE
  2
LAYER
  70
1
  0
LAYER
  2
BLACK
  70
0
  62
7
  6
CONTINUOUS
  0
ENDTAB
  0
ENDSEC
  0
SECTION
  2
ENTITIES
0
LINE
8
BLACK
6
CONTINUOUS
10
1.7864553937007874
20
1.8009565748031495
11
1.7869880708661416
21
1.8004238976377953
0
LINE
8
BLACK
6
CONTINUOUS
10
1.7869880708661416
20
1.8004238976377953
11
1.7870629921259842
21
1.8000472440944881
0
LINE
8
BLACK
6
CONTINUOUS
10
1.7870629921259842
20
1.8000472440944881
11
1.7870629921259842
21
0.6079212598425197
0
LINE
8
BLACK
6
CONTINUOUS
10
1.7870629921259842
20
0.6079212598425197
11
1.7869880708661416
21
0.6075446062992126
0
LINE
8
BLACK
6
CONTINUOUS
10
1.7869880708661416
20
0.6075446062992126
11
1.7864553937007874
21
0.6070119291338583
0
LINE
8
BLACK
6
CONTINUOUS
10
1.7864553937007874
20
0.6070119291338583
11
1.7860787401574802
21
0.6069370078740157
0
LINE
8
BLACK
6
CONTINUOUS
10
1.7860787401574802
20
0.6069370078740157
11
0.5939527559055118
21
0.6069370078740157
0
LINE
8
BLACK
6
CONTINUOUS
10
0.5939527559055118
20
0.6069370078740157
11
0.5935761023622047
21
0.6070119291338583
0
LINE
8
BLACK
6
CONTINUOUS
10
0.5935761023622047
20
0.6070119291338583
11
0.5930434251968504
21
0.6075446062992126
0
LINE
8
BLACK
6
CONTINUOUS
10
0.5930434251968504
20
0.6075446062992126
11
0.5929685039370078
21
0.6079212598425197
0
LINE
8
BLACK
6
CONTINUOUS
10
0.5929685039370078
20
0.6079212598425197
11
0.5929685039370078
21
1.8000472440944881
0
LINE
8
BLACK
6
CONTINUOUS
10
0.5929685039370078
20
1.8000472440944881
11
0.5930434251968504
21
1.8004238976377953
0
LINE
8
BLACK
6
CONTINUOUS
10
0.5930434251968504
20
1.8004238976377953
11
0.5935761023622047
21
1.8009565748031495
0
LINE
8
BLACK
6
CONTINUOUS
10
0.5935761023622047
20
1.8009565748031495
11
0.5939527559055118
21
1.8010314960629921
0
LINE
8
BLACK
6
CONTINUOUS
10
0.5939527559055118
20
1.8010314960629921
11
1.7860787401574802
21
1.8010314960629921
0
LINE
8
BLACK
6
CONTINUOUS
10
1.7860787401574802
20
1.8010314960629921
11
1.7864553937007874
21
1.8009565748031495
0
LINE
8
BLACK
6
CONTINUOUS
10
0.5949370078740157
20
1.7990629921259842
11
0.5949370078740157
21
0.6089055118110236
0
LINE
8
BLACK
6
CONTINUOUS
10
0.5949370078740157
20
0.6089055118110236
11
1.7850944881889763
21
0.6089055118110236
0
LINE
8
BLACK
6
CONTINUOUS
10
1.7850944881889763
20
0.6089055118110236
11
1.7850944881889763
21
1.7990629921259842
0
LINE
8
BLACK
6
CONTINUOUS
10
1.7850944881889763
20
1.7990629921259842
11
0.5949370078740157
21
1.7990629921259842
0
LINE
8
BLACK
6
CONTINUOUS
10
1.8459042125984251
20
1.8604053937007874
11
1.8464368897637795
21
1.859872716535433
0
LINE
8
BLACK
6
CONTINUOUS
10
1.8464368897637795
20
1.859872716535433
11
1.8465118110236221
21
1.859496062992126
0
LINE
8
BLACK
6
CONTINUOUS
10
1.8465118110236221
20
1.859496062992126
11
1.8465118110236221
21
0.5484724409448819
0
LINE
8
BLACK
6
CONTINUOUS
10
1.8465118110236221
20
0.5484724409448819
11
1.8464368897637795
21
0.5480957874015748
0
LINE
8
BLACK
6
CONTINUOUS
10
1.8464368897637795
20
0.5480957874015748
11
1.8459042125984251
21
0.5475631102362205
0
LINE
8
BLACK
6
CONTINUOUS
10
1.8459042125984251
20
0.5475631102362205
11
1.8455275590551181
21
0.547488188976378
0
LINE
8
BLACK
6
CONTINUOUS
10
1.8455275590551181
20
0.547488188976378
11
0.534503937007874
21
0.547488188976378
0
LINE
8
BLACK
6
CONTINUOUS
10
0.534503937007874
20
0.547488188976378
11
0.5341272834645669
21
0.5475631102362205
0
LINE
8
BLACK
6
CONTINUOUS
10
0.5341272834645669
20
0.5475631102362205
11
0.5335946062992126
21
0.5480957874015748
0
LINE
8
BLACK
6
CONTINUOUS
10
0.5335946062992126
20
0.5480957874015748
11
0.5335196850393701
21
0.5484724409448819
0
LINE
8
BLACK
6
CONTINUOUS
10
0.5335196850393701
20
0.5484724409448819
11
0.5335196850393701
21
1.859496062992126
0
LINE
8
BLACK
6
CONTINUOUS
10
0.5335196850393701
20
1.859496062992126
11
0.5335946062992126
21
1.859872716535433
0
LINE
8
BLACK
6
CONTINUOUS
10
0.5335946062992126
20
1.859872716535433
11
0.5341272834645669
21
1.8604053937007874
0
LINE
8
BLACK
6
CONTINUOUS
10
0.5341272834645669
20
1.8604053937007874
11
0.534503937007874
21
1.8604803149606299
0
LINE
8
BLACK
6
CONTINUOUS
10
0.534503937007874
20
1.8604803149606299
11
1.8455275590551181
21
1.8604803149606299
0
LINE
8
BLACK
6
CONTINUOUS
10
1.8455275590551181
20
1.8604803149606299
11
1.8459042125984251
21
1.8604053937007874
0
LINE
8
BLACK
6
CONTINUOUS
10
0.535488188976378
20
1.8585118110236221
11
0.535488188976378
21
0.5494566929133858
0
LINE
8
BLACK
6
CONTINUOUS
10
0.535488188976378
20
0.5494566929133858
11
1.8445433070866142
21
0.5494566929133858
0
LINE
8
BLACK
6
CONTINUOUS
10
1.8445433070866142
20
0.5494566929133858
11
1.8445433070866142
21
1.8585118110236221
0
LINE
8
BLACK
6
CONTINUOUS
10
1.8445433070866142
20
1.8585118110236221
11
0.535488188976378
21
1.8585118110236221
0
LINE
8
BLACK
6
CONTINUOUS
10
-0.0063556299212598
20
0.7655471259842519
11
-0.0058229527559055
21
0.7650144488188976
0
LINE
8
BLACK
6
CONTINUOUS
10
-0.0058229527559055
20
0.7650144488188976
11
-0.005748031496063
21
0.7646377952755905
0
LINE
8
BLACK
6
CONTINUOUS
10
-0.005748031496063
20
0.7646377952755905
11
-0.005748031496063
21
0.6874724409448819
0
LINE
8
BLACK
6
CONTINUOUS
10
-0.005748031496063
20
0.6874724409448819
11
-0.0058229527559055
21
0.6870957874015748
0
LINE
8
BLACK
6
CONTINUOUS
10
-0.0058229527559055
20
0.6870957874015748
11
-0.0063556299212598
21
0.6865631102362204
0
LINE
8
BLACK
6
CONTINUOUS
10
-0.0063556299212598
20
0.6865631102362204
11
-0.0067322834645669
21
0.686488188976378
0
LINE
8
BLACK
6
CONTINUOUS
10
-0.0067322834645669
20
0.686488188976378
11
-0.1405905511811024
21
0.686488188976378
0
LINE
8
BLACK
6
CONTINUOUS
10
-0.1405905511811024
20
0.686488188976378
11
-0.1409672047244094
21
0.6865631102362204
0
LINE
8
BLACK
6
CONTINUOUS
10
-0.1409672047244094
20
0.6865631102362204
11
-0.1414998818897638
21
0.6870957874015748
0
LINE
8
BLACK
6
CONTINUOUS
10
-0.1414998818897638
20
0.6870957874015748
11
-0.1415748031496063
21
0.6874724409448819
0
LINE
8
BLACK
6
CONTINUOUS
10
-0.1415748031496063
20
0.6874724409448819
11
-0.1415748031496063
21
0.7646377952755905
0
LINE
8
BLACK
6
CONTINUOUS
10
-0.1415748031496063
20
0.7646377952755905
11
-0.1414998818897638
21
0.7650144488188976
0
LINE
8
BLACK
6
CONTINUOUS
10
-0.1414998818897638
20
0.7650144488188976
11
-0.1409672047244094
21
0.7655471259842519
0
LINE
8
BLACK
6
CONTINUOUS
10
-0.1409672047244094
20
0.7655471259842519
11
-0.1405905511811024
21
0.7656220472440944
0
LINE
8
BLACK
6
CONTINUOUS
10
-0.1405905511811024
20
0.7656220472440944
11
-0.0067322834645669
21
0.7656220472440944
0
LINE
8
BLACK
6
CONTINUOUS
10
-0.0067322834645669
20
0.7656220472440944
11
-0.0063556299212598
21
0.7655471259842519
0
LINE
8
BLACK
6
CONTINUOUS
10
-0.1396062992125984
20
0.7636535433070866
11
-0.1396062992125984
21
0.6884566929133858
0
LINE
8
BLACK
6
CONTINUOUS
10
-0.1396062992125984
20
0.6884566929133858
11
-0.0077165354330709
21
0.6884566929133858
0
LINE
8
BLACK
6
CONTINUOUS
10
-0.0077165354330709
20
0.6884566929133858
11
-0.0077165354330709
21
0.7636535433070866
0
LINE
8
BLACK
6
CONTINUOUS
10
-0.0077165354330709
20
0.7636535433070866
11
-0.1396062992125984
21
0.7636535433070866
0
LINE
8
BLACK
6
CONTINUOUS
10
-0.4709983070866142
20
0.7854949606299212
11
-0.4635070472440945
21
0.7830608661417323
0
LINE
8
BLACK
6
CONTINUOUS
10
-0.4635070472440945
20
0.7830608661417323
11
-0.4564887401574803
21
0.7794848818897637
0
LINE
8
BLACK
6
CONTINUOUS
10
-0.4564887401574803
20
0.7794848818897637
11
-0.4501162992125984
21
0.7748550393700787
0
LINE
8
BLACK
6
CONTINUOUS
10
-0.4501162992125984
20
0.7748550393700787
11
-0.4445465354330709
21
0.7692852755905512
0
LINE
8
BLACK
6
CONTINUOUS
10
-0.4445465354330709
20
0.7692852755905512
11
-0.4399166929133858
21
0.7629128346456693
0
LINE
8
BLACK
6
CONTINUOUS
10
-0.4399166929133858
20
0.7629128346456693
11
-0.4363407086614173
21
0.7558945275590551
0
LINE
8
BLACK
6
CONTINUOUS
10
-0.4363407086614173
20
0.7558945275590551
11
-0.4339066141732283
21
0.7484032677165354
0
LINE
8
BLACK
6
CONTINUOUS
10
-0.4339066141732283
20
0.7484032677165354
11
-0.4326744094488189
21
0.7406234251968504
0
LINE
8
BLACK
6
CONTINUOUS
10
-0.4326744094488189
20
0.7406234251968504
11
-0.4326744094488189
21
0.732746653543307
0
LINE
8
BLACK
6
CONTINUOUS
10
-0.4326744094488189
20
0.732746653543307
11
-0.4339066141732283
21
0.724966811023622
0
LINE
8
BLACK
6
CONTINUOUS
10
-0.4339066141732283
20
0.724966811023622
11
-0.4363407086614173
21
0.7174755511811024
0
LINE
8
BLACK
6
CONTINUOUS
10
-0.4363407086614173
20
0.7174755511811024
11
-0.4399166929133858
21
0.7104572440944882
0
LINE
8
BLACK
6
CONTINUOUS
10
-0.4399166929133858
20
0.7104572440944882
11
-0.4445465354330709
21
0.7040848031496063
0
LINE
8
BLACK
6
CONTINUOUS
10
-0.4445465354330709
20
0.7040848031496063
11
-0.4501162992125984
21
0.6985150393700787
0
LINE
8
BLACK
6
CONTINUOUS
10
-0.4501162992125984
20
0.6985150393700787
11
-0.4564887401574803
21
0.6938851968503937
0
LINE
8
BLACK
6
CONTINUOUS
10
-0.4564887401574803
20
0.6938851968503937
11
-0.4635070472440945
21
0.6903092125984251
0
LINE
8
BLACK
6
CONTINUOUS
10
-0.4635070472440945
20
0.6903092125984251
11
-0.4709983070866142
21
0.6878751181102362
0
LINE
8
BLACK
6
CONTINUOUS
10
-0.4709983070866142
20
0.6878751181102362
11
-0.4787781496062992
21
0.6866429133858267
0
LINE
8
BLACK
6
CONTINUOUS
10
-0.4787781496062992
20
0.6866429133858267
11
-0.4866549212598425
21
0.6866429133858267
0
LINE
8
BLACK
6
CONTINUOUS
10
-0.4866549212598425
20
0.6866429133858267
11
-0.4944347637795276
21
0.6878751181102362
0
LINE
8
BLACK
6
CONTINUOUS
10
-0.4944347637795276
20
0.6878751181102362
11
-0.5019260236220472
21
0.6903092125984251
0
LINE
8
BLACK
6
CONTINUOUS
10
-0.5019260236220472
20
0.6903092125984251
11
-0.5089443307086614
21
0.6938851968503937
0
LINE
8
BLACK
6
CONTINUOUS
10
-0.5089443307086614
20
0.6938851968503937
11
-0.5153167716535433
21
0.6985150393700787
0
LINE
8
BLACK
6
CONTINUOUS
10
-0.5153167716535433
20
0.6985150393700787
11
-0.5208865354330708
21
0.7040848031496063
0
LINE
8
BLACK
6
CONTINUOUS
10
-0.5208865354330708
20
0.7040848031496063
11
-0.5255163779527559
21
0.7104572440944882
0
LINE
8
BLACK
6
CONTINUOUS
10
-0.5255163779527559
20
0.7104572440944882
11
-0.5290923622047244
21
0.7174755511811024
0
LINE
8
BLACK
6
CONTINUOUS
10
-0.5290923622047244
20
0.7174755511811024
11
-0.5315264566929133
21
0.724966811023622
0
LINE
8
BLACK
6
CONTINUOUS
10
-0.5315264566929133
20
0.724966811023622
11
-0.5327586614173229
21
0.732746653543307
0
LINE
8
BLACK
6
CONTINUOUS
10
-0.5327586614173229
20
0.732746653543307
11
-0.5327586614173229
21
0.7404807086614174
0
LINE
8
BLACK
6
CONTINUOUS
10
-0.5327586614173229
20
0.7404807086614174
11
-0.5327586614173229
21
0.7406234251968504
0
LINE
8
BLACK
6
CONTINUOUS
10
-0.5327586614173229
20
0.7406234251968504
11
-0.5315264566929133
21
0.7484032677165354
0
LINE
8
BLACK
6
CONTINUOUS
10
-0.5315264566929133
20
0.7484032677165354
11
-0.5290923622047244
21
0.7558945275590551
0
LINE
8
BLACK
6
CONTINUOUS
10
-0.5290923622047244
20
0.7558945275590551
11
-0.5255163779527559
21
0.7629128346456693
0
LINE
8
BLACK
6
CONTINUOUS
10
-0.5255163779527559
20
0.7629128346456693
11
-0.5208865354330708
21
0.7692852755905512
0
LINE
8
BLACK
6
CONTINUOUS
10
-0.5208865354330708
20
0.7692852755905512
11
-0.5153167716535433
21
0.7748550393700787
0
LINE
8
BLACK
6
CONTINUOUS
10
-0.5153167716535433
20
0.7748550393700787
11
-0.5089443307086614
21
0.7794848818897637
0
LINE
8
BLACK
6
CONTINUOUS
10
-0.5089443307086614
20
0.7794848818897637
11
-0.5019260236220472
21
0.7830608661417323
0
LINE
8
BLACK
6
CONTINUOUS
10
-0.5019260236220472
20
0.7830608661417323
11
-0.4944347637795276
21
0.7854949606299212
0
LINE
8
BLACK
6
CONTINUOUS
10
-0.4944347637795276
20
0.7854949606299212
11
-0.4866549212598425
21
0.7867271653543307
0
LINE
8
BLACK
6
CONTINUOUS
10
-0.4866549212598425
20
0.7867271653543307
11
-0.4787781496062992
21
0.7867271653543307
0
LINE
8
BLACK
6
CONTINUOUS
10
-0.4787781496062992
20
0.7867271653543307
11
-0.4709983070866142
21
0.7854949606299212
0
LINE
8
BLACK
6
CONTINUOUS
10
-0.5309448818897637
20
0.7328893700787401
11
-0.5297573228346456
21
0.7253915354330709
0
LINE
8
BLACK
6
CONTINUOUS
10
-0.5297573228346456
20
0.7253915354330709
11
-0.5274114960629921
21
0.7181717716535433
0
LINE
8
BLACK
6
CONTINUOUS
10
-0.5274114960629921
20
0.7181717716535433
11
-0.5239651181102362
21
0.711407874015748
0
LINE
8
BLACK
6
CONTINUOUS
10
-0.5239651181102362
20
0.711407874015748
11
-0.5195030708661417
21
0.7052663779527559
0
LINE
8
BLACK
6
CONTINUOUS
10
-0.5195030708661417
20
0.7052663779527559
11
-0.5141351968503937
21
0.6998985039370078
0
LINE
8
BLACK
6
CONTINUOUS
10
-0.5141351968503937
20
0.6998985039370078
11
-0.5079937007874016
21
0.6954364566929133
0
LINE
8
BLACK
6
CONTINUOUS
10
-0.5079937007874016
20
0.6954364566929133
11
-0.5012298031496063
21
0.6919900787401575
0
LINE
8
BLACK
6
CONTINUOUS
10
-0.5012298031496063
20
0.6919900787401575
11
-0.4940100393700787
21
0.6896442519685039
0
LINE
8
BLACK
6
CONTINUOUS
10
-0.4940100393700787
20
0.6896442519685039
11
-0.4865122047244094
21
0.6884566929133858
0
LINE
8
BLACK
6
CONTINUOUS
10
-0.4865122047244094
20
0.6884566929133858
11
-0.4789208661417323
21
0.6884566929133858
0
LINE
8
BLACK
6
CONTINUOUS
10
-0.4789208661417323
20
0.6884566929133858
11
-0.471423031496063
21
0.6896442519685039
0
LINE
8
BLACK
6
CONTINUOUS
10
-0.471423031496063
20
0.6896442519685039
11
-0.4642032677165354
21
0.6919900787401575
0
LINE
8
BLACK
6
CONTINUOUS
10
-0.4642032677165354
20
0.6919900787401575
11
-0.4574393700787401
21
0.6954364566929133
0
LINE
8
BLACK
6
CONTINUOUS
10
-0.4574393700787401
20
0.6954364566929133
11
-0.451297874015748
21
0.6998985039370078
0
LINE
8
BLACK
6
CONTINUOUS
10
-0.451297874015748
20
0.6998985039370078
11
-0.44593
21
0.7052663779527559
0
LINE
8
BLACK
6
CONTINUOUS
10
-0.44593
20
0.7052663779527559
11
-0.4414679527559055
21
0.711407874015748
0
LINE
8
BLACK
6
CONTINUOUS
10
-0.4414679527559055
20
0.711407874015748
11
-0.4380215748031496
21
0.7181717716535433
0
LINE
8
BLACK
6
CONTINUOUS
10
-0.4380215748031496
20
0.7181717716535433
11
-0.4356757480314961
21
0.7253915354330709
0
LINE
8
BLACK
6
CONTINUOUS
10
-0.4356757480314961
20
0.7253915354330709
11
-0.4344881889763779
21
0.7328893700787401
0
LINE
8
BLACK
6
CONTINUOUS
10
-0.4344881889763779
20
0.7328893700787401
11
-0.4344881889763779
21
0.7404807086614174
0
LINE
8
BLACK
6
CONTINUOUS
10
-0.4344881889763779
20
0.7404807086614174
11
-0.4356757480314961
21
0.7479785433070866
0
LINE
8
BLACK
6
CONTINUOUS
10
-0.4356757480314961
20
0.7479785433070866
11
-0.4380215748031496
21
0.7551983070866142
0
LINE
8
BLACK
6
CONTINUOUS
10
-0.4380215748031496
20
0.7551983070866142
11
-0.4414679527559055
21
0.7619622047244095
0
LINE
8
BLACK
6
CONTINUOUS
10
-0.4414679527559055
20
0.7619622047244095
11
-0.44593
21
0.7681037007874015
0
LINE
8
BLACK
6
CONTINUOUS
10
-0.44593
20
0.7681037007874015
11
-0.451297874015748
21
0.7734715748031495
0
LINE
8
BLACK
6
CONTINUOUS
10
-0.451297874015748
20
0.7734715748031495
11
-0.4574393700787401
21
0.777933622047244
0
LINE
8
BLACK
6
CONTINUOUS
10
-0.4574393700787401
20
0.777933622047244
11
-0.4642032677165354
21
0.78138
0
LINE
8
BLACK
6
CONTINUOUS
10
-0.4642032677165354
20
0.78138
11
-0.471423031496063
21
0.7837258267716535
0
LINE
8
BLACK
6
CONTINUOUS
10
-0.471423031496063
20
0.7837258267716535
11
-0.4789208661417323
21
0.7849133858267716
0
LINE
8
BLACK
6
CONTINUOUS
10
-0.4789208661417323
20
0.7849133858267716
11
-0.4865122047244094
21
0.7849133858267716
0
LINE
8
BLACK
6
CONTINUOUS
10
-0.4865122047244094
20
0.7849133858267716
11
-0.4940100393700787
21
0.7837258267716535
0
LINE
8
BLACK
6
CONTINUOUS
10
-0.4940100393700787
20
0.7837258267716535
11
-0.5012298031496063
21
0.78138
0
LINE
8
BLACK
6
CONTINUOUS
10
-0.5012298031496063
20
0.78138
11
-0.5079937007874016
21
0.777933622047244
0
LINE
8
BLACK
6
CONTINUOUS
10
-0.5079937007874016
20
0.777933622047244
11
-0.5141351968503937
21
0.7734715748031495
0
LINE
8
BLACK
6
CONTINUOUS
10
-0.5141351968503937
20
0.7734715748031495
11
-0.5195030708661417
21
0.7681037007874015
0
LINE
8
BLACK
6
CONTINUOUS
10
-0.5195030708661417
20
0.7681037007874015
11
-0.5239651181102362
21
0.7619622047244095
0
LINE
8
BLACK
6
CONTINUOUS
10
-0.5239651181102362
20
0.7619622047244095
11
-0.5274114960629921
21
0.7551983070866142
0
LINE
8
BLACK
6
CONTINUOUS
10
-0.5274114960629921
20
0.7551983070866142
11
-0.5297573228346456
21
0.7479785433070866
0
LINE
8
BLACK
6
CONTINUOUS
10
-0.5297573228346456
20
0.7479785433070866
11
-0.5309448818897637
21
0.7404807086614174
0
LINE
8
BLACK
6
CONTINUOUS
10
-0.5309448818897637
20
0.7404807086614174
11
-0.5309448818897637
21
0.7328893700787401
0
LINE
8
BLACK
6
CONTINUOUS
10
-0.1813556299212598
20
0.7767675984251968
11
-0.1808229527559055
21
0.7762349212598425
0
LINE
8
BLACK
6
CONTINUOUS
10
-0.1808229527559055
20
0.7762349212598425
11
-0.180748031496063
21
0.7758582677165354
0
LINE
8
BLACK
6
CONTINUOUS
10
-0.180748031496063
20
0.7758582677165354
11
-0.180748031496063
21
0.6892440944881889
0
LINE
8
BLACK
6
CONTINUOUS
10
-0.180748031496063
20
0.6892440944881889
11
-0.1808229527559055
21
0.6888674409448818
0
LINE
8
BLACK
6
CONTINUOUS
10
-0.1808229527559055
20
0.6888674409448818
11
-0.1813556299212598
21
0.6883347637795275
0
LINE
8
BLACK
6
CONTINUOUS
10
-0.1813556299212598
20
0.6883347637795275
11
-0.1817322834645669
21
0.688259842519685
0
LINE
8
BLACK
6
CONTINUOUS
10
-0.1817322834645669
20
0.688259842519685
11
-0.3903937007874015
21
0.688259842519685
0
LINE
8
BLACK
6
CONTINUOUS
10
-0.3903937007874015
20
0.688259842519685
11
-0.3907703543307087
21
0.6883347637795275
0
LINE
8
BLACK
6
CONTINUOUS
10
-0.3907703543307087
20
0.6883347637795275
11
-0.391303031496063
21
0.6888674409448818
0
LINE
8
BLACK
6
CONTINUOUS
10
-0.391303031496063
20
0.6888674409448818
11
-0.3913779527559055
21
0.6892440944881889
0
LINE
8
BLACK
6
CONTINUOUS
10
-0.3913779527559055
20
0.6892440944881889
11
-0.3913779527559055
21
0.7758582677165354
0
LINE
8
BLACK
6
CONTINUOUS
10
-0.3913779527559055
20
0.7758582677165354
11
-0.391303031496063
21
0.7762349212598425
0
LINE
8
BLACK
6
CONTINUOUS
10
-0.391303031496063
20
0.7762349212598425
11
-0.3907703543307087
21
0.7767675984251968
0
LINE
8
BLACK
6
CONTINUOUS
10
-0.3907703543307087
20
0.7767675984251968
11
-0.3903937007874015
21
0.7768425196850394
0
LINE
8
BLACK
6
CONTINUOUS
10
-0.3903937007874015
20
0.7768425196850394
11
-0.1817322834645669
21
0.7768425196850394
0
LINE
8
BLACK
6
CONTINUOUS
10
-0.1817322834645669
20
0.7768425196850394
11
-0.1813556299212598
21
0.7767675984251968
0
LINE
8
BLACK
6
CONTINUOUS
10
-0.3894094488188976
20
0.7748740157480315
11
-0.3894094488188976
21
0.6902283464566928
0
LINE
8
BLACK
6
CONTINUOUS
10
-0.3894094488188976
20
0.6902283464566928
11
-0.1827165354330709
21
0.6902283464566928
0
LINE
8
BLACK
6
CONTINUOUS
10
-0.1827165354330709
20
0.6902283464566928
11
-0.1827165354330709
21
0.7748740157480315
0
LINE
8
BLACK
6
CONTINUOUS
10
-0.1827165354330709
20
0.7748740157480315
11
-0.3894094488188976
21
0.7748740157480315
0
LINE
8
BLACK
6
CONTINUOUS
10
-0.0063556299212598
20
0.884051062992126
11
-0.0058229527559055
21
0.8835183858267717
0
LINE
8
BLACK
6
CONTINUOUS
10
-0.0058229527559055
20
0.8835183858267717
11
-0.005748031496063
21
0.8831417322834646
0
LINE
8
BLACK
6
CONTINUOUS
10
-0.005748031496063
20
0.8831417322834646
11
-0.005748031496063
21
0.8059763779527559
0
LINE
8
BLACK
6
CONTINUOUS
10
-0.005748031496063
20
0.8059763779527559
11
-0.0058229527559055
21
0.8055997244094488
0
LINE
8
BLACK
6
CONTINUOUS
10
-0.0058229527559055
20
0.8055997244094488
11
-0.0063556299212598
21
0.8050670472440945
0
LINE
8
BLACK
6
CONTINUOUS
10
-0.0063556299212598
20
0.8050670472440945
11
-0.0067322834645669
21
0.804992125984252
0
LINE
8
BLACK
6
CONTINUOUS
10
-0.0067322834645669
20
0.804992125984252
11
-0.1405905511811024
21
0.804992125984252
0
LINE
8
BLACK
6
CONTINUOUS
10
-0.1405905511811024
20
0.804992125984252
11
-0.1409672047244094
21
0.8050670472440945
0
LINE
8
BLACK
6
CONTINUOUS
10
-0.1409672047244094
20
0.8050670472440945
11
-0.1414998818897638
21
0.8055997244094488
0
LINE
8
BLACK
6
CONTINUOUS
10
-0.1414998818897638
20
0.8055997244094488
11
-0.1415748031496063
21
0.8059763779527559
0
LINE
8
BLACK
6
CONTINUOUS
10
-0.1415748031496063
20
0.8059763779527559
11
-0.1415748031496063
21
0.8831417322834646
0
LINE
8
BLACK
6
CONTINUOUS
10
-0.1415748031496063
20
0.8831417322834646
11
-0.1414998818897638
21
0.8835183858267717
0
LINE
8
BLACK
6
CONTINUOUS
10
-0.1414998818897638
20
0.8835183858267717
11
-0.1409672047244094
21
0.884051062992126
0
LINE
8
BLACK
6
CONTINUOUS
10
-0.1409672047244094
20
0.884051062992126
11
-0.1405905511811024
21
0.8841259842519685
0
LINE
8
BLACK
6
CONTINUOUS
10
-0.1405905511811024
20
0.8841259842519685
11
-0.0067322834645669
21
0.8841259842519685
0
LINE
8
BLACK
6
CONTINUOUS
10
-0.0067322834645669
20
0.8841259842519685
11
-0.0063556299212598
21
0.884051062992126
0
LINE
8
BLACK
6
CONTINUOUS
10
-0.1396062992125984
20
0.8821574803149607
11
-0.1396062992125984
21
0.8069606299212598
0
LINE
8
BLACK
6
CONTINUOUS
10
-0.1396062992125984
20
0.8069606299212598
11
-0.0077165354330709
21
0.8069606299212598
0
LINE
8
BLACK
6
CONTINUOUS
10
-0.0077165354330709
20
0.8069606299212598
11
-0.0077165354330709
21
0.8821574803149607
0
LINE
8
BLACK
6
CONTINUOUS
10
-0.0077165354330709
20
0.8821574803149607
11
-0.1396062992125984
21
0.8821574803149607
0
LINE
8
BLACK
6
CONTINUOUS
10
-0.4709983070866142
20
0.9252587401574803
11
-0.4635070472440945
21
0.9228246456692913
0
LINE
8
BLACK
6
CONTINUOUS
10
-0.4635070472440945
20
0.9228246456692913
11
-0.4564887401574803
21
0.9192486614173229
0
LINE
8
BLACK
6
CONTINUOUS
10
-0.4564887401574803
20
0.9192486614173229
11
-0.4501162992125984
21
0.9146188188976377
0
LINE
8
BLACK
6
CONTINUOUS
10
-0.4501162992125984
20
0.9146188188976377
11
-0.4445465354330709
21
0.9090490551181102
0
LINE
8
BLACK
6
CONTINUOUS
10
-0.4445465354330709
20
0.9090490551181102
11
-0.4399166929133858
21
0.9026766141732283
0
LINE
8
BLACK
6
CONTINUOUS
10
-0.4399166929133858
20
0.9026766141732283
11
-0.4363407086614173
21
0.8956583070866142
0
LINE
8
BLACK
6
CONTINUOUS
10
-0.4363407086614173
20
0.8956583070866142
11
-0.4339066141732283
21
0.8881670472440945
0
LINE
8
BLACK
6
CONTINUOUS
10
-0.4339066141732283
20
0.8881670472440945
11
-0.4326744094488189
21
0.8803872047244095
0
LINE
8
BLACK
6
CONTINUOUS
10
-0.4326744094488189
20
0.8803872047244095
11
-0.4326744094488189
21
0.8725104330708662
0
LINE
8
BLACK
6
CONTINUOUS
10
-0.4326744094488189
20
0.8725104330708662
11
-0.4339066141732283
21
0.8647305905511811
0
LINE
8
BLACK
6
CONTINUOUS
10
-0.4339066141732283
20
0.8647305905511811
11
-0.4363407086614173
21
0.8572393307086614
0
LINE
8
BLACK
6
CONTINUOUS
10
-0.4363407086614173
20
0.8572393307086614
11
-0.4399166929133858
21
0.8502210236220472
0
LINE
8
BLACK
6
CONTINUOUS
10
-0.4399166929133858
20
0.8502210236220472
11
-0.4445465354330709
21
0.8438485826771653
0
LINE
8
BLACK
6
CONTINUOUS
10
-0.4445465354330709
20
0.8438485826771653
11
-0.4501162992125984
21
0.8382788188976378
0
LINE
8
BLACK
6
CONTINUOUS
10
-0.4501162992125984
20
0.8382788188976378
11
-0.4564887401574803
21
0.8336489763779528
0
LINE
8
BLACK
6
CONTINUOUS
10
-0.4564887401574803
20
0.8336489763779528
11
-0.4635070472440945
21
0.8300729921259843
0
LINE
8
BLACK
6
CONTINUOUS
10
-0.4635070472440945
20
0.8300729921259843
11
-0.4709983070866142
21
0.8276388976377953
0
LINE
8
BLACK
6
CONTINUOUS
10
-0.4709983070866142
20
0.8276388976377953
11
-0.4787781496062992
21
0.8264066929133858
0
LINE
8
BLACK
6
CONTINUOUS
10
-0.4787781496062992
20
0.8264066929133858
11
-0.4866549212598425
21
0.8264066929133858
0
LINE
8
BLACK
6
CONTINUOUS
10
-0.4866549212598425
20
0.8264066929133858
11
-0.4944347637795276
21
0.8276388976377953
0
LINE
8
BLACK
6
CONTINUOUS
10
-0.4944347637795276
20
0.8276388976377953
11
-0.5019260236220472
21
0.8300729921259843
0
LINE
8
BLACK
6
CONTINUOUS
10
-0.5019260236220472
20
0.8300729921259843
11
-0.5089443307086614
21
0.8336489763779528
0
LINE
8
BLACK
6
CONTINUOUS
10
-0.5089443307086614
20
0.8336489763779528
11
-0.5153167716535433
21
0.8382788188976378
0
LINE
8
BLACK
6
CONTINUOUS
10
-0.5153167716535433
20
0.8382788188976378
11
-0.5208865354330708
21
0.8438485826771653
0
LINE
8
BLACK
6
CONTINUOUS
10
-0.5208865354330708
20
0.8438485826771653
11
-0.5255163779527559
21
0.8502210236220472
0
LINE
8
BLACK
6
CONTINUOUS
10
-0.5255163779527559
20
0.8502210236220472
11
-0.5290923622047244
21
0.8572393307086614
0
LINE
8
BLACK
6
CONTINUOUS
10
-0.5290923622047244
20
0.8572393307086614
11
-0.5315264566929133
21
0.8647305905511811
0
LINE
8
BLACK
6
CONTINUOUS
10
-0.5315264566929133
20
0.8647305905511811
11
-0.5327586614173229
21
0.8725104330708662
0
LINE
8
BLACK
6
CONTINUOUS
10
-0.5327586614173229
20
0.8725104330708662
11
-0.5327586614173229
21
0.8802444881889764
0
LINE
8
BLACK
6
CONTINUOUS
10
-0.5327586614173229
20
0.8802444881889764
11
-0.5327586614173229
21
0.8803872047244095
0
LINE
8
BLACK
6
CONTINUOUS
10
-0.5327586614173229
20
0.8803872047244095
11
-0.5315264566929133
21
0.8881670472440945
0
LINE
8
BLACK
6
CONTINUOUS
10
-0.5315264566929133
20
0.8881670472440945
11
-0.5290923622047244
21
0.8956583070866142
0
LINE
8
BLACK
6
CONTINUOUS
10
-0.5290923622047244
20
0.8956583070866142
11
-0.5255163779527559
21
0.9026766141732283
0
LINE
8
BLACK
6
CONTINUOUS
10
-0.5255163779527559
20
0.9026766141732283
11
-0.5208865354330708
21
0.9090490551181102
0
LINE
8
BLACK
6
CONTINUOUS
10
-0.5208865354330708
20
0.9090490551181102
11
-0.5153167716535433
21
0.9146188188976377
0
LINE
8
BLACK
6
CONTINUOUS
10
-0.5153167716535433
20
0.9146188188976377
11
-0.5089443307086614
21
0.9192486614173229
0
LINE
8
BLACK
6
CONTINUOUS
10
-0.5089443307086614
20
0.9192486614173229
11
-0.5019260236220472
21
0.9228246456692913
0
LINE
8
BLACK
6
CONTINUOUS
10
-0.5019260236220472
20
0.9228246456692913
11
-0.4944347637795276
21
0.9252587401574803
0
LINE
8
BLACK
6
CONTINUOUS
10
-0.4944347637795276
20
0.9252587401574803
11
-0.4866549212598425
21
0.9264909448818898
0
LINE
8
BLACK
6
CONTINUOUS
10
-0.4866549212598425
20
0.9264909448818898
11
-0.4787781496062992
21
0.9264909448818898
0
LINE
8
BLACK
6
CONTINUOUS
10
-0.4787781496062992
20
0.9264909448818898
11
-0.4709983070866142
21
0.9252587401574803
0
LINE
8
BLACK
6
CONTINUOUS
10
-0.5309448818897637
20
0.8726531496062991
11
-0.5297573228346456
21
0.8651553149606299
0
LINE
8
BLACK
6
CONTINUOUS
10
-0.5297573228346456
20
0.8651553149606299
11
-0.5274114960629921
21
0.8579355511811023
0
LINE
8
BLACK
6
CONTINUOUS
10
-0.5274114960629921
20
0.8579355511811023
11
-0.5239651181102362
21
0.851171653543307
0
LINE
8
BLACK
6
CONTINUOUS
10
-0.5239651181102362
20
0.851171653543307
11
-0.5195030708661417
21
0.845030157480315
0
LINE
8
BLACK
6
CONTINUOUS
10
-0.5195030708661417
20
0.845030157480315
11
-0.5141351968503937
21
0.8396622834645669
0
LINE
8
BLACK
6
CONTINUOUS
10
-0.5141351968503937
20
0.8396622834645669
11
-0.5079937007874016
21
0.8352002362204725
0
LINE
8
BLACK
6
CONTINUOUS
10
-0.5079937007874016
20
0.8352002362204725
11
-0.5012298031496063
21
0.8317538582677165
0
LINE
8
BLACK
6
CONTINUOUS
10
-0.5012298031496063
20
0.8317538582677165
11
-0.4940100393700787
21
0.829408031496063
0
LINE
8
BLACK
6
CONTINUOUS
10
-0.4940100393700787
20
0.829408031496063
11
-0.4865122047244094
21
0.8282204724409449
0
LINE
8
BLACK
6
CONTINUOUS
10
-0.4865122047244094
20
0.8282204724409449
11
-0.4789208661417323
21
0.8282204724409449
0
LINE
8
BLACK
6
CONTINUOUS
10
-0.4789208661417323
20
0.8282204724409449
11
-0.471423031496063
21
0.829408031496063
0
LINE
8
BLACK
6
CONTINUOUS
10
-0.471423031496063
20
0.829408031496063
11
-0.4642032677165354
21
0.8317538582677165
0
LINE
8
BLACK
6
CONTINUOUS
10
-0.4642032677165354
20
0.8317538582677165
11
-0.4574393700787401
21
0.8352002362204725
0
LINE
8
BLACK
6
CONTINUOUS
10
-0.4574393700787401
20
0.8352002362204725
11
-0.451297874015748
21
0.8396622834645669
0
LINE
8
BLACK
6
CONTINUOUS
10
-0.451297874015748
20
0.8396622834645669
11
-0.44593
21
0.845030157480315
0
LINE
8
BLACK
6
CONTINUOUS
10
-0.44593
20
0.845030157480315
11
-0.4414679527559055
21
0.851171653543307
0
LINE
8
BLACK
6
CONTINUOUS
10
-0.4414679527559055
20
0.851171653543307
11
-0.4380215748031496
21
0.8579355511811023
0
LINE
8
BLACK
6
CONTINUOUS
10
-0.4380215748031496
20
0.8579355511811023
11
-0.4356757480314961
21
0.8651553149606299
0
LINE
8
BLACK
6
CONTINUOUS
10
-0.4356757480314961
20
0.8651553149606299
11
-0.4344881889763779
21
0.8726531496062991
0
LINE
8
BLACK
6
CONTINUOUS
10
-0.4344881889763779
20
0.8726531496062991
11
-0.4344881889763779
21
0.8802444881889764
0
LINE
8
BLACK
6
CONTINUOUS
10
-0.4344881889763779
20
0.8802444881889764
11
-0.4356757480314961
21
0.8877423228346456
0
LINE
8
BLACK
6
CONTINUOUS
10
-0.4356757480314961
20
0.8877423228346456
11
-0.4380215748031496
21
0.8949620866141732
0
LINE
8
BLACK
6
CONTINUOUS
10
-0.4380215748031496
20
0.8949620866141732
11
-0.4414679527559055
21
0.9017259842519685
0
LINE
8
BLACK
6
CONTINUOUS
10
-0.4414679527559055
20
0.9017259842519685
11
-0.44593
21
0.9078674803149606
0
LINE
8
BLACK
6
CONTINUOUS
10
-0.44593
20
0.9078674803149606
11
-0.451297874015748
21
0.9132353543307087
0
LINE
8
BLACK
6
CONTINUOUS
10
-0.451297874015748
20
0.9132353543307087
11
-0.4574393700787401
21
0.9176974015748032
0
LINE
8
BLACK
6
CONTINUOUS
10
-0.4574393700787401
20
0.9176974015748032
11
-0.4642032677165354
21
0.921143779527559
0
LINE
8
BLACK
6
CONTINUOUS
10
-0.4642032677165354
20
0.921143779527559
11
-0.471423031496063
21
0.9234896062992126
0
LINE
8
BLACK
6
CONTINUOUS
10
-0.471423031496063
20
0.9234896062992126
11
-0.4789208661417323
21
0.9246771653543306
0
LINE
8
BLACK
6
CONTINUOUS
10
-0.4789208661417323
20
0.9246771653543306
11
-0.4865122047244094
21
0.9246771653543306
0
LINE
8
BLACK
6
CONTINUOUS
10
-0.4865122047244094
20
0.9246771653543306
11
-0.4940100393700787
21
0.9234896062992126
0
LINE
8
BLACK
6
CONTINUOUS
10
-0.4940100393700787
20
0.9234896062992126
11
-0.5012298031496063
21
0.921143779527559
0
LINE
8
BLACK
6
CONTINUOUS
10
-0.5012298031496063
20
0.921143779527559
11
-0.5079937007874016
21
0.9176974015748032
0
LINE
8
BLACK
6
CONTINUOUS
10
-0.5079937007874016
20
0.9176974015748032
11
-0.5141351968503937
21
0.9132353543307087
0
LINE
8
BLACK
6
CONTINUOUS
10
-0.5141351968503937
20
0.9132353543307087
11
-0.5195030708661417
21
0.9078674803149606
0
LINE
8
BLACK
6
CONTINUOUS
10
-0.5195030708661417
20
0.9078674803149606
11
-0.5239651181102362
21
0.9017259842519685
0
LINE
8
BLACK
6
CONTINUOUS
10
-0.5239651181102362
20
0.9017259842519685
11
-0.5274114960629921
21
0.8949620866141732
0
LINE
8
BLACK
6
CONTINUOUS
10
-0.5274114960629921
20
0.8949620866141732
11
-0.5297573228346456
21
0.8877423228346456
0
LINE
8
BLACK
6
CONTINUOUS
10
-0.5297573228346456
20
0.8877423228346456
11
-0.5309448818897637
21
0.8802444881889764
0
LINE
8
BLACK
6
CONTINUOUS
10
-0.5309448818897637
20
0.8802444881889764
11
-0.5309448818897637
21
0.8726531496062991
0
LINE
8
BLACK
6
CONTINUOUS
10
-1.788285748031496
20
2.9433411023622047
11
-1.7809770866141732
21
2.9403137401574804
0
LINE
8
BLACK
6
CONTINUOUS
10
-1.7809770866141732
20
2.9403137401574804
11
-1.7743994881889764
21
2.9359187401574802
0
LINE
8
BLACK
6
CONTINUOUS
10
-1.7743994881889764
20
2.9359187401574802
11
-1.7688056692913385
21
2.9303249212598423
0
LINE
8
BLACK
6
CONTINUOUS
10
-1.7688056692913385
20
2.9303249212598423
11
-1.7644106692913386
21
2.9237473228346458
0
LINE
8
BLACK
6
CONTINUOUS
10
-1.7644106692913386
20
2.9237473228346458
11
-1.7613833070866141
21
2.9164386614173226
0
LINE
8
BLACK
6
CONTINUOUS
10
-1.7613833070866141
20
2.9164386614173226
11
-1.7598400000000001
21
2.9086798425196849
0
LINE
8
BLACK
6
CONTINUOUS
10
-1.7598400000000001
20
2.9086798425196849
11
-1.7598400000000001
21
2.9007689763779525
0
LINE
8
BLACK
6
CONTINUOUS
10
-1.7598400000000001
20
2.9007689763779525
11
-1.7613833070866141
21
2.8930101574803149
0
LINE
8
BLACK
6
CONTINUOUS
10
-1.7613833070866141
20
2.8930101574803149
11
-1.7644106692913386
21
2.8857014960629921
0
LINE
8
BLACK
6
CONTINUOUS
10
-1.7644106692913386
20
2.8857014960629921
11
-1.7688056692913385
21
2.8791238976377951
0
LINE
8
BLACK
6
CONTINUOUS
10
-1.7688056692913385
20
2.8791238976377951
11
-1.7743994881889764
21
2.8735300787401572
0
LINE
8
BLACK
6
CONTINUOUS
10
-1.7743994881889764
20
2.8735300787401572
11
-1.7809770866141732
21
2.8691350787401575
0
LINE
8
BLACK
6
CONTINUOUS
10
-1.7809770866141732
20
2.8691350787401575
11
-1.788285748031496
21
2.8661077165354332
0
LINE
8
BLACK
6
CONTINUOUS
10
-1.788285748031496
20
2.8661077165354332
11
-1.7960445669291338
21
2.864564409448819
0
LINE
8
BLACK
6
CONTINUOUS
10
-1.7960445669291338
20
2.864564409448819
11
-1.803955433070866
21
2.864564409448819
0
LINE
8
BLACK
6
CONTINUOUS
10
-1.803955433070866
20
2.864564409448819
11
-1.8117142519685039
21
2.8661077165354332
0
LINE
8
BLACK
6
CONTINUOUS
10
-1.8117142519685039
20
2.8661077165354332
11
-1.8190229133858267
21
2.8691350787401575
0
LINE
8
BLACK
6
CONTINUOUS
10
-1.8190229133858267
20
2.8691350787401575
11
-1.8256005118110237
21
2.8735300787401572
0
LINE
8
BLACK
6
CONTINUOUS
10
-1.8256005118110237
20
2.8735300787401572
11
-1.8311943307086613
21
2.8791238976377951
0
LINE
8
BLACK
6
CONTINUOUS
10
-1.8311943307086613
20
2.8791238976377951
11
-1.8355893307086615
21
2.8857014960629921
0
LINE
8
BLACK
6
CONTINUOUS
10
-1.8355893307086615
20
2.8857014960629921
11
-1.8386166929133858
21
2.8930101574803149
0
LINE
8
BLACK
6
CONTINUOUS
10
-1.8386166929133858
20
2.8930101574803149
11
-1.84016
21
2.9007689763779525
0
LINE
8
BLACK
6
CONTINUOUS
10
-1.84016
20
2.9007689763779525
11
-1.84016
21
2.9085050787401574
0
LINE
8
BLACK
6
CONTINUOUS
10
-1.84016
20
2.9085050787401574
11
-1.84016
21
2.9086798425196849
0
LINE
8
BLACK
6
CONTINUOUS
10
-1.84016
20
2.9086798425196849
11
-1.8386166929133858
21
2.9164386614173226
0
LINE
8
BLACK
6
CONTINUOUS
10
-1.8386166929133858
20
2.9164386614173226
11
-1.8355893307086615
21
2.9237473228346458
0
LINE
8
BLACK
6
CONTINUOUS
10
-1.8355893307086615
20
2.9237473228346458
11
-1.8311943307086613
21
2.9303249212598423
0
LINE
8
BLACK
6
CONTINUOUS
10
-1.8311943307086613
20
2.9303249212598423
11
-1.8256005118110237
21
2.9359187401574802
0
LINE
8
BLACK
6
CONTINUOUS
10
-1.8256005118110237
20
2.9359187401574802
11
-1.8190229133858267
21
2.9403137401574804
0
LINE
8
BLACK
6
CONTINUOUS
10
-1.8190229133858267
20
2.9403137401574804
11
-1.8117142519685039
21
2.9433411023622047
0
LINE
8
BLACK
6
CONTINUOUS
10
-1.8117142519685039
20
2.9433411023622047
11
-1.803955433070866
21
2.9448844094488189
0
LINE
8
BLACK
6
CONTINUOUS
10
-1.803955433070866
20
2.9448844094488189
11
-1.7960445669291338
21
2.9448844094488189
0
LINE
8
BLACK
6
CONTINUOUS
10
-1.7960445669291338
20
2.9448844094488189
11
-1.788285748031496
21
2.9433411023622047
0
LINE
8
BLACK
6
CONTINUOUS
10
-1.8383858267716535
20
2.9009437401574805
11
-1.8369107086614174
21
2.8935276771653542
0
LINE
8
BLACK
6
CONTINUOUS
10
-1.8369107086614174
20
2.8935276771653542
11
-1.8340170866141732
21
2.8865418897637793
0
LINE
8
BLACK
6
CONTINUOUS
10
-1.8340170866141732
20
2.8865418897637793
11
-1.8298162204724409
21
2.880254842519685
0
LINE
8
BLACK
6
CONTINUOUS
10
-1.8298162204724409
20
2.880254842519685
11
-1.8244695669291338
21
2.8749081889763777
0
LINE
8
BLACK
6
CONTINUOUS
10
-1.8244695669291338
20
2.8749081889763777
11
-1.8181825196850394
21
2.8707073228346456
0
LINE
8
BLACK
6
CONTINUOUS
10
-1.8181825196850394
20
2.8707073228346456
11
-1.8111967322834646
21
2.8678137007874014
0
LINE
8
BLACK
6
CONTINUOUS
10
-1.8111967322834646
20
2.8678137007874014
11
-1.8037806692913385
21
2.8663385826771655
0
LINE
8
BLACK
6
CONTINUOUS
10
-1.8037806692913385
20
2.8663385826771655
11
-1.7962193307086614
21
2.8663385826771655
0
LINE
8
BLACK
6
CONTINUOUS
10
-1.7962193307086614
20
2.8663385826771655
11
-1.7888032677165353
21
2.8678137007874014
0
LINE
8
BLACK
6
CONTINUOUS
10
-1.7888032677165353
20
2.8678137007874014
11
-1.7818174803149607
21
2.8707073228346456
0
LINE
8
BLACK
6
CONTINUOUS
10
-1.7818174803149607
20
2.8707073228346456
11
-1.7755304330708661
21
2.8749081889763777
0
LINE
8
BLACK
6
CONTINUOUS
10
-1.7755304330708661
20
2.8749081889763777
11
-1.770183779527559
21
2.880254842519685
0
LINE
8
BLACK
6
CONTINUOUS
10
-1.770183779527559
20
2.880254842519685
11
-1.7659829133858267
21
2.8865418897637793
0
LINE
8
BLACK
6
CONTINUOUS
10
-1.7659829133858267
20
2.8865418897637793
11
-1.7630892913385827
21
2.8935276771653542
0
LINE
8
BLACK
6
CONTINUOUS
10
-1.7630892913385827
20
2.8935276771653542
11
-1.7616141732283463
21
2.9009437401574805
0
LINE
8
BLACK
6
CONTINUOUS
10
-1.7616141732283463
20
2.9009437401574805
11
-1.7616141732283463
21
2.9085050787401574
0
LINE
8
BLACK
6
CONTINUOUS
10
-1.7616141732283463
20
2.9085050787401574
11
-1.7630892913385827
21
2.9159211417322832
0
LINE
8
BLACK
6
CONTINUOUS
10
-1.7630892913385827
20
2.9159211417322832
11
-1.7659829133858267
21
2.9229069291338581
0
LINE
8
BLACK
6
CONTINUOUS
10
-1.7659829133858267
20
2.9229069291338581
11
-1.770183779527559
21
2.9291939763779529
0
LINE
8
BLACK
6
CONTINUOUS
10
-1.770183779527559
20
2.9291939763779529
11
-1.7755304330708661
21
2.9345406299212597
0
LINE
8
BLACK
6
CONTINUOUS
10
-1.7755304330708661
20
2.9345406299212597
11
-1.7818174803149607
21
2.9387414960629918
0
LINE
8
BLACK
6
CONTINUOUS
10
-1.7818174803149607
20
2.9387414960629918
11
-1.7888032677165353
21
2.941635118110236
0
LINE
8
BLACK
6
CONTINUOUS
10
-1.7888032677165353
20
2.941635118110236
11
-1.7962193307086614
21
2.9431102362204724
0
LINE
8
BLACK
6
CONTINUOUS
10
-1.7962193307086614
20
2.9431102362204724
11
-1.8037806692913385
21
2.9431102362204724
0
LINE
8
BLACK
6
CONTINUOUS
10
-1.8037806692913385
20
2.9431102362204724
11
-1.8111967322834646
21
2.941635118110236
0
LINE
8
BLACK
6
CONTINUOUS
10
-1.8111967322834646
20
2.941635118110236
11
-1.8181825196850394
21
2.9387414960629918
0
LINE
8
BLACK
6
CONTINUOUS
10
-1.8181825196850394
20
2.9387414960629918
11
-1.8244695669291338
21
2.9345406299212597
0
LINE
8
BLACK
6
CONTINUOUS
10
-1.8244695669291338
20
2.9345406299212597
11
-1.8298162204724409
21
2.9291939763779529
0
LINE
8
BLACK
6
CONTINUOUS
10
-1.8298162204724409
20
2.9291939763779529
11
-1.8340170866141732
21
2.9229069291338581
0
LINE
8
BLACK
6
CONTINUOUS
10
-1.8340170866141732
20
2.9229069291338581
11
-1.8369107086614174
21
2.9159211417322832
0
LINE
8
BLACK
6
CONTINUOUS
10
-1.8369107086614174
20
2.9159211417322832
11
-1.8383858267716535
21
2.9085050787401574
0
LINE
8
BLACK
6
CONTINUOUS
10
-1.8383858267716535
20
2.9085050787401574
11
-1.8383858267716535
21
2.9009437401574805
0
LINE
8
BLACK
6
CONTINUOUS
10
-2.2764747244094488
20
3.1165694488188977
11
-2.269166062992126
21
3.113542086614173
0
LINE
8
BLACK
6
CONTINUOUS
10
-2.269166062992126
20
3.113542086614173
11
-2.262588464566929
21
3.1091470866141733
0
LINE
8
BLACK
6
CONTINUOUS
10
-2.262588464566929
20
3.1091470866141733
11
-2.2569946456692911
21
3.1035532677165354
0
LINE
8
BLACK
6
CONTINUOUS
10
-2.2569946456692911
20
3.1035532677165354
11
-2.2525996456692914
21
3.0969756692913384
0
LINE
8
BLACK
6
CONTINUOUS
10
-2.2525996456692914
20
3.0969756692913384
11
-2.2495722834645671
21
3.0896670078740156
0
LINE
8
BLACK
6
CONTINUOUS
10
-2.2495722834645671
20
3.0896670078740156
11
-2.2480289763779528
21
3.081908188976378
0
LINE
8
BLACK
6
CONTINUOUS
10
-2.2480289763779528
20
3.081908188976378
11
-2.2480289763779528
21
3.0739973228346456
0
LINE
8
BLACK
6
CONTINUOUS
10
-2.2480289763779528
20
3.0739973228346456
11
-2.2495722834645671
21
3.0662385039370079
0
LINE
8
BLACK
6
CONTINUOUS
10
-2.2495722834645671
20
3.0662385039370079
11
-2.2525996456692914
21
3.0589298425196851
0
LINE
8
BLACK
6
CONTINUOUS
10
-2.2525996456692914
20
3.0589298425196851
11
-2.2569946456692911
21
3.0523522440944881
0
LINE
8
BLACK
6
CONTINUOUS
10
-2.2569946456692911
20
3.0523522440944881
11
-2.262588464566929
21
3.0467584251968503
0
LINE
8
BLACK
6
CONTINUOUS
10
-2.262588464566929
20
3.0467584251968503
11
-2.269166062992126
21
3.0423634251968505
0
LINE
8
BLACK
6
CONTINUOUS
10
-2.269166062992126
20
3.0423634251968505
11
-2.2764747244094488
21
3.0393360629921258
0
LINE
8
BLACK
6
CONTINUOUS
10
-2.2764747244094488
20
3.0393360629921258
11
-2.2842335433070864
21
3.0377927559055116
0
LINE
8
BLACK
6
CONTINUOUS
10
-2.2842335433070864
20
3.0377927559055116
11
-2.2921444094488188
21
3.0377927559055116
0
LINE
8
BLACK
6
CONTINUOUS
10
-2.2921444094488188
20
3.0377927559055116
11
-2.2999032283464564
21
3.0393360629921258
0
LINE
8
BLACK
6
CONTINUOUS
10
-2.2999032283464564
20
3.0393360629921258
11
-2.3072118897637797
21
3.0423634251968505
0
LINE
8
BLACK
6
CONTINUOUS
10
-2.3072118897637797
20
3.0423634251968505
11
-2.3137894881889762
21
3.0467584251968503
0
LINE
8
BLACK
6
CONTINUOUS
10
-2.3137894881889762
20
3.0467584251968503
11
-2.3193833070866141
21
3.0523522440944881
0
LINE
8
BLACK
6
CONTINUOUS
10
-2.3193833070866141
20
3.0523522440944881
11
-2.3237783070866143
21
3.0589298425196851
0
LINE
8
BLACK
6
CONTINUOUS
10
-2.3237783070866143
20
3.0589298425196851
11
-2.3268056692913386
21
3.0662385039370079
0
LINE
8
BLACK
6
CONTINUOUS
10
-2.3268056692913386
20
3.0662385039370079
11
-2.3283489763779528
21
3.0739973228346456
0
LINE
8
BLACK
6
CONTINUOUS
10
-2.3283489763779528
20
3.0739973228346456
11
-2.3283489763779528
21
3.0817334251968505
0
LINE
8
BLACK
6
CONTINUOUS
10
-2.3283489763779528
20
3.0817334251968505
11
-2.3283489763779528
21
3.081908188976378
0
LINE
8
BLACK
6
CONTINUOUS
10
-2.3283489763779528
20
3.081908188976378
11
-2.3268056692913386
21
3.0896670078740156
0
LINE
8
BLACK
6
CONTINUOUS
10
-2.3268056692913386
20
3.0896670078740156
11
-2.3237783070866143
21
3.0969756692913384
0
LINE
8
BLACK
6
CONTINUOUS
10
-2.3237783070866143
20
3.0969756692913384
11
-2.3193833070866141
21
3.1035532677165354
0
LINE
8
BLACK
6
CONTINUOUS
10
-2.3193833070866141
20
3.1035532677165354
11
-2.3137894881889762
21
3.1091470866141733
0
LINE
8
BLACK
6
CONTINUOUS
10
-2.3137894881889762
20
3.1091470866141733
11
-2.3072118897637797
21
3.113542086614173
0
LINE
8
BLACK
6
CONTINUOUS
10
-2.3072118897637797
20
3.113542086614173
11
-2.2999032283464564
21
3.1165694488188977
0
LINE
8
BLACK
6
CONTINUOUS
10
-2.2999032283464564
20
3.1165694488188977
11
-2.2921444094488188
21
3.118112755905512
0
LINE
8
BLACK
6
CONTINUOUS
10
-2.2921444094488188
20
3.118112755905512
11
-2.2842335433070864
21
3.118112755905512
0
LINE
8
BLACK
6
CONTINUOUS
10
-2.2842335433070864
20
3.118112755905512
11
-2.2764747244094488
21
3.1165694488188977
0
LINE
8
BLACK
6
CONTINUOUS
10
-2.3265748031496063
20
3.0741720866141731
11
-2.3250996850393699
21
3.0667560236220472
0
LINE
8
BLACK
6
CONTINUOUS
10
-2.3250996850393699
20
3.0667560236220472
11
-2.3222060629921257
21
3.0597702362204724
0
LINE
8
BLACK
6
CONTINUOUS
10
-2.3222060629921257
20
3.0597702362204724
11
-2.3180051968503936
21
3.053483188976378
0
LINE
8
BLACK
6
CONTINUOUS
10
-2.3180051968503936
20
3.053483188976378
11
-2.3126585433070868
21
3.0481365354330707
0
LINE
8
BLACK
6
CONTINUOUS
10
-2.3126585433070868
20
3.0481365354330707
11
-2.306371496062992
21
3.0439356692913386
0
LINE
8
BLACK
6
CONTINUOUS
10
-2.306371496062992
20
3.0439356692913386
11
-2.2993857086614171
21
3.0410420472440944
0
LINE
8
BLACK
6
CONTINUOUS
10
-2.2993857086614171
20
3.0410420472440944
11
-2.2919696456692913
21
3.0395669291338581
0
LINE
8
BLACK
6
CONTINUOUS
10
-2.2919696456692913
20
3.0395669291338581
11
-2.2844083070866139
21
3.0395669291338581
0
LINE
8
BLACK
6
CONTINUOUS
10
-2.2844083070866139
20
3.0395669291338581
11
-2.2769922440944881
21
3.0410420472440944
0
LINE
8
BLACK
6
CONTINUOUS
10
-2.2769922440944881
20
3.0410420472440944
11
-2.2700064566929132
21
3.0439356692913386
0
LINE
8
BLACK
6
CONTINUOUS
10
-2.2700064566929132
20
3.0439356692913386
11
-2.2637194094488189
21
3.0481365354330707
0
LINE
8
BLACK
6
CONTINUOUS
10
-2.2637194094488189
20
3.0481365354330707
11
-2.2583727559055116
21
3.053483188976378
0
LINE
8
BLACK
6
CONTINUOUS
10
-2.2583727559055116
20
3.053483188976378
11
-2.2541718897637795
21
3.0597702362204724
0
LINE
8
BLACK
6
CONTINUOUS
10
-2.2541718897637795
20
3.0597702362204724
11
-2.2512782677165353
21
3.0667560236220472
0
LINE
8
BLACK
6
CONTINUOUS
10
-2.2512782677165353
20
3.0667560236220472
11
-2.2498031496062993
21
3.0741720866141731
0
LINE
8
BLACK
6
CONTINUOUS
10
-2.2498031496062993
20
3.0741720866141731
11
-2.2498031496062993
21
3.0817334251968505
0
LINE
8
BLACK
6
CONTINUOUS
10
-2.2498031496062993
20
3.0817334251968505
11
-2.2512782677165353
21
3.0891494881889763
0
LINE
8
BLACK
6
CONTINUOUS
10
-2.2512782677165353
20
3.0891494881889763
11
-2.2541718897637795
21
3.0961352755905511
0
LINE
8
BLACK
6
CONTINUOUS
10
-2.2541718897637795
20
3.0961352755905511
11
-2.2583727559055116
21
3.1024223228346455
0
LINE
8
BLACK
6
CONTINUOUS
10
-2.2583727559055116
20
3.1024223228346455
11
-2.2637194094488189
21
3.1077689763779528
0
LINE
8
BLACK
6
CONTINUOUS
10
-2.2637194094488189
20
3.1077689763779528
11
-2.2700064566929132
21
3.1119698425196849
0
LINE
8
BLACK
6
CONTINUOUS
10
-2.2700064566929132
20
3.1119698425196849
11
-2.2769922440944881
21
3.1148634645669291
0
LINE
8
BLACK
6
CONTINUOUS
10
-2.2769922440944881
20
3.1148634645669291
11
-2.2844083070866139
21
3.1163385826771655
0
LINE
8
BLACK
6
CONTINUOUS
10
-2.2844083070866139
20
3.1163385826771655
11
-2.2919696456692913
21
3.1163385826771655
0
LINE
8
BLACK
6
CONTINUOUS
10
-2.2919696456692913
20
3.1163385826771655
11
-2.2993857086614171
21
3.1148634645669291
0
LINE
8
BLACK
6
CONTINUOUS
10
-2.2993857086614171
20
3.1148634645669291
11
-2.306371496062992
21
3.1119698425196849
0
LINE
8
BLACK
6
CONTINUOUS
10
-2.306371496062992
20
3.1119698425196849
11
-2.3126585433070868
21
3.1077689763779528
0
LINE
8
BLACK
6
CONTINUOUS
10
-2.3126585433070868
20
3.1077689763779528
11
-2.3180051968503936
21
3.1024223228346455
0
LINE
8
BLACK
6
CONTINUOUS
10
-2.3180051968503936
20
3.1024223228346455
11
-2.3222060629921257
21
3.0961352755905511
0
LINE
8
BLACK
6
CONTINUOUS
10
-2.3222060629921257
20
3.0961352755905511
11
-2.3250996850393699
21
3.0891494881889763
0
LINE
8
BLACK
6
CONTINUOUS
10
-2.3250996850393699
20
3.0891494881889763
11
-2.3265748031496063
21
3.0817334251968505
0
LINE
8
BLACK
6
CONTINUOUS
10
-2.3265748031496063
20
3.0817334251968505
11
-2.3265748031496063
21
3.0741720866141731
0
LINE
8
BLACK
6
CONTINUOUS
10
-2.4182070078740159
20
3.2307426771653542
11
-2.4108983464566927
21
3.2277153149606299
0
LINE
8
BLACK
6
CONTINUOUS
10
-2.4108983464566927
20
3.2277153149606299
11
-2.4043207480314961
21
3.2233203149606298
0
LINE
8
BLACK
6
CONTINUOUS
10
-2.4043207480314961
20
3.2233203149606298
11
-2.3987269291338582
21
3.2177264960629919
0
LINE
8
BLACK
6
CONTINUOUS
10
-2.3987269291338582
20
3.2177264960629919
11
-2.3943319291338581
21
3.2111488976377953
0
LINE
8
BLACK
6
CONTINUOUS
10
-2.3943319291338581
20
3.2111488976377953
11
-2.3913045669291337
21
3.2038402362204725
0
LINE
8
BLACK
6
CONTINUOUS
10
-2.3913045669291337
20
3.2038402362204725
11
-2.3897612598425195
21
3.1960814173228345
0
LINE
8
BLACK
6
CONTINUOUS
10
-2.3897612598425195
20
3.1960814173228345
11
-2.3897612598425195
21
3.1881705511811025
0
LINE
8
BLACK
6
CONTINUOUS
10
-2.3897612598425195
20
3.1881705511811025
11
-2.3913045669291337
21
3.1804117322834644
0
LINE
8
BLACK
6
CONTINUOUS
10
-2.3913045669291337
20
3.1804117322834644
11
-2.3943319291338581
21
3.1731030708661416
0
LINE
8
BLACK
6
CONTINUOUS
10
-2.3943319291338581
20
3.1731030708661416
11
-2.3987269291338582
21
3.1665254724409446
0
LINE
8
BLACK
6
CONTINUOUS
10
-2.3987269291338582
20
3.1665254724409446
11
-2.4043207480314961
21
3.1609316535433072
0
LINE
8
BLACK
6
CONTINUOUS
10
-2.4043207480314961
20
3.1609316535433072
11
-2.4108983464566927
21
3.156536653543307
0
LINE
8
BLACK
6
CONTINUOUS
10
-2.4108983464566927
20
3.156536653543307
11
-2.4182070078740159
21
3.1535092913385827
0
LINE
8
BLACK
6
CONTINUOUS
10
-2.4182070078740159
20
3.1535092913385827
11
-2.4259658267716535
21
3.1519659842519685
0
LINE
8
BLACK
6
CONTINUOUS
10
-2.4259658267716535
20
3.1519659842519685
11
-2.4338766929133859
21
3.1519659842519685
0
LINE
8
BLACK
6
CONTINUOUS
10
-2.4338766929133859
20
3.1519659842519685
11
-2.4416355118110236
21
3.1535092913385827
0
LINE
8
BLACK
6
CONTINUOUS
10
-2.4416355118110236
20
3.1535092913385827
11
-2.4489441732283463
21
3.156536653543307
0
LINE
8
BLACK
6
CONTINUOUS
10
-2.4489441732283463
20
3.156536653543307
11
-2.4555217716535434
21
3.1609316535433072
0
LINE
8
BLACK
6
CONTINUOUS
10
-2.4555217716535434
20
3.1609316535433072
11
-2.4611155905511812
21
3.1665254724409446
0
LINE
8
BLACK
6
CONTINUOUS
10
-2.4611155905511812
20
3.1665254724409446
11
-2.4655105905511809
21
3.1731030708661416
0
LINE
8
BLACK
6
CONTINUOUS
10
-2.4655105905511809
20
3.1731030708661416
11
-2.4685379527559053
21
3.1804117322834644
0
LINE
8
BLACK
6
CONTINUOUS
10
-2.4685379527559053
20
3.1804117322834644
11
-2.4700812598425195
21
3.1881705511811025
0
LINE
8
BLACK
6
CONTINUOUS
10
-2.4700812598425195
20
3.1881705511811025
11
-2.4700812598425195
21
3.1959066535433069
0
LINE
8
BLACK
6
CONTINUOUS
10
-2.4700812598425195
20
3.1959066535433069
11
-2.4700812598425195
21
3.1960814173228345
0
LINE
8
BLACK
6
CONTINUOUS
10
-2.4700812598425195
20
3.1960814173228345
11
-2.4685379527559053
21
3.2038402362204725
0
LINE
8
BLACK
6
CONTINUOUS
10
-2.4685379527559053
20
3.2038402362204725
11
-2.4655105905511809
21
3.2111488976377953
0
LINE
8
BLACK
6
CONTINUOUS
10
-2.4655105905511809
20
3.2111488976377953
11
-2.4611155905511812
21
3.2177264960629919
0
LINE
8
BLACK
6
CONTINUOUS
10
-2.4611155905511812
20
3.2177264960629919
11
-2.4555217716535434
21
3.2233203149606298
0
LINE
8
BLACK
6
CONTINUOUS
10
-2.4555217716535434
20
3.2233203149606298
11
-2.4489441732283463
21
3.2277153149606299
0
LINE
8
BLACK
6
CONTINUOUS
10
-2.4489441732283463
20
3.2277153149606299
11
-2.4416355118110236
21
3.2307426771653542
0
LINE
8
BLACK
6
CONTINUOUS
10
-2.4416355118110236
20
3.2307426771653542
11
-2.4338766929133859
21
3.2322859842519684
0
LINE
8
BLACK
6
CONTINUOUS
10
-2.4338766929133859
20
3.2322859842519684
11
-2.4259658267716535
21
3.2322859842519684
0
LINE
8
BLACK
6
CONTINUOUS
10
-2.4259658267716535
20
3.2322859842519684
11
-2.4182070078740159
21
3.2307426771653542
0
LINE
8
BLACK
6
CONTINUOUS
10
-2.468307086614173
20
3.18834531496063
11
-2.466831968503937
21
3.1809292519685037
0
LINE
8
BLACK
6
CONTINUOUS
10
-2.466831968503937
20
3.1809292519685037
11
-2.4639383464566929
21
3.1739434645669289
0
LINE
8
BLACK
6
CONTINUOUS
10
-2.4639383464566929
20
3.1739434645669289
11
-2.4597374803149608
21
3.1676564173228345
0
LINE
8
BLACK
6
CONTINUOUS
10
-2.4597374803149608
20
3.1676564173228345
11
-2.4543908267716534
21
3.1623097637795277
0
LINE
8
BLACK
6
CONTINUOUS
10
-2.4543908267716534
20
3.1623097637795277
11
-2.4481037795275591
21
3.1581088976377951
0
LINE
8
BLACK
6
CONTINUOUS
10
-2.4481037795275591
20
3.1581088976377951
11
-2.4411179921259842
21
3.1552152755905509
0
LINE
8
BLACK
6
CONTINUOUS
10
-2.4411179921259842
20
3.1552152755905509
11
-2.4337019291338584
21
3.153740157480315
0
LINE
8
BLACK
6
CONTINUOUS
10
-2.4337019291338584
20
3.153740157480315
11
-2.426140590551181
21
3.153740157480315
0
LINE
8
BLACK
6
CONTINUOUS
10
-2.426140590551181
20
3.153740157480315
11
-2.4187245275590552
21
3.1552152755905509
0
LINE
8
BLACK
6
CONTINUOUS
10
-2.4187245275590552
20
3.1552152755905509
11
-2.4117387401574804
21
3.1581088976377951
0
LINE
8
BLACK
6
CONTINUOUS
10
-2.4117387401574804
20
3.1581088976377951
11
-2.4054516929133856
21
3.1623097637795277
0
LINE
8
BLACK
6
CONTINUOUS
10
-2.4054516929133856
20
3.1623097637795277
11
-2.4001050393700787
21
3.1676564173228345
0
LINE
8
BLACK
6
CONTINUOUS
10
-2.4001050393700787
20
3.1676564173228345
11
-2.3959041732283466
21
3.1739434645669289
0
LINE
8
BLACK
6
CONTINUOUS
10
-2.3959041732283466
20
3.1739434645669289
11
-2.3930105511811024
21
3.1809292519685037
0
LINE
8
BLACK
6
CONTINUOUS
10
-2.3930105511811024
20
3.1809292519685037
11
-2.391535433070866
21
3.18834531496063
0
LINE
8
BLACK
6
CONTINUOUS
10
-2.391535433070866
20
3.18834531496063
11
-2.391535433070866
21
3.1959066535433069
0
LINE
8
BLACK
6
CONTINUOUS
10
-2.391535433070866
20
3.1959066535433069
11
-2.3930105511811024
21
3.2033227165354332
0
LINE
8
BLACK
6
CONTINUOUS
10
-2.3930105511811024
20
3.2033227165354332
11
-2.3959041732283466
21
3.2103085039370076
0
LINE
8
BLACK
6
CONTINUOUS
10
-2.3959041732283466
20
3.2103085039370076
11
-2.4001050393700787
21
3.2165955511811024
0
LINE
8
BLACK
6
CONTINUOUS
10
-2.4001050393700787
20
3.2165955511811024
11
-2.4054516929133856
21
3.2219422047244093
0
LINE
8
BLACK
6
CONTINUOUS
10
-2.4054516929133856
20
3.2219422047244093
11
-2.4117387401574804
21
3.2261430708661418
0
LINE
8
BLACK
6
CONTINUOUS
10
-2.4117387401574804
20
3.2261430708661418
11
-2.4187245275590552
21
3.2290366929133856
0
LINE
8
BLACK
6
CONTINUOUS
10
-2.4187245275590552
20
3.2290366929133856
11
-2.426140590551181
21
3.2305118110236219
0
LINE
8
BLACK
6
CONTINUOUS
10
-2.426140590551181
20
3.2305118110236219
11
-2.4337019291338584
21
3.2305118110236219
0
LINE
8
BLACK
6
CONTINUOUS
10
-2.4337019291338584
20
3.2305118110236219
11
-2.4411179921259842
21
3.2290366929133856
0
LINE
8
BLACK
6
CONTINUOUS
10
-2.4411179921259842
20
3.2290366929133856
11
-2.4481037795275591
21
3.2261430708661418
0
LINE
8
BLACK
6
CONTINUOUS
10
-2.4481037795275591
20
3.2261430708661418
11
-2.4543908267716534
21
3.2219422047244093
0
LINE
8
BLACK
6
CONTINUOUS
10
-2.4543908267716534
20
3.2219422047244093
11
-2.4597374803149608
21
3.2165955511811024
0
LINE
8
BLACK
6
CONTINUOUS
10
-2.4597374803149608
20
3.2165955511811024
11
-2.4639383464566929
21
3.2103085039370076
0
LINE
8
BLACK
6
CONTINUOUS
10
-2.4639383464566929
20
3.2103085039370076
11
-2.466831968503937
21
3.2033227165354332
0
LINE
8
BLACK
6
CONTINUOUS
10
-2.466831968503937
20
3.2033227165354332
11
-2.468307086614173
21
3.1959066535433069
0
LINE
8
BLACK
6
CONTINUOUS
10
-2.468307086614173
20
3.1959066535433069
11
-2.468307086614173
21
3.18834531496063
0
LINE
8
BLACK
6
CONTINUOUS
10
-2.3079707874015747
20
3.2583017322834644
11
-2.3006621259842519
21
3.2552743700787401
0
LINE
8
BLACK
6
CONTINUOUS
10
-2.3006621259842519
20
3.2552743700787401
11
-2.2940845275590549
21
3.2508793700787399
0
LINE
8
BLACK
6
CONTINUOUS
10
-2.2940845275590549
20
3.2508793700787399
11
-2.2884907086614175
21
3.2452855511811021
0
LINE
8
BLACK
6
CONTINUOUS
10
-2.2884907086614175
20
3.2452855511811021
11
-2.2840957086614173
21
3.2387079527559055
0
LINE
8
BLACK
6
CONTINUOUS
10
-2.2840957086614173
20
3.2387079527559055
11
-2.281068346456693
21
3.2313992913385827
0
LINE
8
BLACK
6
CONTINUOUS
10
-2.281068346456693
20
3.2313992913385827
11
-2.2795250393700788
21
3.2236404724409446
0
LINE
8
BLACK
6
CONTINUOUS
10
-2.2795250393700788
20
3.2236404724409446
11
-2.2795250393700788
21
3.2157296062992127
0
LINE
8
BLACK
6
CONTINUOUS
10
-2.2795250393700788
20
3.2157296062992127
11
-2.281068346456693
21
3.2079707874015746
0
LINE
8
BLACK
6
CONTINUOUS
10
-2.281068346456693
20
3.2079707874015746
11
-2.2840957086614173
21
3.2006621259842518
0
LINE
8
BLACK
6
CONTINUOUS
10
-2.2840957086614173
20
3.2006621259842518
11
-2.2884907086614175
21
3.1940845275590553
0
LINE
8
BLACK
6
CONTINUOUS
10
-2.2884907086614175
20
3.1940845275590553
11
-2.2940845275590549
21
3.1884907086614174
0
LINE
8
BLACK
6
CONTINUOUS
10
-2.2940845275590549
20
3.1884907086614174
11
-2.3006621259842519
21
3.1840957086614172
0
LINE
8
BLACK
6
CONTINUOUS
10
-2.3006621259842519
20
3.1840957086614172
11
-2.3079707874015747
21
3.1810683464566929
0
LINE
8
BLACK
6
CONTINUOUS
10
-2.3079707874015747
20
3.1810683464566929
11
-2.3157296062992128
21
3.1795250393700787
0
LINE
8
BLACK
6
CONTINUOUS
10
-2.3157296062992128
20
3.1795250393700787
11
-2.3236404724409447
21
3.1795250393700787
0
LINE
8
BLACK
6
CONTINUOUS
10
-2.3236404724409447
20
3.1795250393700787
11
-2.3313992913385828
21
3.1810683464566929
0
LINE
8
BLACK
6
CONTINUOUS
10
-2.3313992913385828
20
3.1810683464566929
11
-2.3387079527559056
21
3.1840957086614172
0
LINE
8
BLACK
6
CONTINUOUS
10
-2.3387079527559056
20
3.1840957086614172
11
-2.3452855511811022
21
3.1884907086614174
0
LINE
8
BLACK
6
CONTINUOUS
10
-2.3452855511811022
20
3.1884907086614174
11
-2.35087937007874
21
3.1940845275590553
0
LINE
8
BLACK
6
CONTINUOUS
10
-2.35087937007874
20
3.1940845275590553
11
-2.3552743700787402
21
3.2006621259842518
0
LINE
8
BLACK
6
CONTINUOUS
10
-2.3552743700787402
20
3.2006621259842518
11
-2.3583017322834645
21
3.2079707874015746
0
LINE
8
BLACK
6
CONTINUOUS
10
-2.3583017322834645
20
3.2079707874015746
11
-2.3598450393700787
21
3.2157296062992127
0
LINE
8
BLACK
6
CONTINUOUS
10
-2.3598450393700787
20
3.2157296062992127
11
-2.3598450393700787
21
3.2234657086614171
0
LINE
8
BLACK
6
CONTINUOUS
10
-2.3598450393700787
20
3.2234657086614171
11
-2.3598450393700787
21
3.2236404724409446
0
LINE
8
BLACK
6
CONTINUOUS
10
-2.3598450393700787
20
3.2236404724409446
11
-2.3583017322834645
21
3.2313992913385827
0
LINE
8
BLACK
6
CONTINUOUS
10
-2.3583017322834645
20
3.2313992913385827
11
-2.3552743700787402
21
3.2387079527559055
0
LINE
8
BLACK
6
CONTINUOUS
10
-2.3552743700787402
20
3.2387079527559055
11
-2.35087937007874
21
3.2452855511811021
0
LINE
8
BLACK
6
CONTINUOUS
10
-2.35087937007874
20
3.2452855511811021
11
-2.3452855511811022
21
3.2508793700787399
0
LINE
8
BLACK
6
CONTINUOUS
10
-2.3452855511811022
20
3.2508793700787399
11
-2.3387079527559056
21
3.2552743700787401
0
LINE
8
BLACK
6
CONTINUOUS
10
-2.3387079527559056
20
3.2552743700787401
11
-2.3313992913385828
21
3.2583017322834644
0
LINE
8
BLACK
6
CONTINUOUS
10
-2.3313992913385828
20
3.2583017322834644
11
-2.3236404724409447
21
3.2598450393700786
0
LINE
8
BLACK
6
CONTINUOUS
10
-2.3236404724409447
20
3.2598450393700786
11
-2.3157296062992128
21
3.2598450393700786
0
LINE
8
BLACK
6
CONTINUOUS
10
-2.3157296062992128
20
3.2598450393700786
11
-2.3079707874015747
21
3.2583017322834644
0
LINE
8
BLACK
6
CONTINUOUS
10
-2.3580708661417322
20
3.2159043700787402
11
-2.3565957480314959
21
3.2084883070866139
0
LINE
8
BLACK
6
CONTINUOUS
10
-2.3565957480314959
20
3.2084883070866139
11
-2.3537021259842521
21
3.2015025196850395
0
LINE
8
BLACK
6
CONTINUOUS
10
-2.3537021259842521
20
3.2015025196850395
11
-2.3495012598425196
21
3.1952154724409447
0
LINE
8
BLACK
6
CONTINUOUS
10
-2.3495012598425196
20
3.1952154724409447
11
-2.3441546062992127
21
3.1898688188976378
0
LINE
8
BLACK
6
CONTINUOUS
10
-2.3441546062992127
20
3.1898688188976378
11
-2.3378675590551179
21
3.1856679527559053
0
LINE
8
BLACK
6
CONTINUOUS
10
-2.3378675590551179
20
3.1856679527559053
11
-2.330881771653543
21
3.1827743307086616
0
LINE
8
BLACK
6
CONTINUOUS
10
-2.330881771653543
20
3.1827743307086616
11
-2.3234657086614172
21
3.1812992125984252
0
LINE
8
BLACK
6
CONTINUOUS
10
-2.3234657086614172
20
3.1812992125984252
11
-2.3159043700787403
21
3.1812992125984252
0
LINE
8
BLACK
6
CONTINUOUS
10
-2.3159043700787403
20
3.1812992125984252
11
-2.308488307086614
21
3.1827743307086616
0
LINE
8
BLACK
6
CONTINUOUS
10
-2.308488307086614
20
3.1827743307086616
11
-2.3015025196850392
21
3.1856679527559053
0
LINE
8
BLACK
6
CONTINUOUS
10
-2.3015025196850392
20
3.1856679527559053
11
-2.2952154724409448
21
3.1898688188976378
0
LINE
8
BLACK
6
CONTINUOUS
10
-2.2952154724409448
20
3.1898688188976378
11
-2.2898688188976379
21
3.1952154724409447
0
LINE
8
BLACK
6
CONTINUOUS
10
-2.2898688188976379
20
3.1952154724409447
11
-2.2856679527559054
21
3.2015025196850395
0
LINE
8
BLACK
6
CONTINUOUS
10
-2.2856679527559054
20
3.2015025196850395
11
-2.2827743307086612
21
3.2084883070866139
0
LINE
8
BLACK
6
CONTINUOUS
10
-2.2827743307086612
20
3.2084883070866139
11
-2.2812992125984253
21
3.2159043700787402
0
LINE
8
BLACK
6
CONTINUOUS
10
-2.2812992125984253
20
3.2159043700787402
11
-2.2812992125984253
21
3.2234657086614171
0
LINE
8
BLACK
6
CONTINUOUS
10
-2.2812992125984253
20
3.2234657086614171
11
-2.2827743307086612
21
3.2308817716535434
0
LINE
8
BLACK
6
CONTINUOUS
10
-2.2827743307086612
20
3.2308817716535434
11
-2.2856679527559054
21
3.2378675590551182
0
LINE
8
BLACK
6
CONTINUOUS
10
-2.2856679527559054
20
3.2378675590551182
11
-2.2898688188976379
21
3.2441546062992126
0
LINE
8
BLACK
6
CONTINUOUS
10
-2.2898688188976379
20
3.2441546062992126
11
-2.2952154724409448
21
3.2495012598425195
0
LINE
8
BLACK
6
CONTINUOUS
10
-2.2952154724409448
20
3.2495012598425195
11
-2.3015025196850392
21
3.253702125984252
0
LINE
8
BLACK
6
CONTINUOUS
10
-2.3015025196850392
20
3.253702125984252
11
-2.308488307086614
21
3.2565957480314962
0
LINE
8
BLACK
6
CONTINUOUS
10
-2.308488307086614
20
3.2565957480314962
11
-2.3159043700787403
21
3.2580708661417321
0
LINE
8
BLACK
6
CONTINUOUS
10
-2.3159043700787403
20
3.2580708661417321
11
-2.3234657086614172
21
3.2580708661417321
0
LINE
8
BLACK
6
CONTINUOUS
10
-2.3234657086614172
20
3.2580708661417321
11
-2.330881771653543
21
3.2565957480314962
0
LINE
8
BLACK
6
CONTINUOUS
10
-2.330881771653543
20
3.2565957480314962
11
-2.3378675590551179
21
3.253702125984252
0
LINE
8
BLACK
6
CONTINUOUS
10
-2.3378675590551179
20
3.253702125984252
11
-2.3441546062992127
21
3.2495012598425195
0
LINE
8
BLACK
6
CONTINUOUS
10
-2.3441546062992127
20
3.2495012598425195
11
-2.3495012598425196
21
3.2441546062992126
0
LINE
8
BLACK
6
CONTINUOUS
10
-2.3495012598425196
20
3.2441546062992126
11
-2.3537021259842521
21
3.2378675590551182
0
LINE
8
BLACK
6
CONTINUOUS
10
-2.3537021259842521
20
3.2378675590551182
11
-2.3565957480314959
21
3.2308817716535434
0
LINE
8
BLACK
6
CONTINUOUS
10
-2.3565957480314959
20
3.2308817716535434
11
-2.3580708661417322
21
3.2234657086614171
0
LINE
8
BLACK
6
CONTINUOUS
10
-2.3580708661417322
20
3.2234657086614171
11
-2.3580708661417322
21
3.2159043700787402
0
LINE
8
BLACK
6
CONTINUOUS
10
-1.7764747244094488
20
3.4709001574803149
11
-1.769166062992126
21
3.4678727952755906
0
LINE
8
BLACK
6
CONTINUOUS
10
-1.769166062992126
20
3.4678727952755906
11
-1.7625884645669292
21
3.4634777952755904
0
LINE
8
BLACK
6
CONTINUOUS
10
-1.7625884645669292
20
3.4634777952755904
11
-1.7569946456692913
21
3.4578839763779525
0
LINE
8
BLACK
6
CONTINUOUS
10
-1.7569946456692913
20
3.4578839763779525
11
-1.7525996456692914
21
3.451306377952756
0
LINE
8
BLACK
6
CONTINUOUS
10
-1.7525996456692914
20
3.451306377952756
11
-1.7495722834645668
21
3.4439977165354332
0
LINE
8
BLACK
6
CONTINUOUS
10
-1.7495722834645668
20
3.4439977165354332
11
-1.7480289763779526
21
3.4362388976377951
0
LINE
8
BLACK
6
CONTINUOUS
10
-1.7480289763779526
20
3.4362388976377951
11
-1.7480289763779526
21
3.4283280314960631
0
LINE
8
BLACK
6
CONTINUOUS
10
-1.7480289763779526
20
3.4283280314960631
11
-1.7495722834645668
21
3.4205692125984251
0
LINE
8
BLACK
6
CONTINUOUS
10
-1.7495722834645668
20
3.4205692125984251
11
-1.7525996456692914
21
3.4132605511811023
0
LINE
8
BLACK
6
CONTINUOUS
10
-1.7525996456692914
20
3.4132605511811023
11
-1.7569946456692913
21
3.4066829527559053
0
LINE
8
BLACK
6
CONTINUOUS
10
-1.7569946456692913
20
3.4066829527559053
11
-1.7625884645669292
21
3.4010891338582678
0
LINE
8
BLACK
6
CONTINUOUS
10
-1.7625884645669292
20
3.4010891338582678
11
-1.769166062992126
21
3.3966941338582677
0
LINE
8
BLACK
6
CONTINUOUS
10
-1.769166062992126
20
3.3966941338582677
11
-1.7764747244094488
21
3.3936667716535434
0
LINE
8
BLACK
6
CONTINUOUS
10
-1.7764747244094488
20
3.3936667716535434
11
-1.7842335433070866
21
3.3921234645669291
0
LINE
8
BLACK
6
CONTINUOUS
10
-1.7842335433070866
20
3.3921234645669291
11
-1.7921444094488188
21
3.3921234645669291
0
LINE
8
BLACK
6
CONTINUOUS
10
-1.7921444094488188
20
3.3921234645669291
11
-1.7999032283464567
21
3.3936667716535434
0
LINE
8
BLACK
6
CONTINUOUS
10
-1.7999032283464567
20
3.3936667716535434
11
-1.8072118897637794
21
3.3966941338582677
0
LINE
8
BLACK
6
CONTINUOUS
10
-1.8072118897637794
20
3.3966941338582677
11
-1.8137894881889762
21
3.4010891338582678
0
LINE
8
BLACK
6
CONTINUOUS
10
-1.8137894881889762
20
3.4010891338582678
11
-1.8193833070866141
21
3.4066829527559053
0
LINE
8
BLACK
6
CONTINUOUS
10
-1.8193833070866141
20
3.4066829527559053
11
-1.823778307086614
21
3.4132605511811023
0
LINE
8
BLACK
6
CONTINUOUS
10
-1.823778307086614
20
3.4132605511811023
11
-1.8268056692913386
21
3.4205692125984251
0
LINE
8
BLACK
6
CONTINUOUS
10
-1.8268056692913386
20
3.4205692125984251
11
-1.8283489763779528
21
3.4283280314960631
0
LINE
8
BLACK
6
CONTINUOUS
10
-1.8283489763779528
20
3.4283280314960631
11
-1.8283489763779528
21
3.4360641338582676
0
LINE
8
BLACK
6
CONTINUOUS
10
-1.8283489763779528
20
3.4360641338582676
11
-1.8283489763779528
21
3.4362388976377951
0
LINE
8
BLACK
6
CONTINUOUS
10
-1.8283489763779528
20
3.4362388976377951
11
-1.8268056692913386
21
3.4439977165354332
0
LINE
8
BLACK
6
CONTINUOUS
10
-1.8268056692913386
20
3.4439977165354332
11
-1.823778307086614
21
3.451306377952756
0
LINE
8
BLACK
6
CONTINUOUS
10
-1.823778307086614
20
3.451306377952756
11
-1.8193833070866141
21
3.4578839763779525
0
LINE
8
BLACK
6
CONTINUOUS
10
-1.8193833070866141
20
3.4578839763779525
11
-1.8137894881889762
21
3.4634777952755904
0
LINE
8
BLACK
6
CONTINUOUS
10
-1.8137894881889762
20
3.4634777952755904
11
-1.8072118897637794
21
3.4678727952755906
0
LINE
8
BLACK
6
CONTINUOUS
10
-1.8072118897637794
20
3.4678727952755906
11
-1.7999032283464567
21
3.4709001574803149
0
LINE
8
BLACK
6
CONTINUOUS
10
-1.7999032283464567
20
3.4709001574803149
11
-1.7921444094488188
21
3.4724434645669291
0
LINE
8
BLACK
6
CONTINUOUS
10
-1.7921444094488188
20
3.4724434645669291
11
-1.7842335433070866
21
3.4724434645669291
0
LINE
8
BLACK
6
CONTINUOUS
10
-1.7842335433070866
20
3.4724434645669291
11
-1.7764747244094488
21
3.4709001574803149
0
LINE
8
BLACK
6
CONTINUOUS
10
-1.8265748031496063
20
3.4285027952755907
11
-1.8250996850393701
21
3.4210867322834644
0
LINE
8
BLACK
6
CONTINUOUS
10
-1.8250996850393701
20
3.4210867322834644
11
-1.822206062992126
21
3.4141009448818895
0
LINE
8
BLACK
6
CONTINUOUS
10
-1.822206062992126
20
3.4141009448818895
11
-1.8180051968503936
21
3.4078138976377952
0
LINE
8
BLACK
6
CONTINUOUS
10
-1.8180051968503936
20
3.4078138976377952
11
-1.8126585433070865
21
3.4024672440944883
0
LINE
8
BLACK
6
CONTINUOUS
10
-1.8126585433070865
20
3.4024672440944883
11
-1.8063714960629922
21
3.3982663779527558
0
LINE
8
BLACK
6
CONTINUOUS
10
-1.8063714960629922
20
3.3982663779527558
11
-1.7993857086614173
21
3.3953727559055116
0
LINE
8
BLACK
6
CONTINUOUS
10
-1.7993857086614173
20
3.3953727559055116
11
-1.7919696456692913
21
3.3938976377952756
0
LINE
8
BLACK
6
CONTINUOUS
10
-1.7919696456692913
20
3.3938976377952756
11
-1.7844083070866141
21
3.3938976377952756
0
LINE
8
BLACK
6
CONTINUOUS
10
-1.7844083070866141
20
3.3938976377952756
11
-1.7769922440944881
21
3.3953727559055116
0
LINE
8
BLACK
6
CONTINUOUS
10
-1.7769922440944881
20
3.3953727559055116
11
-1.7700064566929135
21
3.3982663779527558
0
LINE
8
BLACK
6
CONTINUOUS
10
-1.7700064566929135
20
3.3982663779527558
11
-1.7637194094488189
21
3.4024672440944883
0
LINE
8
BLACK
6
CONTINUOUS
10
-1.7637194094488189
20
3.4024672440944883
11
-1.7583727559055118
21
3.4078138976377952
0
LINE
8
BLACK
6
CONTINUOUS
10
-1.7583727559055118
20
3.4078138976377952
11
-1.7541718897637795
21
3.4141009448818895
0
LINE
8
BLACK
6
CONTINUOUS
10
-1.7541718897637795
20
3.4141009448818895
11
-1.7512782677165355
21
3.4210867322834644
0
LINE
8
BLACK
6
CONTINUOUS
10
-1.7512782677165355
20
3.4210867322834644
11
-1.7498031496062991
21
3.4285027952755907
0
LINE
8
BLACK
6
CONTINUOUS
10
-1.7498031496062991
20
3.4285027952755907
11
-1.7498031496062991
21
3.4360641338582676
0
LINE
8
BLACK
6
CONTINUOUS
10
-1.7498031496062991
20
3.4360641338582676
11
-1.7512782677165355
21
3.4434801968503934
0
LINE
8
BLACK
6
CONTINUOUS
10
-1.7512782677165355
20
3.4434801968503934
11
-1.7541718897637795
21
3.4504659842519683
0
LINE
8
BLACK
6
CONTINUOUS
10
-1.7541718897637795
20
3.4504659842519683
11
-1.7583727559055118
21
3.4567530314960631
0
LINE
8
BLACK
6
CONTINUOUS
10
-1.7583727559055118
20
3.4567530314960631
11
-1.7637194094488189
21
3.4620996850393699
0
LINE
8
BLACK
6
CONTINUOUS
10
-1.7637194094488189
20
3.4620996850393699
11
-1.7700064566929135
21
3.4663005511811025
0
LINE
8
BLACK
6
CONTINUOUS
10
-1.7700064566929135
20
3.4663005511811025
11
-1.7769922440944881
21
3.4691941732283462
0
LINE
8
BLACK
6
CONTINUOUS
10
-1.7769922440944881
20
3.4691941732283462
11
-1.7844083070866141
21
3.4706692913385826
0
LINE
8
BLACK
6
CONTINUOUS
10
-1.7844083070866141
20
3.4706692913385826
11
-1.7919696456692913
21
3.4706692913385826
0
LINE
8
BLACK
6
CONTINUOUS
10
-1.7919696456692913
20
3.4706692913385826
11
-1.7993857086614173
21
3.4691941732283462
0
LINE
8
BLACK
6
CONTINUOUS
10
-1.7993857086614173
20
3.4691941732283462
11
-1.8063714960629922
21
3.4663005511811025
0
LINE
8
BLACK
6
CONTINUOUS
10
-1.8063714960629922
20
3.4663005511811025
11
-1.8126585433070865
21
3.4620996850393699
0
LINE
8
BLACK
6
CONTINUOUS
10
-1.8126585433070865
20
3.4620996850393699
11
-1.8180051968503936
21
3.4567530314960631
0
LINE
8
BLACK
6
CONTINUOUS
10
-1.8180051968503936
20
3.4567530314960631
11
-1.822206062992126
21
3.4504659842519683
0
LINE
8
BLACK
6
CONTINUOUS
10
-1.822206062992126
20
3.4504659842519683
11
-1.8250996850393701
21
3.4434801968503934
0
LINE
8
BLACK
6
CONTINUOUS
10
-1.8250996850393701
20
3.4434801968503934
11
-1.8265748031496063
21
3.4360641338582676
0
LINE
8
BLACK
6
CONTINUOUS
10
-1.8265748031496063
20
3.4360641338582676
11
-1.8265748031496063
21
3.4285027952755907
0
LINE
8
BLACK
6
CONTINUOUS
10
-2.3355298425196849
20
3.6677505511811024
11
-2.3282211811023621
21
3.6647231889763781
0
LINE
8
BLACK
6
CONTINUOUS
10
-2.3282211811023621
20
3.6647231889763781
11
-2.3216435826771651
21
3.6603281889763779
0
LINE
8
BLACK
6
CONTINUOUS
10
-2.3216435826771651
20
3.6603281889763779
11
-2.3160497637795276
21
3.65473437007874
0
LINE
8
BLACK
6
CONTINUOUS
10
-2.3160497637795276
20
3.65473437007874
11
-2.3116547637795275
21
3.648156771653543
0
LINE
8
BLACK
6
CONTINUOUS
10
-2.3116547637795275
20
3.648156771653543
11
-2.3086274015748032
21
3.6408481102362202
0
LINE
8
BLACK
6
CONTINUOUS
10
-2.3086274015748032
20
3.6408481102362202
11
-2.307084094488189
21
3.6330892913385826
0
LINE
8
BLACK
6
CONTINUOUS
10
-2.307084094488189
20
3.6330892913385826
11
-2.307084094488189
21
3.6251784251968502
0
LINE
8
BLACK
6
CONTINUOUS
10
-2.307084094488189
20
3.6251784251968502
11
-2.3086274015748032
21
3.6174196062992126
0
LINE
8
BLACK
6
CONTINUOUS
10
-2.3086274015748032
20
3.6174196062992126
11
-2.3116547637795275
21
3.6101109448818898
0
LINE
8
BLACK
6
CONTINUOUS
10
-2.3116547637795275
20
3.6101109448818898
11
-2.3160497637795276
21
3.6035333464566928
0
LINE
8
BLACK
6
CONTINUOUS
10
-2.3160497637795276
20
3.6035333464566928
11
-2.3216435826771651
21
3.5979395275590549
0
LINE
8
BLACK
6
CONTINUOUS
10
-2.3216435826771651
20
3.5979395275590549
11
-2.3282211811023621
21
3.5935445275590552
0
LINE
8
BLACK
6
CONTINUOUS
10
-2.3282211811023621
20
3.5935445275590552
11
-2.3355298425196849
21
3.5905171653543304
0
LINE
8
BLACK
6
CONTINUOUS
10
-2.3355298425196849
20
3.5905171653543304
11
-2.3432886614173229
21
3.5889738582677166
0
LINE
8
BLACK
6
CONTINUOUS
10
-2.3432886614173229
20
3.5889738582677166
11
-2.3511995275590549
21
3.5889738582677166
0
LINE
8
BLACK
6
CONTINUOUS
10
-2.3511995275590549
20
3.5889738582677166
11
-2.358958346456693
21
3.5905171653543304
0
LINE
8
BLACK
6
CONTINUOUS
10
-2.358958346456693
20
3.5905171653543304
11
-2.3662670078740158
21
3.5935445275590552
0
LINE
8
BLACK
6
CONTINUOUS
10
-2.3662670078740158
20
3.5935445275590552
11
-2.3728446062992123
21
3.5979395275590549
0
LINE
8
BLACK
6
CONTINUOUS
10
-2.3728446062992123
20
3.5979395275590549
11
-2.3784384251968502
21
3.6035333464566928
0
LINE
8
BLACK
6
CONTINUOUS
10
-2.3784384251968502
20
3.6035333464566928
11
-2.3828334251968504
21
3.6101109448818898
0
LINE
8
BLACK
6
CONTINUOUS
10
-2.3828334251968504
20
3.6101109448818898
11
-2.3858607874015747
21
3.6174196062992126
0
LINE
8
BLACK
6
CONTINUOUS
10
-2.3858607874015747
20
3.6174196062992126
11
-2.3874040944881889
21
3.6251784251968502
0
LINE
8
BLACK
6
CONTINUOUS
10
-2.3874040944881889
20
3.6251784251968502
11
-2.3874040944881889
21
3.6329145275590551
0
LINE
8
BLACK
6
CONTINUOUS
10
-2.3874040944881889
20
3.6329145275590551
11
-2.3874040944881889
21
3.6330892913385826
0
LINE
8
BLACK
6
CONTINUOUS
10
-2.3874040944881889
20
3.6330892913385826
11
-2.3858607874015747
21
3.6408481102362202
0
LINE
8
BLACK
6
CONTINUOUS
10
-2.3858607874015747
20
3.6408481102362202
11
-2.3828334251968504
21
3.648156771653543
0
LINE
8
BLACK
6
CONTINUOUS
10
-2.3828334251968504
20
3.648156771653543
11
-2.3784384251968502
21
3.65473437007874
0
LINE
8
BLACK
6
CONTINUOUS
10
-2.3784384251968502
20
3.65473437007874
11
-2.3728446062992123
21
3.6603281889763779
0
LINE
8
BLACK
6
CONTINUOUS
10
-2.3728446062992123
20
3.6603281889763779
11
-2.3662670078740158
21
3.6647231889763781
0
LINE
8
BLACK
6
CONTINUOUS
10
-2.3662670078740158
20
3.6647231889763781
11
-2.358958346456693
21
3.6677505511811024
0
LINE
8
BLACK
6
CONTINUOUS
10
-2.358958346456693
20
3.6677505511811024
11
-2.3511995275590549
21
3.6692938582677166
0
LINE
8
BLACK
6
CONTINUOUS
10
-2.3511995275590549
20
3.6692938582677166
11
-2.3432886614173229
21
3.6692938582677166
0
LINE
8
BLACK
6
CONTINUOUS
10
-2.3432886614173229
20
3.6692938582677166
11
-2.3355298425196849
21
3.6677505511811024
0
LINE
8
BLACK
6
CONTINUOUS
10
-2.3856299212598424
20
3.6253531889763777
11
-2.384154803149606
21
3.6179371259842519
0
LINE
8
BLACK
6
CONTINUOUS
10
-2.384154803149606
20
3.6179371259842519
11
-2.3812611811023623
21
3.610951338582677
0
LINE
8
BLACK
6
CONTINUOUS
10
-2.3812611811023623
20
3.610951338582677
11
-2.3770603149606297
21
3.6046642913385827
0
LINE
8
BLACK
6
CONTINUOUS
10
-2.3770603149606297
20
3.6046642913385827
11
-2.3717136614173229
21
3.5993176377952754
0
LINE
8
BLACK
6
CONTINUOUS
10
-2.3717136614173229
20
3.5993176377952754
11
-2.3654266141732281
21
3.5951167716535433
0
LINE
8
BLACK
6
CONTINUOUS
10
-2.3654266141732281
20
3.5951167716535433
11
-2.3584408267716537
21
3.5922231496062991
0
LINE
8
BLACK
6
CONTINUOUS
10
-2.3584408267716537
20
3.5922231496062991
11
-2.3510247637795274
21
3.5907480314960627
0
LINE
8
BLACK
6
CONTINUOUS
10
-2.3510247637795274
20
3.5907480314960627
11
-2.3434634251968505
21
3.5907480314960627
0
LINE
8
BLACK
6
CONTINUOUS
10
-2.3434634251968505
20
3.5907480314960627
11
-2.3360473622047242
21
3.5922231496062991
0
LINE
8
BLACK
6
CONTINUOUS
10
-2.3360473622047242
20
3.5922231496062991
11
-2.3290615748031493
21
3.5951167716535433
0
LINE
8
BLACK
6
CONTINUOUS
10
-2.3290615748031493
20
3.5951167716535433
11
-2.322774527559055
21
3.5993176377952754
0
LINE
8
BLACK
6
CONTINUOUS
10
-2.322774527559055
20
3.5993176377952754
11
-2.3174278740157481
21
3.6046642913385827
0
LINE
8
BLACK
6
CONTINUOUS
10
-2.3174278740157481
20
3.6046642913385827
11
-2.3132270078740156
21
3.610951338582677
0
LINE
8
BLACK
6
CONTINUOUS
10
-2.3132270078740156
20
3.610951338582677
11
-2.3103333858267714
21
3.6179371259842519
0
LINE
8
BLACK
6
CONTINUOUS
10
-2.3103333858267714
20
3.6179371259842519
11
-2.3088582677165355
21
3.6253531889763777
0
LINE
8
BLACK
6
CONTINUOUS
10
-2.3088582677165355
20
3.6253531889763777
11
-2.3088582677165355
21
3.6329145275590551
0
LINE
8
BLACK
6
CONTINUOUS
10
-2.3088582677165355
20
3.6329145275590551
11
-2.3103333858267714
21
3.6403305905511809
0
LINE
8
BLACK
6
CONTINUOUS
10
-2.3103333858267714
20
3.6403305905511809
11
-2.3132270078740156
21
3.6473163779527558
0
LINE
8
BLACK
6
CONTINUOUS
10
-2.3132270078740156
20
3.6473163779527558
11
-2.3174278740157481
21
3.6536034251968501
0
LINE
8
BLACK
6
CONTINUOUS
10
-2.3174278740157481
20
3.6536034251968501
11
-2.322774527559055
21
3.6589500787401574
0
LINE
8
BLACK
6
CONTINUOUS
10
-2.322774527559055
20
3.6589500787401574
11
-2.3290615748031493
21
3.6631509448818895
0
LINE
8
BLACK
6
CONTINUOUS
10
-2.3290615748031493
20
3.6631509448818895
11
-2.3360473622047242
21
3.6660445669291337
0
LINE
8
BLACK
6
CONTINUOUS
10
-2.3360473622047242
20
3.6660445669291337
11
-2.3434634251968505
21
3.6675196850393701
0
LINE
8
BLACK
6
CONTINUOUS
10
-2.3434634251968505
20
3.6675196850393701
11
-2.3510247637795274
21
3.6675196850393701
0
LINE
8
BLACK
6
CONTINUOUS
10
-2.3510247637795274
20
3.6675196850393701
11
-2.3584408267716537
21
3.6660445669291337
0
LINE
8
BLACK
6
CONTINUOUS
10
-2.3584408267716537
20
3.6660445669291337
11
-2.3654266141732281
21
3.6631509448818895
0
LINE
8
BLACK
6
CONTINUOUS
10
-2.3654266141732281
20
3.6631509448818895
11
-2.3717136614173229
21
3.6589500787401574
0
LINE
8
BLACK
6
CONTINUOUS
10
-2.3717136614173229
20
3.6589500787401574
11
-2.3770603149606297
21
3.6536034251968501
0
LINE
8
BLACK
6
CONTINUOUS
10
-2.3770603149606297
20
3.6536034251968501
11
-2.3812611811023623
21
3.6473163779527558
0
LINE
8
BLACK
6
CONTINUOUS
10
-2.3812611811023623
20
3.6473163779527558
11
-2.384154803149606
21
3.6403305905511809
0
LINE
8
BLACK
6
CONTINUOUS
10
-2.384154803149606
20
3.6403305905511809
11
-2.3856299212598424
21
3.6329145275590551
0
LINE
8
BLACK
6
CONTINUOUS
10
-2.3856299212598424
20
3.6329145275590551
11
-2.3856299212598424
21
3.6253531889763777
0
LINE
8
BLACK
6
CONTINUOUS
10
-2.3315928346456691
20
3.8331048818897635
11
-2.3242841732283464
21
3.8300775196850392
0
LINE
8
BLACK
6
CONTINUOUS
10
-2.3242841732283464
20
3.8300775196850392
11
-2.3177065748031493
21
3.8256825196850395
0
LINE
8
BLACK
6
CONTINUOUS
10
-2.3177065748031493
20
3.8256825196850395
11
-2.3121127559055119
21
3.8200887007874016
0
LINE
8
BLACK
6
CONTINUOUS
10
-2.3121127559055119
20
3.8200887007874016
11
-2.3077177559055118
21
3.8135111023622046
0
LINE
8
BLACK
6
CONTINUOUS
10
-2.3077177559055118
20
3.8135111023622046
11
-2.3046903937007874
21
3.8062024409448818
0
LINE
8
BLACK
6
CONTINUOUS
10
-2.3046903937007874
20
3.8062024409448818
11
-2.3031470866141732
21
3.7984436220472442
0
LINE
8
BLACK
6
CONTINUOUS
10
-2.3031470866141732
20
3.7984436220472442
11
-2.3031470866141732
21
3.7905327559055118
0
LINE
8
BLACK
6
CONTINUOUS
10
-2.3031470866141732
20
3.7905327559055118
11
-2.3046903937007874
21
3.7827739370078741
0
LINE
8
BLACK
6
CONTINUOUS
10
-2.3046903937007874
20
3.7827739370078741
11
-2.3077177559055118
21
3.7754652755905509
0
LINE
8
BLACK
6
CONTINUOUS
10
-2.3077177559055118
20
3.7754652755905509
11
-2.3121127559055119
21
3.7688876771653543
0
LINE
8
BLACK
6
CONTINUOUS
10
-2.3121127559055119
20
3.7688876771653543
11
-2.3177065748031493
21
3.7632938582677165
0
LINE
8
BLACK
6
CONTINUOUS
10
-2.3177065748031493
20
3.7632938582677165
11
-2.3242841732283464
21
3.7588988582677163
0
LINE
8
BLACK
6
CONTINUOUS
10
-2.3242841732283464
20
3.7588988582677163
11
-2.3315928346456691
21
3.755871496062992
0
LINE
8
BLACK
6
CONTINUOUS
10
-2.3315928346456691
20
3.755871496062992
11
-2.3393516535433072
21
3.7543281889763778
0
LINE
8
BLACK
6
CONTINUOUS
10
-2.3393516535433072
20
3.7543281889763778
11
-2.3472625196850392
21
3.7543281889763778
0
LINE
8
BLACK
6
CONTINUOUS
10
-2.3472625196850392
20
3.7543281889763778
11
-2.3550213385826773
21
3.755871496062992
0
LINE
8
BLACK
6
CONTINUOUS
10
-2.3550213385826773
20
3.755871496062992
11
-2.36233
21
3.7588988582677163
0
LINE
8
BLACK
6
CONTINUOUS
10
-2.36233
20
3.7588988582677163
11
-2.3689075984251966
21
3.7632938582677165
0
LINE
8
BLACK
6
CONTINUOUS
10
-2.3689075984251966
20
3.7632938582677165
11
-2.3745014173228345
21
3.7688876771653543
0
LINE
8
BLACK
6
CONTINUOUS
10
-2.3745014173228345
20
3.7688876771653543
11
-2.3788964173228346
21
3.7754652755905509
0
LINE
8
BLACK
6
CONTINUOUS
10
-2.3788964173228346
20
3.7754652755905509
11
-2.381923779527559
21
3.7827739370078741
0
LINE
8
BLACK
6
CONTINUOUS
10
-2.381923779527559
20
3.7827739370078741
11
-2.3834670866141732
21
3.7905327559055118
0
LINE
8
BLACK
6
CONTINUOUS
10
-2.3834670866141732
20
3.7905327559055118
11
-2.3834670866141732
21
3.7982688582677167
0
LINE
8
BLACK
6
CONTINUOUS
10
-2.3834670866141732
20
3.7982688582677167
11
-2.3834670866141732
21
3.7984436220472442
0
LINE
8
BLACK
6
CONTINUOUS
10
-2.3834670866141732
20
3.7984436220472442
11
-2.381923779527559
21
3.8062024409448818
0
LINE
8
BLACK
6
CONTINUOUS
10
-2.381923779527559
20
3.8062024409448818
11
-2.3788964173228346
21
3.8135111023622046
0
LINE
8
BLACK
6
CONTINUOUS
10
-2.3788964173228346
20
3.8135111023622046
11
-2.3745014173228345
21
3.8200887007874016
0
LINE
8
BLACK
6
CONTINUOUS
10
-2.3745014173228345
20
3.8200887007874016
11
-2.3689075984251966
21
3.8256825196850395
0
LINE
8
BLACK
6
CONTINUOUS
10
-2.3689075984251966
20
3.8256825196850395
11
-2.36233
21
3.8300775196850392
0
LINE
8
BLACK
6
CONTINUOUS
10
-2.36233
20
3.8300775196850392
11
-2.3550213385826773
21
3.8331048818897635
0
LINE
8
BLACK
6
CONTINUOUS
10
-2.3550213385826773
20
3.8331048818897635
11
-2.3472625196850392
21
3.8346481889763777
0
LINE
8
BLACK
6
CONTINUOUS
10
-2.3472625196850392
20
3.8346481889763777
11
-2.3393516535433072
21
3.8346481889763777
0
LINE
8
BLACK
6
CONTINUOUS
10
-2.3393516535433072
20
3.8346481889763777
11
-2.3315928346456691
21
3.8331048818897635
0
LINE
8
BLACK
6
CONTINUOUS
10
-2.3816929133858267
20
3.7907075196850393
11
-2.3802177952755903
21
3.7832914566929134
0
LINE
8
BLACK
6
CONTINUOUS
10
-2.3802177952755903
20
3.7832914566929134
11
-2.3773241732283465
21
3.7763056692913386
0
LINE
8
BLACK
6
CONTINUOUS
10
-2.3773241732283465
20
3.7763056692913386
11
-2.373123307086614
21
3.7700186220472438
0
LINE
8
BLACK
6
CONTINUOUS
10
-2.373123307086614
20
3.7700186220472438
11
-2.3677766535433071
21
3.7646719685039369
0
LINE
8
BLACK
6
CONTINUOUS
10
-2.3677766535433071
20
3.7646719685039369
11
-2.3614896062992123
21
3.7604711023622048
0
LINE
8
BLACK
6
CONTINUOUS
10
-2.3614896062992123
20
3.7604711023622048
11
-2.3545038188976379
21
3.7575774803149606
0
LINE
8
BLACK
6
CONTINUOUS
10
-2.3545038188976379
20
3.7575774803149606
11
-2.3470877559055117
21
3.7561023622047243
0
LINE
8
BLACK
6
CONTINUOUS
10
-2.3470877559055117
20
3.7561023622047243
11
-2.3395264173228347
21
3.7561023622047243
0
LINE
8
BLACK
6
CONTINUOUS
10
-2.3395264173228347
20
3.7561023622047243
11
-2.3321103543307085
21
3.7575774803149606
0
LINE
8
BLACK
6
CONTINUOUS
10
-2.3321103543307085
20
3.7575774803149606
11
-2.3251245669291336
21
3.7604711023622048
0
LINE
8
BLACK
6
CONTINUOUS
10
-2.3251245669291336
20
3.7604711023622048
11
-2.3188375196850393
21
3.7646719685039369
0
LINE
8
BLACK
6
CONTINUOUS
10
-2.3188375196850393
20
3.7646719685039369
11
-2.3134908661417324
21
3.7700186220472438
0
LINE
8
BLACK
6
CONTINUOUS
10
-2.3134908661417324
20
3.7700186220472438
11
-2.3092899999999998
21
3.7763056692913386
0
LINE
8
BLACK
6
CONTINUOUS
10
-2.3092899999999998
20
3.7763056692913386
11
-2.3063963779527556
21
3.7832914566929134
0
LINE
8
BLACK
6
CONTINUOUS
10
-2.3063963779527556
20
3.7832914566929134
11
-2.3049212598425197
21
3.7907075196850393
0
LINE
8
BLACK
6
CONTINUOUS
10
-2.3049212598425197
20
3.7907075196850393
11
-2.3049212598425197
21
3.7982688582677167
0
LINE
8
BLACK
6
CONTINUOUS
10
-2.3049212598425197
20
3.7982688582677167
11
-2.3063963779527556
21
3.8056849212598425
0
LINE
8
BLACK
6
CONTINUOUS
10
-2.3063963779527556
20
3.8056849212598425
11
-2.3092899999999998
21
3.8126707086614173
0
LINE
8
BLACK
6
CONTINUOUS
10
-2.3092899999999998
20
3.8126707086614173
11
-2.3134908661417324
21
3.8189577559055117
0
LINE
8
BLACK
6
CONTINUOUS
10
-2.3134908661417324
20
3.8189577559055117
11
-2.3188375196850393
21
3.824304409448819
0
LINE
8
BLACK
6
CONTINUOUS
10
-2.3188375196850393
20
3.824304409448819
11
-2.3251245669291336
21
3.8285052755905511
0
LINE
8
BLACK
6
CONTINUOUS
10
-2.3251245669291336
20
3.8285052755905511
11
-2.3321103543307085
21
3.8313988976377953
0
LINE
8
BLACK
6
CONTINUOUS
10
-2.3321103543307085
20
3.8313988976377953
11
-2.3395264173228347
21
3.8328740157480312
0
LINE
8
BLACK
6
CONTINUOUS
10
-2.3395264173228347
20
3.8328740157480312
11
-2.3470877559055117
21
3.8328740157480312
0
LINE
8
BLACK
6
CONTINUOUS
10
-2.3470877559055117
20
3.8328740157480312
11
-2.3545038188976379
21
3.8313988976377953
0
LINE
8
BLACK
6
CONTINUOUS
10
-2.3545038188976379
20
3.8313988976377953
11
-2.3614896062992123
21
3.8285052755905511
0
LINE
8
BLACK
6
CONTINUOUS
10
-2.3614896062992123
20
3.8285052755905511
11
-2.3677766535433071
21
3.824304409448819
0
LINE
8
BLACK
6
CONTINUOUS
10
-2.3677766535433071
20
3.824304409448819
11
-2.373123307086614
21
3.8189577559055117
0
LINE
8
BLACK
6
CONTINUOUS
10
-2.373123307086614
20
3.8189577559055117
11
-2.3773241732283465
21
3.8126707086614173
0
LINE
8
BLACK
6
CONTINUOUS
10
-2.3773241732283465
20
3.8126707086614173
11
-2.3802177952755903
21
3.8056849212598425
0
LINE
8
BLACK
6
CONTINUOUS
10
-2.3802177952755903
20
3.8056849212598425
11
-2.3816929133858267
21
3.7982688582677167
0
LINE
8
BLACK
6
CONTINUOUS
10
-2.3816929133858267
20
3.7982688582677167
11
-2.3816929133858267
21
3.7907075196850393
0
LINE
8
BLACK
6
CONTINUOUS
10
-2.3315928346456691
20
3.9157820472440945
11
-2.3242841732283464
21
3.9127546850393702
0
LINE
8
BLACK
6
CONTINUOUS
10
-2.3242841732283464
20
3.9127546850393702
11
-2.3177065748031493
21
3.90835968503937
0
LINE
8
BLACK
6
CONTINUOUS
10
-2.3177065748031493
20
3.90835968503937
11
-2.3121127559055119
21
3.9027658661417322
0
LINE
8
BLACK
6
CONTINUOUS
10
-2.3121127559055119
20
3.9027658661417322
11
-2.3077177559055118
21
3.8961882677165351
0
LINE
8
BLACK
6
CONTINUOUS
10
-2.3077177559055118
20
3.8961882677165351
11
-2.3046903937007874
21
3.8888796062992124
0
LINE
8
BLACK
6
CONTINUOUS
10
-2.3046903937007874
20
3.8888796062992124
11
-2.3031470866141732
21
3.8811207874015747
0
LINE
8
BLACK
6
CONTINUOUS
10
-2.3031470866141732
20
3.8811207874015747
11
-2.3031470866141732
21
3.8732099212598423
0
LINE
8
BLACK
6
CONTINUOUS
10
-2.3031470866141732
20
3.8732099212598423
11
-2.3046903937007874
21
3.8654511023622047
0
LINE
8
BLACK
6
CONTINUOUS
10
-2.3046903937007874
20
3.8654511023622047
11
-2.3077177559055118
21
3.8581424409448819
0
LINE
8
BLACK
6
CONTINUOUS
10
-2.3077177559055118
20
3.8581424409448819
11
-2.3121127559055119
21
3.8515648425196849
0
LINE
8
BLACK
6
CONTINUOUS
10
-2.3121127559055119
20
3.8515648425196849
11
-2.3177065748031493
21
3.845971023622047
0
LINE
8
BLACK
6
CONTINUOUS
10
-2.3177065748031493
20
3.845971023622047
11
-2.3242841732283464
21
3.8415760236220473
0
LINE
8
BLACK
6
CONTINUOUS
10
-2.3242841732283464
20
3.8415760236220473
11
-2.3315928346456691
21
3.8385486614173225
0
LINE
8
BLACK
6
CONTINUOUS
10
-2.3315928346456691
20
3.8385486614173225
11
-2.3393516535433072
21
3.8370053543307088
0
LINE
8
BLACK
6
CONTINUOUS
10
-2.3393516535433072
20
3.8370053543307088
11
-2.3472625196850392
21
3.8370053543307088
0
LINE
8
BLACK
6
CONTINUOUS
10
-2.3472625196850392
20
3.8370053543307088
11
-2.3550213385826773
21
3.8385486614173225
0
LINE
8
BLACK
6
CONTINUOUS
10
-2.3550213385826773
20
3.8385486614173225
11
-2.36233
21
3.8415760236220473
0
LINE
8
BLACK
6
CONTINUOUS
10
-2.36233
20
3.8415760236220473
11
-2.3689075984251966
21
3.845971023622047
0
LINE
8
BLACK
6
CONTINUOUS
10
-2.3689075984251966
20
3.845971023622047
11
-2.3745014173228345
21
3.8515648425196849
0
LINE
8
BLACK
6
CONTINUOUS
10
-2.3745014173228345
20
3.8515648425196849
11
-2.3788964173228346
21
3.8581424409448819
0
LINE
8
BLACK
6
CONTINUOUS
10
-2.3788964173228346
20
3.8581424409448819
11
-2.381923779527559
21
3.8654511023622047
0
LINE
8
BLACK
6
CONTINUOUS
10
-2.381923779527559
20
3.8654511023622047
11
-2.3834670866141732
21
3.8732099212598423
0
LINE
8
BLACK
6
CONTINUOUS
10
-2.3834670866141732
20
3.8732099212598423
11
-2.3834670866141732
21
3.8809460236220472
0
LINE
8
BLACK
6
CONTINUOUS
10
-2.3834670866141732
20
3.8809460236220472
11
-2.3834670866141732
21
3.8811207874015747
0
LINE
8
BLACK
6
CONTINUOUS
10
-2.3834670866141732
20
3.8811207874015747
11
-2.381923779527559
21
3.8888796062992124
0
LINE
8
BLACK
6
CONTINUOUS
10
-2.381923779527559
20
3.8888796062992124
11
-2.3788964173228346
21
3.8961882677165351
0
LINE
8
BLACK
6
CONTINUOUS
10
-2.3788964173228346
20
3.8961882677165351
11
-2.3745014173228345
21
3.9027658661417322
0
LINE
8
BLACK
6
CONTINUOUS
10
-2.3745014173228345
20
3.9027658661417322
11
-2.3689075984251966
21
3.90835968503937
0
LINE
8
BLACK
6
CONTINUOUS
10
-2.3689075984251966
20
3.90835968503937
11
-2.36233
21
3.9127546850393702
0
LINE
8
BLACK
6
CONTINUOUS
10
-2.36233
20
3.9127546850393702
11
-2.3550213385826773
21
3.9157820472440945
0
LINE
8
BLACK
6
CONTINUOUS
10
-2.3550213385826773
20
3.9157820472440945
11
-2.3472625196850392
21
3.9173253543307087
0
LINE
8
BLACK
6
CONTINUOUS
10
-2.3472625196850392
20
3.9173253543307087
11
-2.3393516535433072
21
3.9173253543307087
0
LINE
8
BLACK
6
CONTINUOUS
10
-2.3393516535433072
20
3.9173253543307087
11
-2.3315928346456691
21
3.9157820472440945
0
LINE
8
BLACK
6
CONTINUOUS
10
-2.3816929133858267
20
3.8733846850393698
11
-2.3802177952755903
21
3.865968622047244
0
LINE
8
BLACK
6
CONTINUOUS
10
-2.3802177952755903
20
3.865968622047244
11
-2.3773241732283465
21
3.8589828346456692
0
LINE
8
BLACK
6
CONTINUOUS
10
-2.3773241732283465
20
3.8589828346456692
11
-2.373123307086614
21
3.8526957874015748
0
LINE
8
BLACK
6
CONTINUOUS
10
-2.373123307086614
20
3.8526957874015748
11
-2.3677766535433071
21
3.8473491338582675
0
LINE
8
BLACK
6
CONTINUOUS
10
-2.3677766535433071
20
3.8473491338582675
11
-2.3614896062992123
21
3.8431482677165354
0
LINE
8
BLACK
6
CONTINUOUS
10
-2.3614896062992123
20
3.8431482677165354
11
-2.3545038188976379
21
3.8402546456692912
0
LINE
8
BLACK
6
CONTINUOUS
10
-2.3545038188976379
20
3.8402546456692912
11
-2.3470877559055117
21
3.8387795275590548
0
LINE
8
BLACK
6
CONTINUOUS
10
-2.3470877559055117
20
3.8387795275590548
11
-2.3395264173228347
21
3.8387795275590548
0
LINE
8
BLACK
6
CONTINUOUS
10
-2.3395264173228347
20
3.8387795275590548
11
-2.3321103543307085
21
3.8402546456692912
0
LINE
8
BLACK
6
CONTINUOUS
10
-2.3321103543307085
20
3.8402546456692912
11
-2.3251245669291336
21
3.8431482677165354
0
LINE
8
BLACK
6
CONTINUOUS
10
-2.3251245669291336
20
3.8431482677165354
11
-2.3188375196850393
21
3.8473491338582675
0
LINE
8
BLACK
6
CONTINUOUS
10
-2.3188375196850393
20
3.8473491338582675
11
-2.3134908661417324
21
3.8526957874015748
0
LINE
8
BLACK
6
CONTINUOUS
10
-2.3134908661417324
20
3.8526957874015748
11
-2.3092899999999998
21
3.8589828346456692
0
LINE
8
BLACK
6
CONTINUOUS
10
-2.3092899999999998
20
3.8589828346456692
11
-2.3063963779527556
21
3.865968622047244
0
LINE
8
BLACK
6
CONTINUOUS
10
-2.3063963779527556
20
3.865968622047244
11
-2.3049212598425197
21
3.8733846850393698
0
LINE
8
BLACK
6
CONTINUOUS
10
-2.3049212598425197
20
3.8733846850393698
11
-2.3049212598425197
21
3.8809460236220472
0
LINE
8
BLACK
6
CONTINUOUS
10
-2.3049212598425197
20
3.8809460236220472
11
-2.3063963779527556
21
3.888362086614173
0
LINE
8
BLACK
6
CONTINUOUS
10
-2.3063963779527556
20
3.888362086614173
11
-2.3092899999999998
21
3.8953478740157479
0
LINE
8
BLACK
6
CONTINUOUS
10
-2.3092899999999998
20
3.8953478740157479
11
-2.3134908661417324
21
3.9016349212598422
0
LINE
8
BLACK
6
CONTINUOUS
10
-2.3134908661417324
20
3.9016349212598422
11
-2.3188375196850393
21
3.9069815748031496
0
LINE
8
BLACK
6
CONTINUOUS
10
-2.3188375196850393
20
3.9069815748031496
11
-2.3251245669291336
21
3.9111824409448817
0
LINE
8
BLACK
6
CONTINUOUS
10
-2.3251245669291336
20
3.9111824409448817
11
-2.3321103543307085
21
3.9140760629921258
0
LINE
8
BLACK
6
CONTINUOUS
10
-2.3321103543307085
20
3.9140760629921258
11
-2.3395264173228347
21
3.9155511811023622
0
LINE
8
BLACK
6
CONTINUOUS
10
-2.3395264173228347
20
3.9155511811023622
11
-2.3470877559055117
21
3.9155511811023622
0
LINE
8
BLACK
6
CONTINUOUS
10
-2.3470877559055117
20
3.9155511811023622
11
-2.3545038188976379
21
3.9140760629921258
0
LINE
8
BLACK
6
CONTINUOUS
10
-2.3545038188976379
20
3.9140760629921258
11
-2.3614896062992123
21
3.9111824409448817
0
LINE
8
BLACK
6
CONTINUOUS
10
-2.3614896062992123
20
3.9111824409448817
11
-2.3677766535433071
21
3.9069815748031496
0
LINE
8
BLACK
6
CONTINUOUS
10
-2.3677766535433071
20
3.9069815748031496
11
-2.373123307086614
21
3.9016349212598422
0
LINE
8
BLACK
6
CONTINUOUS
10
-2.373123307086614
20
3.9016349212598422
11
-2.3773241732283465
21
3.8953478740157479
0
LINE
8
BLACK
6
CONTINUOUS
10
-2.3773241732283465
20
3.8953478740157479
11
-2.3802177952755903
21
3.888362086614173
0
LINE
8
BLACK
6
CONTINUOUS
10
-2.3802177952755903
20
3.888362086614173
11
-2.3816929133858267
21
3.8809460236220472
0
LINE
8
BLACK
6
CONTINUOUS
10
-2.3816929133858267
20
3.8809460236220472
11
-2.3816929133858267
21
3.8733846850393698
0
CIRCLE
8
BLACK
10
2.
20
0.4
40
0.0068897637795276
0
CIRCLE
8
BLACK
10
0.4
20
2.
40
0.0068897637795276
0
CIRCLE
8
BLACK
10
0.4
20
0.4
40
0.0068897637795276
0
CIRCLE
8
BLACK
10
-0.725236220472441
20
0.8675905511811023
40
0.0068897637795276
0
CIRCLE
8
BLACK
10
-0.625236220472441
20
0.8675905511811023
40
0.0068897637795276
0
CIRCLE
8
BLACK
10
-0.725236220472441
20
0.7675905511811023
40
0.0068897637795276
0
CIRCLE
8
BLACK
10
-0.625236220472441
20
0.7675905511811023
40
0.0068897637795276
0
CIRCLE
8
BLACK
10
-0.725236220472441
20
0.6675905511811023
40
0.0068897637795276
0
CIRCLE
8
BLACK
10
-0.625236220472441
20
0.6675905511811023
40
0.0068897637795276
0
CIRCLE
8
BLACK
10
-1.9299212598425197
20
3.8181102362204724
40
0.0068897637795276
0
CIRCLE
8
BLACK
10
-1.8299212598425196
20
3.9181102362204725
40
0.0068897637795276
0
CIRCLE
8
BLACK
10
-2.0299212598425198
20
3.9181102362204725
40
0.0068897637795276
0
CIRCLE
8
BLACK
10
-1.8299212598425196
20
3.7181102362204723
40
0.0068897637795276
0
CIRCLE
8
BLACK
10
-2.0299212598425198
20
3.7181102362204723
40
0.0068897637795276
0
CIRCLE
8
BLACK
10
2.
20
2.
40
0.0068897637795276
0
CIRCLE
8
BLACK
10
2.
20
0.4
40
0.0068897637795276
0
CIRCLE
8
BLACK
10
0.4
20
2.
40
0.0068897637795276
0
CIRCLE
8
BLACK
10
0.4
20
0.4
40
0.0068897637795276
0
CIRCLE
8
BLACK
10
-0.725236220472441
20
0.8675905511811023
40
0.0068897637795276
0
CIRCLE
8
BLACK
10
-0.625236220472441
20
0.8675905511811023
40
0.0068897637795276
0
CIRCLE
8
BLACK
10
-0.725236220472441
20
0.7675905511811023
40
0.0068897637795276
0
CIRCLE
8
BLACK
10
-0.625236220472441
20
0.7675905511811023
40
0.0068897637795276
0
CIRCLE
8
BLACK
10
-0.725236220472441
20
0.6675905511811023
40
0.0068897637795276
0
CIRCLE
8
BLACK
10
-0.625236220472441
20
0.6675905511811023
40
0.0068897637795276
0
CIRCLE
8
BLACK
10
-1.9299212598425197
20
3.8181102362204724
40
0.0068897637795276
0
CIRCLE
8
BLACK
10
-1.8299212598425196
20
3.9181102362204725
40
0.0068897637795276
0
CIRCLE
8
BLACK
10
-2.0299212598425198
20
3.9181102362204725
40
0.0068897637795276
0
CIRCLE
8
BLACK
10
-1.8299212598425196
20
3.7181102362204723
40
0.0068897637795276
0
CIRCLE
8
BLACK
10
-2.0299212598425198
20
3.7181102362204723
40
0.0068897637795276
0
CIRCLE
8
BLACK
10
2.
20
2.
40
0.0068897637795276
  0
ENDSEC
  0
EOF
