  0
SECTION
  2
HEADER
  9
$ANGBASE
  50
0.0
  9
$ANGDIR
  70
1
  9
$MEASUREMENT
  70
0
  0
ENDSEC
  0
SECTION
  2
TABLES
  0
TABLE
  2
LTYPE
  70
4
  0
LTYPE
  5
40F
  2
CONTINUOUS
  70
0
  3
Solid line
  72
65
  73
0
  40
0.0
  0
LTYPE
  5
410
  2
DASHDOT
 70
0
  3
Dash Dot ____ _ ____ _
 72
65
 73
4
 40
2.0
 49
1.25
 49
-0.25
 49
0.25
 49
-0.25
  0
LTYPE
  5
411
  2
DASHED
 70
0
  3
Dashed __ __ __ __ __
 72
65
 73
2
 40
0.75
 49
0.5
 49
-0.25
  0
LTYPE
  5
43B
  2
DOTTED
 70
0
  3
Dotted .  .  .  .
 72
65
 73
2
 40
0.2
 49
0.0
 49
-0.2
  0
ENDTAB
  0
TABLE
  2
STYLE
  70
4
  0
STYLE
  2
KICAD
  70
0
  40
0
  41
1
  42
1
  50
0
  71
0
  3
isocp.shx
  0
STYLE
  2
KICADB
  70
0
  40
0
  41
1
  42
1
  50
0
  71
0
  3
isocp.shx
  0
STYLE
  2
KICADI
  70
0
  40
0
  41
1
  42
1
  50
15
  71
0
  3
isocp.shx
  0
STYLE
  2
KICADBI
  70
0
  40
0
  41
1
  42
1
  50
15
  71
0
  3
isocp.shx
  0
ENDTAB
  0
TABLE
  2
LAYER
  70
1
  0
LAYER
  2
BLACK
  70
0
  62
7
  6
CONTINUOUS
  0
ENDTAB
  0
ENDSEC
  0
SECTION
  2
ENTITIES
0
LINE
8
BLACK
6
CONTINUOUS
10
-1.7826942125984251
20
2.9241376771653544
11
-1.7821615354330709
21
2.9236049999999998
0
LINE
8
BLACK
6
CONTINUOUS
10
-1.7821615354330709
20
2.9236049999999998
11
-1.7820866141732283
21
2.923228346456693
0
LINE
8
BLACK
6
CONTINUOUS
10
-1.7820866141732283
20
2.923228346456693
11
-1.7820866141732283
21
2.8862204724409448
0
LINE
8
BLACK
6
CONTINUOUS
10
-1.7820866141732283
20
2.8862204724409448
11
-1.7821615354330709
21
2.8858438188976376
0
LINE
8
BLACK
6
CONTINUOUS
10
-1.7821615354330709
20
2.8858438188976376
11
-1.7826942125984251
21
2.8853111417322834
0
LINE
8
BLACK
6
CONTINUOUS
10
-1.7826942125984251
20
2.8853111417322834
11
-1.7830708661417323
21
2.8852362204724407
0
LINE
8
BLACK
6
CONTINUOUS
10
-1.7830708661417323
20
2.8852362204724407
11
-1.8562992125984252
21
2.8852362204724407
0
LINE
8
BLACK
6
CONTINUOUS
10
-1.8562992125984252
20
2.8852362204724407
11
-1.8566758661417322
21
2.8853111417322834
0
LINE
8
BLACK
6
CONTINUOUS
10
-1.8566758661417322
20
2.8853111417322834
11
-1.8572085433070866
21
2.8858438188976376
0
LINE
8
BLACK
6
CONTINUOUS
10
-1.8572085433070866
20
2.8858438188976376
11
-1.8572834645669292
21
2.8862204724409448
0
LINE
8
BLACK
6
CONTINUOUS
10
-1.8572834645669292
20
2.8862204724409448
11
-1.8572834645669292
21
2.923228346456693
0
LINE
8
BLACK
6
CONTINUOUS
10
-1.8572834645669292
20
2.923228346456693
11
-1.8572085433070866
21
2.9236049999999998
0
LINE
8
BLACK
6
CONTINUOUS
10
-1.8572085433070866
20
2.9236049999999998
11
-1.8566758661417322
21
2.9241376771653544
0
LINE
8
BLACK
6
CONTINUOUS
10
-1.8566758661417322
20
2.9241376771653544
11
-1.8562992125984252
21
2.9242125984251968
0
LINE
8
BLACK
6
CONTINUOUS
10
-1.8562992125984252
20
2.9242125984251968
11
-1.7830708661417323
21
2.9242125984251968
0
LINE
8
BLACK
6
CONTINUOUS
10
-1.7830708661417323
20
2.9242125984251968
11
-1.7826942125984251
21
2.9241376771653544
0
LINE
8
BLACK
6
CONTINUOUS
10
-1.8553149606299213
20
2.9222440944881889
11
-1.8553149606299213
21
2.887204724409449
0
LINE
8
BLACK
6
CONTINUOUS
10
-1.8553149606299213
20
2.887204724409449
11
-1.7840551181102362
21
2.887204724409449
0
LINE
8
BLACK
6
CONTINUOUS
10
-1.7840551181102362
20
2.887204724409449
11
-1.7840551181102362
21
2.9222440944881889
0
LINE
8
BLACK
6
CONTINUOUS
10
-1.7840551181102362
20
2.9222440944881889
11
-1.8553149606299213
21
2.9222440944881889
0
LINE
8
BLACK
6
CONTINUOUS
10
-1.7897808267716535
20
3.1843738976377951
11
-1.7892481496062991
21
3.1838412204724409
0
LINE
8
BLACK
6
CONTINUOUS
10
-1.7892481496062991
20
3.1838412204724409
11
-1.7891732283464568
21
3.1834645669291337
0
LINE
8
BLACK
6
CONTINUOUS
10
-1.7891732283464568
20
3.1834645669291337
11
-1.7891732283464568
21
2.9330708661417324
0
LINE
8
BLACK
6
CONTINUOUS
10
-1.7891732283464568
20
2.9330708661417324
11
-1.7892481496062991
21
2.9326942125984252
0
LINE
8
BLACK
6
CONTINUOUS
10
-1.7892481496062991
20
2.9326942125984252
11
-1.7897808267716535
21
2.932161535433071
0
LINE
8
BLACK
6
CONTINUOUS
10
-1.7897808267716535
20
2.932161535433071
11
-1.7901574803149607
21
2.9320866141732282
0
LINE
8
BLACK
6
CONTINUOUS
10
-1.7901574803149607
20
2.9320866141732282
11
-1.9279527559055119
21
2.9320866141732282
0
LINE
8
BLACK
6
CONTINUOUS
10
-1.9279527559055119
20
2.9320866141732282
11
-1.9283294094488188
21
2.932161535433071
0
LINE
8
BLACK
6
CONTINUOUS
10
-1.9283294094488188
20
2.932161535433071
11
-1.9288620866141732
21
2.9326942125984252
0
LINE
8
BLACK
6
CONTINUOUS
10
-1.9288620866141732
20
2.9326942125984252
11
-1.9289370078740158
21
2.9330708661417324
0
LINE
8
BLACK
6
CONTINUOUS
10
-1.9289370078740158
20
2.9330708661417324
11
-1.9289370078740158
21
3.1834645669291337
0
LINE
8
BLACK
6
CONTINUOUS
10
-1.9289370078740158
20
3.1834645669291337
11
-1.9288620866141732
21
3.1838412204724409
0
LINE
8
BLACK
6
CONTINUOUS
10
-1.9288620866141732
20
3.1838412204724409
11
-1.9283294094488188
21
3.1843738976377951
0
LINE
8
BLACK
6
CONTINUOUS
10
-1.9283294094488188
20
3.1843738976377951
11
-1.9279527559055119
21
3.1844488188976379
0
LINE
8
BLACK
6
CONTINUOUS
10
-1.9279527559055119
20
3.1844488188976379
11
-1.7901574803149607
21
3.1844488188976379
0
LINE
8
BLACK
6
CONTINUOUS
10
-1.7901574803149607
20
3.1844488188976379
11
-1.7897808267716535
21
3.1843738976377951
0
LINE
8
BLACK
6
CONTINUOUS
10
-1.9269685039370079
20
3.18248031496063
11
-1.9269685039370079
21
2.9340551181102361
0
LINE
8
BLACK
6
CONTINUOUS
10
-1.9269685039370079
20
2.9340551181102361
11
-1.7911417322834646
21
2.9340551181102361
0
LINE
8
BLACK
6
CONTINUOUS
10
-1.7911417322834646
20
2.9340551181102361
11
-1.7911417322834646
21
3.18248031496063
0
LINE
8
BLACK
6
CONTINUOUS
10
-1.7911417322834646
20
3.18248031496063
11
-1.9269685039370079
21
3.18248031496063
0
LINE
8
BLACK
6
CONTINUOUS
10
-2.1126154724409449
20
3.3202006692913386
11
-2.1120827952755903
21
3.319667992125984
0
LINE
8
BLACK
6
CONTINUOUS
10
-2.1120827952755903
20
3.319667992125984
11
-2.112007874015748
21
3.3192913385826772
0
LINE
8
BLACK
6
CONTINUOUS
10
-2.112007874015748
20
3.3192913385826772
11
-2.112007874015748
21
3.045275590551181
0
LINE
8
BLACK
6
CONTINUOUS
10
-2.112007874015748
20
3.045275590551181
11
-2.1120827952755903
21
3.0448989370078738
0
LINE
8
BLACK
6
CONTINUOUS
10
-2.1120827952755903
20
3.0448989370078738
11
-2.1126154724409449
21
3.0443662598425196
0
LINE
8
BLACK
6
CONTINUOUS
10
-2.1126154724409449
20
3.0443662598425196
11
-2.1129921259842521
21
3.0442913385826773
0
LINE
8
BLACK
6
CONTINUOUS
10
-2.1129921259842521
20
3.0442913385826773
11
-2.2507874015748031
21
3.0442913385826773
0
LINE
8
BLACK
6
CONTINUOUS
10
-2.2507874015748031
20
3.0442913385826773
11
-2.2511640551181102
21
3.0443662598425196
0
LINE
8
BLACK
6
CONTINUOUS
10
-2.2511640551181102
20
3.0443662598425196
11
-2.2516967322834645
21
3.0448989370078738
0
LINE
8
BLACK
6
CONTINUOUS
10
-2.2516967322834645
20
3.0448989370078738
11
-2.2517716535433072
21
3.045275590551181
0
LINE
8
BLACK
6
CONTINUOUS
10
-2.2517716535433072
20
3.045275590551181
11
-2.2517716535433072
21
3.3192913385826772
0
LINE
8
BLACK
6
CONTINUOUS
10
-2.2517716535433072
20
3.3192913385826772
11
-2.2516967322834645
21
3.319667992125984
0
LINE
8
BLACK
6
CONTINUOUS
10
-2.2516967322834645
20
3.319667992125984
11
-2.2511640551181102
21
3.3202006692913386
0
LINE
8
BLACK
6
CONTINUOUS
10
-2.2511640551181102
20
3.3202006692913386
11
-2.2507874015748031
21
3.3202755905511809
0
LINE
8
BLACK
6
CONTINUOUS
10
-2.2507874015748031
20
3.3202755905511809
11
-2.1129921259842521
21
3.3202755905511809
0
LINE
8
BLACK
6
CONTINUOUS
10
-2.1129921259842521
20
3.3202755905511809
11
-2.1126154724409449
21
3.3202006692913386
0
LINE
8
BLACK
6
CONTINUOUS
10
-2.2498031496062993
20
3.3183070866141731
11
-2.2498031496062993
21
3.0462598425196852
0
LINE
8
BLACK
6
CONTINUOUS
10
-2.2498031496062993
20
3.0462598425196852
11
-2.1139763779527558
21
3.0462598425196852
0
LINE
8
BLACK
6
CONTINUOUS
10
-2.1139763779527558
20
3.0462598425196852
11
-2.1139763779527558
21
3.3183070866141731
0
LINE
8
BLACK
6
CONTINUOUS
10
-2.1139763779527558
20
3.3183070866141731
11
-2.2498031496062993
21
3.3183070866141731
0
LINE
8
BLACK
6
CONTINUOUS
10
-2.0645839763779525
20
3.1509093307086613
11
-2.0640512992125983
21
3.1503766535433071
0
LINE
8
BLACK
6
CONTINUOUS
10
-2.0640512992125983
20
3.1503766535433071
11
-2.063976377952756
21
3.1499999999999999
0
LINE
8
BLACK
6
CONTINUOUS
10
-2.063976377952756
20
3.1499999999999999
11
-2.063976377952756
21
3.076771653543307
0
LINE
8
BLACK
6
CONTINUOUS
10
-2.063976377952756
20
3.076771653543307
11
-2.0640512992125983
21
3.0763949999999998
0
LINE
8
BLACK
6
CONTINUOUS
10
-2.0640512992125983
20
3.0763949999999998
11
-2.0645839763779525
21
3.0758623228346456
0
LINE
8
BLACK
6
CONTINUOUS
10
-2.0645839763779525
20
3.0758623228346456
11
-2.0649606299212597
21
3.0757874015748032
0
LINE
8
BLACK
6
CONTINUOUS
10
-2.0649606299212597
20
3.0757874015748032
11
-2.101968503937008
21
3.0757874015748032
0
LINE
8
BLACK
6
CONTINUOUS
10
-2.101968503937008
20
3.0757874015748032
11
-2.1023451574803147
21
3.0758623228346456
0
LINE
8
BLACK
6
CONTINUOUS
10
-2.1023451574803147
20
3.0758623228346456
11
-2.1028778346456694
21
3.0763949999999998
0
LINE
8
BLACK
6
CONTINUOUS
10
-2.1028778346456694
20
3.0763949999999998
11
-2.1029527559055117
21
3.076771653543307
0
LINE
8
BLACK
6
CONTINUOUS
10
-2.1029527559055117
20
3.076771653543307
11
-2.1029527559055117
21
3.1499999999999999
0
LINE
8
BLACK
6
CONTINUOUS
10
-2.1029527559055117
20
3.1499999999999999
11
-2.1028778346456694
21
3.1503766535433071
0
LINE
8
BLACK
6
CONTINUOUS
10
-2.1028778346456694
20
3.1503766535433071
11
-2.1023451574803147
21
3.1509093307086613
0
LINE
8
BLACK
6
CONTINUOUS
10
-2.1023451574803147
20
3.1509093307086613
11
-2.101968503937008
21
3.1509842519685041
0
LINE
8
BLACK
6
CONTINUOUS
10
-2.101968503937008
20
3.1509842519685041
11
-2.0649606299212597
21
3.1509842519685041
0
LINE
8
BLACK
6
CONTINUOUS
10
-2.0649606299212597
20
3.1509842519685041
11
-2.0645839763779525
21
3.1509093307086613
0
LINE
8
BLACK
6
CONTINUOUS
10
-2.1009842519685038
20
3.1490157480314962
11
-2.1009842519685038
21
3.0777559055118111
0
LINE
8
BLACK
6
CONTINUOUS
10
-2.1009842519685038
20
3.0777559055118111
11
-2.0659448818897639
21
3.0777559055118111
0
LINE
8
BLACK
6
CONTINUOUS
10
-2.0659448818897639
20
3.0777559055118111
11
-2.0659448818897639
21
3.1490157480314962
0
LINE
8
BLACK
6
CONTINUOUS
10
-2.0659448818897639
20
3.1490157480314962
11
-2.1009842519685038
21
3.1490157480314962
0
LINE
8
BLACK
6
CONTINUOUS
10
-1.9882060236220471
20
3.1520904330708661
11
-1.9876733464566929
21
3.1515577559055119
0
LINE
8
BLACK
6
CONTINUOUS
10
-1.9876733464566929
20
3.1515577559055119
11
-1.9875984251968504
21
3.1511811023622047
0
LINE
8
BLACK
6
CONTINUOUS
10
-1.9875984251968504
20
3.1511811023622047
11
-1.9875984251968504
21
3.11496062992126
0
LINE
8
BLACK
6
CONTINUOUS
10
-1.9875984251968504
20
3.11496062992126
11
-1.9876733464566929
21
3.1145839763779528
0
LINE
8
BLACK
6
CONTINUOUS
10
-1.9876733464566929
20
3.1145839763779528
11
-1.9882060236220471
21
3.1140512992125982
0
LINE
8
BLACK
6
CONTINUOUS
10
-1.9882060236220471
20
3.1140512992125982
11
-1.9885826771653543
21
3.1139763779527558
0
LINE
8
BLACK
6
CONTINUOUS
10
-1.9885826771653543
20
3.1139763779527558
11
-2.0602362204724409
21
3.1139763779527558
0
LINE
8
BLACK
6
CONTINUOUS
10
-2.0602362204724409
20
3.1139763779527558
11
-2.0606128740157481
21
3.1140512992125982
0
LINE
8
BLACK
6
CONTINUOUS
10
-2.0606128740157481
20
3.1140512992125982
11
-2.0611455511811023
21
3.1145839763779528
0
LINE
8
BLACK
6
CONTINUOUS
10
-2.0611455511811023
20
3.1145839763779528
11
-2.0612204724409446
21
3.11496062992126
0
LINE
8
BLACK
6
CONTINUOUS
10
-2.0612204724409446
20
3.11496062992126
11
-2.0612204724409446
21
3.1511811023622047
0
LINE
8
BLACK
6
CONTINUOUS
10
-2.0612204724409446
20
3.1511811023622047
11
-2.0611455511811023
21
3.1515577559055119
0
LINE
8
BLACK
6
CONTINUOUS
10
-2.0611455511811023
20
3.1515577559055119
11
-2.0606128740157481
21
3.1520904330708661
0
LINE
8
BLACK
6
CONTINUOUS
10
-2.0606128740157481
20
3.1520904330708661
11
-2.0602362204724409
21
3.1521653543307084
0
LINE
8
BLACK
6
CONTINUOUS
10
-2.0602362204724409
20
3.1521653543307084
11
-1.9885826771653543
21
3.1521653543307084
0
LINE
8
BLACK
6
CONTINUOUS
10
-1.9885826771653543
20
3.1521653543307084
11
-1.9882060236220471
21
3.1520904330708661
0
LINE
8
BLACK
6
CONTINUOUS
10
-2.0592519685039368
20
3.1501968503937006
11
-2.0592519685039368
21
3.1159448818897637
0
LINE
8
BLACK
6
CONTINUOUS
10
-2.0592519685039368
20
3.1159448818897637
11
-1.9895669291338582
21
3.1159448818897637
0
LINE
8
BLACK
6
CONTINUOUS
10
-1.9895669291338582
20
3.1159448818897637
11
-1.9895669291338582
21
3.1501968503937006
0
LINE
8
BLACK
6
CONTINUOUS
10
-1.9895669291338582
20
3.1501968503937006
11
-2.0592519685039368
21
3.1501968503937006
0
LINE
8
BLACK
6
CONTINUOUS
10
-1.9346627165354331
20
3.1942164173228345
11
-1.9341300393700787
21
3.1936837401574802
0
LINE
8
BLACK
6
CONTINUOUS
10
-1.9341300393700787
20
3.1936837401574802
11
-1.9340551181102361
21
3.1933070866141731
0
LINE
8
BLACK
6
CONTINUOUS
10
-1.9340551181102361
20
3.1933070866141731
11
-1.9340551181102361
21
3.1200787401574801
0
LINE
8
BLACK
6
CONTINUOUS
10
-1.9340551181102361
20
3.1200787401574801
11
-1.9341300393700787
21
3.1197020866141734
0
LINE
8
BLACK
6
CONTINUOUS
10
-1.9341300393700787
20
3.1197020866141734
11
-1.9346627165354331
21
3.1191694094488187
0
LINE
8
BLACK
6
CONTINUOUS
10
-1.9346627165354331
20
3.1191694094488187
11
-1.9350393700787401
21
3.1190944881889764
0
LINE
8
BLACK
6
CONTINUOUS
10
-1.9350393700787401
20
3.1190944881889764
11
-1.9720472440944881
21
3.1190944881889764
0
LINE
8
BLACK
6
CONTINUOUS
10
-1.9720472440944881
20
3.1190944881889764
11
-1.9724238976377952
21
3.1191694094488187
0
LINE
8
BLACK
6
CONTINUOUS
10
-1.9724238976377952
20
3.1191694094488187
11
-1.9729565748031495
21
3.1197020866141734
0
LINE
8
BLACK
6
CONTINUOUS
10
-1.9729565748031495
20
3.1197020866141734
11
-1.973031496062992
21
3.1200787401574801
0
LINE
8
BLACK
6
CONTINUOUS
10
-1.973031496062992
20
3.1200787401574801
11
-1.973031496062992
21
3.1933070866141731
0
LINE
8
BLACK
6
CONTINUOUS
10
-1.973031496062992
20
3.1933070866141731
11
-1.9729565748031495
21
3.1936837401574802
0
LINE
8
BLACK
6
CONTINUOUS
10
-1.9729565748031495
20
3.1936837401574802
11
-1.9724238976377952
21
3.1942164173228345
0
LINE
8
BLACK
6
CONTINUOUS
10
-1.9724238976377952
20
3.1942164173228345
11
-1.9720472440944881
21
3.1942913385826772
0
LINE
8
BLACK
6
CONTINUOUS
10
-1.9720472440944881
20
3.1942913385826772
11
-1.9350393700787401
21
3.1942913385826772
0
LINE
8
BLACK
6
CONTINUOUS
10
-1.9350393700787401
20
3.1942913385826772
11
-1.9346627165354331
21
3.1942164173228345
0
LINE
8
BLACK
6
CONTINUOUS
10
-1.9710629921259841
20
3.1923228346456693
11
-1.9710629921259841
21
3.1210629921259843
0
LINE
8
BLACK
6
CONTINUOUS
10
-1.9710629921259841
20
3.1210629921259843
11
-1.936023622047244
21
3.1210629921259843
0
LINE
8
BLACK
6
CONTINUOUS
10
-1.936023622047244
20
3.1210629921259843
11
-1.936023622047244
21
3.1923228346456693
0
LINE
8
BLACK
6
CONTINUOUS
10
-1.936023622047244
20
3.1923228346456693
11
-1.9710629921259841
21
3.1923228346456693
0
LINE
8
BLACK
6
CONTINUOUS
10
-1.7456863385826771
20
3.1942164173228345
11
-1.7451536614173229
21
3.1936837401574802
0
LINE
8
BLACK
6
CONTINUOUS
10
-1.7451536614173229
20
3.1936837401574802
11
-1.7450787401574803
21
3.1933070866141731
0
LINE
8
BLACK
6
CONTINUOUS
10
-1.7450787401574803
20
3.1933070866141731
11
-1.7450787401574803
21
3.1200787401574801
0
LINE
8
BLACK
6
CONTINUOUS
10
-1.7450787401574803
20
3.1200787401574801
11
-1.7451536614173229
21
3.1197020866141734
0
LINE
8
BLACK
6
CONTINUOUS
10
-1.7451536614173229
20
3.1197020866141734
11
-1.7456863385826771
21
3.1191694094488187
0
LINE
8
BLACK
6
CONTINUOUS
10
-1.7456863385826771
20
3.1191694094488187
11
-1.7460629921259843
21
3.1190944881889764
0
LINE
8
BLACK
6
CONTINUOUS
10
-1.7460629921259843
20
3.1190944881889764
11
-1.7830708661417323
21
3.1190944881889764
0
LINE
8
BLACK
6
CONTINUOUS
10
-1.7830708661417323
20
3.1190944881889764
11
-1.7834475196850392
21
3.1191694094488187
0
LINE
8
BLACK
6
CONTINUOUS
10
-1.7834475196850392
20
3.1191694094488187
11
-1.7839801968503937
21
3.1197020866141734
0
LINE
8
BLACK
6
CONTINUOUS
10
-1.7839801968503937
20
3.1197020866141734
11
-1.7840551181102362
21
3.1200787401574801
0
LINE
8
BLACK
6
CONTINUOUS
10
-1.7840551181102362
20
3.1200787401574801
11
-1.7840551181102362
21
3.1933070866141731
0
LINE
8
BLACK
6
CONTINUOUS
10
-1.7840551181102362
20
3.1933070866141731
11
-1.7839801968503937
21
3.1936837401574802
0
LINE
8
BLACK
6
CONTINUOUS
10
-1.7839801968503937
20
3.1936837401574802
11
-1.7834475196850392
21
3.1942164173228345
0
LINE
8
BLACK
6
CONTINUOUS
10
-1.7834475196850392
20
3.1942164173228345
11
-1.7830708661417323
21
3.1942913385826772
0
LINE
8
BLACK
6
CONTINUOUS
10
-1.7830708661417323
20
3.1942913385826772
11
-1.7460629921259843
21
3.1942913385826772
0
LINE
8
BLACK
6
CONTINUOUS
10
-1.7460629921259843
20
3.1942913385826772
11
-1.7456863385826771
21
3.1942164173228345
0
LINE
8
BLACK
6
CONTINUOUS
10
-1.7820866141732283
20
3.1923228346456693
11
-1.7820866141732283
21
3.1210629921259843
0
LINE
8
BLACK
6
CONTINUOUS
10
-1.7820866141732283
20
3.1210629921259843
11
-1.7470472440944882
21
3.1210629921259843
0
LINE
8
BLACK
6
CONTINUOUS
10
-1.7470472440944882
20
3.1210629921259843
11
-1.7470472440944882
21
3.1923228346456693
0
LINE
8
BLACK
6
CONTINUOUS
10
-1.7470472440944882
20
3.1923228346456693
11
-1.7820866141732283
21
3.1923228346456693
0
LINE
8
BLACK
6
CONTINUOUS
10
-1.9807257086614172
20
3.2678384645669292
11
-1.980193031496063
21
3.2673057874015745
0
LINE
8
BLACK
6
CONTINUOUS
10
-1.980193031496063
20
3.2673057874015745
11
-1.9801181102362204
21
3.2669291338582678
0
LINE
8
BLACK
6
CONTINUOUS
10
-1.9801181102362204
20
3.2669291338582678
11
-1.9801181102362204
21
3.1566929133858266
0
LINE
8
BLACK
6
CONTINUOUS
10
-1.9801181102362204
20
3.1566929133858266
11
-1.980193031496063
21
3.1563162598425194
0
LINE
8
BLACK
6
CONTINUOUS
10
-1.980193031496063
20
3.1563162598425194
11
-1.9807257086614172
21
3.1557835826771652
0
LINE
8
BLACK
6
CONTINUOUS
10
-1.9807257086614172
20
3.1557835826771652
11
-1.9811023622047244
21
3.1557086614173229
0
LINE
8
BLACK
6
CONTINUOUS
10
-1.9811023622047244
20
3.1557086614173229
11
-2.1070866141732285
21
3.1557086614173229
0
LINE
8
BLACK
6
CONTINUOUS
10
-2.1070866141732285
20
3.1557086614173229
11
-2.1074632677165352
21
3.1557835826771652
0
LINE
8
BLACK
6
CONTINUOUS
10
-2.1074632677165352
20
3.1557835826771652
11
-2.1079959448818899
21
3.1563162598425194
0
LINE
8
BLACK
6
CONTINUOUS
10
-2.1079959448818899
20
3.1563162598425194
11
-2.1080708661417322
21
3.1566929133858266
0
LINE
8
BLACK
6
CONTINUOUS
10
-2.1080708661417322
20
3.1566929133858266
11
-2.1080708661417322
21
3.2669291338582678
0
LINE
8
BLACK
6
CONTINUOUS
10
-2.1080708661417322
20
3.2669291338582678
11
-2.1079959448818899
21
3.2673057874015745
0
LINE
8
BLACK
6
CONTINUOUS
10
-2.1079959448818899
20
3.2673057874015745
11
-2.1074632677165352
21
3.2678384645669292
0
LINE
8
BLACK
6
CONTINUOUS
10
-2.1074632677165352
20
3.2678384645669292
11
-2.1070866141732285
21
3.2679133858267715
0
LINE
8
BLACK
6
CONTINUOUS
10
-2.1070866141732285
20
3.2679133858267715
11
-1.9811023622047244
21
3.2679133858267715
0
LINE
8
BLACK
6
CONTINUOUS
10
-1.9811023622047244
20
3.2679133858267715
11
-1.9807257086614172
21
3.2678384645669292
0
LINE
8
BLACK
6
CONTINUOUS
10
-2.1061023622047244
20
3.2659448818897636
11
-2.1061023622047244
21
3.1576771653543307
0
LINE
8
BLACK
6
CONTINUOUS
10
-2.1061023622047244
20
3.1576771653543307
11
-1.9820866141732283
21
3.1576771653543307
0
LINE
8
BLACK
6
CONTINUOUS
10
-1.9820866141732283
20
3.1576771653543307
11
-1.9820866141732283
21
3.2659448818897636
0
LINE
8
BLACK
6
CONTINUOUS
10
-1.9820866141732283
20
3.2659448818897636
11
-2.1061023622047244
21
3.2659448818897636
0
LINE
8
BLACK
6
CONTINUOUS
10
-1.8220642913385827
20
3.2351612992125984
11
-1.8215316141732283
21
3.2346286220472442
0
LINE
8
BLACK
6
CONTINUOUS
10
-1.8215316141732283
20
3.2346286220472442
11
-1.8214566929133857
21
3.234251968503937
0
LINE
8
BLACK
6
CONTINUOUS
10
-1.8214566929133857
20
3.234251968503937
11
-1.8214566929133857
21
3.1972440944881888
0
LINE
8
BLACK
6
CONTINUOUS
10
-1.8214566929133857
20
3.1972440944881888
11
-1.8215316141732283
21
3.1968674409448816
0
LINE
8
BLACK
6
CONTINUOUS
10
-1.8215316141732283
20
3.1968674409448816
11
-1.8220642913385827
21
3.1963347637795274
0
LINE
8
BLACK
6
CONTINUOUS
10
-1.8220642913385827
20
3.1963347637795274
11
-1.8224409448818897
21
3.1962598425196851
0
LINE
8
BLACK
6
CONTINUOUS
10
-1.8224409448818897
20
3.1962598425196851
11
-1.8956692913385826
21
3.1962598425196851
0
LINE
8
BLACK
6
CONTINUOUS
10
-1.8956692913385826
20
3.1962598425196851
11
-1.8960459448818898
21
3.1963347637795274
0
LINE
8
BLACK
6
CONTINUOUS
10
-1.8960459448818898
20
3.1963347637795274
11
-1.896578622047244
21
3.1968674409448816
0
LINE
8
BLACK
6
CONTINUOUS
10
-1.896578622047244
20
3.1968674409448816
11
-1.8966535433070866
21
3.1972440944881888
0
LINE
8
BLACK
6
CONTINUOUS
10
-1.8966535433070866
20
3.1972440944881888
11
-1.8966535433070866
21
3.234251968503937
0
LINE
8
BLACK
6
CONTINUOUS
10
-1.8966535433070866
20
3.234251968503937
11
-1.896578622047244
21
3.2346286220472442
0
LINE
8
BLACK
6
CONTINUOUS
10
-1.896578622047244
20
3.2346286220472442
11
-1.8960459448818898
21
3.2351612992125984
0
LINE
8
BLACK
6
CONTINUOUS
10
-1.8960459448818898
20
3.2351612992125984
11
-1.8956692913385826
21
3.2352362204724407
0
LINE
8
BLACK
6
CONTINUOUS
10
-1.8956692913385826
20
3.2352362204724407
11
-1.8224409448818897
21
3.2352362204724407
0
LINE
8
BLACK
6
CONTINUOUS
10
-1.8224409448818897
20
3.2352362204724407
11
-1.8220642913385827
21
3.2351612992125984
0
LINE
8
BLACK
6
CONTINUOUS
10
-1.8946850393700787
20
3.2332677165354329
11
-1.8946850393700787
21
3.198228346456693
0
LINE
8
BLACK
6
CONTINUOUS
10
-1.8946850393700787
20
3.198228346456693
11
-1.8234251968503936
21
3.198228346456693
0
LINE
8
BLACK
6
CONTINUOUS
10
-1.8234251968503936
20
3.198228346456693
11
-1.8234251968503936
21
3.2332677165354329
0
LINE
8
BLACK
6
CONTINUOUS
10
-1.8234251968503936
20
3.2332677165354329
11
-1.8946850393700787
21
3.2332677165354329
0
LINE
8
BLACK
6
CONTINUOUS
10
-1.899623346456693
20
3.2721691732283462
11
-1.8990906692913385
21
3.271636496062992
0
LINE
8
BLACK
6
CONTINUOUS
10
-1.8990906692913385
20
3.271636496062992
11
-1.899015748031496
21
3.2712598425196848
0
LINE
8
BLACK
6
CONTINUOUS
10
-1.899015748031496
20
3.2712598425196848
11
-1.899015748031496
21
3.1996062992125984
0
LINE
8
BLACK
6
CONTINUOUS
10
-1.899015748031496
20
3.1996062992125984
11
-1.8990906692913385
21
3.1992296456692912
0
LINE
8
BLACK
6
CONTINUOUS
10
-1.8990906692913385
20
3.1992296456692912
11
-1.899623346456693
21
3.198696968503937
0
LINE
8
BLACK
6
CONTINUOUS
10
-1.899623346456693
20
3.198696968503937
11
-1.8999999999999999
21
3.1986220472440943
0
LINE
8
BLACK
6
CONTINUOUS
10
-1.8999999999999999
20
3.1986220472440943
11
-1.9362204724409449
21
3.1986220472440943
0
LINE
8
BLACK
6
CONTINUOUS
10
-1.9362204724409449
20
3.1986220472440943
11
-1.9365971259842518
21
3.198696968503937
0
LINE
8
BLACK
6
CONTINUOUS
10
-1.9365971259842518
20
3.198696968503937
11
-1.9371298031496063
21
3.1992296456692912
0
LINE
8
BLACK
6
CONTINUOUS
10
-1.9371298031496063
20
3.1992296456692912
11
-1.9372047244094488
21
3.1996062992125984
0
LINE
8
BLACK
6
CONTINUOUS
10
-1.9372047244094488
20
3.1996062992125984
11
-1.9372047244094488
21
3.2712598425196848
0
LINE
8
BLACK
6
CONTINUOUS
10
-1.9372047244094488
20
3.2712598425196848
11
-1.9371298031496063
21
3.271636496062992
0
LINE
8
BLACK
6
CONTINUOUS
10
-1.9371298031496063
20
3.271636496062992
11
-1.9365971259842518
21
3.2721691732283462
0
LINE
8
BLACK
6
CONTINUOUS
10
-1.9365971259842518
20
3.2721691732283462
11
-1.9362204724409449
21
3.272244094488189
0
LINE
8
BLACK
6
CONTINUOUS
10
-1.9362204724409449
20
3.272244094488189
11
-1.8999999999999999
21
3.272244094488189
0
LINE
8
BLACK
6
CONTINUOUS
10
-1.8999999999999999
20
3.272244094488189
11
-1.899623346456693
21
3.2721691732283462
0
LINE
8
BLACK
6
CONTINUOUS
10
-1.9352362204724409
20
3.2702755905511811
11
-1.9352362204724409
21
3.2005905511811021
0
LINE
8
BLACK
6
CONTINUOUS
10
-1.9352362204724409
20
3.2005905511811021
11
-1.9009842519685038
21
3.2005905511811021
0
LINE
8
BLACK
6
CONTINUOUS
10
-1.9009842519685038
20
3.2005905511811021
11
-1.9009842519685038
21
3.2702755905511811
0
LINE
8
BLACK
6
CONTINUOUS
10
-1.9009842519685038
20
3.2702755905511811
11
-1.9352362204724409
21
3.2702755905511811
0
LINE
8
BLACK
6
CONTINUOUS
10
-1.7815131102362205
20
3.2721691732283462
11
-1.7809804330708661
21
3.271636496062992
0
LINE
8
BLACK
6
CONTINUOUS
10
-1.7809804330708661
20
3.271636496062992
11
-1.7809055118110235
21
3.2712598425196848
0
LINE
8
BLACK
6
CONTINUOUS
10
-1.7809055118110235
20
3.2712598425196848
11
-1.7809055118110235
21
3.1996062992125984
0
LINE
8
BLACK
6
CONTINUOUS
10
-1.7809055118110235
20
3.1996062992125984
11
-1.7809804330708661
21
3.1992296456692912
0
LINE
8
BLACK
6
CONTINUOUS
10
-1.7809804330708661
20
3.1992296456692912
11
-1.7815131102362205
21
3.198696968503937
0
LINE
8
BLACK
6
CONTINUOUS
10
-1.7815131102362205
20
3.198696968503937
11
-1.7818897637795275
21
3.1986220472440943
0
LINE
8
BLACK
6
CONTINUOUS
10
-1.7818897637795275
20
3.1986220472440943
11
-1.8181102362204724
21
3.1986220472440943
0
LINE
8
BLACK
6
CONTINUOUS
10
-1.8181102362204724
20
3.1986220472440943
11
-1.8184868897637796
21
3.198696968503937
0
LINE
8
BLACK
6
CONTINUOUS
10
-1.8184868897637796
20
3.198696968503937
11
-1.8190195669291338
21
3.1992296456692912
0
LINE
8
BLACK
6
CONTINUOUS
10
-1.8190195669291338
20
3.1992296456692912
11
-1.8190944881889763
21
3.1996062992125984
0
LINE
8
BLACK
6
CONTINUOUS
10
-1.8190944881889763
20
3.1996062992125984
11
-1.8190944881889763
21
3.2712598425196848
0
LINE
8
BLACK
6
CONTINUOUS
10
-1.8190944881889763
20
3.2712598425196848
11
-1.8190195669291338
21
3.271636496062992
0
LINE
8
BLACK
6
CONTINUOUS
10
-1.8190195669291338
20
3.271636496062992
11
-1.8184868897637796
21
3.2721691732283462
0
LINE
8
BLACK
6
CONTINUOUS
10
-1.8184868897637796
20
3.2721691732283462
11
-1.8181102362204724
21
3.272244094488189
0
LINE
8
BLACK
6
CONTINUOUS
10
-1.8181102362204724
20
3.272244094488189
11
-1.7818897637795275
21
3.272244094488189
0
LINE
8
BLACK
6
CONTINUOUS
10
-1.7818897637795275
20
3.272244094488189
11
-1.7815131102362205
21
3.2721691732283462
0
LINE
8
BLACK
6
CONTINUOUS
10
-1.8171259842519685
20
3.2702755905511811
11
-1.8171259842519685
21
3.2005905511811021
0
LINE
8
BLACK
6
CONTINUOUS
10
-1.8171259842519685
20
3.2005905511811021
11
-1.7828740157480314
21
3.2005905511811021
0
LINE
8
BLACK
6
CONTINUOUS
10
-1.7828740157480314
20
3.2005905511811021
11
-1.7828740157480314
21
3.2702755905511811
0
LINE
8
BLACK
6
CONTINUOUS
10
-1.7828740157480314
20
3.2702755905511811
11
-1.8171259842519685
21
3.2702755905511811
0
LINE
8
BLACK
6
CONTINUOUS
10
-2.2618280708661418
20
3.2879172047244092
11
-2.2612953937007871
21
3.287384527559055
0
LINE
8
BLACK
6
CONTINUOUS
10
-2.2612953937007871
20
3.287384527559055
11
-2.2612204724409448
21
3.2870078740157478
0
LINE
8
BLACK
6
CONTINUOUS
10
-2.2612204724409448
20
3.2870078740157478
11
-2.2612204724409448
21
3.2153543307086614
0
LINE
8
BLACK
6
CONTINUOUS
10
-2.2612204724409448
20
3.2153543307086614
11
-2.2612953937007871
21
3.2149776771653542
0
LINE
8
BLACK
6
CONTINUOUS
10
-2.2612953937007871
20
3.2149776771653542
11
-2.2618280708661418
21
3.214445
0
LINE
8
BLACK
6
CONTINUOUS
10
-2.2618280708661418
20
3.214445
11
-2.262204724409449
21
3.2143700787401572
0
LINE
8
BLACK
6
CONTINUOUS
10
-2.262204724409449
20
3.2143700787401572
11
-2.2984251968503937
21
3.2143700787401572
0
LINE
8
BLACK
6
CONTINUOUS
10
-2.2984251968503937
20
3.2143700787401572
11
-2.2988018503937009
21
3.214445
0
LINE
8
BLACK
6
CONTINUOUS
10
-2.2988018503937009
20
3.214445
11
-2.2993345275590551
21
3.2149776771653542
0
LINE
8
BLACK
6
CONTINUOUS
10
-2.2993345275590551
20
3.2149776771653542
11
-2.2994094488188974
21
3.2153543307086614
0
LINE
8
BLACK
6
CONTINUOUS
10
-2.2994094488188974
20
3.2153543307086614
11
-2.2994094488188974
21
3.2870078740157478
0
LINE
8
BLACK
6
CONTINUOUS
10
-2.2994094488188974
20
3.2870078740157478
11
-2.2993345275590551
21
3.287384527559055
0
LINE
8
BLACK
6
CONTINUOUS
10
-2.2993345275590551
20
3.287384527559055
11
-2.2988018503937009
21
3.2879172047244092
0
LINE
8
BLACK
6
CONTINUOUS
10
-2.2988018503937009
20
3.2879172047244092
11
-2.2984251968503937
21
3.2879921259842519
0
LINE
8
BLACK
6
CONTINUOUS
10
-2.2984251968503937
20
3.2879921259842519
11
-2.262204724409449
21
3.2879921259842519
0
LINE
8
BLACK
6
CONTINUOUS
10
-2.262204724409449
20
3.2879921259842519
11
-2.2618280708661418
21
3.2879172047244092
0
LINE
8
BLACK
6
CONTINUOUS
10
-2.2974409448818895
20
3.2860236220472441
11
-2.2974409448818895
21
3.2163385826771651
0
LINE
8
BLACK
6
CONTINUOUS
10
-2.2974409448818895
20
3.2163385826771651
11
-2.2631889763779527
21
3.2163385826771651
0
LINE
8
BLACK
6
CONTINUOUS
10
-2.2631889763779527
20
3.2163385826771651
11
-2.2631889763779527
21
3.2860236220472441
0
LINE
8
BLACK
6
CONTINUOUS
10
-2.2631889763779527
20
3.2860236220472441
11
-2.2974409448818895
21
3.2860236220472441
0
LINE
8
BLACK
6
CONTINUOUS
10
-1.8602532677165353
20
3.3115392519685041
11
-1.8597205905511811
21
3.3110065748031494
0
LINE
8
BLACK
6
CONTINUOUS
10
-1.8597205905511811
20
3.3110065748031494
11
-1.8596456692913386
21
3.3106299212598422
0
LINE
8
BLACK
6
CONTINUOUS
10
-1.8596456692913386
20
3.3106299212598422
11
-1.8596456692913386
21
3.2389763779527558
0
LINE
8
BLACK
6
CONTINUOUS
10
-1.8596456692913386
20
3.2389763779527558
11
-1.8597205905511811
21
3.2385997244094487
0
LINE
8
BLACK
6
CONTINUOUS
10
-1.8597205905511811
20
3.2385997244094487
11
-1.8602532677165353
21
3.2380670472440944
0
LINE
8
BLACK
6
CONTINUOUS
10
-1.8602532677165353
20
3.2380670472440944
11
-1.8606299212598425
21
3.2379921259842517
0
LINE
8
BLACK
6
CONTINUOUS
10
-1.8606299212598425
20
3.2379921259842517
11
-1.8968503937007875
21
3.2379921259842517
0
LINE
8
BLACK
6
CONTINUOUS
10
-1.8968503937007875
20
3.2379921259842517
11
-1.8972270472440944
21
3.2380670472440944
0
LINE
8
BLACK
6
CONTINUOUS
10
-1.8972270472440944
20
3.2380670472440944
11
-1.8977597244094488
21
3.2385997244094487
0
LINE
8
BLACK
6
CONTINUOUS
10
-1.8977597244094488
20
3.2385997244094487
11
-1.8978346456692914
21
3.2389763779527558
0
LINE
8
BLACK
6
CONTINUOUS
10
-1.8978346456692914
20
3.2389763779527558
11
-1.8978346456692914
21
3.3106299212598422
0
LINE
8
BLACK
6
CONTINUOUS
10
-1.8978346456692914
20
3.3106299212598422
11
-1.8977597244094488
21
3.3110065748031494
0
LINE
8
BLACK
6
CONTINUOUS
10
-1.8977597244094488
20
3.3110065748031494
11
-1.8972270472440944
21
3.3115392519685041
0
LINE
8
BLACK
6
CONTINUOUS
10
-1.8972270472440944
20
3.3115392519685041
11
-1.8968503937007875
21
3.3116141732283464
0
LINE
8
BLACK
6
CONTINUOUS
10
-1.8968503937007875
20
3.3116141732283464
11
-1.8606299212598425
21
3.3116141732283464
0
LINE
8
BLACK
6
CONTINUOUS
10
-1.8606299212598425
20
3.3116141732283464
11
-1.8602532677165353
21
3.3115392519685041
0
LINE
8
BLACK
6
CONTINUOUS
10
-1.8958661417322835
20
3.3096456692913385
11
-1.8958661417322835
21
3.2399606299212595
0
LINE
8
BLACK
6
CONTINUOUS
10
-1.8958661417322835
20
3.2399606299212595
11
-1.8616141732283464
21
3.2399606299212595
0
LINE
8
BLACK
6
CONTINUOUS
10
-1.8616141732283464
20
3.2399606299212595
11
-1.8616141732283464
21
3.3096456692913385
0
LINE
8
BLACK
6
CONTINUOUS
10
-1.8616141732283464
20
3.3096456692913385
11
-1.8958661417322835
21
3.3096456692913385
0
LINE
8
BLACK
6
CONTINUOUS
10
-1.8208831889763779
20
3.3115392519685041
11
-1.8203505118110235
21
3.3110065748031494
0
LINE
8
BLACK
6
CONTINUOUS
10
-1.8203505118110235
20
3.3110065748031494
11
-1.8202755905511812
21
3.3106299212598422
0
LINE
8
BLACK
6
CONTINUOUS
10
-1.8202755905511812
20
3.3106299212598422
11
-1.8202755905511812
21
3.2389763779527558
0
LINE
8
BLACK
6
CONTINUOUS
10
-1.8202755905511812
20
3.2389763779527558
11
-1.8203505118110235
21
3.2385997244094487
0
LINE
8
BLACK
6
CONTINUOUS
10
-1.8203505118110235
20
3.2385997244094487
11
-1.8208831889763779
21
3.2380670472440944
0
LINE
8
BLACK
6
CONTINUOUS
10
-1.8208831889763779
20
3.2380670472440944
11
-1.8212598425196851
21
3.2379921259842517
0
LINE
8
BLACK
6
CONTINUOUS
10
-1.8212598425196851
20
3.2379921259842517
11
-1.8574803149606298
21
3.2379921259842517
0
LINE
8
BLACK
6
CONTINUOUS
10
-1.8574803149606298
20
3.2379921259842517
11
-1.857856968503937
21
3.2380670472440944
0
LINE
8
BLACK
6
CONTINUOUS
10
-1.857856968503937
20
3.2380670472440944
11
-1.8583896456692912
21
3.2385997244094487
0
LINE
8
BLACK
6
CONTINUOUS
10
-1.8583896456692912
20
3.2385997244094487
11
-1.8584645669291338
21
3.2389763779527558
0
LINE
8
BLACK
6
CONTINUOUS
10
-1.8584645669291338
20
3.2389763779527558
11
-1.8584645669291338
21
3.3106299212598422
0
LINE
8
BLACK
6
CONTINUOUS
10
-1.8584645669291338
20
3.3106299212598422
11
-1.8583896456692912
21
3.3110065748031494
0
LINE
8
BLACK
6
CONTINUOUS
10
-1.8583896456692912
20
3.3110065748031494
11
-1.857856968503937
21
3.3115392519685041
0
LINE
8
BLACK
6
CONTINUOUS
10
-1.857856968503937
20
3.3115392519685041
11
-1.8574803149606298
21
3.3116141732283464
0
LINE
8
BLACK
6
CONTINUOUS
10
-1.8574803149606298
20
3.3116141732283464
11
-1.8212598425196851
21
3.3116141732283464
0
LINE
8
BLACK
6
CONTINUOUS
10
-1.8212598425196851
20
3.3116141732283464
11
-1.8208831889763779
21
3.3115392519685041
0
LINE
8
BLACK
6
CONTINUOUS
10
-1.8564960629921259
20
3.3096456692913385
11
-1.8564960629921259
21
3.2399606299212595
0
LINE
8
BLACK
6
CONTINUOUS
10
-1.8564960629921259
20
3.2399606299212595
11
-1.822244094488189
21
3.2399606299212595
0
LINE
8
BLACK
6
CONTINUOUS
10
-1.822244094488189
20
3.2399606299212595
11
-1.822244094488189
21
3.3096456692913385
0
LINE
8
BLACK
6
CONTINUOUS
10
-1.822244094488189
20
3.3096456692913385
11
-1.8564960629921259
21
3.3096456692913385
0
LINE
8
BLACK
6
CONTINUOUS
10
-1.8193083858267716
20
3.4410668110236218
11
-1.8187757086614174
21
3.4405341338582676
0
LINE
8
BLACK
6
CONTINUOUS
10
-1.8187757086614174
20
3.4405341338582676
11
-1.8187007874015748
21
3.4401574803149604
0
LINE
8
BLACK
6
CONTINUOUS
10
-1.8187007874015748
20
3.4401574803149604
11
-1.8187007874015748
21
3.3141732283464567
0
LINE
8
BLACK
6
CONTINUOUS
10
-1.8187007874015748
20
3.3141732283464567
11
-1.8187757086614174
21
3.3137965748031495
0
LINE
8
BLACK
6
CONTINUOUS
10
-1.8187757086614174
20
3.3137965748031495
11
-1.8193083858267716
21
3.3132638976377953
0
LINE
8
BLACK
6
CONTINUOUS
10
-1.8193083858267716
20
3.3132638976377953
11
-1.8196850393700787
21
3.3131889763779525
0
LINE
8
BLACK
6
CONTINUOUS
10
-1.8196850393700787
20
3.3131889763779525
11
-1.9299212598425197
21
3.3131889763779525
0
LINE
8
BLACK
6
CONTINUOUS
10
-1.9299212598425197
20
3.3131889763779525
11
-1.9302979133858267
21
3.3132638976377953
0
LINE
8
BLACK
6
CONTINUOUS
10
-1.9302979133858267
20
3.3132638976377953
11
-1.9308305905511811
21
3.3137965748031495
0
LINE
8
BLACK
6
CONTINUOUS
10
-1.9308305905511811
20
3.3137965748031495
11
-1.9309055118110237
21
3.3141732283464567
0
LINE
8
BLACK
6
CONTINUOUS
10
-1.9309055118110237
20
3.3141732283464567
11
-1.9309055118110237
21
3.4401574803149604
0
LINE
8
BLACK
6
CONTINUOUS
10
-1.9309055118110237
20
3.4401574803149604
11
-1.9308305905511811
21
3.4405341338582676
0
LINE
8
BLACK
6
CONTINUOUS
10
-1.9308305905511811
20
3.4405341338582676
11
-1.9302979133858267
21
3.4410668110236218
0
LINE
8
BLACK
6
CONTINUOUS
10
-1.9302979133858267
20
3.4410668110236218
11
-1.9299212598425197
21
3.4411417322834645
0
LINE
8
BLACK
6
CONTINUOUS
10
-1.9299212598425197
20
3.4411417322834645
11
-1.8196850393700787
21
3.4411417322834645
0
LINE
8
BLACK
6
CONTINUOUS
10
-1.8196850393700787
20
3.4411417322834645
11
-1.8193083858267716
21
3.4410668110236218
0
LINE
8
BLACK
6
CONTINUOUS
10
-1.9289370078740158
20
3.4391732283464567
11
-1.9289370078740158
21
3.3151574803149604
0
LINE
8
BLACK
6
CONTINUOUS
10
-1.9289370078740158
20
3.3151574803149604
11
-1.8206692913385827
21
3.3151574803149604
0
LINE
8
BLACK
6
CONTINUOUS
10
-1.8206692913385827
20
3.3151574803149604
11
-1.8206692913385827
21
3.4391732283464567
0
LINE
8
BLACK
6
CONTINUOUS
10
-1.8206692913385827
20
3.4391732283464567
11
-1.9289370078740158
21
3.4391732283464567
0
LINE
8
BLACK
6
CONTINUOUS
10
-2.0417493307086612
20
3.4194132677165352
11
-2.0412166535433069
21
3.418880590551181
0
LINE
8
BLACK
6
CONTINUOUS
10
-2.0412166535433069
20
3.418880590551181
11
-2.0411417322834646
21
3.4185039370078738
0
LINE
8
BLACK
6
CONTINUOUS
10
-2.0411417322834646
20
3.4185039370078738
11
-2.0411417322834646
21
3.3279527559055118
0
LINE
8
BLACK
6
CONTINUOUS
10
-2.0411417322834646
20
3.3279527559055118
11
-2.0412166535433069
21
3.3275761023622046
0
LINE
8
BLACK
6
CONTINUOUS
10
-2.0412166535433069
20
3.3275761023622046
11
-2.0417493307086612
21
3.3270434251968504
0
LINE
8
BLACK
6
CONTINUOUS
10
-2.0417493307086612
20
3.3270434251968504
11
-2.0421259842519683
21
3.3269685039370076
0
LINE
8
BLACK
6
CONTINUOUS
10
-2.0421259842519683
20
3.3269685039370076
11
-2.2271653543307086
21
3.3269685039370076
0
LINE
8
BLACK
6
CONTINUOUS
10
-2.2271653543307086
20
3.3269685039370076
11
-2.2275420078740158
21
3.3270434251968504
0
LINE
8
BLACK
6
CONTINUOUS
10
-2.2275420078740158
20
3.3270434251968504
11
-2.22807468503937
21
3.3275761023622046
0
LINE
8
BLACK
6
CONTINUOUS
10
-2.22807468503937
20
3.3275761023622046
11
-2.2281496062992123
21
3.3279527559055118
0
LINE
8
BLACK
6
CONTINUOUS
10
-2.2281496062992123
20
3.3279527559055118
11
-2.2281496062992123
21
3.4185039370078738
0
LINE
8
BLACK
6
CONTINUOUS
10
-2.2281496062992123
20
3.4185039370078738
11
-2.22807468503937
21
3.418880590551181
0
LINE
8
BLACK
6
CONTINUOUS
10
-2.22807468503937
20
3.418880590551181
11
-2.2275420078740158
21
3.4194132677165352
0
LINE
8
BLACK
6
CONTINUOUS
10
-2.2275420078740158
20
3.4194132677165352
11
-2.2271653543307086
21
3.419488188976378
0
LINE
8
BLACK
6
CONTINUOUS
10
-2.2271653543307086
20
3.419488188976378
11
-2.0421259842519683
21
3.419488188976378
0
LINE
8
BLACK
6
CONTINUOUS
10
-2.0421259842519683
20
3.419488188976378
11
-2.0417493307086612
21
3.4194132677165352
0
LINE
8
BLACK
6
CONTINUOUS
10
-2.2261811023622045
20
3.4175196850393701
11
-2.2261811023622045
21
3.3289370078740155
0
LINE
8
BLACK
6
CONTINUOUS
10
-2.2261811023622045
20
3.3289370078740155
11
-2.0431102362204725
21
3.3289370078740155
0
LINE
8
BLACK
6
CONTINUOUS
10
-2.0431102362204725
20
3.3289370078740155
11
-2.0431102362204725
21
3.4175196850393701
0
LINE
8
BLACK
6
CONTINUOUS
10
-2.0431102362204725
20
3.4175196850393701
11
-2.2261811023622045
21
3.4175196850393701
0
LINE
8
BLACK
6
CONTINUOUS
10
-1.9330879133858268
20
3.4139014566929133
11
-1.9325552362204723
21
3.4133687795275591
0
LINE
8
BLACK
6
CONTINUOUS
10
-1.9325552362204723
20
3.4133687795275591
11
-1.9324803149606298
21
3.4129921259842519
0
LINE
8
BLACK
6
CONTINUOUS
10
-1.9324803149606298
20
3.4129921259842519
11
-1.9324803149606298
21
3.3413385826771651
0
LINE
8
BLACK
6
CONTINUOUS
10
-1.9324803149606298
20
3.3413385826771651
11
-1.9325552362204723
21
3.3409619291338584
0
LINE
8
BLACK
6
CONTINUOUS
10
-1.9325552362204723
20
3.3409619291338584
11
-1.9330879133858268
21
3.3404292519685037
0
LINE
8
BLACK
6
CONTINUOUS
10
-1.9330879133858268
20
3.3404292519685037
11
-1.9334645669291337
21
3.3403543307086614
0
LINE
8
BLACK
6
CONTINUOUS
10
-1.9334645669291337
20
3.3403543307086614
11
-1.9696850393700787
21
3.3403543307086614
0
LINE
8
BLACK
6
CONTINUOUS
10
-1.9696850393700787
20
3.3403543307086614
11
-1.9700616929133858
21
3.3404292519685037
0
LINE
8
BLACK
6
CONTINUOUS
10
-1.9700616929133858
20
3.3404292519685037
11
-1.9705943700787401
21
3.3409619291338584
0
LINE
8
BLACK
6
CONTINUOUS
10
-1.9705943700787401
20
3.3409619291338584
11
-1.9706692913385826
21
3.3413385826771651
0
LINE
8
BLACK
6
CONTINUOUS
10
-1.9706692913385826
20
3.3413385826771651
11
-1.9706692913385826
21
3.4129921259842519
0
LINE
8
BLACK
6
CONTINUOUS
10
-1.9706692913385826
20
3.4129921259842519
11
-1.9705943700787401
21
3.4133687795275591
0
LINE
8
BLACK
6
CONTINUOUS
10
-1.9705943700787401
20
3.4133687795275591
11
-1.9700616929133858
21
3.4139014566929133
0
LINE
8
BLACK
6
CONTINUOUS
10
-1.9700616929133858
20
3.4139014566929133
11
-1.9696850393700787
21
3.4139763779527557
0
LINE
8
BLACK
6
CONTINUOUS
10
-1.9696850393700787
20
3.4139763779527557
11
-1.9334645669291337
21
3.4139763779527557
0
LINE
8
BLACK
6
CONTINUOUS
10
-1.9334645669291337
20
3.4139763779527557
11
-1.9330879133858268
21
3.4139014566929133
0
LINE
8
BLACK
6
CONTINUOUS
10
-1.9687007874015747
20
3.4120078740157478
11
-1.9687007874015747
21
3.3423228346456693
0
LINE
8
BLACK
6
CONTINUOUS
10
-1.9687007874015747
20
3.3423228346456693
11
-1.9344488188976376
21
3.3423228346456693
0
LINE
8
BLACK
6
CONTINUOUS
10
-1.9344488188976376
20
3.3423228346456693
11
-1.9344488188976376
21
3.4120078740157478
0
LINE
8
BLACK
6
CONTINUOUS
10
-1.9344488188976376
20
3.4120078740157478
11
-1.9687007874015747
21
3.4120078740157478
0
LINE
8
BLACK
6
CONTINUOUS
10
-2.0358437795275588
20
3.551303031496063
11
-2.0353111023622046
21
3.5507703543307088
0
LINE
8
BLACK
6
CONTINUOUS
10
-2.0353111023622046
20
3.5507703543307088
11
-2.0352361811023623
21
3.5503937007874016
0
LINE
8
BLACK
6
CONTINUOUS
10
-2.0352361811023623
20
3.5503937007874016
11
-2.0352361811023623
21
3.4244094488188974
0
LINE
8
BLACK
6
CONTINUOUS
10
-2.0352361811023623
20
3.4244094488188974
11
-2.0353111023622046
21
3.4240327952755907
0
LINE
8
BLACK
6
CONTINUOUS
10
-2.0353111023622046
20
3.4240327952755907
11
-2.0358437795275588
21
3.423500118110236
0
LINE
8
BLACK
6
CONTINUOUS
10
-2.0358437795275588
20
3.423500118110236
11
-2.036220433070866
21
3.4234251968503937
0
LINE
8
BLACK
6
CONTINUOUS
10
-2.036220433070866
20
3.4234251968503937
11
-2.1464566535433072
21
3.4234251968503937
0
LINE
8
BLACK
6
CONTINUOUS
10
-2.1464566535433072
20
3.4234251968503937
11
-2.1468333070866139
21
3.423500118110236
0
LINE
8
BLACK
6
CONTINUOUS
10
-2.1468333070866139
20
3.423500118110236
11
-2.1473659842519686
21
3.4240327952755907
0
LINE
8
BLACK
6
CONTINUOUS
10
-2.1473659842519686
20
3.4240327952755907
11
-2.1474409055118109
21
3.4244094488188974
0
LINE
8
BLACK
6
CONTINUOUS
10
-2.1474409055118109
20
3.4244094488188974
11
-2.1474409055118109
21
3.5503937007874016
0
LINE
8
BLACK
6
CONTINUOUS
10
-2.1474409055118109
20
3.5503937007874016
11
-2.1473659842519686
21
3.5507703543307088
0
LINE
8
BLACK
6
CONTINUOUS
10
-2.1473659842519686
20
3.5507703543307088
11
-2.1468333070866139
21
3.551303031496063
0
LINE
8
BLACK
6
CONTINUOUS
10
-2.1468333070866139
20
3.551303031496063
11
-2.1464566535433072
21
3.5513779527559053
0
LINE
8
BLACK
6
CONTINUOUS
10
-2.1464566535433072
20
3.5513779527559053
11
-2.036220433070866
21
3.5513779527559053
0
LINE
8
BLACK
6
CONTINUOUS
10
-2.036220433070866
20
3.5513779527559053
11
-2.0358437795275588
21
3.551303031496063
0
LINE
8
BLACK
6
CONTINUOUS
10
-2.145472401574803
20
3.5494094488188974
11
-2.145472401574803
21
3.4253937007874016
0
LINE
8
BLACK
6
CONTINUOUS
10
-2.145472401574803
20
3.4253937007874016
11
-2.0372046850393701
21
3.4253937007874016
0
LINE
8
BLACK
6
CONTINUOUS
10
-2.0372046850393701
20
3.4253937007874016
11
-2.0372046850393701
21
3.5494094488188974
0
LINE
8
BLACK
6
CONTINUOUS
10
-2.0372046850393701
20
3.5494094488188974
11
-2.145472401574803
21
3.5494094488188974
0
LINE
8
BLACK
6
CONTINUOUS
10
-2.1527729527559054
20
3.4635077559055119
11
-2.1522402755905512
21
3.4629750787401572
0
LINE
8
BLACK
6
CONTINUOUS
10
-2.1522402755905512
20
3.4629750787401572
11
-2.1521653543307084
21
3.4625984251968505
0
LINE
8
BLACK
6
CONTINUOUS
10
-2.1521653543307084
20
3.4625984251968505
11
-2.1521653543307084
21
3.4255905511811022
0
LINE
8
BLACK
6
CONTINUOUS
10
-2.1521653543307084
20
3.4255905511811022
11
-2.1522402755905512
21
3.425213897637795
0
LINE
8
BLACK
6
CONTINUOUS
10
-2.1522402755905512
20
3.425213897637795
11
-2.1527729527559054
21
3.4246812204724408
0
LINE
8
BLACK
6
CONTINUOUS
10
-2.1527729527559054
20
3.4246812204724408
11
-2.1531496062992126
21
3.4246062992125985
0
LINE
8
BLACK
6
CONTINUOUS
10
-2.1531496062992126
20
3.4246062992125985
11
-2.2263779527559056
21
3.4246062992125985
0
LINE
8
BLACK
6
CONTINUOUS
10
-2.2263779527559056
20
3.4246062992125985
11
-2.2267546062992127
21
3.4246812204724408
0
LINE
8
BLACK
6
CONTINUOUS
10
-2.2267546062992127
20
3.4246812204724408
11
-2.2272872834645669
21
3.425213897637795
0
LINE
8
BLACK
6
CONTINUOUS
10
-2.2272872834645669
20
3.425213897637795
11
-2.2273622047244093
21
3.4255905511811022
0
LINE
8
BLACK
6
CONTINUOUS
10
-2.2273622047244093
20
3.4255905511811022
11
-2.2273622047244093
21
3.4625984251968505
0
LINE
8
BLACK
6
CONTINUOUS
10
-2.2273622047244093
20
3.4625984251968505
11
-2.2272872834645669
21
3.4629750787401572
0
LINE
8
BLACK
6
CONTINUOUS
10
-2.2272872834645669
20
3.4629750787401572
11
-2.2267546062992127
21
3.4635077559055119
0
LINE
8
BLACK
6
CONTINUOUS
10
-2.2267546062992127
20
3.4635077559055119
11
-2.2263779527559056
21
3.4635826771653542
0
LINE
8
BLACK
6
CONTINUOUS
10
-2.2263779527559056
20
3.4635826771653542
11
-2.1531496062992126
21
3.4635826771653542
0
LINE
8
BLACK
6
CONTINUOUS
10
-2.1531496062992126
20
3.4635826771653542
11
-2.1527729527559054
21
3.4635077559055119
0
LINE
8
BLACK
6
CONTINUOUS
10
-2.2253937007874014
20
3.4616141732283463
11
-2.2253937007874014
21
3.4265748031496064
0
LINE
8
BLACK
6
CONTINUOUS
10
-2.2253937007874014
20
3.4265748031496064
11
-2.1541338582677163
21
3.4265748031496064
0
LINE
8
BLACK
6
CONTINUOUS
10
-2.1541338582677163
20
3.4265748031496064
11
-2.1541338582677163
21
3.4616141732283463
0
LINE
8
BLACK
6
CONTINUOUS
10
-2.1541338582677163
20
3.4616141732283463
11
-2.2253937007874014
21
3.4616141732283463
0
LINE
8
BLACK
6
CONTINUOUS
10
-1.8464737401574802
20
3.4827990944881888
11
-1.845941062992126
21
3.4822664173228346
0
LINE
8
BLACK
6
CONTINUOUS
10
-1.845941062992126
20
3.4822664173228346
11
-1.8458661417322835
21
3.4818897637795274
0
LINE
8
BLACK
6
CONTINUOUS
10
-1.8458661417322835
20
3.4818897637795274
11
-1.8458661417322835
21
3.4456692913385827
0
LINE
8
BLACK
6
CONTINUOUS
10
-1.8458661417322835
20
3.4456692913385827
11
-1.845941062992126
21
3.4452926377952755
0
LINE
8
BLACK
6
CONTINUOUS
10
-1.845941062992126
20
3.4452926377952755
11
-1.8464737401574802
21
3.4447599606299213
0
LINE
8
BLACK
6
CONTINUOUS
10
-1.8464737401574802
20
3.4447599606299213
11
-1.8468503937007874
21
3.4446850393700785
0
LINE
8
BLACK
6
CONTINUOUS
10
-1.8468503937007874
20
3.4446850393700785
11
-1.918503937007874
21
3.4446850393700785
0
LINE
8
BLACK
6
CONTINUOUS
10
-1.918503937007874
20
3.4446850393700785
11
-1.918880590551181
21
3.4447599606299213
0
LINE
8
BLACK
6
CONTINUOUS
10
-1.918880590551181
20
3.4447599606299213
11
-1.9194132677165354
21
3.4452926377952755
0
LINE
8
BLACK
6
CONTINUOUS
10
-1.9194132677165354
20
3.4452926377952755
11
-1.919488188976378
21
3.4456692913385827
0
LINE
8
BLACK
6
CONTINUOUS
10
-1.919488188976378
20
3.4456692913385827
11
-1.919488188976378
21
3.4818897637795274
0
LINE
8
BLACK
6
CONTINUOUS
10
-1.919488188976378
20
3.4818897637795274
11
-1.9194132677165354
21
3.4822664173228346
0
LINE
8
BLACK
6
CONTINUOUS
10
-1.9194132677165354
20
3.4822664173228346
11
-1.918880590551181
21
3.4827990944881888
0
LINE
8
BLACK
6
CONTINUOUS
10
-1.918880590551181
20
3.4827990944881888
11
-1.918503937007874
21
3.4828740157480316
0
LINE
8
BLACK
6
CONTINUOUS
10
-1.918503937007874
20
3.4828740157480316
11
-1.8468503937007874
21
3.4828740157480316
0
LINE
8
BLACK
6
CONTINUOUS
10
-1.8468503937007874
20
3.4828740157480316
11
-1.8464737401574802
21
3.4827990944881888
0
LINE
8
BLACK
6
CONTINUOUS
10
-1.9175196850393701
20
3.4809055118110237
11
-1.9175196850393701
21
3.4466535433070864
0
LINE
8
BLACK
6
CONTINUOUS
10
-1.9175196850393701
20
3.4466535433070864
11
-1.8478346456692913
21
3.4466535433070864
0
LINE
8
BLACK
6
CONTINUOUS
10
-1.8478346456692913
20
3.4466535433070864
11
-1.8478346456692913
21
3.4809055118110237
0
LINE
8
BLACK
6
CONTINUOUS
10
-1.8478346456692913
20
3.4809055118110237
11
-1.9175196850393701
21
3.4809055118110237
0
LINE
8
BLACK
6
CONTINUOUS
10
-2.1535603543307085
20
3.5024841338582675
11
-2.1530276771653543
21
3.5019514566929133
0
LINE
8
BLACK
6
CONTINUOUS
10
-2.1530276771653543
20
3.5019514566929133
11
-2.1529527559055119
21
3.5015748031496061
0
LINE
8
BLACK
6
CONTINUOUS
10
-2.1529527559055119
20
3.5015748031496061
11
-2.1529527559055119
21
3.4653543307086614
0
LINE
8
BLACK
6
CONTINUOUS
10
-2.1529527559055119
20
3.4653543307086614
11
-2.1530276771653543
21
3.4649776771653542
0
LINE
8
BLACK
6
CONTINUOUS
10
-2.1530276771653543
20
3.4649776771653542
11
-2.1535603543307085
21
3.464445
0
LINE
8
BLACK
6
CONTINUOUS
10
-2.1535603543307085
20
3.464445
11
-2.1539370078740157
21
3.4643700787401572
0
LINE
8
BLACK
6
CONTINUOUS
10
-2.1539370078740157
20
3.4643700787401572
11
-2.2255905511811025
21
3.4643700787401572
0
LINE
8
BLACK
6
CONTINUOUS
10
-2.2255905511811025
20
3.4643700787401572
11
-2.2259672047244092
21
3.464445
0
LINE
8
BLACK
6
CONTINUOUS
10
-2.2259672047244092
20
3.464445
11
-2.2264998818897639
21
3.4649776771653542
0
LINE
8
BLACK
6
CONTINUOUS
10
-2.2264998818897639
20
3.4649776771653542
11
-2.2265748031496062
21
3.4653543307086614
0
LINE
8
BLACK
6
CONTINUOUS
10
-2.2265748031496062
20
3.4653543307086614
11
-2.2265748031496062
21
3.5015748031496061
0
LINE
8
BLACK
6
CONTINUOUS
10
-2.2265748031496062
20
3.5015748031496061
11
-2.2264998818897639
21
3.5019514566929133
0
LINE
8
BLACK
6
CONTINUOUS
10
-2.2264998818897639
20
3.5019514566929133
11
-2.2259672047244092
21
3.5024841338582675
0
LINE
8
BLACK
6
CONTINUOUS
10
-2.2259672047244092
20
3.5024841338582675
11
-2.2255905511811025
21
3.5025590551181103
0
LINE
8
BLACK
6
CONTINUOUS
10
-2.2255905511811025
20
3.5025590551181103
11
-2.1539370078740157
21
3.5025590551181103
0
LINE
8
BLACK
6
CONTINUOUS
10
-2.1539370078740157
20
3.5025590551181103
11
-2.1535603543307085
21
3.5024841338582675
0
LINE
8
BLACK
6
CONTINUOUS
10
-2.2246062992125983
20
3.5005905511811024
11
-2.2246062992125983
21
3.4663385826771651
0
LINE
8
BLACK
6
CONTINUOUS
10
-2.2246062992125983
20
3.4663385826771651
11
-2.1549212598425198
21
3.4663385826771651
0
LINE
8
BLACK
6
CONTINUOUS
10
-2.1549212598425198
20
3.4663385826771651
11
-2.1549212598425198
21
3.5005905511811024
0
LINE
8
BLACK
6
CONTINUOUS
10
-2.1549212598425198
20
3.5005905511811024
11
-2.2246062992125983
21
3.5005905511811024
0
LINE
8
BLACK
6
CONTINUOUS
10
-1.7720642913385827
20
3.6772872834645667
11
-1.7715316141732282
21
3.6767546062992125
0
LINE
8
BLACK
6
CONTINUOUS
10
-1.7715316141732282
20
3.6767546062992125
11
-1.7714566929133857
21
3.6763779527559053
0
LINE
8
BLACK
6
CONTINUOUS
10
-1.7714566929133857
20
3.6763779527559053
11
-1.7714566929133857
21
3.4874015748031497
0
LINE
8
BLACK
6
CONTINUOUS
10
-1.7714566929133857
20
3.4874015748031497
11
-1.7715316141732282
21
3.4870249212598425
0
LINE
8
BLACK
6
CONTINUOUS
10
-1.7715316141732282
20
3.4870249212598425
11
-1.7720642913385827
21
3.4864922440944883
0
LINE
8
BLACK
6
CONTINUOUS
10
-1.7720642913385827
20
3.4864922440944883
11
-1.7724409448818896
21
3.4864173228346456
0
LINE
8
BLACK
6
CONTINUOUS
10
-1.7724409448818896
20
3.4864173228346456
11
-1.9535433070866142
21
3.4864173228346456
0
LINE
8
BLACK
6
CONTINUOUS
10
-1.9535433070866142
20
3.4864173228346456
11
-1.9539199606299211
21
3.4864922440944883
0
LINE
8
BLACK
6
CONTINUOUS
10
-1.9539199606299211
20
3.4864922440944883
11
-1.9544526377952756
21
3.4870249212598425
0
LINE
8
BLACK
6
CONTINUOUS
10
-1.9544526377952756
20
3.4870249212598425
11
-1.9545275590551181
21
3.4874015748031497
0
LINE
8
BLACK
6
CONTINUOUS
10
-1.9545275590551181
20
3.4874015748031497
11
-1.9545275590551181
21
3.6763779527559053
0
LINE
8
BLACK
6
CONTINUOUS
10
-1.9545275590551181
20
3.6763779527559053
11
-1.9544526377952756
21
3.6767546062992125
0
LINE
8
BLACK
6
CONTINUOUS
10
-1.9544526377952756
20
3.6767546062992125
11
-1.9539199606299211
21
3.6772872834645667
0
LINE
8
BLACK
6
CONTINUOUS
10
-1.9539199606299211
20
3.6772872834645667
11
-1.9535433070866142
21
3.6773622047244094
0
LINE
8
BLACK
6
CONTINUOUS
10
-1.9535433070866142
20
3.6773622047244094
11
-1.7724409448818896
21
3.6773622047244094
0
LINE
8
BLACK
6
CONTINUOUS
10
-1.7724409448818896
20
3.6773622047244094
11
-1.7720642913385827
21
3.6772872834645667
0
LINE
8
BLACK
6
CONTINUOUS
10
-1.9525590551181102
20
3.6753937007874016
11
-1.9525590551181102
21
3.4883858267716534
0
LINE
8
BLACK
6
CONTINUOUS
10
-1.9525590551181102
20
3.4883858267716534
11
-1.7734251968503936
21
3.4883858267716534
0
LINE
8
BLACK
6
CONTINUOUS
10
-1.7734251968503936
20
3.4883858267716534
11
-1.7734251968503936
21
3.6753937007874016
0
LINE
8
BLACK
6
CONTINUOUS
10
-1.7734251968503936
20
3.6753937007874016
11
-1.9525590551181102
21
3.6753937007874016
0
LINE
8
BLACK
6
CONTINUOUS
10
-2.1535603543307085
20
3.5457912204724407
11
-2.1530276771653543
21
3.5452585433070865
0
LINE
8
BLACK
6
CONTINUOUS
10
-2.1530276771653543
20
3.5452585433070865
11
-2.1529527559055119
21
3.5448818897637793
0
LINE
8
BLACK
6
CONTINUOUS
10
-2.1529527559055119
20
3.5448818897637793
11
-2.1529527559055119
21
3.5086614173228345
0
LINE
8
BLACK
6
CONTINUOUS
10
-2.1529527559055119
20
3.5086614173228345
11
-2.1530276771653543
21
3.5082847637795274
0
LINE
8
BLACK
6
CONTINUOUS
10
-2.1530276771653543
20
3.5082847637795274
11
-2.1535603543307085
21
3.5077520866141731
0
LINE
8
BLACK
6
CONTINUOUS
10
-2.1535603543307085
20
3.5077520866141731
11
-2.1539370078740157
21
3.5076771653543308
0
LINE
8
BLACK
6
CONTINUOUS
10
-2.1539370078740157
20
3.5076771653543308
11
-2.2255905511811025
21
3.5076771653543308
0
LINE
8
BLACK
6
CONTINUOUS
10
-2.2255905511811025
20
3.5076771653543308
11
-2.2259672047244092
21
3.5077520866141731
0
LINE
8
BLACK
6
CONTINUOUS
10
-2.2259672047244092
20
3.5077520866141731
11
-2.2264998818897639
21
3.5082847637795274
0
LINE
8
BLACK
6
CONTINUOUS
10
-2.2264998818897639
20
3.5082847637795274
11
-2.2265748031496062
21
3.5086614173228345
0
LINE
8
BLACK
6
CONTINUOUS
10
-2.2265748031496062
20
3.5086614173228345
11
-2.2265748031496062
21
3.5448818897637793
0
LINE
8
BLACK
6
CONTINUOUS
10
-2.2265748031496062
20
3.5448818897637793
11
-2.2264998818897639
21
3.5452585433070865
0
LINE
8
BLACK
6
CONTINUOUS
10
-2.2264998818897639
20
3.5452585433070865
11
-2.2259672047244092
21
3.5457912204724407
0
LINE
8
BLACK
6
CONTINUOUS
10
-2.2259672047244092
20
3.5457912204724407
11
-2.2255905511811025
21
3.5458661417322834
0
LINE
8
BLACK
6
CONTINUOUS
10
-2.2255905511811025
20
3.5458661417322834
11
-2.1539370078740157
21
3.5458661417322834
0
LINE
8
BLACK
6
CONTINUOUS
10
-2.1539370078740157
20
3.5458661417322834
11
-2.1535603543307085
21
3.5457912204724407
0
LINE
8
BLACK
6
CONTINUOUS
10
-2.2246062992125983
20
3.5438976377952756
11
-2.2246062992125983
21
3.5096456692913387
0
LINE
8
BLACK
6
CONTINUOUS
10
-2.2246062992125983
20
3.5096456692913387
11
-2.1549212598425198
21
3.5096456692913387
0
LINE
8
BLACK
6
CONTINUOUS
10
-2.1549212598425198
20
3.5096456692913387
11
-2.1549212598425198
21
3.5438976377952756
0
LINE
8
BLACK
6
CONTINUOUS
10
-2.1549212598425198
20
3.5438976377952756
11
-2.2246062992125983
21
3.5438976377952756
0
LINE
8
BLACK
6
CONTINUOUS
10
-2.2078910629921258
20
3.7233502755905512
11
-2.2073583858267716
21
3.7228175984251966
0
LINE
8
BLACK
6
CONTINUOUS
10
-2.2073583858267716
20
3.7228175984251966
11
-2.2072834645669293
21
3.7224409448818898
0
LINE
8
BLACK
6
CONTINUOUS
10
-2.2072834645669293
20
3.7224409448818898
11
-2.2072834645669293
21
3.6854330708661416
0
LINE
8
BLACK
6
CONTINUOUS
10
-2.2072834645669293
20
3.6854330708661416
11
-2.2073226377952757
21
3.6852362204724409
0
LINE
8
BLACK
6
CONTINUOUS
10
-2.2073226377952757
20
3.6852362204724409
11
-2.1267716535433072
21
3.6852362204724409
0
LINE
8
BLACK
6
CONTINUOUS
10
-2.1267716535433072
20
3.6852362204724409
11
-2.126395
21
3.6851612992125982
0
LINE
8
BLACK
6
CONTINUOUS
10
-2.126395
20
3.6851612992125982
11
-2.1258623228346458
21
3.684628622047244
0
LINE
8
BLACK
6
CONTINUOUS
10
-2.1258623228346458
20
3.684628622047244
11
-2.1257874015748031
21
3.6842519685039368
0
LINE
8
BLACK
6
CONTINUOUS
10
-2.1257874015748031
20
3.6842519685039368
11
-2.1257874015748031
21
3.5582677165354331
0
LINE
8
BLACK
6
CONTINUOUS
10
-2.1257874015748031
20
3.5582677165354331
11
-2.1258623228346458
21
3.5578910629921259
0
LINE
8
BLACK
6
CONTINUOUS
10
-2.1258623228346458
20
3.5578910629921259
11
-2.126395
21
3.5573583858267717
0
LINE
8
BLACK
6
CONTINUOUS
10
-2.126395
20
3.5573583858267717
11
-2.1267716535433072
21
3.5572834645669289
0
LINE
8
BLACK
6
CONTINUOUS
10
-2.1267716535433072
20
3.5572834645669289
11
-2.237007874015748
21
3.5572834645669289
0
LINE
8
BLACK
6
CONTINUOUS
10
-2.237007874015748
20
3.5572834645669289
11
-2.2373845275590551
21
3.5573583858267717
0
LINE
8
BLACK
6
CONTINUOUS
10
-2.2373845275590551
20
3.5573583858267717
11
-2.2379172047244094
21
3.5578910629921259
0
LINE
8
BLACK
6
CONTINUOUS
10
-2.2379172047244094
20
3.5578910629921259
11
-2.2379921259842521
21
3.5582677165354331
0
LINE
8
BLACK
6
CONTINUOUS
10
-2.2379921259842521
20
3.5582677165354331
11
-2.2379921259842521
21
3.6842519685039368
0
LINE
8
BLACK
6
CONTINUOUS
10
-2.2379921259842521
20
3.6842519685039368
11
-2.2379529527559057
21
3.6844488188976379
0
LINE
8
BLACK
6
CONTINUOUS
10
-2.2379529527559057
20
3.6844488188976379
11
-2.2814960629921259
21
3.6844488188976379
0
LINE
8
BLACK
6
CONTINUOUS
10
-2.2814960629921259
20
3.6844488188976379
11
-2.2818727165354331
21
3.6845237401574802
0
LINE
8
BLACK
6
CONTINUOUS
10
-2.2818727165354331
20
3.6845237401574802
11
-2.2824053937007873
21
3.6850564173228344
0
LINE
8
BLACK
6
CONTINUOUS
10
-2.2824053937007873
20
3.6850564173228344
11
-2.2824803149606301
21
3.6854330708661416
0
LINE
8
BLACK
6
CONTINUOUS
10
-2.2824803149606301
20
3.6854330708661416
11
-2.2824803149606301
21
3.7224409448818898
0
LINE
8
BLACK
6
CONTINUOUS
10
-2.2824803149606301
20
3.7224409448818898
11
-2.2824053937007873
21
3.7228175984251966
0
LINE
8
BLACK
6
CONTINUOUS
10
-2.2824053937007873
20
3.7228175984251966
11
-2.2818727165354331
21
3.7233502755905512
0
LINE
8
BLACK
6
CONTINUOUS
10
-2.2818727165354331
20
3.7233502755905512
11
-2.2814960629921259
21
3.7234251968503935
0
LINE
8
BLACK
6
CONTINUOUS
10
-2.2814960629921259
20
3.7234251968503935
11
-2.208267716535433
21
3.7234251968503935
0
LINE
8
BLACK
6
CONTINUOUS
10
-2.208267716535433
20
3.7234251968503935
11
-2.2078910629921258
21
3.7233502755905512
0
LINE
8
BLACK
6
CONTINUOUS
10
-2.2360236220472443
20
3.6832677165354331
11
-2.2360236220472443
21
3.5592519685039368
0
LINE
8
BLACK
6
CONTINUOUS
10
-2.2360236220472443
20
3.5592519685039368
11
-2.1277559055118109
21
3.5592519685039368
0
LINE
8
BLACK
6
CONTINUOUS
10
-2.1277559055118109
20
3.5592519685039368
11
-2.1277559055118109
21
3.6832677165354331
0
LINE
8
BLACK
6
CONTINUOUS
10
-2.1277559055118109
20
3.6832677165354331
11
-2.2360236220472443
21
3.6832677165354331
0
LINE
8
BLACK
6
CONTINUOUS
10
-2.2805118110236222
20
3.7214566929133857
11
-2.2805118110236222
21
3.6864173228346457
0
LINE
8
BLACK
6
CONTINUOUS
10
-2.2805118110236222
20
3.6864173228346457
11
-2.2092519685039371
21
3.6864173228346457
0
LINE
8
BLACK
6
CONTINUOUS
10
-2.2092519685039371
20
3.6864173228346457
11
-2.2092519685039371
21
3.7214566929133857
0
LINE
8
BLACK
6
CONTINUOUS
10
-2.2092519685039371
20
3.7214566929133857
11
-2.2805118110236222
21
3.7214566929133857
0
LINE
8
BLACK
6
CONTINUOUS
10
-2.0082847637795274
20
3.6851612992125982
11
-2.0077520866141731
21
3.684628622047244
0
LINE
8
BLACK
6
CONTINUOUS
10
-2.0077520866141731
20
3.684628622047244
11
-2.0076771653543308
21
3.6842519685039368
0
LINE
8
BLACK
6
CONTINUOUS
10
-2.0076771653543308
20
3.6842519685039368
11
-2.0076771653543308
21
3.5582677165354331
0
LINE
8
BLACK
6
CONTINUOUS
10
-2.0076771653543308
20
3.5582677165354331
11
-2.0077520866141731
21
3.5578910629921259
0
LINE
8
BLACK
6
CONTINUOUS
10
-2.0077520866141731
20
3.5578910629921259
11
-2.0082847637795274
21
3.5573583858267717
0
LINE
8
BLACK
6
CONTINUOUS
10
-2.0082847637795274
20
3.5573583858267717
11
-2.0086614173228345
21
3.5572834645669289
0
LINE
8
BLACK
6
CONTINUOUS
10
-2.0086614173228345
20
3.5572834645669289
11
-2.1188976377952757
21
3.5572834645669289
0
LINE
8
BLACK
6
CONTINUOUS
10
-2.1188976377952757
20
3.5572834645669289
11
-2.1192742913385825
21
3.5573583858267717
0
LINE
8
BLACK
6
CONTINUOUS
10
-2.1192742913385825
20
3.5573583858267717
11
-2.1198069685039371
21
3.5578910629921259
0
LINE
8
BLACK
6
CONTINUOUS
10
-2.1198069685039371
20
3.5578910629921259
11
-2.1198818897637794
21
3.5582677165354331
0
LINE
8
BLACK
6
CONTINUOUS
10
-2.1198818897637794
20
3.5582677165354331
11
-2.1198818897637794
21
3.6842519685039368
0
LINE
8
BLACK
6
CONTINUOUS
10
-2.1198818897637794
20
3.6842519685039368
11
-2.1198069685039371
21
3.684628622047244
0
LINE
8
BLACK
6
CONTINUOUS
10
-2.1198069685039371
20
3.684628622047244
11
-2.1192742913385825
21
3.6851612992125982
0
LINE
8
BLACK
6
CONTINUOUS
10
-2.1192742913385825
20
3.6851612992125982
11
-2.1188976377952757
21
3.6852362204724409
0
LINE
8
BLACK
6
CONTINUOUS
10
-2.1188976377952757
20
3.6852362204724409
11
-2.0086614173228345
21
3.6852362204724409
0
LINE
8
BLACK
6
CONTINUOUS
10
-2.0086614173228345
20
3.6852362204724409
11
-2.0082847637795274
21
3.6851612992125982
0
LINE
8
BLACK
6
CONTINUOUS
10
-2.1179133858267716
20
3.6832677165354331
11
-2.1179133858267716
21
3.5592519685039368
0
LINE
8
BLACK
6
CONTINUOUS
10
-2.1179133858267716
20
3.5592519685039368
11
-2.0096456692913387
21
3.5592519685039368
0
LINE
8
BLACK
6
CONTINUOUS
10
-2.0096456692913387
20
3.5592519685039368
11
-2.0096456692913387
21
3.6832677165354331
0
LINE
8
BLACK
6
CONTINUOUS
10
-2.0096456692913387
20
3.6832677165354331
11
-2.1179133858267716
21
3.6832677165354331
0
LINE
8
BLACK
6
CONTINUOUS
10
-1.9665524803149605
20
3.638310905511811
11
-1.9660198031496063
21
3.6377782283464568
0
LINE
8
BLACK
6
CONTINUOUS
10
-1.9660198031496063
20
3.6377782283464568
11
-1.9659448818897638
21
3.6374015748031496
0
LINE
8
BLACK
6
CONTINUOUS
10
-1.9659448818897638
20
3.6374015748031496
11
-1.9659448818897638
21
3.5657480314960628
0
LINE
8
BLACK
6
CONTINUOUS
10
-1.9659448818897638
20
3.5657480314960628
11
-1.9660198031496063
21
3.5653713779527556
0
LINE
8
BLACK
6
CONTINUOUS
10
-1.9660198031496063
20
3.5653713779527556
11
-1.9665524803149605
21
3.5648387007874014
0
LINE
8
BLACK
6
CONTINUOUS
10
-1.9665524803149605
20
3.5648387007874014
11
-1.9669291338582677
21
3.5647637795275591
0
LINE
8
BLACK
6
CONTINUOUS
10
-1.9669291338582677
20
3.5647637795275591
11
-2.0031496062992127
21
3.5647637795275591
0
LINE
8
BLACK
6
CONTINUOUS
10
-2.0031496062992127
20
3.5647637795275591
11
-2.0035262598425194
21
3.5648387007874014
0
LINE
8
BLACK
6
CONTINUOUS
10
-2.0035262598425194
20
3.5648387007874014
11
-2.0040589370078741
21
3.5653713779527556
0
LINE
8
BLACK
6
CONTINUOUS
10
-2.0040589370078741
20
3.5653713779527556
11
-2.0041338582677164
21
3.5657480314960628
0
LINE
8
BLACK
6
CONTINUOUS
10
-2.0041338582677164
20
3.5657480314960628
11
-2.0041338582677164
21
3.6374015748031496
0
LINE
8
BLACK
6
CONTINUOUS
10
-2.0041338582677164
20
3.6374015748031496
11
-2.0040589370078741
21
3.6377782283464568
0
LINE
8
BLACK
6
CONTINUOUS
10
-2.0040589370078741
20
3.6377782283464568
11
-2.0035262598425194
21
3.638310905511811
0
LINE
8
BLACK
6
CONTINUOUS
10
-2.0035262598425194
20
3.638310905511811
11
-2.0031496062992127
21
3.6383858267716533
0
LINE
8
BLACK
6
CONTINUOUS
10
-2.0031496062992127
20
3.6383858267716533
11
-1.9669291338582677
21
3.6383858267716533
0
LINE
8
BLACK
6
CONTINUOUS
10
-1.9669291338582677
20
3.6383858267716533
11
-1.9665524803149605
21
3.638310905511811
0
LINE
8
BLACK
6
CONTINUOUS
10
-2.0021653543307085
20
3.6364173228346455
11
-2.0021653543307085
21
3.5667322834645669
0
LINE
8
BLACK
6
CONTINUOUS
10
-2.0021653543307085
20
3.5667322834645669
11
-1.9679133858267717
21
3.5667322834645669
0
LINE
8
BLACK
6
CONTINUOUS
10
-1.9679133858267717
20
3.5667322834645669
11
-1.9679133858267717
21
3.6364173228346455
0
LINE
8
BLACK
6
CONTINUOUS
10
-1.9679133858267717
20
3.6364173228346455
11
-2.0021653543307085
21
3.6364173228346455
0
LINE
8
BLACK
6
CONTINUOUS
10
-2.2421430314960631
20
3.6816179921259842
11
-2.2416103543307084
21
3.68108531496063
0
LINE
8
BLACK
6
CONTINUOUS
10
-2.2416103543307084
20
3.68108531496063
11
-2.2415354330708661
21
3.6807086614173228
0
LINE
8
BLACK
6
CONTINUOUS
10
-2.2415354330708661
20
3.6807086614173228
11
-2.2415354330708661
21
3.6090551181102359
0
LINE
8
BLACK
6
CONTINUOUS
10
-2.2415354330708661
20
3.6090551181102359
11
-2.2416103543307084
21
3.6086784645669292
0
LINE
8
BLACK
6
CONTINUOUS
10
-2.2416103543307084
20
3.6086784645669292
11
-2.2421430314960631
21
3.6081457874015745
0
LINE
8
BLACK
6
CONTINUOUS
10
-2.2421430314960631
20
3.6081457874015745
11
-2.2425196850393698
21
3.6080708661417322
0
LINE
8
BLACK
6
CONTINUOUS
10
-2.2425196850393698
20
3.6080708661417322
11
-2.278740157480315
21
3.6080708661417322
0
LINE
8
BLACK
6
CONTINUOUS
10
-2.278740157480315
20
3.6080708661417322
11
-2.2791168110236222
21
3.6081457874015745
0
LINE
8
BLACK
6
CONTINUOUS
10
-2.2791168110236222
20
3.6081457874015745
11
-2.2796494881889764
21
3.6086784645669292
0
LINE
8
BLACK
6
CONTINUOUS
10
-2.2796494881889764
20
3.6086784645669292
11
-2.2797244094488187
21
3.6090551181102359
0
LINE
8
BLACK
6
CONTINUOUS
10
-2.2797244094488187
20
3.6090551181102359
11
-2.2797244094488187
21
3.6807086614173228
0
LINE
8
BLACK
6
CONTINUOUS
10
-2.2797244094488187
20
3.6807086614173228
11
-2.2796494881889764
21
3.68108531496063
0
LINE
8
BLACK
6
CONTINUOUS
10
-2.2796494881889764
20
3.68108531496063
11
-2.2791168110236222
21
3.6816179921259842
0
LINE
8
BLACK
6
CONTINUOUS
10
-2.2791168110236222
20
3.6816179921259842
11
-2.278740157480315
21
3.6816929133858265
0
LINE
8
BLACK
6
CONTINUOUS
10
-2.278740157480315
20
3.6816929133858265
11
-2.2425196850393698
21
3.6816929133858265
0
LINE
8
BLACK
6
CONTINUOUS
10
-2.2425196850393698
20
3.6816929133858265
11
-2.2421430314960631
21
3.6816179921259842
0
LINE
8
BLACK
6
CONTINUOUS
10
-2.2777559055118108
20
3.6797244094488186
11
-2.2777559055118108
21
3.6100393700787401
0
LINE
8
BLACK
6
CONTINUOUS
10
-2.2777559055118108
20
3.6100393700787401
11
-2.243503937007874
21
3.6100393700787401
0
LINE
8
BLACK
6
CONTINUOUS
10
-2.243503937007874
20
3.6100393700787401
11
-2.243503937007874
21
3.6797244094488186
0
LINE
8
BLACK
6
CONTINUOUS
10
-2.243503937007874
20
3.6797244094488186
11
-2.2777559055118108
21
3.6797244094488186
0
LINE
8
BLACK
6
CONTINUOUS
10
-1.7992296456692913
20
3.7229565748031495
11
-1.7986969685039369
21
3.7224238976377952
0
LINE
8
BLACK
6
CONTINUOUS
10
-1.7986969685039369
20
3.7224238976377952
11
-1.7986220472440944
21
3.7220472440944881
0
LINE
8
BLACK
6
CONTINUOUS
10
-1.7986220472440944
20
3.7220472440944881
11
-1.7986220472440944
21
3.6858267716535433
0
LINE
8
BLACK
6
CONTINUOUS
10
-1.7986220472440944
20
3.6858267716535433
11
-1.7986969685039369
21
3.6854501181102362
0
LINE
8
BLACK
6
CONTINUOUS
10
-1.7986969685039369
20
3.6854501181102362
11
-1.7992296456692913
21
3.6849174409448819
0
LINE
8
BLACK
6
CONTINUOUS
10
-1.7992296456692913
20
3.6849174409448819
11
-1.7996062992125983
21
3.6848425196850392
0
LINE
8
BLACK
6
CONTINUOUS
10
-1.7996062992125983
20
3.6848425196850392
11
-1.8712598425196849
21
3.6848425196850392
0
LINE
8
BLACK
6
CONTINUOUS
10
-1.8712598425196849
20
3.6848425196850392
11
-1.8716364960629921
21
3.6849174409448819
0
LINE
8
BLACK
6
CONTINUOUS
10
-1.8716364960629921
20
3.6849174409448819
11
-1.8721691732283463
21
3.6854501181102362
0
LINE
8
BLACK
6
CONTINUOUS
10
-1.8721691732283463
20
3.6854501181102362
11
-1.8722440944881888
21
3.6858267716535433
0
LINE
8
BLACK
6
CONTINUOUS
10
-1.8722440944881888
20
3.6858267716535433
11
-1.8722440944881888
21
3.7220472440944881
0
LINE
8
BLACK
6
CONTINUOUS
10
-1.8722440944881888
20
3.7220472440944881
11
-1.8721691732283463
21
3.7224238976377952
0
LINE
8
BLACK
6
CONTINUOUS
10
-1.8721691732283463
20
3.7224238976377952
11
-1.8716364960629921
21
3.7229565748031495
0
LINE
8
BLACK
6
CONTINUOUS
10
-1.8716364960629921
20
3.7229565748031495
11
-1.8712598425196849
21
3.7230314960629922
0
LINE
8
BLACK
6
CONTINUOUS
10
-1.8712598425196849
20
3.7230314960629922
11
-1.7996062992125983
21
3.7230314960629922
0
LINE
8
BLACK
6
CONTINUOUS
10
-1.7996062992125983
20
3.7230314960629922
11
-1.7992296456692913
21
3.7229565748031495
0
LINE
8
BLACK
6
CONTINUOUS
10
-1.870275590551181
20
3.7210629921259843
11
-1.870275590551181
21
3.686811023622047
0
LINE
8
BLACK
6
CONTINUOUS
10
-1.870275590551181
20
3.686811023622047
11
-1.8005905511811022
21
3.686811023622047
0
LINE
8
BLACK
6
CONTINUOUS
10
-1.8005905511811022
20
3.686811023622047
11
-1.8005905511811022
21
3.7210629921259843
0
LINE
8
BLACK
6
CONTINUOUS
10
-1.8005905511811022
20
3.7210629921259843
11
-1.870275590551181
21
3.7210629921259843
0
LINE
8
BLACK
6
CONTINUOUS
10
-2.1000170472440947
20
3.7646888188976377
11
-2.09948437007874
21
3.7641561417322835
0
LINE
8
BLACK
6
CONTINUOUS
10
-2.09948437007874
20
3.7641561417322835
11
-2.0994094488188977
21
3.7637794881889763
0
LINE
8
BLACK
6
CONTINUOUS
10
-2.0994094488188977
20
3.7637794881889763
11
-2.0994094488188977
21
3.6905511417322834
0
LINE
8
BLACK
6
CONTINUOUS
10
-2.0994094488188977
20
3.6905511417322834
11
-2.09948437007874
21
3.6901744881889762
0
LINE
8
BLACK
6
CONTINUOUS
10
-2.09948437007874
20
3.6901744881889762
11
-2.1000170472440947
21
3.689641811023622
0
LINE
8
BLACK
6
CONTINUOUS
10
-2.1000170472440947
20
3.689641811023622
11
-2.1003937007874014
21
3.6895668897637792
0
LINE
8
BLACK
6
CONTINUOUS
10
-2.1003937007874014
20
3.6895668897637792
11
-2.1374015748031496
21
3.6895668897637792
0
LINE
8
BLACK
6
CONTINUOUS
10
-2.1374015748031496
20
3.6895668897637792
11
-2.1377782283464568
21
3.689641811023622
0
LINE
8
BLACK
6
CONTINUOUS
10
-2.1377782283464568
20
3.689641811023622
11
-2.138310905511811
21
3.6901744881889762
0
LINE
8
BLACK
6
CONTINUOUS
10
-2.138310905511811
20
3.6901744881889762
11
-2.1383858267716533
21
3.6905511417322834
0
LINE
8
BLACK
6
CONTINUOUS
10
-2.1383858267716533
20
3.6905511417322834
11
-2.1383858267716533
21
3.7637794881889763
0
LINE
8
BLACK
6
CONTINUOUS
10
-2.1383858267716533
20
3.7637794881889763
11
-2.138310905511811
21
3.7641561417322835
0
LINE
8
BLACK
6
CONTINUOUS
10
-2.138310905511811
20
3.7641561417322835
11
-2.1377782283464568
21
3.7646888188976377
0
LINE
8
BLACK
6
CONTINUOUS
10
-2.1377782283464568
20
3.7646888188976377
11
-2.1374015748031496
21
3.7647637401574801
0
LINE
8
BLACK
6
CONTINUOUS
10
-2.1374015748031496
20
3.7647637401574801
11
-2.1003937007874014
21
3.7647637401574801
0
LINE
8
BLACK
6
CONTINUOUS
10
-2.1003937007874014
20
3.7647637401574801
11
-2.1000170472440947
21
3.7646888188976377
0
LINE
8
BLACK
6
CONTINUOUS
10
-2.1364173228346455
20
3.7627952362204722
11
-2.1364173228346455
21
3.6915353937007875
0
LINE
8
BLACK
6
CONTINUOUS
10
-2.1364173228346455
20
3.6915353937007875
11
-2.1013779527559056
21
3.6915353937007875
0
LINE
8
BLACK
6
CONTINUOUS
10
-2.1013779527559056
20
3.6915353937007875
11
-2.1013779527559056
21
3.7627952362204722
0
LINE
8
BLACK
6
CONTINUOUS
10
-2.1013779527559056
20
3.7627952362204722
11
-2.1364173228346455
21
3.7627952362204722
0
LINE
8
BLACK
6
CONTINUOUS
10
-2.0212768897637794
20
3.7650825590551182
11
-2.0207442125984252
21
3.7645498818897636
0
LINE
8
BLACK
6
CONTINUOUS
10
-2.0207442125984252
20
3.7645498818897636
11
-2.0206692913385824
21
3.7641732283464564
0
LINE
8
BLACK
6
CONTINUOUS
10
-2.0206692913385824
20
3.7641732283464564
11
-2.0206692913385824
21
3.6909448818897639
0
LINE
8
BLACK
6
CONTINUOUS
10
-2.0206692913385824
20
3.6909448818897639
11
-2.0207442125984252
21
3.6905682283464567
0
LINE
8
BLACK
6
CONTINUOUS
10
-2.0207442125984252
20
3.6905682283464567
11
-2.0212768897637794
21
3.6900355511811025
0
LINE
8
BLACK
6
CONTINUOUS
10
-2.0212768897637794
20
3.6900355511811025
11
-2.0216535433070866
21
3.6899606299212597
0
LINE
8
BLACK
6
CONTINUOUS
10
-2.0216535433070866
20
3.6899606299212597
11
-2.0586614173228348
21
3.6899606299212597
0
LINE
8
BLACK
6
CONTINUOUS
10
-2.0586614173228348
20
3.6899606299212597
11
-2.0590380708661415
21
3.6900355511811025
0
LINE
8
BLACK
6
CONTINUOUS
10
-2.0590380708661415
20
3.6900355511811025
11
-2.0595707480314962
21
3.6905682283464567
0
LINE
8
BLACK
6
CONTINUOUS
10
-2.0595707480314962
20
3.6905682283464567
11
-2.0596456692913385
21
3.6909448818897639
0
LINE
8
BLACK
6
CONTINUOUS
10
-2.0596456692913385
20
3.6909448818897639
11
-2.0596456692913385
21
3.7641732283464564
0
LINE
8
BLACK
6
CONTINUOUS
10
-2.0596456692913385
20
3.7641732283464564
11
-2.0595707480314962
21
3.7645498818897636
0
LINE
8
BLACK
6
CONTINUOUS
10
-2.0595707480314962
20
3.7645498818897636
11
-2.0590380708661415
21
3.7650825590551182
0
LINE
8
BLACK
6
CONTINUOUS
10
-2.0590380708661415
20
3.7650825590551182
11
-2.0586614173228348
21
3.7651574803149606
0
LINE
8
BLACK
6
CONTINUOUS
10
-2.0586614173228348
20
3.7651574803149606
11
-2.0216535433070866
21
3.7651574803149606
0
LINE
8
BLACK
6
CONTINUOUS
10
-2.0216535433070866
20
3.7651574803149606
11
-2.0212768897637794
21
3.7650825590551182
0
LINE
8
BLACK
6
CONTINUOUS
10
-2.0576771653543307
20
3.7631889763779527
11
-2.0576771653543307
21
3.6919291338582676
0
LINE
8
BLACK
6
CONTINUOUS
10
-2.0576771653543307
20
3.6919291338582676
11
-2.0226377952755903
21
3.6919291338582676
0
LINE
8
BLACK
6
CONTINUOUS
10
-2.0226377952755903
20
3.6919291338582676
11
-2.0226377952755903
21
3.7631889763779527
0
LINE
8
BLACK
6
CONTINUOUS
10
-2.0226377952755903
20
3.7631889763779527
11
-2.0576771653543307
21
3.7631889763779527
0
LINE
8
BLACK
6
CONTINUOUS
10
-2.1397807874015746
20
3.7639014173228347
11
-2.1392481102362204
21
3.76336874015748
0
LINE
8
BLACK
6
CONTINUOUS
10
-2.1392481102362204
20
3.76336874015748
11
-2.1391731889763781
21
3.7629920866141733
0
LINE
8
BLACK
6
CONTINUOUS
10
-2.1391731889763781
20
3.7629920866141733
11
-2.1391731889763781
21
3.6913385433070864
0
LINE
8
BLACK
6
CONTINUOUS
10
-2.1391731889763781
20
3.6913385433070864
11
-2.1392481102362204
21
3.6909618897637793
0
LINE
8
BLACK
6
CONTINUOUS
10
-2.1392481102362204
20
3.6909618897637793
11
-2.1397807874015746
21
3.690429212598425
0
LINE
8
BLACK
6
CONTINUOUS
10
-2.1397807874015746
20
3.690429212598425
11
-2.1401574409448818
21
3.6903542913385827
0
LINE
8
BLACK
6
CONTINUOUS
10
-2.1401574409448818
20
3.6903542913385827
11
-2.1763779133858265
21
3.6903542913385827
0
LINE
8
BLACK
6
CONTINUOUS
10
-2.1763779133858265
20
3.6903542913385827
11
-2.1767545669291337
21
3.690429212598425
0
LINE
8
BLACK
6
CONTINUOUS
10
-2.1767545669291337
20
3.690429212598425
11
-2.1772872440944879
21
3.6909618897637793
0
LINE
8
BLACK
6
CONTINUOUS
10
-2.1772872440944879
20
3.6909618897637793
11
-2.1773621653543307
21
3.6913385433070864
0
LINE
8
BLACK
6
CONTINUOUS
10
-2.1773621653543307
20
3.6913385433070864
11
-2.1773621653543307
21
3.7629920866141733
0
LINE
8
BLACK
6
CONTINUOUS
10
-2.1773621653543307
20
3.7629920866141733
11
-2.1772872440944879
21
3.76336874015748
0
LINE
8
BLACK
6
CONTINUOUS
10
-2.1772872440944879
20
3.76336874015748
11
-2.1767545669291337
21
3.7639014173228347
0
LINE
8
BLACK
6
CONTINUOUS
10
-2.1767545669291337
20
3.7639014173228347
11
-2.1763779133858265
21
3.763976338582677
0
LINE
8
BLACK
6
CONTINUOUS
10
-2.1763779133858265
20
3.763976338582677
11
-2.1401574409448818
21
3.763976338582677
0
LINE
8
BLACK
6
CONTINUOUS
10
-2.1401574409448818
20
3.763976338582677
11
-2.1397807874015746
21
3.7639014173228347
0
LINE
8
BLACK
6
CONTINUOUS
10
-2.1753936614173228
20
3.7620078346456691
11
-2.1753936614173228
21
3.6923227952755906
0
LINE
8
BLACK
6
CONTINUOUS
10
-2.1753936614173228
20
3.6923227952755906
11
-2.141141692913386
21
3.6923227952755906
0
LINE
8
BLACK
6
CONTINUOUS
10
-2.141141692913386
20
3.6923227952755906
11
-2.141141692913386
21
3.7620078346456691
0
LINE
8
BLACK
6
CONTINUOUS
10
-2.141141692913386
20
3.7620078346456691
11
-2.1753936614173228
21
3.7620078346456691
0
LINE
8
BLACK
6
CONTINUOUS
10
-2.0610406692913386
20
3.7642951574803147
11
-2.0605079921259843
21
3.7637624803149605
0
LINE
8
BLACK
6
CONTINUOUS
10
-2.0605079921259843
20
3.7637624803149605
11
-2.0604330708661416
21
3.7633858267716533
0
LINE
8
BLACK
6
CONTINUOUS
10
-2.0604330708661416
20
3.7633858267716533
11
-2.0604330708661416
21
3.6917322834645669
0
LINE
8
BLACK
6
CONTINUOUS
10
-2.0604330708661416
20
3.6917322834645669
11
-2.0605079921259843
21
3.6913556299212598
0
LINE
8
BLACK
6
CONTINUOUS
10
-2.0605079921259843
20
3.6913556299212598
11
-2.0610406692913386
21
3.6908229527559056
0
LINE
8
BLACK
6
CONTINUOUS
10
-2.0610406692913386
20
3.6908229527559056
11
-2.0614173228346457
21
3.6907480314960628
0
LINE
8
BLACK
6
CONTINUOUS
10
-2.0614173228346457
20
3.6907480314960628
11
-2.0976377952755905
21
3.6907480314960628
0
LINE
8
BLACK
6
CONTINUOUS
10
-2.0976377952755905
20
3.6907480314960628
11
-2.0980144488188976
21
3.6908229527559056
0
LINE
8
BLACK
6
CONTINUOUS
10
-2.0980144488188976
20
3.6908229527559056
11
-2.0985471259842519
21
3.6913556299212598
0
LINE
8
BLACK
6
CONTINUOUS
10
-2.0985471259842519
20
3.6913556299212598
11
-2.0986220472440946
21
3.6917322834645669
0
LINE
8
BLACK
6
CONTINUOUS
10
-2.0986220472440946
20
3.6917322834645669
11
-2.0986220472440946
21
3.7633858267716533
0
LINE
8
BLACK
6
CONTINUOUS
10
-2.0986220472440946
20
3.7633858267716533
11
-2.0985471259842519
21
3.7637624803149605
0
LINE
8
BLACK
6
CONTINUOUS
10
-2.0985471259842519
20
3.7637624803149605
11
-2.0980144488188976
21
3.7642951574803147
0
LINE
8
BLACK
6
CONTINUOUS
10
-2.0980144488188976
20
3.7642951574803147
11
-2.0976377952755905
21
3.7643700787401575
0
LINE
8
BLACK
6
CONTINUOUS
10
-2.0976377952755905
20
3.7643700787401575
11
-2.0614173228346457
21
3.7643700787401575
0
LINE
8
BLACK
6
CONTINUOUS
10
-2.0614173228346457
20
3.7643700787401575
11
-2.0610406692913386
21
3.7642951574803147
0
LINE
8
BLACK
6
CONTINUOUS
10
-2.0966535433070868
20
3.7624015748031496
11
-2.0966535433070868
21
3.6927165354330707
0
LINE
8
BLACK
6
CONTINUOUS
10
-2.0966535433070868
20
3.6927165354330707
11
-2.0624015748031495
21
3.6927165354330707
0
LINE
8
BLACK
6
CONTINUOUS
10
-2.0624015748031495
20
3.6927165354330707
11
-2.0624015748031495
21
3.7624015748031496
0
LINE
8
BLACK
6
CONTINUOUS
10
-2.0624015748031495
20
3.7624015748031496
11
-2.0966535433070868
21
3.7624015748031496
0
LINE
8
BLACK
6
CONTINUOUS
10
-1.7838753149606299
20
3.8957912204724408
11
-1.7833426377952755
21
3.8952585433070865
0
LINE
8
BLACK
6
CONTINUOUS
10
-1.7833426377952755
20
3.8952585433070865
11
-1.7832677165354329
21
3.8948818897637794
0
LINE
8
BLACK
6
CONTINUOUS
10
-1.7832677165354329
20
3.8948818897637794
11
-1.7832677165354329
21
3.7964566929133858
0
LINE
8
BLACK
6
CONTINUOUS
10
-1.7832677165354329
20
3.7964566929133858
11
-1.7833426377952755
21
3.7960800393700787
0
LINE
8
BLACK
6
CONTINUOUS
10
-1.7833426377952755
20
3.7960800393700787
11
-1.7838753149606299
21
3.7955473622047244
0
LINE
8
BLACK
6
CONTINUOUS
10
-1.7838753149606299
20
3.7955473622047244
11
-1.7842519685039369
21
3.7954724409448817
0
LINE
8
BLACK
6
CONTINUOUS
10
-1.7842519685039369
20
3.7954724409448817
11
-1.8393700787401575
21
3.7954724409448817
0
LINE
8
BLACK
6
CONTINUOUS
10
-1.8393700787401575
20
3.7954724409448817
11
-1.8397467322834644
21
3.7955473622047244
0
LINE
8
BLACK
6
CONTINUOUS
10
-1.8397467322834644
20
3.7955473622047244
11
-1.8402794094488188
21
3.7960800393700787
0
LINE
8
BLACK
6
CONTINUOUS
10
-1.8402794094488188
20
3.7960800393700787
11
-1.8403543307086614
21
3.7964566929133858
0
LINE
8
BLACK
6
CONTINUOUS
10
-1.8403543307086614
20
3.7964566929133858
11
-1.8403543307086614
21
3.8948818897637794
0
LINE
8
BLACK
6
CONTINUOUS
10
-1.8403543307086614
20
3.8948818897637794
11
-1.8402794094488188
21
3.8952585433070865
0
LINE
8
BLACK
6
CONTINUOUS
10
-1.8402794094488188
20
3.8952585433070865
11
-1.8397467322834644
21
3.8957912204724408
0
LINE
8
BLACK
6
CONTINUOUS
10
-1.8397467322834644
20
3.8957912204724408
11
-1.8393700787401575
21
3.8958661417322835
0
LINE
8
BLACK
6
CONTINUOUS
10
-1.8393700787401575
20
3.8958661417322835
11
-1.7842519685039369
21
3.8958661417322835
0
LINE
8
BLACK
6
CONTINUOUS
10
-1.7842519685039369
20
3.8958661417322835
11
-1.7838753149606299
21
3.8957912204724408
0
LINE
8
BLACK
6
CONTINUOUS
10
-1.8383858267716535
20
3.8938976377952756
11
-1.8383858267716535
21
3.7974409448818895
0
LINE
8
BLACK
6
CONTINUOUS
10
-1.8383858267716535
20
3.7974409448818895
11
-1.7852362204724408
21
3.7974409448818895
0
LINE
8
BLACK
6
CONTINUOUS
10
-1.7852362204724408
20
3.7974409448818895
11
-1.7852362204724408
21
3.8938976377952756
0
LINE
8
BLACK
6
CONTINUOUS
10
-1.7852362204724408
20
3.8938976377952756
11
-1.8383858267716535
21
3.8938976377952756
0
CIRCLE
8
BLACK
10
2.
20
0.4
40
0.0068897637795276
0
CIRCLE
8
BLACK
10
0.4
20
2.
40
0.0068897637795276
0
CIRCLE
8
BLACK
10
0.4
20
0.4
40
0.0068897637795276
0
CIRCLE
8
BLACK
10
-0.725236220472441
20
0.8675905511811023
40
0.0068897637795276
0
CIRCLE
8
BLACK
10
-0.625236220472441
20
0.8675905511811023
40
0.0068897637795276
0
CIRCLE
8
BLACK
10
-0.725236220472441
20
0.7675905511811023
40
0.0068897637795276
0
CIRCLE
8
BLACK
10
-0.625236220472441
20
0.7675905511811023
40
0.0068897637795276
0
CIRCLE
8
BLACK
10
-0.725236220472441
20
0.6675905511811023
40
0.0068897637795276
0
CIRCLE
8
BLACK
10
-0.625236220472441
20
0.6675905511811023
40
0.0068897637795276
0
CIRCLE
8
BLACK
10
-1.9299212598425197
20
3.8181102362204724
40
0.0068897637795276
0
CIRCLE
8
BLACK
10
-1.8299212598425196
20
3.9181102362204725
40
0.0068897637795276
0
CIRCLE
8
BLACK
10
-2.0299212598425198
20
3.9181102362204725
40
0.0068897637795276
0
CIRCLE
8
BLACK
10
-1.8299212598425196
20
3.7181102362204723
40
0.0068897637795276
0
CIRCLE
8
BLACK
10
-2.0299212598425198
20
3.7181102362204723
40
0.0068897637795276
0
CIRCLE
8
BLACK
10
2.
20
2.
40
0.0068897637795276
0
CIRCLE
8
BLACK
10
2.
20
0.4
40
0.0068897637795276
0
CIRCLE
8
BLACK
10
0.4
20
2.
40
0.0068897637795276
0
CIRCLE
8
BLACK
10
0.4
20
0.4
40
0.0068897637795276
0
CIRCLE
8
BLACK
10
-0.725236220472441
20
0.8675905511811023
40
0.0068897637795276
0
CIRCLE
8
BLACK
10
-0.625236220472441
20
0.8675905511811023
40
0.0068897637795276
0
CIRCLE
8
BLACK
10
-0.725236220472441
20
0.7675905511811023
40
0.0068897637795276
0
CIRCLE
8
BLACK
10
-0.625236220472441
20
0.7675905511811023
40
0.0068897637795276
0
CIRCLE
8
BLACK
10
-0.725236220472441
20
0.6675905511811023
40
0.0068897637795276
0
CIRCLE
8
BLACK
10
-0.625236220472441
20
0.6675905511811023
40
0.0068897637795276
0
CIRCLE
8
BLACK
10
-1.9299212598425197
20
3.8181102362204724
40
0.0068897637795276
0
CIRCLE
8
BLACK
10
-1.8299212598425196
20
3.9181102362204725
40
0.0068897637795276
0
CIRCLE
8
BLACK
10
-2.0299212598425198
20
3.9181102362204725
40
0.0068897637795276
0
CIRCLE
8
BLACK
10
-1.8299212598425196
20
3.7181102362204723
40
0.0068897637795276
0
CIRCLE
8
BLACK
10
-2.0299212598425198
20
3.7181102362204723
40
0.0068897637795276
0
CIRCLE
8
BLACK
10
2.
20
2.
40
0.0068897637795276
  0
ENDSEC
  0
EOF
