%TF.GenerationSoftware,KiCad,Pcbnew,9.0.6+1*%
%TF.CreationDate,2026-01-19T12:03:12+00:00*%
%TF.ProjectId,ADSBAFE01,41445342-4146-4453-9031-2e6b69636164,ADSBAFE01*%
%TF.SameCoordinates,Original*%
%TF.FileFunction,Soldermask,Bot*%
%TF.FilePolarity,Negative*%
%FSLAX46Y46*%
G04 Gerber Fmt 4.6, Leading zero omitted, Abs format (unit mm)*
G04 Created by KiCad (PCBNEW 9.0.6+1) date 2026-01-19 12:03:12*
%MOMM*%
%LPD*%
G01*
G04 APERTURE LIST*
G04 Aperture macros list*
%AMRoundRect*
0 Rectangle with rounded corners*
0 $1 Rounding radius*
0 $2 $3 $4 $5 $6 $7 $8 $9 X,Y pos of 4 corners*
0 Add a 4 corners polygon primitive as box body*
4,1,4,$2,$3,$4,$5,$6,$7,$8,$9,$2,$3,0*
0 Add four circle primitives for the rounded corners*
1,1,$1+$1,$2,$3*
1,1,$1+$1,$4,$5*
1,1,$1+$1,$6,$7*
1,1,$1+$1,$8,$9*
0 Add four rect primitives between the rounded corners*
20,1,$1+$1,$2,$3,$4,$5,0*
20,1,$1+$1,$4,$5,$6,$7,0*
20,1,$1+$1,$6,$7,$8,$9,0*
20,1,$1+$1,$8,$9,$2,$3,0*%
G04 Aperture macros list end*
%ADD10C,6.000000*%
%ADD11R,1.524000X1.524000*%
%ADD12C,2.500000*%
%ADD13C,2.700000*%
%ADD14C,1.000000*%
%ADD15RoundRect,0.250000X-0.250000X-0.475000X0.250000X-0.475000X0.250000X0.475000X-0.250000X0.475000X0*%
%ADD16C,2.000000*%
%ADD17RoundRect,0.250000X-0.400000X-0.600000X0.400000X-0.600000X0.400000X0.600000X-0.400000X0.600000X0*%
%ADD18R,1.000000X1.000000*%
%ADD19R,1.000000X2.300000*%
%ADD20R,1.000000X3.800000*%
%ADD21R,2.300000X1.000000*%
%ADD22R,3.800000X1.000000*%
G04 APERTURE END LIST*
D10*
%TO.C,M4*%
X50800000Y10160000D03*
%TD*%
%TO.C,M1*%
X10160000Y50800000D03*
%TD*%
%TO.C,M3*%
X10160000Y10160000D03*
%TD*%
D11*
%TO.C,J2*%
X-18421000Y22036800D03*
X-15881000Y22036800D03*
X-18421000Y19496800D03*
X-15881000Y19496800D03*
X-18421000Y16956800D03*
X-15881000Y16956800D03*
%TD*%
D12*
%TO.C,J1*%
X-49020000Y96980000D03*
D13*
X-46480000Y99520000D03*
X-51560000Y99520000D03*
X-46480000Y94440000D03*
X-51560000Y94440000D03*
%TD*%
D10*
%TO.C,M2*%
X50800000Y50800000D03*
%TD*%
D14*
%TO.C,TP4*%
X-59520000Y96380000D03*
%TD*%
%TO.C,TP5*%
X-58120000Y78180000D03*
%TD*%
D15*
%TO.C,C16*%
X-2821000Y18441800D03*
X-921000Y18441800D03*
%TD*%
D14*
%TO.C,TP7*%
X-61720000Y81080000D03*
%TD*%
%TO.C,TP2*%
X-45420000Y87180000D03*
%TD*%
D16*
%TO.C,FID2*%
X-12261000Y22261800D03*
%TD*%
D14*
%TO.C,TP8*%
X-59620000Y92180000D03*
%TD*%
%TO.C,TP6*%
X-58920000Y81780000D03*
%TD*%
D17*
%TO.C,D3*%
X-9016000Y18606800D03*
X-5516000Y18606800D03*
%TD*%
D15*
%TO.C,C17*%
X-2821000Y21451800D03*
X-921000Y21451800D03*
%TD*%
D16*
%TO.C,FID1*%
X-12261000Y18711800D03*
%TD*%
D18*
%TO.C,M5*%
X14326400Y46481200D03*
D19*
X14326400Y44831200D03*
D20*
X14326400Y39581200D03*
X14326400Y33581200D03*
X14326400Y27581200D03*
X14326400Y21581200D03*
D19*
X14326400Y16331200D03*
D18*
X14326400Y14681200D03*
D21*
X15976400Y46481200D03*
X15976400Y14681200D03*
D22*
X21226400Y46481200D03*
X21226400Y14681200D03*
X27226400Y46481200D03*
X27226400Y14681200D03*
X33226400Y46481200D03*
X33226400Y14681200D03*
X39226400Y46481200D03*
X39226400Y14681200D03*
D21*
X44476400Y46481200D03*
X44476400Y14681200D03*
D18*
X46126400Y46481200D03*
D19*
X46126400Y44831200D03*
D20*
X46126400Y39581200D03*
X46126400Y33581200D03*
X46126400Y27581200D03*
X46126400Y21581200D03*
D19*
X46126400Y16331200D03*
D18*
X46126400Y14681200D03*
%TD*%
D14*
%TO.C,TP3*%
X-45720000Y73780000D03*
%TD*%
%TO.C,TP1*%
X-59520000Y98480000D03*
%TD*%
M02*
