%TF.GenerationSoftware,KiCad,Pcbnew,9.0.6+1*%
%TF.CreationDate,2026-01-19T12:03:12+00:00*%
%TF.ProjectId,ADSBAFE01,41445342-4146-4453-9031-2e6b69636164,ADSBAFE01*%
%TF.SameCoordinates,Original*%
%TF.FileFunction,Soldermask,Top*%
%TF.FilePolarity,Negative*%
%FSLAX46Y46*%
G04 Gerber Fmt 4.6, Leading zero omitted, Abs format (unit mm)*
G04 Created by KiCad (PCBNEW 9.0.6+1) date 2026-01-19 12:03:12*
%MOMM*%
%LPD*%
G01*
G04 APERTURE LIST*
G04 Aperture macros list*
%AMRoundRect*
0 Rectangle with rounded corners*
0 $1 Rounding radius*
0 $2 $3 $4 $5 $6 $7 $8 $9 X,Y pos of 4 corners*
0 Add a 4 corners polygon primitive as box body*
4,1,4,$2,$3,$4,$5,$6,$7,$8,$9,$2,$3,0*
0 Add four circle primitives for the rounded corners*
1,1,$1+$1,$2,$3*
1,1,$1+$1,$4,$5*
1,1,$1+$1,$6,$7*
1,1,$1+$1,$8,$9*
0 Add four rect primitives between the rounded corners*
20,1,$1+$1,$2,$3,$4,$5,0*
20,1,$1+$1,$4,$5,$6,$7,0*
20,1,$1+$1,$6,$7,$8,$9,0*
20,1,$1+$1,$8,$9,$2,$3,0*%
G04 Aperture macros list end*
%ADD10RoundRect,0.150000X-0.200000X0.150000X-0.200000X-0.150000X0.200000X-0.150000X0.200000X0.150000X0*%
%ADD11RoundRect,0.135000X0.185000X-0.135000X0.185000X0.135000X-0.185000X0.135000X-0.185000X-0.135000X0*%
%ADD12RoundRect,0.140000X-0.170000X0.140000X-0.170000X-0.140000X0.170000X-0.140000X0.170000X0.140000X0*%
%ADD13RoundRect,0.140000X0.170000X-0.140000X0.170000X0.140000X-0.170000X0.140000X-0.170000X-0.140000X0*%
%ADD14C,6.000000*%
%ADD15RoundRect,0.100000X-0.100000X0.712500X-0.100000X-0.712500X0.100000X-0.712500X0.100000X0.712500X0*%
%ADD16RoundRect,0.135000X0.135000X0.185000X-0.135000X0.185000X-0.135000X-0.185000X0.135000X-0.185000X0*%
%ADD17RoundRect,0.100000X-0.100000X0.225000X-0.100000X-0.225000X0.100000X-0.225000X0.100000X0.225000X0*%
%ADD18R,0.450000X1.450000*%
%ADD19RoundRect,0.140000X-0.140000X-0.170000X0.140000X-0.170000X0.140000X0.170000X-0.140000X0.170000X0*%
%ADD20R,1.524000X1.524000*%
%ADD21RoundRect,0.135000X-0.135000X-0.185000X0.135000X-0.185000X0.135000X0.185000X-0.135000X0.185000X0*%
%ADD22RoundRect,0.140000X0.140000X0.170000X-0.140000X0.170000X-0.140000X-0.170000X0.140000X-0.170000X0*%
%ADD23RoundRect,0.135000X-0.185000X0.135000X-0.185000X-0.135000X0.185000X-0.135000X0.185000X0.135000X0*%
%ADD24RoundRect,0.100000X0.225000X0.100000X-0.225000X0.100000X-0.225000X-0.100000X0.225000X-0.100000X0*%
%ADD25C,2.500000*%
%ADD26C,2.700000*%
%ADD27RoundRect,0.100000X0.100000X-0.225000X0.100000X0.225000X-0.100000X0.225000X-0.100000X-0.225000X0*%
%ADD28RoundRect,0.225000X0.225000X0.375000X-0.225000X0.375000X-0.225000X-0.375000X0.225000X-0.375000X0*%
%ADD29RoundRect,0.147500X0.147500X0.172500X-0.147500X0.172500X-0.147500X-0.172500X0.147500X-0.172500X0*%
%ADD30R,0.740000X2.310000*%
%ADD31R,0.740000X1.400000*%
G04 APERTURE END LIST*
D10*
%TO.C,D1*%
X-46020000Y96980000D03*
X-46020000Y98380000D03*
%TD*%
D11*
%TO.C,R3*%
X-49620000Y79670000D03*
X-49620000Y80690000D03*
%TD*%
D12*
%TO.C,C6*%
X-57920000Y83060000D03*
X-57920000Y82100000D03*
%TD*%
D13*
%TO.C,C11*%
X-52820000Y94200000D03*
X-52820000Y95160000D03*
%TD*%
D14*
%TO.C,M4*%
X50800000Y10160000D03*
%TD*%
D13*
%TO.C,C1*%
X-54819999Y94189999D03*
X-54819999Y95149999D03*
%TD*%
%TO.C,C2*%
X-49570000Y85300000D03*
X-49570000Y86260000D03*
%TD*%
D12*
%TO.C,C9*%
X-46720000Y83660000D03*
X-46720000Y82700000D03*
%TD*%
D15*
%TO.C,U2*%
X-46245000Y79792500D03*
X-46895000Y79792500D03*
X-47545000Y79792500D03*
X-48195000Y79792500D03*
X-48195000Y75567500D03*
X-47545000Y75567500D03*
X-46895000Y75567500D03*
X-46245000Y75567500D03*
%TD*%
D16*
%TO.C,R8*%
X-56510000Y94080000D03*
X-57530000Y94080000D03*
%TD*%
D14*
%TO.C,M1*%
X10160000Y50800000D03*
%TD*%
D12*
%TO.C,C3*%
X-45720000Y82660000D03*
X-45720000Y81700000D03*
%TD*%
D14*
%TO.C,M3*%
X10160000Y10160000D03*
%TD*%
D17*
%TO.C,SW1*%
X-51770000Y92930000D03*
X-52420000Y92930000D03*
X-53070000Y92930000D03*
X-53070000Y91030000D03*
X-52420000Y91030000D03*
X-51770000Y91030000D03*
%TD*%
D18*
%TO.C,U3*%
X-56395000Y78630000D03*
X-55745000Y78630000D03*
X-55095000Y78630000D03*
X-54445000Y78630000D03*
X-54445000Y83030000D03*
X-55095000Y83030000D03*
X-55745000Y83030000D03*
X-56395000Y83030000D03*
%TD*%
D19*
%TO.C,C15*%
X-56100000Y89580000D03*
X-55140000Y89580000D03*
%TD*%
D20*
%TO.C,J2*%
X-18421000Y22036800D03*
X-15881000Y22036800D03*
X-18421000Y19496800D03*
X-15881000Y19496800D03*
X-18421000Y16956800D03*
X-15881000Y16956800D03*
%TD*%
D11*
%TO.C,R4*%
X-51820000Y94170000D03*
X-51820000Y95190000D03*
%TD*%
D21*
%TO.C,R6*%
X-56130000Y87480000D03*
X-55110000Y87480000D03*
%TD*%
D12*
%TO.C,C14*%
X-57420000Y93060000D03*
X-57420000Y92100000D03*
%TD*%
D22*
%TO.C,C7*%
X-46140000Y94080000D03*
X-47100000Y94080000D03*
%TD*%
D11*
%TO.C,R2*%
X-44820000Y79670000D03*
X-44820000Y80690000D03*
%TD*%
D13*
%TO.C,C5*%
X-50420000Y91000000D03*
X-50420000Y91960000D03*
%TD*%
D23*
%TO.C,R7*%
X-52920000Y79590000D03*
X-52920000Y78570000D03*
%TD*%
D21*
%TO.C,R5*%
X-46730000Y73780000D03*
X-45710000Y73780000D03*
%TD*%
D19*
%TO.C,C13*%
X-51900000Y79580000D03*
X-50940000Y79580000D03*
%TD*%
D24*
%TO.C,U4*%
X-50970000Y80930000D03*
X-50970000Y81580000D03*
X-50970000Y82230000D03*
X-52870000Y82230000D03*
X-52870000Y81580000D03*
X-52870000Y80930000D03*
%TD*%
D25*
%TO.C,J1*%
X-49020000Y96980000D03*
D26*
X-46480000Y99520000D03*
X-51560000Y99520000D03*
X-46480000Y94440000D03*
X-51560000Y94440000D03*
%TD*%
D11*
%TO.C,R1*%
X-53820000Y94159999D03*
X-53820000Y95179999D03*
%TD*%
D27*
%TO.C,U1*%
X-48270000Y84830000D03*
X-47620000Y84830000D03*
X-46970000Y84830000D03*
X-46970000Y86730000D03*
X-47620000Y86730000D03*
X-48270000Y86730000D03*
%TD*%
D22*
%TO.C,C8*%
X-47340000Y87980000D03*
X-48300000Y87980000D03*
%TD*%
D17*
%TO.C,SW2*%
X-54770000Y92930000D03*
X-55420000Y92930000D03*
X-56070000Y92930000D03*
X-56070000Y91030000D03*
X-55420000Y91030000D03*
X-54770000Y91030000D03*
%TD*%
D22*
%TO.C,C12*%
X-55140000Y88480000D03*
X-56100000Y88480000D03*
%TD*%
D28*
%TO.C,D2*%
X-52570000Y85680000D03*
X-55870000Y85680000D03*
%TD*%
D29*
%TO.C,L1*%
X-46735000Y81680000D03*
X-47705000Y81680000D03*
%TD*%
D13*
%TO.C,C4*%
X-48720000Y81700000D03*
X-48720000Y82660000D03*
%TD*%
D27*
%TO.C,U5*%
X-53769999Y87630000D03*
X-53119999Y87630000D03*
X-52469999Y87630000D03*
X-52469999Y89530000D03*
X-53769999Y89530000D03*
%TD*%
D14*
%TO.C,M2*%
X50800000Y50800000D03*
%TD*%
D12*
%TO.C,C10*%
X-47720000Y83660000D03*
X-47720000Y82700000D03*
%TD*%
D30*
%TO.C,X1*%
X-46050000Y92060000D03*
D31*
X-47320000Y92515000D03*
X-48590000Y92515000D03*
X-48590000Y89445000D03*
X-47320000Y89445000D03*
X-46050000Y89445000D03*
%TD*%
M02*
