%TF.GenerationSoftware,KiCad,Pcbnew,9.0.6+1*%
%TF.CreationDate,2026-01-19T12:03:12+00:00*%
%TF.ProjectId,ADSBAFE01,41445342-4146-4453-9031-2e6b69636164,ADSBAFE01*%
%TF.SameCoordinates,Original*%
%TF.FileFunction,Copper,L2,Bot*%
%TF.FilePolarity,Positive*%
%FSLAX46Y46*%
G04 Gerber Fmt 4.6, Leading zero omitted, Abs format (unit mm)*
G04 Created by KiCad (PCBNEW 9.0.6+1) date 2026-01-19 12:03:12*
%MOMM*%
%LPD*%
G01*
G04 APERTURE LIST*
G04 Aperture macros list*
%AMRoundRect*
0 Rectangle with rounded corners*
0 $1 Rounding radius*
0 $2 $3 $4 $5 $6 $7 $8 $9 X,Y pos of 4 corners*
0 Add a 4 corners polygon primitive as box body*
4,1,4,$2,$3,$4,$5,$6,$7,$8,$9,$2,$3,0*
0 Add four circle primitives for the rounded corners*
1,1,$1+$1,$2,$3*
1,1,$1+$1,$4,$5*
1,1,$1+$1,$6,$7*
1,1,$1+$1,$8,$9*
0 Add four rect primitives between the rounded corners*
20,1,$1+$1,$2,$3,$4,$5,0*
20,1,$1+$1,$4,$5,$6,$7,0*
20,1,$1+$1,$6,$7,$8,$9,0*
20,1,$1+$1,$8,$9,$2,$3,0*%
G04 Aperture macros list end*
%TA.AperFunction,ComponentPad*%
%ADD10C,6.000000*%
%TD*%
%TA.AperFunction,ComponentPad*%
%ADD11R,1.524000X1.524000*%
%TD*%
%TA.AperFunction,ComponentPad*%
%ADD12C,2.500000*%
%TD*%
%TA.AperFunction,ComponentPad*%
%ADD13C,2.700000*%
%TD*%
%TA.AperFunction,SMDPad,CuDef*%
%ADD14C,1.000000*%
%TD*%
%TA.AperFunction,SMDPad,CuDef*%
%ADD15RoundRect,0.250000X-0.250000X-0.475000X0.250000X-0.475000X0.250000X0.475000X-0.250000X0.475000X0*%
%TD*%
%TA.AperFunction,SMDPad,CuDef*%
%ADD16RoundRect,0.250000X-0.400000X-0.600000X0.400000X-0.600000X0.400000X0.600000X-0.400000X0.600000X0*%
%TD*%
%TA.AperFunction,SMDPad,CuDef*%
%ADD17R,1.000000X1.000000*%
%TD*%
%TA.AperFunction,SMDPad,CuDef*%
%ADD18R,1.000000X2.300000*%
%TD*%
%TA.AperFunction,SMDPad,CuDef*%
%ADD19R,1.000000X3.800000*%
%TD*%
%TA.AperFunction,SMDPad,CuDef*%
%ADD20R,2.300000X1.000000*%
%TD*%
%TA.AperFunction,SMDPad,CuDef*%
%ADD21R,3.800000X1.000000*%
%TD*%
%TA.AperFunction,ViaPad*%
%ADD22C,0.400000*%
%TD*%
%TA.AperFunction,Conductor*%
%ADD23C,0.150000*%
%TD*%
G04 APERTURE END LIST*
D10*
%TO.P,M4,1*%
%TO.N,GND*%
X50800000Y10160000D03*
%TD*%
%TO.P,M1,1*%
%TO.N,GND*%
X10160000Y50800000D03*
%TD*%
%TO.P,M3,1*%
%TO.N,GND*%
X10160000Y10160000D03*
%TD*%
D11*
%TO.P,J2,1*%
%TO.N,GND*%
X-18421000Y22036800D03*
%TO.P,J2,2*%
X-15881000Y22036800D03*
%TO.P,J2,3*%
%TO.N,VCC*%
X-18421000Y19496800D03*
%TO.P,J2,4*%
X-15881000Y19496800D03*
%TO.P,J2,5*%
%TO.N,GND*%
X-18421000Y16956800D03*
%TO.P,J2,6*%
X-15881000Y16956800D03*
%TD*%
D12*
%TO.P,J1,1,In*%
%TO.N,/RF_IN*%
X-49020000Y96980000D03*
D13*
%TO.P,J1,2,Ext*%
%TO.N,GND*%
X-46480000Y99520000D03*
X-51560000Y99520000D03*
X-46480000Y94440000D03*
X-51560000Y94440000D03*
%TD*%
D10*
%TO.P,M2,1*%
%TO.N,GND*%
X50800000Y50800000D03*
%TD*%
D14*
%TO.P,TP4,1,1*%
%TO.N,/MTL_HI_BIAS*%
X-59520000Y96380000D03*
%TD*%
%TO.P,TP5,1,1*%
%TO.N,/RF_LEVEL*%
X-58120000Y78180000D03*
%TD*%
D15*
%TO.P,C16,1*%
%TO.N,VCC*%
X-2821000Y18441800D03*
%TO.P,C16,2*%
%TO.N,GND*%
X-921000Y18441800D03*
%TD*%
D14*
%TO.P,TP7,1,1*%
%TO.N,/I2C1_SDA*%
X-61720000Y81080000D03*
%TD*%
%TO.P,TP2,1,1*%
%TO.N,/MTL_BIAS*%
X-45420000Y87180000D03*
%TD*%
%TO.P,FID2,*%
%TO.N,*%
X-12261000Y22261800D03*
%TD*%
%TO.P,TP8,1,1*%
%TO.N,/RSSI_HOLD*%
X-59620000Y92180000D03*
%TD*%
%TO.P,TP6,1,1*%
%TO.N,/I2C1_SCL*%
X-58920000Y81780000D03*
%TD*%
D16*
%TO.P,D3,1,K*%
%TO.N,VCC*%
X-9016000Y18606800D03*
%TO.P,D3,2,A*%
%TO.N,GND*%
X-5516000Y18606800D03*
%TD*%
D15*
%TO.P,C17,1*%
%TO.N,VCC*%
X-2821000Y21451800D03*
%TO.P,C17,2*%
%TO.N,GND*%
X-921000Y21451800D03*
%TD*%
D14*
%TO.P,FID1,*%
%TO.N,*%
X-12261000Y18711800D03*
%TD*%
D17*
%TO.P,M5,1,Shield*%
%TO.N,GND*%
X14326400Y46481200D03*
D18*
X14326400Y44831200D03*
D19*
X14326400Y39581200D03*
X14326400Y33581200D03*
X14326400Y27581200D03*
X14326400Y21581200D03*
D18*
X14326400Y16331200D03*
D17*
X14326400Y14681200D03*
D20*
X15976400Y46481200D03*
X15976400Y14681200D03*
D21*
X21226400Y46481200D03*
X21226400Y14681200D03*
X27226400Y46481200D03*
X27226400Y14681200D03*
X33226400Y46481200D03*
X33226400Y14681200D03*
X39226400Y46481200D03*
X39226400Y14681200D03*
D20*
X44476400Y46481200D03*
X44476400Y14681200D03*
D17*
X46126400Y46481200D03*
D18*
X46126400Y44831200D03*
D19*
X46126400Y39581200D03*
X46126400Y33581200D03*
X46126400Y27581200D03*
X46126400Y21581200D03*
D18*
X46126400Y16331200D03*
D17*
X46126400Y14681200D03*
%TD*%
D14*
%TO.P,TP3,1,1*%
%TO.N,/RF_DET_OUT*%
X-45720000Y73780000D03*
%TD*%
%TO.P,TP1,1,1*%
%TO.N,/MTL_LO_BIAS*%
X-59520000Y98480000D03*
%TD*%
D22*
%TO.N,+3V3*%
X-43420000Y79680000D03*
X-49520000Y85280000D03*
X-50420000Y90980000D03*
X-50940000Y79580000D03*
X-57920000Y83080000D03*
X-55120000Y88380000D03*
X-56725087Y91878866D03*
X-56820000Y86480000D03*
%TO.N,GND*%
X-47120000Y98080000D03*
X-48720000Y82680000D03*
X-56820000Y85280000D03*
X-53620000Y96080000D03*
X-45520000Y85480000D03*
X-49120000Y86880000D03*
X-49620000Y92080000D03*
X-55020000Y85280000D03*
X-51720000Y96080000D03*
X-45020000Y78480000D03*
X-49020000Y78480000D03*
X-48020000Y78480000D03*
X-46220000Y86680000D03*
X-58520000Y85180000D03*
X-44720000Y97280000D03*
X-44720000Y95680000D03*
X-45720000Y82680000D03*
X-48620000Y94080000D03*
X-48420000Y89180000D03*
X-48620000Y92480000D03*
X-47020000Y78480000D03*
X-44820000Y94080000D03*
X-49620000Y90980000D03*
X-49020000Y83980000D03*
X-47420000Y90980000D03*
X-53620000Y92080000D03*
X-52420000Y93080000D03*
X-46420000Y92080000D03*
X-49620000Y94080000D03*
X-45520000Y83480000D03*
X-46020000Y89180000D03*
X-51620000Y92080000D03*
X-64020000Y94680000D03*
X-45520000Y84480000D03*
X-46320000Y87980000D03*
X-56720000Y90580000D03*
X-48620000Y90980000D03*
X-44820000Y90880000D03*
X-48220000Y75580000D03*
X-46020000Y78480000D03*
X-52920000Y78580000D03*
X-54820000Y95180000D03*
%TO.N,/MTL_HI_BIAS*%
X-59520000Y96380000D03*
%TO.N,/RF_DET_OUT*%
X-45720000Y73780000D03*
%TO.N,/MTL_LO_BIAS*%
X-59520000Y98480000D03*
%TO.N,/I2C1_SDA*%
X-61720000Y81080000D03*
%TO.N,/I2C1_SCL*%
X-58920000Y81780000D03*
%TO.N,/MTL_BIAS*%
X-49320000Y88280000D03*
X-53120000Y90280000D03*
%TO.N,/RSSI_HOLD*%
X-59620000Y92180000D03*
%TO.N,/RF_LEVEL*%
X-54420000Y80205000D03*
X-58120000Y78180000D03*
X-54445000Y83035000D03*
%TO.N,/RSSI_PEAK*%
X-53645000Y85691701D03*
X-54720000Y92880000D03*
%TD*%
D23*
%TO.N,/MTL_BIAS*%
X-49320000Y88280000D02*
X-49320000Y87980000D01*
X-49320000Y87980000D02*
X-48520000Y87180000D01*
X-48520000Y87180000D02*
X-45420000Y87180000D01*
%TD*%
%TA.AperFunction,Conductor*%
%TO.N,GND*%
G36*
X55603826Y54608726D02*
G01*
X55625500Y54556400D01*
X55625500Y5408501D01*
X55603826Y5356175D01*
X55551500Y5334501D01*
X5408500Y5334501D01*
X5356174Y5356175D01*
X5334500Y5408501D01*
X5334500Y14166422D01*
X13676401Y14166422D01*
X13685101Y14122676D01*
X13718255Y14073057D01*
X13718256Y14073056D01*
X13767872Y14039904D01*
X13811626Y14031201D01*
X14201400Y14031201D01*
X14451400Y14031201D01*
X15851400Y14031201D01*
X16101400Y14031201D01*
X17141179Y14031201D01*
X17184924Y14039902D01*
X17234543Y14073056D01*
X17234544Y14073057D01*
X17267696Y14122673D01*
X17276399Y14166422D01*
X19176401Y14166422D01*
X19185101Y14122676D01*
X19218255Y14073057D01*
X19218256Y14073056D01*
X19267872Y14039904D01*
X19311626Y14031201D01*
X21101400Y14031201D01*
X21351400Y14031201D01*
X23141179Y14031201D01*
X23184924Y14039902D01*
X23234543Y14073056D01*
X23234544Y14073057D01*
X23267696Y14122673D01*
X23276399Y14166422D01*
X25176401Y14166422D01*
X25185101Y14122676D01*
X25218255Y14073057D01*
X25218256Y14073056D01*
X25267872Y14039904D01*
X25311626Y14031201D01*
X27101400Y14031201D01*
X27351400Y14031201D01*
X29141179Y14031201D01*
X29184924Y14039902D01*
X29234543Y14073056D01*
X29234544Y14073057D01*
X29267696Y14122673D01*
X29276399Y14166422D01*
X31176401Y14166422D01*
X31185101Y14122676D01*
X31218255Y14073057D01*
X31218256Y14073056D01*
X31267872Y14039904D01*
X31311626Y14031201D01*
X33101400Y14031201D01*
X33351400Y14031201D01*
X35141179Y14031201D01*
X35184924Y14039902D01*
X35234543Y14073056D01*
X35234544Y14073057D01*
X35267696Y14122673D01*
X35276399Y14166422D01*
X37176401Y14166422D01*
X37185101Y14122676D01*
X37218255Y14073057D01*
X37218256Y14073056D01*
X37267872Y14039904D01*
X37311626Y14031201D01*
X39101400Y14031201D01*
X39351400Y14031201D01*
X41141179Y14031201D01*
X41184924Y14039902D01*
X41234543Y14073056D01*
X41234544Y14073057D01*
X41267696Y14122673D01*
X41276399Y14166422D01*
X43176401Y14166422D01*
X43185101Y14122676D01*
X43218255Y14073057D01*
X43218256Y14073056D01*
X43267872Y14039904D01*
X43311626Y14031201D01*
X44351400Y14031201D01*
X44601400Y14031201D01*
X46001400Y14031201D01*
X46251400Y14031201D01*
X46641179Y14031201D01*
X46684924Y14039902D01*
X46734543Y14073056D01*
X46734544Y14073057D01*
X46767696Y14122673D01*
X46776400Y14166427D01*
X46776400Y14556200D01*
X46251400Y14556200D01*
X46251400Y14031201D01*
X46001400Y14031201D01*
X46001400Y14556200D01*
X44601400Y14556200D01*
X44601400Y14031201D01*
X44351400Y14031201D01*
X44351400Y14556200D01*
X43176401Y14556200D01*
X43176401Y14166422D01*
X41276399Y14166422D01*
X41276400Y14166427D01*
X41276400Y14556200D01*
X39351400Y14556200D01*
X39351400Y14031201D01*
X39101400Y14031201D01*
X39101400Y14556200D01*
X37176401Y14556200D01*
X37176401Y14166422D01*
X35276399Y14166422D01*
X35276400Y14166427D01*
X35276400Y14556200D01*
X33351400Y14556200D01*
X33351400Y14031201D01*
X33101400Y14031201D01*
X33101400Y14556200D01*
X31176401Y14556200D01*
X31176401Y14166422D01*
X29276399Y14166422D01*
X29276400Y14166427D01*
X29276400Y14556200D01*
X27351400Y14556200D01*
X27351400Y14031201D01*
X27101400Y14031201D01*
X27101400Y14556200D01*
X25176401Y14556200D01*
X25176401Y14166422D01*
X23276399Y14166422D01*
X23276400Y14166427D01*
X23276400Y14556200D01*
X21351400Y14556200D01*
X21351400Y14031201D01*
X21101400Y14031201D01*
X21101400Y14556200D01*
X19176401Y14556200D01*
X19176401Y14166422D01*
X17276399Y14166422D01*
X17276400Y14166427D01*
X17276400Y14556200D01*
X16101400Y14556200D01*
X16101400Y14031201D01*
X15851400Y14031201D01*
X15851400Y14556200D01*
X14451400Y14556200D01*
X14451400Y14031201D01*
X14201400Y14031201D01*
X14201400Y14556200D01*
X13676401Y14556200D01*
X13676401Y14166422D01*
X5334500Y14166422D01*
X5334500Y14806200D01*
X13676400Y14806200D01*
X14201400Y14806200D01*
X14451400Y14806200D01*
X15851400Y14806200D01*
X16101400Y14806200D01*
X17276399Y14806200D01*
X17276399Y15195974D01*
X19176400Y15195974D01*
X19176400Y14806200D01*
X21101400Y14806200D01*
X21351400Y14806200D01*
X23276399Y14806200D01*
X23276399Y15195974D01*
X25176400Y15195974D01*
X25176400Y14806200D01*
X27101400Y14806200D01*
X27351400Y14806200D01*
X29276399Y14806200D01*
X29276399Y15195974D01*
X31176400Y15195974D01*
X31176400Y14806200D01*
X33101400Y14806200D01*
X33351400Y14806200D01*
X35276399Y14806200D01*
X35276399Y15195974D01*
X37176400Y15195974D01*
X37176400Y14806200D01*
X39101400Y14806200D01*
X39351400Y14806200D01*
X41276399Y14806200D01*
X41276399Y15195974D01*
X43176400Y15195974D01*
X43176400Y14806200D01*
X44351400Y14806200D01*
X44351400Y15331200D01*
X44601400Y15331200D01*
X44601400Y14806200D01*
X46001400Y14806200D01*
X46251400Y14806200D01*
X46776399Y14806200D01*
X46776399Y15161879D01*
X46776400Y15161896D01*
X46776400Y16206200D01*
X46251400Y16206200D01*
X46251400Y14806200D01*
X46001400Y14806200D01*
X46001400Y16206200D01*
X45476400Y16206200D01*
X45476400Y15405200D01*
X45454726Y15352874D01*
X45402400Y15331200D01*
X44601400Y15331200D01*
X44351400Y15331200D01*
X43311629Y15331200D01*
X43267873Y15322497D01*
X43218256Y15289345D01*
X43218255Y15289344D01*
X43185103Y15239728D01*
X43176400Y15195974D01*
X41276399Y15195974D01*
X41276399Y15195979D01*
X41267698Y15239725D01*
X41234544Y15289344D01*
X41234543Y15289345D01*
X41184927Y15322497D01*
X41141173Y15331200D01*
X39351400Y15331200D01*
X39351400Y14806200D01*
X39101400Y14806200D01*
X39101400Y15331200D01*
X37311629Y15331200D01*
X37267873Y15322497D01*
X37218256Y15289345D01*
X37218255Y15289344D01*
X37185103Y15239728D01*
X37176400Y15195974D01*
X35276399Y15195974D01*
X35276399Y15195979D01*
X35267698Y15239725D01*
X35234544Y15289344D01*
X35234543Y15289345D01*
X35184927Y15322497D01*
X35141173Y15331200D01*
X33351400Y15331200D01*
X33351400Y14806200D01*
X33101400Y14806200D01*
X33101400Y15331200D01*
X31311629Y15331200D01*
X31267873Y15322497D01*
X31218256Y15289345D01*
X31218255Y15289344D01*
X31185103Y15239728D01*
X31176400Y15195974D01*
X29276399Y15195974D01*
X29276399Y15195979D01*
X29267698Y15239725D01*
X29234544Y15289344D01*
X29234543Y15289345D01*
X29184927Y15322497D01*
X29141173Y15331200D01*
X27351400Y15331200D01*
X27351400Y14806200D01*
X27101400Y14806200D01*
X27101400Y15331200D01*
X25311629Y15331200D01*
X25267873Y15322497D01*
X25218256Y15289345D01*
X25218255Y15289344D01*
X25185103Y15239728D01*
X25176400Y15195974D01*
X23276399Y15195974D01*
X23276399Y15195979D01*
X23267698Y15239725D01*
X23234544Y15289344D01*
X23234543Y15289345D01*
X23184927Y15322497D01*
X23141173Y15331200D01*
X21351400Y15331200D01*
X21351400Y14806200D01*
X21101400Y14806200D01*
X21101400Y15331200D01*
X19311629Y15331200D01*
X19267873Y15322497D01*
X19218256Y15289345D01*
X19218255Y15289344D01*
X19185103Y15239728D01*
X19176400Y15195974D01*
X17276399Y15195974D01*
X17276399Y15195979D01*
X17267698Y15239725D01*
X17234544Y15289344D01*
X17234543Y15289345D01*
X17184927Y15322497D01*
X17141173Y15331200D01*
X16101400Y15331200D01*
X16101400Y14806200D01*
X15851400Y14806200D01*
X15851400Y15331200D01*
X15050399Y15331200D01*
X14998073Y15352874D01*
X14976399Y15405200D01*
X14976399Y16206200D01*
X14451400Y16206200D01*
X14451400Y14806200D01*
X14201400Y14806200D01*
X14201400Y16206200D01*
X13676400Y16206200D01*
X13676400Y14806200D01*
X5334500Y14806200D01*
X5334500Y17495974D01*
X13676400Y17495974D01*
X13676400Y16456200D01*
X14201400Y16456200D01*
X14451400Y16456200D01*
X14976399Y16456200D01*
X14976399Y17495974D01*
X45476400Y17495974D01*
X45476400Y16456200D01*
X46001400Y16456200D01*
X46251400Y16456200D01*
X46776399Y16456200D01*
X46776399Y17495979D01*
X46767698Y17539725D01*
X46734544Y17589344D01*
X46734543Y17589345D01*
X46684927Y17622497D01*
X46641173Y17631200D01*
X46251400Y17631200D01*
X46251400Y16456200D01*
X46001400Y16456200D01*
X46001400Y17631200D01*
X45611629Y17631200D01*
X45567873Y17622497D01*
X45518256Y17589345D01*
X45518255Y17589344D01*
X45485103Y17539728D01*
X45476400Y17495974D01*
X14976399Y17495974D01*
X14976399Y17495979D01*
X14967698Y17539725D01*
X14934544Y17589344D01*
X14934543Y17589345D01*
X14884927Y17622497D01*
X14841173Y17631200D01*
X14451400Y17631200D01*
X14451400Y16456200D01*
X14201400Y16456200D01*
X14201400Y17631200D01*
X13811629Y17631200D01*
X13767873Y17622497D01*
X13718256Y17589345D01*
X13718255Y17589344D01*
X13685103Y17539728D01*
X13676400Y17495974D01*
X5334500Y17495974D01*
X5334500Y19666422D01*
X13676401Y19666422D01*
X13685101Y19622676D01*
X13718255Y19573057D01*
X13718256Y19573056D01*
X13767872Y19539904D01*
X13811626Y19531201D01*
X14201400Y19531201D01*
X14451400Y19531201D01*
X14841179Y19531201D01*
X14884924Y19539902D01*
X14934543Y19573056D01*
X14934544Y19573057D01*
X14967696Y19622673D01*
X14976399Y19666422D01*
X45476401Y19666422D01*
X45485101Y19622676D01*
X45518255Y19573057D01*
X45518256Y19573056D01*
X45567872Y19539904D01*
X45611626Y19531201D01*
X46001400Y19531201D01*
X46251400Y19531201D01*
X46641179Y19531201D01*
X46684924Y19539902D01*
X46734543Y19573056D01*
X46734544Y19573057D01*
X46767696Y19622673D01*
X46776400Y19666427D01*
X46776400Y21456200D01*
X46251400Y21456200D01*
X46251400Y19531201D01*
X46001400Y19531201D01*
X46001400Y21456200D01*
X45476401Y21456200D01*
X45476401Y19666422D01*
X14976399Y19666422D01*
X14976400Y19666427D01*
X14976400Y21456200D01*
X14451400Y21456200D01*
X14451400Y19531201D01*
X14201400Y19531201D01*
X14201400Y21456200D01*
X13676401Y21456200D01*
X13676401Y19666422D01*
X5334500Y19666422D01*
X5334500Y23495974D01*
X13676400Y23495974D01*
X13676400Y21706200D01*
X14201400Y21706200D01*
X14451400Y21706200D01*
X14976399Y21706200D01*
X14976399Y23495974D01*
X45476400Y23495974D01*
X45476400Y21706200D01*
X46001400Y21706200D01*
X46251400Y21706200D01*
X46776399Y21706200D01*
X46776399Y23495979D01*
X46767698Y23539725D01*
X46734544Y23589344D01*
X46734543Y23589345D01*
X46684927Y23622497D01*
X46641173Y23631200D01*
X46251400Y23631200D01*
X46251400Y21706200D01*
X46001400Y21706200D01*
X46001400Y23631200D01*
X45611629Y23631200D01*
X45567873Y23622497D01*
X45518256Y23589345D01*
X45518255Y23589344D01*
X45485103Y23539728D01*
X45476400Y23495974D01*
X14976399Y23495974D01*
X14976399Y23495979D01*
X14967698Y23539725D01*
X14934544Y23589344D01*
X14934543Y23589345D01*
X14884927Y23622497D01*
X14841173Y23631200D01*
X14451400Y23631200D01*
X14451400Y21706200D01*
X14201400Y21706200D01*
X14201400Y23631200D01*
X13811629Y23631200D01*
X13767873Y23622497D01*
X13718256Y23589345D01*
X13718255Y23589344D01*
X13685103Y23539728D01*
X13676400Y23495974D01*
X5334500Y23495974D01*
X5334500Y25666422D01*
X13676401Y25666422D01*
X13685101Y25622676D01*
X13718255Y25573057D01*
X13718256Y25573056D01*
X13767872Y25539904D01*
X13811626Y25531201D01*
X14201400Y25531201D01*
X14451400Y25531201D01*
X14841179Y25531201D01*
X14884924Y25539902D01*
X14934543Y25573056D01*
X14934544Y25573057D01*
X14967696Y25622673D01*
X14976399Y25666422D01*
X45476401Y25666422D01*
X45485101Y25622676D01*
X45518255Y25573057D01*
X45518256Y25573056D01*
X45567872Y25539904D01*
X45611626Y25531201D01*
X46001400Y25531201D01*
X46251400Y25531201D01*
X46641179Y25531201D01*
X46684924Y25539902D01*
X46734543Y25573056D01*
X46734544Y25573057D01*
X46767696Y25622673D01*
X46776400Y25666427D01*
X46776400Y27456200D01*
X46251400Y27456200D01*
X46251400Y25531201D01*
X46001400Y25531201D01*
X46001400Y27456200D01*
X45476401Y27456200D01*
X45476401Y25666422D01*
X14976399Y25666422D01*
X14976400Y25666427D01*
X14976400Y27456200D01*
X14451400Y27456200D01*
X14451400Y25531201D01*
X14201400Y25531201D01*
X14201400Y27456200D01*
X13676401Y27456200D01*
X13676401Y25666422D01*
X5334500Y25666422D01*
X5334500Y29495974D01*
X13676400Y29495974D01*
X13676400Y27706200D01*
X14201400Y27706200D01*
X14451400Y27706200D01*
X14976399Y27706200D01*
X14976399Y29495974D01*
X45476400Y29495974D01*
X45476400Y27706200D01*
X46001400Y27706200D01*
X46251400Y27706200D01*
X46776399Y27706200D01*
X46776399Y29495979D01*
X46767698Y29539725D01*
X46734544Y29589344D01*
X46734543Y29589345D01*
X46684927Y29622497D01*
X46641173Y29631200D01*
X46251400Y29631200D01*
X46251400Y27706200D01*
X46001400Y27706200D01*
X46001400Y29631200D01*
X45611629Y29631200D01*
X45567873Y29622497D01*
X45518256Y29589345D01*
X45518255Y29589344D01*
X45485103Y29539728D01*
X45476400Y29495974D01*
X14976399Y29495974D01*
X14976399Y29495979D01*
X14967698Y29539725D01*
X14934544Y29589344D01*
X14934543Y29589345D01*
X14884927Y29622497D01*
X14841173Y29631200D01*
X14451400Y29631200D01*
X14451400Y27706200D01*
X14201400Y27706200D01*
X14201400Y29631200D01*
X13811629Y29631200D01*
X13767873Y29622497D01*
X13718256Y29589345D01*
X13718255Y29589344D01*
X13685103Y29539728D01*
X13676400Y29495974D01*
X5334500Y29495974D01*
X5334500Y31666422D01*
X13676401Y31666422D01*
X13685101Y31622676D01*
X13718255Y31573057D01*
X13718256Y31573056D01*
X13767872Y31539904D01*
X13811626Y31531201D01*
X14201400Y31531201D01*
X14451400Y31531201D01*
X14841179Y31531201D01*
X14884924Y31539902D01*
X14934543Y31573056D01*
X14934544Y31573057D01*
X14967696Y31622673D01*
X14976399Y31666422D01*
X45476401Y31666422D01*
X45485101Y31622676D01*
X45518255Y31573057D01*
X45518256Y31573056D01*
X45567872Y31539904D01*
X45611626Y31531201D01*
X46001400Y31531201D01*
X46251400Y31531201D01*
X46641179Y31531201D01*
X46684924Y31539902D01*
X46734543Y31573056D01*
X46734544Y31573057D01*
X46767696Y31622673D01*
X46776400Y31666427D01*
X46776400Y33456200D01*
X46251400Y33456200D01*
X46251400Y31531201D01*
X46001400Y31531201D01*
X46001400Y33456200D01*
X45476401Y33456200D01*
X45476401Y31666422D01*
X14976399Y31666422D01*
X14976400Y31666427D01*
X14976400Y33456200D01*
X14451400Y33456200D01*
X14451400Y31531201D01*
X14201400Y31531201D01*
X14201400Y33456200D01*
X13676401Y33456200D01*
X13676401Y31666422D01*
X5334500Y31666422D01*
X5334500Y35495974D01*
X13676400Y35495974D01*
X13676400Y33706200D01*
X14201400Y33706200D01*
X14451400Y33706200D01*
X14976399Y33706200D01*
X14976399Y35495974D01*
X45476400Y35495974D01*
X45476400Y33706200D01*
X46001400Y33706200D01*
X46251400Y33706200D01*
X46776399Y33706200D01*
X46776399Y35495979D01*
X46767698Y35539725D01*
X46734544Y35589344D01*
X46734543Y35589345D01*
X46684927Y35622497D01*
X46641173Y35631200D01*
X46251400Y35631200D01*
X46251400Y33706200D01*
X46001400Y33706200D01*
X46001400Y35631200D01*
X45611629Y35631200D01*
X45567873Y35622497D01*
X45518256Y35589345D01*
X45518255Y35589344D01*
X45485103Y35539728D01*
X45476400Y35495974D01*
X14976399Y35495974D01*
X14976399Y35495979D01*
X14967698Y35539725D01*
X14934544Y35589344D01*
X14934543Y35589345D01*
X14884927Y35622497D01*
X14841173Y35631200D01*
X14451400Y35631200D01*
X14451400Y33706200D01*
X14201400Y33706200D01*
X14201400Y35631200D01*
X13811629Y35631200D01*
X13767873Y35622497D01*
X13718256Y35589345D01*
X13718255Y35589344D01*
X13685103Y35539728D01*
X13676400Y35495974D01*
X5334500Y35495974D01*
X5334500Y37666422D01*
X13676401Y37666422D01*
X13685101Y37622676D01*
X13718255Y37573057D01*
X13718256Y37573056D01*
X13767872Y37539904D01*
X13811626Y37531201D01*
X14201400Y37531201D01*
X14451400Y37531201D01*
X14841179Y37531201D01*
X14884924Y37539902D01*
X14934543Y37573056D01*
X14934544Y37573057D01*
X14967696Y37622673D01*
X14976399Y37666422D01*
X45476401Y37666422D01*
X45485101Y37622676D01*
X45518255Y37573057D01*
X45518256Y37573056D01*
X45567872Y37539904D01*
X45611626Y37531201D01*
X46001400Y37531201D01*
X46251400Y37531201D01*
X46641179Y37531201D01*
X46684924Y37539902D01*
X46734543Y37573056D01*
X46734544Y37573057D01*
X46767696Y37622673D01*
X46776400Y37666427D01*
X46776400Y39456200D01*
X46251400Y39456200D01*
X46251400Y37531201D01*
X46001400Y37531201D01*
X46001400Y39456200D01*
X45476401Y39456200D01*
X45476401Y37666422D01*
X14976399Y37666422D01*
X14976400Y37666427D01*
X14976400Y39456200D01*
X14451400Y39456200D01*
X14451400Y37531201D01*
X14201400Y37531201D01*
X14201400Y39456200D01*
X13676401Y39456200D01*
X13676401Y37666422D01*
X5334500Y37666422D01*
X5334500Y41495974D01*
X13676400Y41495974D01*
X13676400Y39706200D01*
X14201400Y39706200D01*
X14451400Y39706200D01*
X14976399Y39706200D01*
X14976399Y41495974D01*
X45476400Y41495974D01*
X45476400Y39706200D01*
X46001400Y39706200D01*
X46251400Y39706200D01*
X46776399Y39706200D01*
X46776399Y41495979D01*
X46767698Y41539725D01*
X46734544Y41589344D01*
X46734543Y41589345D01*
X46684927Y41622497D01*
X46641173Y41631200D01*
X46251400Y41631200D01*
X46251400Y39706200D01*
X46001400Y39706200D01*
X46001400Y41631200D01*
X45611629Y41631200D01*
X45567873Y41622497D01*
X45518256Y41589345D01*
X45518255Y41589344D01*
X45485103Y41539728D01*
X45476400Y41495974D01*
X14976399Y41495974D01*
X14976399Y41495979D01*
X14967698Y41539725D01*
X14934544Y41589344D01*
X14934543Y41589345D01*
X14884927Y41622497D01*
X14841173Y41631200D01*
X14451400Y41631200D01*
X14451400Y39706200D01*
X14201400Y39706200D01*
X14201400Y41631200D01*
X13811629Y41631200D01*
X13767873Y41622497D01*
X13718256Y41589345D01*
X13718255Y41589344D01*
X13685103Y41539728D01*
X13676400Y41495974D01*
X5334500Y41495974D01*
X5334500Y43666422D01*
X13676401Y43666422D01*
X13685101Y43622676D01*
X13718255Y43573057D01*
X13718256Y43573056D01*
X13767872Y43539904D01*
X13811626Y43531201D01*
X14201400Y43531201D01*
X14451400Y43531201D01*
X14841179Y43531201D01*
X14884924Y43539902D01*
X14934543Y43573056D01*
X14934544Y43573057D01*
X14967696Y43622673D01*
X14976399Y43666422D01*
X45476401Y43666422D01*
X45485101Y43622676D01*
X45518255Y43573057D01*
X45518256Y43573056D01*
X45567872Y43539904D01*
X45611626Y43531201D01*
X46001400Y43531201D01*
X46251400Y43531201D01*
X46641179Y43531201D01*
X46684924Y43539902D01*
X46734543Y43573056D01*
X46734544Y43573057D01*
X46767696Y43622673D01*
X46776400Y43666427D01*
X46776400Y44706200D01*
X46251400Y44706200D01*
X46251400Y43531201D01*
X46001400Y43531201D01*
X46001400Y44706200D01*
X45476401Y44706200D01*
X45476401Y43666422D01*
X14976399Y43666422D01*
X14976400Y43666427D01*
X14976400Y44706200D01*
X14451400Y44706200D01*
X14451400Y43531201D01*
X14201400Y43531201D01*
X14201400Y44706200D01*
X13676401Y44706200D01*
X13676401Y43666422D01*
X5334500Y43666422D01*
X5334500Y44956200D01*
X13676400Y44956200D01*
X14201400Y44956200D01*
X14451400Y44956200D01*
X14976399Y44956200D01*
X14976399Y45757201D01*
X14998073Y45809527D01*
X15050399Y45831201D01*
X15851400Y45831201D01*
X16101400Y45831201D01*
X17141179Y45831201D01*
X17184924Y45839902D01*
X17234543Y45873056D01*
X17234544Y45873057D01*
X17267696Y45922673D01*
X17276399Y45966422D01*
X19176401Y45966422D01*
X19185101Y45922676D01*
X19218255Y45873057D01*
X19218256Y45873056D01*
X19267872Y45839904D01*
X19311626Y45831201D01*
X21101400Y45831201D01*
X21351400Y45831201D01*
X23141179Y45831201D01*
X23184924Y45839902D01*
X23234543Y45873056D01*
X23234544Y45873057D01*
X23267696Y45922673D01*
X23276399Y45966422D01*
X25176401Y45966422D01*
X25185101Y45922676D01*
X25218255Y45873057D01*
X25218256Y45873056D01*
X25267872Y45839904D01*
X25311626Y45831201D01*
X27101400Y45831201D01*
X27351400Y45831201D01*
X29141179Y45831201D01*
X29184924Y45839902D01*
X29234543Y45873056D01*
X29234544Y45873057D01*
X29267696Y45922673D01*
X29276399Y45966422D01*
X31176401Y45966422D01*
X31185101Y45922676D01*
X31218255Y45873057D01*
X31218256Y45873056D01*
X31267872Y45839904D01*
X31311626Y45831201D01*
X33101400Y45831201D01*
X33351400Y45831201D01*
X35141179Y45831201D01*
X35184924Y45839902D01*
X35234543Y45873056D01*
X35234544Y45873057D01*
X35267696Y45922673D01*
X35276399Y45966422D01*
X37176401Y45966422D01*
X37185101Y45922676D01*
X37218255Y45873057D01*
X37218256Y45873056D01*
X37267872Y45839904D01*
X37311626Y45831201D01*
X39101400Y45831201D01*
X39351400Y45831201D01*
X41141179Y45831201D01*
X41184924Y45839902D01*
X41234543Y45873056D01*
X41234544Y45873057D01*
X41267696Y45922673D01*
X41276399Y45966422D01*
X43176401Y45966422D01*
X43185101Y45922676D01*
X43218255Y45873057D01*
X43218256Y45873056D01*
X43267872Y45839904D01*
X43311626Y45831201D01*
X44351400Y45831201D01*
X44601400Y45831201D01*
X45402400Y45831201D01*
X45454726Y45809527D01*
X45476400Y45757201D01*
X45476400Y44956200D01*
X46001400Y44956200D01*
X46251400Y44956200D01*
X46776399Y44956200D01*
X46776399Y45961879D01*
X46776400Y45961896D01*
X46776400Y46356200D01*
X46251400Y46356200D01*
X46251400Y44956200D01*
X46001400Y44956200D01*
X46001400Y46356200D01*
X44601400Y46356200D01*
X44601400Y45831201D01*
X44351400Y45831201D01*
X44351400Y46356200D01*
X43176401Y46356200D01*
X43176401Y45966422D01*
X41276399Y45966422D01*
X41276400Y45966427D01*
X41276400Y46356200D01*
X39351400Y46356200D01*
X39351400Y45831201D01*
X39101400Y45831201D01*
X39101400Y46356200D01*
X37176401Y46356200D01*
X37176401Y45966422D01*
X35276399Y45966422D01*
X35276400Y45966427D01*
X35276400Y46356200D01*
X33351400Y46356200D01*
X33351400Y45831201D01*
X33101400Y45831201D01*
X33101400Y46356200D01*
X31176401Y46356200D01*
X31176401Y45966422D01*
X29276399Y45966422D01*
X29276400Y45966427D01*
X29276400Y46356200D01*
X27351400Y46356200D01*
X27351400Y45831201D01*
X27101400Y45831201D01*
X27101400Y46356200D01*
X25176401Y46356200D01*
X25176401Y45966422D01*
X23276399Y45966422D01*
X23276400Y45966427D01*
X23276400Y46356200D01*
X21351400Y46356200D01*
X21351400Y45831201D01*
X21101400Y45831201D01*
X21101400Y46356200D01*
X19176401Y46356200D01*
X19176401Y45966422D01*
X17276399Y45966422D01*
X17276400Y45966427D01*
X17276400Y46356200D01*
X16101400Y46356200D01*
X16101400Y45831201D01*
X15851400Y45831201D01*
X15851400Y46356200D01*
X14451400Y46356200D01*
X14451400Y44956200D01*
X14201400Y44956200D01*
X14201400Y46356200D01*
X13676400Y46356200D01*
X13676400Y44956200D01*
X5334500Y44956200D01*
X5334500Y46995974D01*
X13676400Y46995974D01*
X13676400Y46606200D01*
X14201400Y46606200D01*
X14451400Y46606200D01*
X15851400Y46606200D01*
X16101400Y46606200D01*
X17276399Y46606200D01*
X17276399Y46995974D01*
X19176400Y46995974D01*
X19176400Y46606200D01*
X21101400Y46606200D01*
X21351400Y46606200D01*
X23276399Y46606200D01*
X23276399Y46995974D01*
X25176400Y46995974D01*
X25176400Y46606200D01*
X27101400Y46606200D01*
X27351400Y46606200D01*
X29276399Y46606200D01*
X29276399Y46995974D01*
X31176400Y46995974D01*
X31176400Y46606200D01*
X33101400Y46606200D01*
X33351400Y46606200D01*
X35276399Y46606200D01*
X35276399Y46995974D01*
X37176400Y46995974D01*
X37176400Y46606200D01*
X39101400Y46606200D01*
X39351400Y46606200D01*
X41276399Y46606200D01*
X41276399Y46995974D01*
X43176400Y46995974D01*
X43176400Y46606200D01*
X44351400Y46606200D01*
X44601400Y46606200D01*
X46001400Y46606200D01*
X46251400Y46606200D01*
X46776399Y46606200D01*
X46776399Y46995979D01*
X46767698Y47039725D01*
X46734544Y47089344D01*
X46734543Y47089345D01*
X46684927Y47122497D01*
X46641173Y47131200D01*
X46251400Y47131200D01*
X46251400Y46606200D01*
X46001400Y46606200D01*
X46001400Y47131200D01*
X44601400Y47131200D01*
X44601400Y46606200D01*
X44351400Y46606200D01*
X44351400Y47131200D01*
X43311629Y47131200D01*
X43267873Y47122497D01*
X43218256Y47089345D01*
X43218255Y47089344D01*
X43185103Y47039728D01*
X43176400Y46995974D01*
X41276399Y46995974D01*
X41276399Y46995979D01*
X41267698Y47039725D01*
X41234544Y47089344D01*
X41234543Y47089345D01*
X41184927Y47122497D01*
X41141173Y47131200D01*
X39351400Y47131200D01*
X39351400Y46606200D01*
X39101400Y46606200D01*
X39101400Y47131200D01*
X37311629Y47131200D01*
X37267873Y47122497D01*
X37218256Y47089345D01*
X37218255Y47089344D01*
X37185103Y47039728D01*
X37176400Y46995974D01*
X35276399Y46995974D01*
X35276399Y46995979D01*
X35267698Y47039725D01*
X35234544Y47089344D01*
X35234543Y47089345D01*
X35184927Y47122497D01*
X35141173Y47131200D01*
X33351400Y47131200D01*
X33351400Y46606200D01*
X33101400Y46606200D01*
X33101400Y47131200D01*
X31311629Y47131200D01*
X31267873Y47122497D01*
X31218256Y47089345D01*
X31218255Y47089344D01*
X31185103Y47039728D01*
X31176400Y46995974D01*
X29276399Y46995974D01*
X29276399Y46995979D01*
X29267698Y47039725D01*
X29234544Y47089344D01*
X29234543Y47089345D01*
X29184927Y47122497D01*
X29141173Y47131200D01*
X27351400Y47131200D01*
X27351400Y46606200D01*
X27101400Y46606200D01*
X27101400Y47131200D01*
X25311629Y47131200D01*
X25267873Y47122497D01*
X25218256Y47089345D01*
X25218255Y47089344D01*
X25185103Y47039728D01*
X25176400Y46995974D01*
X23276399Y46995974D01*
X23276399Y46995979D01*
X23267698Y47039725D01*
X23234544Y47089344D01*
X23234543Y47089345D01*
X23184927Y47122497D01*
X23141173Y47131200D01*
X21351400Y47131200D01*
X21351400Y46606200D01*
X21101400Y46606200D01*
X21101400Y47131200D01*
X19311629Y47131200D01*
X19267873Y47122497D01*
X19218256Y47089345D01*
X19218255Y47089344D01*
X19185103Y47039728D01*
X19176400Y46995974D01*
X17276399Y46995974D01*
X17276399Y46995979D01*
X17267698Y47039725D01*
X17234544Y47089344D01*
X17234543Y47089345D01*
X17184927Y47122497D01*
X17141173Y47131200D01*
X16101400Y47131200D01*
X16101400Y46606200D01*
X15851400Y46606200D01*
X15851400Y47131200D01*
X14451400Y47131200D01*
X14451400Y46606200D01*
X14201400Y46606200D01*
X14201400Y47131200D01*
X13811629Y47131200D01*
X13767873Y47122497D01*
X13718256Y47089345D01*
X13718255Y47089344D01*
X13685103Y47039728D01*
X13676400Y46995974D01*
X5334500Y46995974D01*
X5334500Y54556400D01*
X5356174Y54608726D01*
X5408500Y54630400D01*
X55551500Y54630400D01*
X55603826Y54608726D01*
G37*
%TD.AperFunction*%
%TD*%
M02*
