M48
; DRILL file {KiCad 9.0.6+1} date 2026-01-19T12:03:12+0000
; FORMAT={3:3/ absolute / metric / suppress leading zeros}
; #@! TF.CreationDate,2026-01-19T12:03:12+00:00
; #@! TF.GenerationSoftware,Kicad,Pcbnew,9.0.6+1
; #@! TF.FileFunction,Plated,1,2,PTH
FMAT,2
METRIC,TZ
; #@! TA.AperFunction,Plated,PTH,ViaDrill
T1C0.300
; #@! TA.AperFunction,Plated,PTH,ComponentDrill
T2C0.889
; #@! TA.AperFunction,Plated,PTH,ComponentDrill
T3C1.500
; #@! TA.AperFunction,Plated,PTH,ComponentDrill
T4C1.700
; #@! TA.AperFunction,Plated,PTH,ComponentDrill
T5C3.000
%
G90
G05
T1
X-64020Y94680
X-61720Y81080
X-59620Y92180
X-59520Y98480
X-59520Y96380
X-58920Y81780
X-58520Y85180
X-58120Y78180
X-57920Y83080
X-56820Y86480
X-56820Y85280
X-56725Y91879
X-56720Y90580
X-55120Y88380
X-55020Y85280
X-54820Y95180
X-54720Y92880
X-54445Y83035
X-54420Y80205
X-53645Y85692
X-53620Y96080
X-53620Y92080
X-53120Y90280
X-52920Y78580
X-52420Y93080
X-51720Y96080
X-51620Y92080
X-50940Y79580
X-50420Y90980
X-49620Y94080
X-49620Y92080
X-49620Y90980
X-49520Y85280
X-49320Y88280
X-49120Y86880
X-49020Y83980
X-49020Y78480
X-48720Y82680
X-48620Y94080
X-48620Y92480
X-48620Y90980
X-48420Y89180
X-48220Y75580
X-48020Y78480
X-47420Y90980
X-47120Y98080
X-47020Y78480
X-46420Y92080
X-46320Y87980
X-46220Y86680
X-46020Y89180
X-46020Y78480
X-45720Y82680
X-45720Y73780
X-45520Y85480
X-45520Y84480
X-45520Y83480
X-45020Y78480
X-44820Y94080
X-44820Y90880
X-44720Y97280
X-44720Y95680
X-43420Y79680
T2
X-18421Y22037
X-18421Y19497
X-18421Y16957
X-15881Y22037
X-15881Y19497
X-15881Y16957
T3
X-49020Y96980
T4
X-51560Y99520
X-51560Y94440
X-46480Y99520
X-46480Y94440
T5
X10160Y50800
X10160Y10160
X50800Y50800
X50800Y10160
M30
