%TF.GenerationSoftware,KiCad,Pcbnew,9.0.6+1*%
%TF.CreationDate,2026-01-19T12:03:12+00:00*%
%TF.ProjectId,ADSBAFE01,41445342-4146-4453-9031-2e6b69636164,ADSBAFE01*%
%TF.SameCoordinates,Original*%
%TF.FileFunction,Copper,L1,Top*%
%TF.FilePolarity,Positive*%
%FSLAX46Y46*%
G04 Gerber Fmt 4.6, Leading zero omitted, Abs format (unit mm)*
G04 Created by KiCad (PCBNEW 9.0.6+1) date 2026-01-19 12:03:12*
%MOMM*%
%LPD*%
G01*
G04 APERTURE LIST*
G04 Aperture macros list*
%AMRoundRect*
0 Rectangle with rounded corners*
0 $1 Rounding radius*
0 $2 $3 $4 $5 $6 $7 $8 $9 X,Y pos of 4 corners*
0 Add a 4 corners polygon primitive as box body*
4,1,4,$2,$3,$4,$5,$6,$7,$8,$9,$2,$3,0*
0 Add four circle primitives for the rounded corners*
1,1,$1+$1,$2,$3*
1,1,$1+$1,$4,$5*
1,1,$1+$1,$6,$7*
1,1,$1+$1,$8,$9*
0 Add four rect primitives between the rounded corners*
20,1,$1+$1,$2,$3,$4,$5,0*
20,1,$1+$1,$4,$5,$6,$7,0*
20,1,$1+$1,$6,$7,$8,$9,0*
20,1,$1+$1,$8,$9,$2,$3,0*%
G04 Aperture macros list end*
%TA.AperFunction,SMDPad,CuDef*%
%ADD10RoundRect,0.150000X-0.200000X0.150000X-0.200000X-0.150000X0.200000X-0.150000X0.200000X0.150000X0*%
%TD*%
%TA.AperFunction,SMDPad,CuDef*%
%ADD11RoundRect,0.135000X0.185000X-0.135000X0.185000X0.135000X-0.185000X0.135000X-0.185000X-0.135000X0*%
%TD*%
%TA.AperFunction,SMDPad,CuDef*%
%ADD12RoundRect,0.140000X-0.170000X0.140000X-0.170000X-0.140000X0.170000X-0.140000X0.170000X0.140000X0*%
%TD*%
%TA.AperFunction,SMDPad,CuDef*%
%ADD13RoundRect,0.140000X0.170000X-0.140000X0.170000X0.140000X-0.170000X0.140000X-0.170000X-0.140000X0*%
%TD*%
%TA.AperFunction,ComponentPad*%
%ADD14C,6.000000*%
%TD*%
%TA.AperFunction,SMDPad,CuDef*%
%ADD15RoundRect,0.100000X-0.100000X0.712500X-0.100000X-0.712500X0.100000X-0.712500X0.100000X0.712500X0*%
%TD*%
%TA.AperFunction,SMDPad,CuDef*%
%ADD16RoundRect,0.135000X0.135000X0.185000X-0.135000X0.185000X-0.135000X-0.185000X0.135000X-0.185000X0*%
%TD*%
%TA.AperFunction,SMDPad,CuDef*%
%ADD17RoundRect,0.100000X-0.100000X0.225000X-0.100000X-0.225000X0.100000X-0.225000X0.100000X0.225000X0*%
%TD*%
%TA.AperFunction,SMDPad,CuDef*%
%ADD18R,0.450000X1.450000*%
%TD*%
%TA.AperFunction,SMDPad,CuDef*%
%ADD19RoundRect,0.140000X-0.140000X-0.170000X0.140000X-0.170000X0.140000X0.170000X-0.140000X0.170000X0*%
%TD*%
%TA.AperFunction,ComponentPad*%
%ADD20R,1.524000X1.524000*%
%TD*%
%TA.AperFunction,SMDPad,CuDef*%
%ADD21RoundRect,0.135000X-0.135000X-0.185000X0.135000X-0.185000X0.135000X0.185000X-0.135000X0.185000X0*%
%TD*%
%TA.AperFunction,SMDPad,CuDef*%
%ADD22RoundRect,0.140000X0.140000X0.170000X-0.140000X0.170000X-0.140000X-0.170000X0.140000X-0.170000X0*%
%TD*%
%TA.AperFunction,SMDPad,CuDef*%
%ADD23RoundRect,0.135000X-0.185000X0.135000X-0.185000X-0.135000X0.185000X-0.135000X0.185000X0.135000X0*%
%TD*%
%TA.AperFunction,SMDPad,CuDef*%
%ADD24RoundRect,0.100000X0.225000X0.100000X-0.225000X0.100000X-0.225000X-0.100000X0.225000X-0.100000X0*%
%TD*%
%TA.AperFunction,ComponentPad*%
%ADD25C,2.500000*%
%TD*%
%TA.AperFunction,ComponentPad*%
%ADD26C,2.700000*%
%TD*%
%TA.AperFunction,SMDPad,CuDef*%
%ADD27RoundRect,0.100000X0.100000X-0.225000X0.100000X0.225000X-0.100000X0.225000X-0.100000X-0.225000X0*%
%TD*%
%TA.AperFunction,SMDPad,CuDef*%
%ADD28RoundRect,0.225000X0.225000X0.375000X-0.225000X0.375000X-0.225000X-0.375000X0.225000X-0.375000X0*%
%TD*%
%TA.AperFunction,SMDPad,CuDef*%
%ADD29RoundRect,0.147500X0.147500X0.172500X-0.147500X0.172500X-0.147500X-0.172500X0.147500X-0.172500X0*%
%TD*%
%TA.AperFunction,SMDPad,CuDef*%
%ADD30R,0.740000X2.310000*%
%TD*%
%TA.AperFunction,SMDPad,CuDef*%
%ADD31R,0.740000X1.400000*%
%TD*%
%TA.AperFunction,ViaPad*%
%ADD32C,0.400000*%
%TD*%
%TA.AperFunction,Conductor*%
%ADD33C,0.250000*%
%TD*%
%TA.AperFunction,Conductor*%
%ADD34C,0.150000*%
%TD*%
%TA.AperFunction,Conductor*%
%ADD35C,0.600000*%
%TD*%
%TA.AperFunction,Conductor*%
%ADD36C,0.200000*%
%TD*%
G04 APERTURE END LIST*
D10*
%TO.P,D1,1,A1*%
%TO.N,/RF_IN*%
X-46020000Y96980000D03*
%TO.P,D1,2,A2*%
%TO.N,GND*%
X-46020000Y98380000D03*
%TD*%
D11*
%TO.P,R3,1*%
%TO.N,+3V3*%
X-49620000Y79670000D03*
%TO.P,R3,2*%
%TO.N,Net-(C4-Pad1)*%
X-49620000Y80690000D03*
%TD*%
D12*
%TO.P,C6,1*%
%TO.N,+3V3*%
X-57920000Y83060000D03*
%TO.P,C6,2*%
%TO.N,GND*%
X-57920000Y82100000D03*
%TD*%
D13*
%TO.P,C11,1*%
%TO.N,/MTL_HI_BIAS*%
X-52820000Y94200000D03*
%TO.P,C11,2*%
%TO.N,GND*%
X-52820000Y95160000D03*
%TD*%
D14*
%TO.P,M4,1*%
%TO.N,GND*%
X50800000Y10160000D03*
%TD*%
D13*
%TO.P,C1,1*%
%TO.N,/MTL_LO_BIAS*%
X-54819999Y94189999D03*
%TO.P,C1,2*%
%TO.N,GND*%
X-54819999Y95149999D03*
%TD*%
%TO.P,C2,1*%
%TO.N,+3V3*%
X-49570000Y85300000D03*
%TO.P,C2,2*%
%TO.N,GND*%
X-49570000Y86260000D03*
%TD*%
D12*
%TO.P,C9,1*%
%TO.N,Net-(C9-Pad1)*%
X-46720000Y83660000D03*
%TO.P,C9,2*%
%TO.N,/RF_DET_IN+*%
X-46720000Y82700000D03*
%TD*%
D15*
%TO.P,U2,1,VPOS*%
%TO.N,Net-(C3-Pad2)*%
X-46245000Y79792500D03*
%TO.P,U2,2,INHI*%
%TO.N,/RF_DET_IN+*%
X-46895000Y79792500D03*
%TO.P,U2,3,INLO*%
%TO.N,/RF_DET_IN-*%
X-47545000Y79792500D03*
%TO.P,U2,4,VPOS*%
%TO.N,Net-(C4-Pad1)*%
X-48195000Y79792500D03*
%TO.P,U2,5,PWDN*%
%TO.N,GND*%
X-48195000Y75567500D03*
%TO.P,U2,6,COMM*%
X-47545000Y75567500D03*
%TO.P,U2,7,VSET*%
%TO.N,Net-(U2-VSET)*%
X-46895000Y75567500D03*
%TO.P,U2,8,VOUT*%
%TO.N,/RF_DET_OUT*%
X-46245000Y75567500D03*
%TD*%
D16*
%TO.P,R8,1*%
%TO.N,/RSSI_DSCHRG*%
X-56510000Y94080000D03*
%TO.P,R8,2*%
%TO.N,GND*%
X-57530000Y94080000D03*
%TD*%
D14*
%TO.P,M1,1*%
%TO.N,GND*%
X10160000Y50800000D03*
%TD*%
D12*
%TO.P,C3,1*%
%TO.N,GND*%
X-45720000Y82660000D03*
%TO.P,C3,2*%
%TO.N,Net-(C3-Pad2)*%
X-45720000Y81700000D03*
%TD*%
D14*
%TO.P,M3,1*%
%TO.N,GND*%
X10160000Y10160000D03*
%TD*%
D17*
%TO.P,SW1,1,B2*%
%TO.N,/MTL_HI_BIAS*%
X-51770000Y92930000D03*
%TO.P,SW1,2,GND*%
%TO.N,GND*%
X-52420000Y92930000D03*
%TO.P,SW1,3,B1*%
%TO.N,/MTL_LO_BIAS*%
X-53070000Y92930000D03*
%TO.P,SW1,4,A*%
%TO.N,/MTL_BIAS*%
X-53070000Y91030000D03*
%TO.P,SW1,5,VCC*%
%TO.N,+3V3*%
X-52420000Y91030000D03*
%TO.P,SW1,6,S*%
%TO.N,/PULSES*%
X-51770000Y91030000D03*
%TD*%
D18*
%TO.P,U3,1*%
%TO.N,/RF_LEVEL*%
X-56395000Y78630000D03*
%TO.P,U3,2,-*%
%TO.N,Net-(U3A--)*%
X-55745000Y78630000D03*
%TO.P,U3,3,+*%
%TO.N,/RF_DET_OUT*%
X-55095000Y78630000D03*
%TO.P,U3,4,V-*%
%TO.N,GND*%
X-54445000Y78630000D03*
%TO.P,U3,5,+*%
%TO.N,/RF_LEVEL*%
X-54445000Y83030000D03*
%TO.P,U3,6,-*%
%TO.N,/RSSI_PEAK*%
X-55095000Y83030000D03*
%TO.P,U3,7*%
%TO.N,Net-(D2-A)*%
X-55745000Y83030000D03*
%TO.P,U3,8,V+*%
%TO.N,+3V3*%
X-56395000Y83030000D03*
%TD*%
D19*
%TO.P,C15,1*%
%TO.N,GND*%
X-56100000Y89580000D03*
%TO.P,C15,2*%
%TO.N,/RSSI_HOLD*%
X-55140000Y89580000D03*
%TD*%
D20*
%TO.P,J2,1*%
%TO.N,GND*%
X-18421000Y22036800D03*
%TO.P,J2,2*%
X-15881000Y22036800D03*
%TO.P,J2,3*%
%TO.N,VCC*%
X-18421000Y19496800D03*
%TO.P,J2,4*%
X-15881000Y19496800D03*
%TO.P,J2,5*%
%TO.N,GND*%
X-18421000Y16956800D03*
%TO.P,J2,6*%
X-15881000Y16956800D03*
%TD*%
D11*
%TO.P,R4,1*%
%TO.N,/MTL_HI_BIAS*%
X-51820000Y94170000D03*
%TO.P,R4,2*%
%TO.N,/MTL_HI_PWM*%
X-51820000Y95190000D03*
%TD*%
D21*
%TO.P,R6,1*%
%TO.N,+3V3*%
X-56130000Y87480000D03*
%TO.P,R6,2*%
%TO.N,/PULSES*%
X-55110000Y87480000D03*
%TD*%
D12*
%TO.P,C14,1*%
%TO.N,GND*%
X-57420000Y93060000D03*
%TO.P,C14,2*%
%TO.N,+3V3*%
X-57420000Y92100000D03*
%TD*%
D22*
%TO.P,C7,1*%
%TO.N,/RF_IN*%
X-46140000Y94080000D03*
%TO.P,C7,2*%
%TO.N,/RF_SAW_IN*%
X-47100000Y94080000D03*
%TD*%
D11*
%TO.P,R2,1*%
%TO.N,+3V3*%
X-44820000Y79670000D03*
%TO.P,R2,2*%
%TO.N,Net-(C3-Pad2)*%
X-44820000Y80690000D03*
%TD*%
D13*
%TO.P,C5,1*%
%TO.N,+3V3*%
X-50420000Y91000000D03*
%TO.P,C5,2*%
%TO.N,GND*%
X-50420000Y91960000D03*
%TD*%
D23*
%TO.P,R7,1*%
%TO.N,Net-(U3A--)*%
X-52920000Y79590000D03*
%TO.P,R7,2*%
%TO.N,GND*%
X-52920000Y78570000D03*
%TD*%
D21*
%TO.P,R5,1*%
%TO.N,Net-(U2-VSET)*%
X-46730000Y73780000D03*
%TO.P,R5,2*%
%TO.N,/RF_DET_OUT*%
X-45710000Y73780000D03*
%TD*%
D19*
%TO.P,C13,1*%
%TO.N,GND*%
X-51900000Y79580000D03*
%TO.P,C13,2*%
%TO.N,+3V3*%
X-50940000Y79580000D03*
%TD*%
D24*
%TO.P,U4,1,VDD*%
%TO.N,+3V3*%
X-50970000Y80930000D03*
%TO.P,U4,2,VSS*%
%TO.N,GND*%
X-50970000Y81580000D03*
%TO.P,U4,3,SCL*%
%TO.N,/I2C1_SCL*%
X-50970000Y82230000D03*
%TO.P,U4,4,SDA*%
%TO.N,/I2C1_SDA*%
X-52870000Y82230000D03*
%TO.P,U4,5,B*%
%TO.N,/RF_LEVEL*%
X-52870000Y81580000D03*
%TO.P,U4,6,W*%
%TO.N,Net-(U3A--)*%
X-52870000Y80930000D03*
%TD*%
D25*
%TO.P,J1,1,In*%
%TO.N,/RF_IN*%
X-49020000Y96980000D03*
D26*
%TO.P,J1,2,Ext*%
%TO.N,GND*%
X-46480000Y99520000D03*
X-51560000Y99520000D03*
X-46480000Y94440000D03*
X-51560000Y94440000D03*
%TD*%
D11*
%TO.P,R1,1*%
%TO.N,/MTL_LO_BIAS*%
X-53820000Y94159999D03*
%TO.P,R1,2*%
%TO.N,/MTL_LO_PWM*%
X-53820000Y95179999D03*
%TD*%
D27*
%TO.P,U1,1,Vcc*%
%TO.N,+3V3*%
X-48270000Y84830000D03*
%TO.P,U1,2,G*%
%TO.N,GND*%
X-47620000Y84830000D03*
%TO.P,U1,3*%
%TO.N,Net-(C9-Pad1)*%
X-46970000Y84830000D03*
%TO.P,U1,4,G*%
%TO.N,GND*%
X-46970000Y86730000D03*
%TO.P,U1,5,G*%
X-47620000Y86730000D03*
%TO.P,U1,6*%
%TO.N,/RF_LNA_IN*%
X-48270000Y86730000D03*
%TD*%
D22*
%TO.P,C8,1*%
%TO.N,/RF_SAW_OUT*%
X-47340000Y87980000D03*
%TO.P,C8,2*%
%TO.N,/RF_LNA_IN*%
X-48300000Y87980000D03*
%TD*%
D17*
%TO.P,SW2,1,B2*%
%TO.N,/RSSI_PEAK*%
X-54770000Y92930000D03*
%TO.P,SW2,2,GND*%
%TO.N,GND*%
X-55420000Y92930000D03*
%TO.P,SW2,3,B1*%
%TO.N,/RSSI_DSCHRG*%
X-56070000Y92930000D03*
%TO.P,SW2,4,A*%
%TO.N,/RSSI_HOLD*%
X-56070000Y91030000D03*
%TO.P,SW2,5,VCC*%
%TO.N,+3V3*%
X-55420000Y91030000D03*
%TO.P,SW2,6,S*%
%TO.N,/DECODE*%
X-54770000Y91030000D03*
%TD*%
D22*
%TO.P,C12,1*%
%TO.N,+3V3*%
X-55140000Y88480000D03*
%TO.P,C12,2*%
%TO.N,GND*%
X-56100000Y88480000D03*
%TD*%
D28*
%TO.P,D2,1,K*%
%TO.N,/RSSI_PEAK*%
X-52570000Y85680000D03*
%TO.P,D2,2,A*%
%TO.N,Net-(D2-A)*%
X-55870000Y85680000D03*
%TD*%
D29*
%TO.P,L1,1,1*%
%TO.N,/RF_DET_IN+*%
X-46735000Y81680000D03*
%TO.P,L1,2,2*%
%TO.N,/RF_DET_IN-*%
X-47705000Y81680000D03*
%TD*%
D13*
%TO.P,C4,1*%
%TO.N,Net-(C4-Pad1)*%
X-48720000Y81700000D03*
%TO.P,C4,2*%
%TO.N,GND*%
X-48720000Y82660000D03*
%TD*%
D27*
%TO.P,U5,1*%
%TO.N,/PULSES*%
X-53769999Y87630000D03*
%TO.P,U5,2,V-*%
%TO.N,GND*%
X-53119999Y87630000D03*
%TO.P,U5,3,+*%
%TO.N,/RF_LEVEL*%
X-52469999Y87630000D03*
%TO.P,U5,4,-*%
%TO.N,/MTL_BIAS*%
X-52469999Y89530000D03*
%TO.P,U5,5,V+*%
%TO.N,+3V3*%
X-53769999Y89530000D03*
%TD*%
D14*
%TO.P,M2,1*%
%TO.N,GND*%
X50800000Y50800000D03*
%TD*%
D12*
%TO.P,C10,1*%
%TO.N,GND*%
X-47720000Y83660000D03*
%TO.P,C10,2*%
%TO.N,/RF_DET_IN-*%
X-47720000Y82700000D03*
%TD*%
D30*
%TO.P,X1,1,GND*%
%TO.N,GND*%
X-46050000Y92060000D03*
D31*
%TO.P,X1,2,IN*%
%TO.N,/RF_SAW_IN*%
X-47320000Y92515000D03*
%TO.P,X1,3,GND*%
%TO.N,GND*%
X-48590000Y92515000D03*
%TO.P,X1,4,GND*%
X-48590000Y89445000D03*
%TO.P,X1,5,OUT*%
%TO.N,/RF_SAW_OUT*%
X-47320000Y89445000D03*
%TO.P,X1,6,GND*%
%TO.N,GND*%
X-46050000Y89445000D03*
%TD*%
D32*
%TO.N,+3V3*%
X-43420000Y79680000D03*
X-49520000Y85280000D03*
X-50420000Y90980000D03*
X-50940000Y79580000D03*
X-57920000Y83080000D03*
X-55120000Y88380000D03*
X-56725087Y91878866D03*
X-56820000Y86480000D03*
%TO.N,GND*%
X-47120000Y98080000D03*
X-48720000Y82680000D03*
X-56820000Y85280000D03*
X-53620000Y96080000D03*
X-45520000Y85480000D03*
X-49120000Y86880000D03*
X-49620000Y92080000D03*
X-55020000Y85280000D03*
X-51720000Y96080000D03*
X-45020000Y78480000D03*
X-49020000Y78480000D03*
X-48020000Y78480000D03*
X-46220000Y86680000D03*
X-58520000Y85180000D03*
X-44720000Y97280000D03*
X-44720000Y95680000D03*
X-45720000Y82680000D03*
X-48620000Y94080000D03*
X-48420000Y89180000D03*
X-48620000Y92480000D03*
X-47020000Y78480000D03*
X-44820000Y94080000D03*
X-49620000Y90980000D03*
X-49020000Y83980000D03*
X-47420000Y90980000D03*
X-53620000Y92080000D03*
X-52420000Y93080000D03*
X-46420000Y92080000D03*
X-49620000Y94080000D03*
X-45520000Y83480000D03*
X-46020000Y89180000D03*
X-51620000Y92080000D03*
X-64020000Y94680000D03*
X-45520000Y84480000D03*
X-46320000Y87980000D03*
X-56720000Y90580000D03*
X-48620000Y90980000D03*
X-44820000Y90880000D03*
X-48220000Y75580000D03*
X-46020000Y78480000D03*
X-52920000Y78580000D03*
X-54820000Y95180000D03*
%TO.N,/MTL_HI_BIAS*%
X-59520000Y96380000D03*
%TO.N,/RF_DET_OUT*%
X-45720000Y73780000D03*
%TO.N,/MTL_LO_BIAS*%
X-59520000Y98480000D03*
%TO.N,/I2C1_SDA*%
X-61720000Y81080000D03*
%TO.N,/I2C1_SCL*%
X-58920000Y81780000D03*
%TO.N,/MTL_BIAS*%
X-49320000Y88280000D03*
X-53120000Y90280000D03*
%TO.N,/RSSI_HOLD*%
X-59620000Y92180000D03*
%TO.N,/RF_LEVEL*%
X-54420000Y80205000D03*
X-58120000Y78180000D03*
X-54445000Y83035000D03*
%TO.N,/RSSI_PEAK*%
X-53645000Y85691701D03*
X-54720000Y92880000D03*
%TD*%
D33*
%TO.N,+3V3*%
X-54320000Y89499220D02*
X-54320000Y89530000D01*
X-54320000Y89530000D02*
X-53769999Y89530000D01*
X-55943868Y91878866D02*
X-55420000Y91354999D01*
X-43430000Y79670000D02*
X-43420000Y79680000D01*
D34*
X-52194999Y91580000D02*
X-51000000Y91580000D01*
D33*
X-48740000Y85300000D02*
X-48270000Y84830000D01*
D34*
X-52420000Y91354999D02*
X-52194999Y91580000D01*
D33*
X-55140000Y88480000D02*
X-55140000Y88679220D01*
X-56725087Y91878866D02*
X-57198866Y91878866D01*
X-55140000Y88679220D02*
X-54320000Y89499220D01*
X-49620000Y79670000D02*
X-50850000Y79670000D01*
X-55420000Y91354999D02*
X-55420000Y91030000D01*
X-49500000Y85300000D02*
X-48740000Y85300000D01*
D34*
X-51000000Y91580000D02*
X-50420000Y91000000D01*
X-52420000Y91030000D02*
X-52420000Y91354999D01*
D33*
X-56130000Y87480000D02*
X-56130000Y87170000D01*
X-50940000Y79580000D02*
X-50940000Y80900000D01*
X-57198866Y91878866D02*
X-57420000Y92100000D01*
X-57920000Y83060000D02*
X-56425000Y83060000D01*
X-56725087Y91878866D02*
X-55943868Y91878866D01*
X-44820000Y79670000D02*
X-43430000Y79670000D01*
X-56130000Y87170000D02*
X-56820000Y86480000D01*
%TO.N,GND*%
X-64050000Y94710000D02*
X-64020000Y94680000D01*
X-64620000Y94710000D02*
X-64050000Y94710000D01*
D34*
%TO.N,/MTL_HI_BIAS*%
X-55395000Y93755000D02*
X-55295000Y93655000D01*
X-55395000Y94255000D02*
X-55395000Y93755000D01*
X-53318959Y92380000D02*
X-51921041Y92380000D01*
X-57044264Y96580000D02*
X-55885261Y95420997D01*
X-51921041Y92380000D02*
X-51770000Y92531041D01*
X-59520000Y96380000D02*
X-59320000Y96580000D01*
X-55885261Y94745261D02*
X-55395000Y94255000D01*
X-51770000Y92531041D02*
X-51770000Y92930000D01*
X-55885261Y95420997D02*
X-55885261Y94745261D01*
X-59320000Y96580000D02*
X-57044264Y96580000D01*
X-55295000Y93655000D02*
X-54593959Y93655000D01*
X-54593959Y93655000D02*
X-53318959Y92380000D01*
D35*
%TO.N,/RF_IN*%
X-47495000Y96980000D02*
X-46020000Y96980000D01*
%TO.N,/RF_SAW_OUT*%
X-47320000Y89445000D02*
X-47320000Y88000000D01*
X-47320000Y88000000D02*
X-47340000Y87980000D01*
%TO.N,/RF_LNA_IN*%
X-48270000Y87950000D02*
X-48300000Y87980000D01*
X-48270000Y86730000D02*
X-48270000Y87950000D01*
D34*
%TO.N,/RF_DET_OUT*%
X-46245000Y75567500D02*
X-46245000Y76379999D01*
X-46245000Y75567500D02*
X-46245000Y74314999D01*
X-54420000Y76980000D02*
X-55095000Y77655000D01*
X-55095000Y77655000D02*
X-55095000Y78630000D01*
X-46245000Y76379999D02*
X-46845001Y76980000D01*
X-46845001Y76980000D02*
X-54420000Y76980000D01*
X-46245000Y74314999D02*
X-45720000Y73789999D01*
%TO.N,/MTL_LO_BIAS*%
X-59520000Y98480000D02*
X-59520000Y96880000D01*
X-56920000Y96880000D02*
X-55354999Y95314999D01*
X-55354999Y94724999D02*
X-54819999Y94189999D01*
X-53070000Y93409999D02*
X-53820000Y94159999D01*
X-53070000Y92930000D02*
X-53070000Y93409999D01*
X-54819999Y94189999D02*
X-53850000Y94189999D01*
X-59520000Y96880000D02*
X-56920000Y96880000D01*
X-55354999Y95314999D02*
X-55354999Y94724999D01*
D36*
%TO.N,/RF_DET_IN-*%
X-47545000Y79792500D02*
X-47545000Y81520000D01*
X-47720000Y82700000D02*
X-47720000Y81695000D01*
%TO.N,/RF_DET_IN+*%
X-46720000Y82700000D02*
X-46720000Y81695000D01*
X-46895000Y79792500D02*
X-46895000Y81520000D01*
D34*
%TO.N,/PULSES*%
X-50420000Y89480000D02*
X-50420000Y88580000D01*
X-51570000Y89880000D02*
X-50820000Y89880000D01*
X-51770000Y90080000D02*
X-51570000Y89880000D01*
X-53320000Y88380000D02*
X-53769999Y87930001D01*
X-50620000Y88380000D02*
X-53320000Y88380000D01*
X-50420000Y88580000D02*
X-50620000Y88380000D01*
X-53769999Y87630000D02*
X-54960000Y87630000D01*
X-50820000Y89880000D02*
X-50420000Y89480000D01*
X-53769999Y87930001D02*
X-53769999Y87630000D01*
X-51770000Y90830000D02*
X-51770000Y90080000D01*
%TO.N,/I2C1_SDA*%
X-60991429Y80208571D02*
X-60717857Y79935000D01*
X-59110001Y80780000D02*
X-54644999Y80780000D01*
X-59955001Y79935000D02*
X-59110001Y80780000D01*
X-60991429Y81080000D02*
X-60991429Y80208571D01*
X-53194999Y82230000D02*
X-52870000Y82230000D01*
X-60717857Y79935000D02*
X-59955001Y79935000D01*
X-60991429Y81080000D02*
X-61720000Y81080000D01*
X-54644999Y80780000D02*
X-53194999Y82230000D01*
%TO.N,/I2C1_SCL*%
X-50970000Y82230000D02*
X-51470000Y82230000D01*
X-59410001Y81480000D02*
X-59220000Y81480000D01*
X-51470000Y82230000D02*
X-51920000Y82680000D01*
X-59020000Y81080000D02*
X-54995000Y81080000D01*
X-59410001Y81470001D02*
X-59020000Y81080000D01*
X-59410001Y81480000D02*
X-59410001Y81470001D01*
X-54995000Y81080000D02*
X-53395000Y82680000D01*
X-53395000Y82680000D02*
X-51920000Y82680000D01*
X-59220000Y81480000D02*
X-58920000Y81780000D01*
%TO.N,/MTL_BIAS*%
X-53070000Y90130001D02*
X-52469999Y89530000D01*
X-53070000Y91030000D02*
X-53070000Y90330000D01*
X-53070000Y90330000D02*
X-53120000Y90280000D01*
X-53120000Y90280000D02*
X-53070000Y90230000D01*
X-53070000Y90230000D02*
X-53070000Y90130001D01*
%TO.N,/RSSI_HOLD*%
X-59620000Y92180000D02*
X-58605000Y91165000D01*
X-55140000Y89580000D02*
X-56070000Y90510000D01*
X-56070000Y90510000D02*
X-56070000Y91030000D01*
X-56205000Y91165000D02*
X-56070000Y91030000D01*
X-58605000Y91165000D02*
X-56205000Y91165000D01*
%TO.N,/RF_LEVEL*%
X-56395000Y79805000D02*
X-56020000Y80180000D01*
X-51195000Y86756041D02*
X-52068959Y87630000D01*
X-58120000Y78180000D02*
X-57670000Y78630000D01*
X-56395000Y78630000D02*
X-56395000Y79805000D01*
X-54420000Y80180000D02*
X-53020000Y81580000D01*
X-54445000Y83035000D02*
X-54445000Y83955000D01*
X-57670000Y78630000D02*
X-56395000Y78630000D01*
X-52068959Y87630000D02*
X-52469999Y87630000D01*
X-56020000Y80180000D02*
X-54420000Y80180000D01*
X-51195000Y85103959D02*
X-51195000Y86756041D01*
X-54020000Y84380000D02*
X-51918959Y84380000D01*
X-51918959Y84380000D02*
X-51195000Y85103959D01*
X-54445000Y83955000D02*
X-54020000Y84380000D01*
%TO.N,/RSSI_PEAK*%
X-55095000Y83905000D02*
X-53645000Y85355000D01*
X-53645000Y85691701D02*
X-52581701Y85691701D01*
X-55095000Y83030000D02*
X-55095000Y83905000D01*
X-53645000Y85355000D02*
X-53645000Y85691701D01*
%TO.N,/RSSI_DSCHRG*%
X-56510000Y93370000D02*
X-56070000Y92930000D01*
X-56510000Y94080000D02*
X-56510000Y93370000D01*
D33*
%TO.N,Net-(C3-Pad2)*%
X-45717499Y79792500D02*
X-44820000Y80689999D01*
X-46245000Y79792500D02*
X-45717499Y79792500D01*
X-45720000Y81589999D02*
X-44820000Y80689999D01*
%TO.N,Net-(C4-Pad1)*%
X-48195000Y79792500D02*
X-48722501Y79792500D01*
X-48720000Y81589999D02*
X-49620000Y80689999D01*
X-48722501Y79792500D02*
X-49620000Y80689999D01*
D35*
%TO.N,Net-(C9-Pad1)*%
X-46720000Y83660000D02*
X-46720000Y84580000D01*
X-46720000Y84580000D02*
X-46970000Y84830000D01*
D34*
%TO.N,Net-(D2-A)*%
X-55745000Y83030000D02*
X-55745000Y85555000D01*
%TO.N,Net-(U2-VSET)*%
X-46895000Y75567500D02*
X-46895000Y73945001D01*
%TO.N,Net-(U3A--)*%
X-55745000Y79505000D02*
X-55470000Y79780000D01*
X-52870000Y80930000D02*
X-52870000Y79639999D01*
X-55745000Y78630000D02*
X-55745000Y79505000D01*
X-55470000Y79780000D02*
X-53110001Y79780000D01*
%TD*%
%TA.AperFunction,Conductor*%
%TO.N,GND*%
G36*
X55603826Y54608726D02*
G01*
X55625500Y54556400D01*
X55625500Y5408501D01*
X55603826Y5356175D01*
X55551500Y5334501D01*
X5408500Y5334501D01*
X5356174Y5356175D01*
X5334500Y5408501D01*
X5334500Y54556400D01*
X5356174Y54608726D01*
X5408500Y54630400D01*
X55551500Y54630400D01*
X55603826Y54608726D01*
G37*
%TD.AperFunction*%
%TD*%
M02*
